%TF.GenerationSoftware,KiCad,Pcbnew,7.0.9*%
%TF.CreationDate,2024-03-28T09:14:24+03:00*%
%TF.ProjectId,MicroFlightController-v2,4d696372-6f46-46c6-9967-6874436f6e74,rev?*%
%TF.SameCoordinates,Original*%
%TF.FileFunction,Copper,L3,Inr*%
%TF.FilePolarity,Positive*%
%FSLAX46Y46*%
G04 Gerber Fmt 4.6, Leading zero omitted, Abs format (unit mm)*
G04 Created by KiCad (PCBNEW 7.0.9) date 2024-03-28 09:14:24*
%MOMM*%
%LPD*%
G01*
G04 APERTURE LIST*
%TA.AperFunction,ComponentPad*%
%ADD10R,1.000000X1.000000*%
%TD*%
%TA.AperFunction,ComponentPad*%
%ADD11O,1.000000X1.000000*%
%TD*%
%TA.AperFunction,ComponentPad*%
%ADD12C,0.800000*%
%TD*%
%TA.AperFunction,ComponentPad*%
%ADD13C,6.400000*%
%TD*%
%TA.AperFunction,ComponentPad*%
%ADD14O,1.000000X2.100000*%
%TD*%
%TA.AperFunction,ComponentPad*%
%ADD15O,1.000000X1.600000*%
%TD*%
%TA.AperFunction,ViaPad*%
%ADD16C,0.450000*%
%TD*%
%TA.AperFunction,Conductor*%
%ADD17C,0.300000*%
%TD*%
%TA.AperFunction,Conductor*%
%ADD18C,0.152400*%
%TD*%
%TA.AperFunction,Conductor*%
%ADD19C,0.250000*%
%TD*%
G04 APERTURE END LIST*
D10*
%TO.N,GND*%
%TO.C,J8*%
X160825000Y-87075000D03*
D11*
%TO.N,/MCU/PC6*%
X160825000Y-85805000D03*
%TO.N,/MCU/PC7*%
X160825000Y-84535000D03*
%TO.N,+5V*%
X160825000Y-83265000D03*
%TD*%
D12*
%TO.N,N/C*%
%TO.C,REF\u002A\u002A*%
X163600000Y-81000000D03*
X164302944Y-79302944D03*
X164302944Y-82697056D03*
X166000000Y-78600000D03*
D13*
X166000000Y-81000000D03*
D12*
X166000000Y-83400000D03*
X167697056Y-79302944D03*
X167697056Y-82697056D03*
X168400000Y-81000000D03*
%TD*%
D10*
%TO.N,GND*%
%TO.C,J7*%
X153175000Y-82790000D03*
D11*
%TO.N,/MCU/PA9*%
X154445000Y-82790000D03*
%TO.N,/MCU/PA10*%
X155715000Y-82790000D03*
%TO.N,+5V*%
X156985000Y-82790000D03*
%TD*%
D14*
%TO.N,Net-(J1-SHIELD)*%
%TO.C,J1*%
X144070000Y-109310000D03*
D15*
X144070000Y-113490000D03*
D14*
X152710000Y-109310000D03*
D15*
X152710000Y-113490000D03*
%TD*%
D12*
%TO.N,N/C*%
%TO.C,REF\u002A\u002A*%
X163600000Y-115000000D03*
X164302944Y-113302944D03*
X164302944Y-116697056D03*
X166000000Y-112600000D03*
D13*
X166000000Y-115000000D03*
D12*
X166000000Y-117400000D03*
X167697056Y-113302944D03*
X167697056Y-116697056D03*
X168400000Y-115000000D03*
%TD*%
D10*
%TO.N,VBAT*%
%TO.C,J10*%
X161975000Y-112550000D03*
D11*
%TO.N,Net-(D9-A)*%
X161975000Y-111280000D03*
%TD*%
D10*
%TO.N,GND*%
%TO.C,J6*%
X141465000Y-83000000D03*
D11*
%TO.N,/MCU/PC10*%
X142735000Y-83000000D03*
%TO.N,/MCU/PC11*%
X144005000Y-83000000D03*
%TO.N,+5V*%
X145275000Y-83000000D03*
%TD*%
D12*
%TO.N,N/C*%
%TO.C,REF\u002A\u002A*%
X128600000Y-81000000D03*
X129302944Y-79302944D03*
X129302944Y-82697056D03*
X131000000Y-78600000D03*
D13*
X131000000Y-81000000D03*
D12*
X131000000Y-83400000D03*
X132697056Y-79302944D03*
X132697056Y-82697056D03*
X133400000Y-81000000D03*
%TD*%
D10*
%TO.N,VBAT*%
%TO.C,J3*%
X139410000Y-113320000D03*
D11*
%TO.N,GND*%
X140680000Y-113320000D03*
%TD*%
D10*
%TO.N,+3.3V*%
%TO.C,J2*%
X155380000Y-113680000D03*
D11*
%TO.N,/MCU/NRST*%
X155380000Y-112410000D03*
%TO.N,/MCU/SWDIO*%
X155380000Y-111140000D03*
%TO.N,/MCU/SWCLK*%
X155380000Y-109870000D03*
%TO.N,GND*%
X155380000Y-108600000D03*
%TD*%
D10*
%TO.N,+5V*%
%TO.C,J5*%
X132675000Y-88905000D03*
D11*
%TO.N,GND*%
X132675000Y-90175000D03*
%TD*%
D10*
%TO.N,VBAT*%
%TO.C,J9*%
X132450000Y-110675000D03*
D11*
%TO.N,Net-(D8-A)*%
X133720000Y-110675000D03*
%TD*%
D10*
%TO.N,VBAT*%
%TO.C,J11*%
X132660000Y-85200000D03*
D11*
%TO.N,Net-(D10-A)*%
X132660000Y-86470000D03*
%TD*%
D12*
%TO.N,N/C*%
%TO.C,REF\u002A\u002A*%
X128600000Y-115000000D03*
X129302944Y-113302944D03*
X129302944Y-116697056D03*
X131000000Y-112600000D03*
D13*
X131000000Y-115000000D03*
D12*
X131000000Y-117400000D03*
X132697056Y-113302944D03*
X132697056Y-116697056D03*
X133400000Y-115000000D03*
%TD*%
D10*
%TO.N,GND*%
%TO.C,J4*%
X132700000Y-92610000D03*
D11*
%TO.N,/MCU/PB14*%
X132700000Y-93880000D03*
%TO.N,+5V*%
X132700000Y-95150000D03*
%TD*%
D10*
%TO.N,VBAT*%
%TO.C,J12*%
X164175000Y-87050000D03*
D11*
%TO.N,Net-(D11-A)*%
X164175000Y-85780000D03*
%TD*%
D16*
%TO.N,/MCU/NRST*%
X141840000Y-84510000D03*
X145450700Y-86750000D03*
%TO.N,GND*%
X135140000Y-108610000D03*
X156460000Y-96170000D03*
X154310000Y-99770000D03*
X137890000Y-93410000D03*
X146600000Y-90800000D03*
X141000000Y-89250000D03*
X139390000Y-86050000D03*
X134240000Y-96190000D03*
X142630000Y-99910000D03*
X139250000Y-89000000D03*
X138560000Y-84150000D03*
X137130000Y-103120000D03*
X156460000Y-95560000D03*
X135200000Y-104770000D03*
X139407669Y-84472331D03*
X141140000Y-84200000D03*
X137160000Y-93410000D03*
X153660000Y-99790000D03*
X147630000Y-82770000D03*
X156480000Y-96790000D03*
X135724999Y-105176800D03*
X148300000Y-82760000D03*
X151390000Y-87700000D03*
X137140000Y-103710000D03*
X141870000Y-86890000D03*
X159410000Y-85200000D03*
X160680000Y-88720000D03*
X160020000Y-88710000D03*
X144640000Y-98080000D03*
X136140000Y-105650000D03*
X147800000Y-90800000D03*
X147200000Y-91000000D03*
X163730000Y-100650000D03*
X150010000Y-86880000D03*
X164070000Y-107700000D03*
X164698000Y-107700000D03*
X135130000Y-109300000D03*
X140870000Y-86870000D03*
X160030000Y-90170000D03*
X142610000Y-99210000D03*
X147220000Y-90270000D03*
X153030000Y-86420000D03*
X139420000Y-103290000D03*
X163410000Y-107680000D03*
X155080000Y-83840000D03*
X137100000Y-94200000D03*
X150980000Y-97590000D03*
X146970000Y-82760000D03*
X160040000Y-89470000D03*
X137070000Y-108310000D03*
X163610000Y-110015000D03*
X163720000Y-99870000D03*
X137900000Y-94200000D03*
%TO.N,VBUS*%
X135770000Y-114480000D03*
X150840000Y-108395000D03*
X145940000Y-108395000D03*
X145925000Y-106555000D03*
X131750000Y-101840000D03*
X137410000Y-114440000D03*
X144600000Y-105875000D03*
X142400000Y-109420000D03*
X141030000Y-108470000D03*
X144600000Y-104210000D03*
X134920000Y-107650000D03*
%TO.N,/MCU/BOOT0*%
X161535500Y-96820000D03*
X158640000Y-110760000D03*
%TO.N,+3.3V*%
X152450000Y-85760000D03*
X142895000Y-86095000D03*
X152700000Y-102685000D03*
X140775000Y-85095000D03*
X156480000Y-108310000D03*
X158075000Y-85075000D03*
X136890000Y-82870000D03*
X139275000Y-99100000D03*
X136550000Y-96820000D03*
X137930000Y-89725000D03*
X141180000Y-92060000D03*
X131673100Y-104910000D03*
X134860000Y-92330000D03*
X133810000Y-101850000D03*
X162560000Y-98070000D03*
X163610000Y-95730000D03*
X155390000Y-106350000D03*
%TO.N,VIN*%
X162200000Y-109300000D03*
X159600000Y-108500000D03*
X139130000Y-108470000D03*
X141300000Y-105890000D03*
X160740000Y-107057500D03*
X162590000Y-102200000D03*
%TO.N,+5V*%
X157870000Y-102600000D03*
X162310000Y-90620000D03*
X156260000Y-102600000D03*
X161950000Y-86880000D03*
%TO.N,/Battery Charger/VREF*%
X139540000Y-104410000D03*
X131640000Y-107070000D03*
X134390000Y-103650000D03*
%TO.N,/MCU/SWDIO*%
X150810000Y-104780000D03*
%TO.N,VBAT*%
X140100000Y-110300000D03*
X142400000Y-111400000D03*
X140110000Y-106860000D03*
X135700000Y-102700000D03*
X160779998Y-93317494D03*
X163050000Y-88960000D03*
%TO.N,/MCU/PB14*%
X146250000Y-102580000D03*
%TO.N,/MCU/PC10*%
X152858626Y-97375350D03*
%TO.N,/MCU/PC11*%
X153160000Y-96800000D03*
%TO.N,/MCU/PA9*%
X149986164Y-98585779D03*
%TO.N,/MCU/PA10*%
X150460000Y-99030000D03*
%TO.N,/MCU/PA3*%
X138600000Y-90760000D03*
%TO.N,/MCU/PB0*%
X144720000Y-93410000D03*
%TO.N,/MCU/PA1*%
X156950000Y-99880000D03*
X151890000Y-97990000D03*
X154980000Y-105710000D03*
%TO.N,/MCU/PB5*%
X157360000Y-94540700D03*
%TO.N,Net-(Q3-C)*%
X164310000Y-89320000D03*
%TO.N,/Baro/SCL*%
X140750000Y-101045000D03*
X140860000Y-102758300D03*
%TO.N,/Buck Boost Converter/VBAT-MESAURE*%
X149220000Y-90800000D03*
X142440000Y-113390000D03*
%TO.N,/MCU/PB8*%
X162760000Y-95160000D03*
%TO.N,/MCU/PB6*%
X158889582Y-91995597D03*
X158890000Y-93770000D03*
%TO.N,/Flash/MOSI*%
X147010000Y-87070000D03*
X144500000Y-87640000D03*
%TO.N,/Flash/MISO*%
X143908810Y-88786547D03*
X147286556Y-87657682D03*
%TO.N,/MCU/PA4*%
X144490000Y-92540000D03*
X140100000Y-93570000D03*
%TO.N,/MCU/PA6*%
X140538257Y-94110700D03*
X134550000Y-93370000D03*
%TO.N,/MCU/PA7*%
X141110000Y-94660000D03*
X141130951Y-93109300D03*
%TO.N,/MCU/PC4*%
X135010000Y-95670000D03*
X140560000Y-95210000D03*
%TO.N,/Flash/CS*%
X139210000Y-87990000D03*
X146219300Y-98160000D03*
%TO.N,/Flash/CLK*%
X143840000Y-88140700D03*
X146720000Y-98630000D03*
%TO.N,/MCU/PC6*%
X148116984Y-102475191D03*
%TO.N,/MCU/PC7*%
X148470000Y-101930000D03*
%TD*%
D17*
%TO.N,VBUS*%
X144600000Y-105875000D02*
X144600000Y-107110000D01*
X142420000Y-109400000D02*
X142400000Y-109420000D01*
X135770000Y-114480000D02*
X137370000Y-114480000D01*
X145940000Y-108395000D02*
X150840000Y-108395000D01*
X144200000Y-107510000D02*
X142750000Y-107510000D01*
X137360000Y-107650000D02*
X134920000Y-107650000D01*
X138460000Y-109420000D02*
X138230000Y-109190000D01*
X145925000Y-106065000D02*
X145735000Y-105875000D01*
X138230000Y-114070000D02*
X138230000Y-109690000D01*
X145735000Y-105875000D02*
X144600000Y-105875000D01*
D18*
X131750000Y-101840000D02*
X131760000Y-101850000D01*
D17*
X138230000Y-109690000D02*
X138230000Y-109190000D01*
X145925000Y-108380000D02*
X145940000Y-108395000D01*
X144600000Y-107110000D02*
X144200000Y-107510000D01*
D18*
X132731904Y-105260000D02*
X134440000Y-105260000D01*
D17*
X142420000Y-107840000D02*
X142420000Y-109400000D01*
D18*
X131760000Y-104288096D02*
X132731904Y-105260000D01*
D17*
X138500000Y-109420000D02*
X138620000Y-109420000D01*
D18*
X131760000Y-101850000D02*
X131760000Y-104288096D01*
X134440000Y-105260000D02*
X134920000Y-105740000D01*
D17*
X144600000Y-105875000D02*
X144600000Y-104210000D01*
X145925000Y-106555000D02*
X145925000Y-106065000D01*
X141280000Y-109420000D02*
X141030000Y-109170000D01*
D18*
X134920000Y-105740000D02*
X134920000Y-107650000D01*
D17*
X138230000Y-109190000D02*
X138230000Y-108520000D01*
X138620000Y-109420000D02*
X140750000Y-109420000D01*
X142400000Y-109420000D02*
X141280000Y-109420000D01*
X142750000Y-107510000D02*
X142420000Y-107840000D01*
X137370000Y-114480000D02*
X137410000Y-114440000D01*
X141030000Y-109170000D02*
X140780000Y-109420000D01*
X140750000Y-109420000D02*
X141280000Y-109420000D01*
X145925000Y-106555000D02*
X145925000Y-108380000D01*
X138230000Y-109690000D02*
X138500000Y-109420000D01*
X138500000Y-109420000D02*
X138460000Y-109420000D01*
X138230000Y-108520000D02*
X137360000Y-107650000D01*
X137860000Y-114440000D02*
X138230000Y-114070000D01*
X140780000Y-109420000D02*
X140750000Y-109420000D01*
X137410000Y-114440000D02*
X137860000Y-114440000D01*
X141030000Y-109170000D02*
X141030000Y-108470000D01*
D19*
%TO.N,+3.3V*%
X150310000Y-86130000D02*
X150680000Y-85760000D01*
X136890000Y-82870000D02*
X137460000Y-82870000D01*
D17*
X155390000Y-106350000D02*
X161040000Y-106350000D01*
D19*
X150680000Y-85760000D02*
X152450000Y-85760000D01*
D17*
X163610000Y-97450000D02*
X163610000Y-96240000D01*
X155380000Y-113680000D02*
X155910000Y-113680000D01*
D19*
X139130000Y-96820000D02*
X139130000Y-96795000D01*
X138220000Y-84980000D02*
X137930000Y-84690000D01*
D17*
X163625000Y-96225000D02*
X163625000Y-88721827D01*
X156280000Y-113310000D02*
X156480000Y-113110000D01*
X158480000Y-88050000D02*
X158075000Y-87645000D01*
D19*
X139130000Y-96820000D02*
X136550000Y-96820000D01*
D18*
X136550000Y-92470000D02*
X136550000Y-96820000D01*
D17*
X138930000Y-101850000D02*
X139290000Y-101490000D01*
D19*
X138220000Y-85095000D02*
X140350000Y-85095000D01*
X137995000Y-85095000D02*
X138220000Y-85095000D01*
X140350000Y-85095000D02*
X140775000Y-85095000D01*
D18*
X134860000Y-92330000D02*
X136410000Y-92330000D01*
D17*
X152700000Y-105750000D02*
X152700000Y-102685000D01*
X139275000Y-101475000D02*
X139275000Y-99100000D01*
D19*
X139275000Y-99100000D02*
X139275000Y-96965000D01*
D18*
X136410000Y-92330000D02*
X136550000Y-92470000D01*
D19*
X137930000Y-85360000D02*
X137930000Y-85160000D01*
X137460000Y-82870000D02*
X137930000Y-83340000D01*
X139275000Y-96965000D02*
X139130000Y-96820000D01*
D17*
X158075000Y-87645000D02*
X158075000Y-85075000D01*
D19*
X139275000Y-96965000D02*
X139275000Y-96650000D01*
D17*
X152655000Y-85075000D02*
X152450000Y-85280000D01*
X162990000Y-98070000D02*
X163610000Y-97450000D01*
D19*
X140250000Y-89790000D02*
X137995000Y-89790000D01*
D17*
X155390000Y-106350000D02*
X153300000Y-106350000D01*
X161040000Y-106350000D02*
X161650000Y-105740000D01*
D19*
X139275000Y-96650000D02*
X139275000Y-92715000D01*
D17*
X155910000Y-113680000D02*
X156280000Y-113310000D01*
D19*
X141180000Y-90720000D02*
X140250000Y-89790000D01*
X137930000Y-83340000D02*
X137930000Y-84690000D01*
D17*
X153300000Y-106350000D02*
X152700000Y-105750000D01*
D19*
X139930000Y-92060000D02*
X141180000Y-92060000D01*
D17*
X152450000Y-85280000D02*
X152450000Y-85760000D01*
X163610000Y-96240000D02*
X163625000Y-96225000D01*
X161650000Y-98440000D02*
X162020000Y-98070000D01*
D19*
X141180000Y-92060000D02*
X141180000Y-90720000D01*
D17*
X162020000Y-98070000D02*
X162990000Y-98070000D01*
X162020000Y-98070000D02*
X162560000Y-98070000D01*
D18*
X140770000Y-85090000D02*
X140775000Y-85095000D01*
D19*
X142880000Y-85350000D02*
X142880000Y-86130000D01*
D17*
X156480000Y-113110000D02*
X156480000Y-108310000D01*
D19*
X140350000Y-85095000D02*
X142635000Y-85095000D01*
D17*
X158075000Y-85075000D02*
X152655000Y-85075000D01*
D19*
X142885000Y-85345000D02*
X142880000Y-85350000D01*
X137995000Y-89790000D02*
X137930000Y-89725000D01*
X138195000Y-85095000D02*
X137930000Y-85360000D01*
X142635000Y-85095000D02*
X142885000Y-85345000D01*
D17*
X161650000Y-105740000D02*
X161650000Y-98440000D01*
D19*
X137930000Y-85160000D02*
X137930000Y-84690000D01*
X142880000Y-86130000D02*
X150310000Y-86130000D01*
D17*
X133810000Y-101850000D02*
X138930000Y-101850000D01*
X163625000Y-88721827D02*
X162953173Y-88050000D01*
X162953173Y-88050000D02*
X158480000Y-88050000D01*
X163610000Y-96240000D02*
X163610000Y-95730000D01*
D19*
X139275000Y-92715000D02*
X139930000Y-92060000D01*
X138220000Y-85095000D02*
X138220000Y-84980000D01*
X137930000Y-85160000D02*
X137995000Y-85095000D01*
X137930000Y-89725000D02*
X137930000Y-85360000D01*
D17*
X139290000Y-101490000D02*
X139275000Y-101475000D01*
D19*
X138220000Y-85095000D02*
X138195000Y-85095000D01*
X139130000Y-96795000D02*
X139275000Y-96650000D01*
D17*
%TO.N,VIN*%
X139890000Y-105890000D02*
X139130000Y-106650000D01*
X141300000Y-105890000D02*
X142450000Y-105890000D01*
X162590000Y-106160000D02*
X162590000Y-102200000D01*
X146920000Y-104180000D02*
X146920000Y-106460000D01*
X147517500Y-107057500D02*
X160740000Y-107057500D01*
X139130000Y-106650000D02*
X139130000Y-108470000D01*
X142450000Y-105890000D02*
X143260000Y-105080000D01*
X161692500Y-107057500D02*
X162590000Y-106160000D01*
X143260000Y-103860000D02*
X143820000Y-103300000D01*
X141300000Y-105890000D02*
X139890000Y-105890000D01*
X143820000Y-103300000D02*
X146040000Y-103300000D01*
X146920000Y-106460000D02*
X147517500Y-107057500D01*
X143260000Y-105080000D02*
X143260000Y-103860000D01*
X146040000Y-103300000D02*
X146920000Y-104180000D01*
X160740000Y-107057500D02*
X161692500Y-107057500D01*
%TO.N,+5V*%
X152334500Y-82090000D02*
X152544500Y-81880000D01*
X161150000Y-98232894D02*
X161150000Y-101920000D01*
D19*
X145275000Y-82240000D02*
X145220000Y-82240000D01*
D17*
X156650000Y-81880000D02*
X156985000Y-82215000D01*
X161150000Y-101920000D02*
X160470000Y-102600000D01*
X133430000Y-95150000D02*
X133680000Y-94900000D01*
X161505000Y-83265000D02*
X160825000Y-83265000D01*
D19*
X145275000Y-82240000D02*
X145330000Y-82240000D01*
D17*
X161870000Y-94800000D02*
X162110000Y-95040000D01*
X160470000Y-102600000D02*
X157870000Y-102600000D01*
X160490000Y-90620000D02*
X159680000Y-91430000D01*
X156985000Y-82215000D02*
X156985000Y-82790000D01*
D19*
X145275000Y-83000000D02*
X145275000Y-82240000D01*
D17*
X162310000Y-90620000D02*
X160490000Y-90620000D01*
X133535000Y-88905000D02*
X132675000Y-88905000D01*
X140690000Y-82090000D02*
X145070000Y-82090000D01*
X133680000Y-89050000D02*
X133535000Y-88905000D01*
X152544500Y-81880000D02*
X156650000Y-81880000D01*
X132675000Y-88905000D02*
X132675000Y-88115000D01*
X140190000Y-81590000D02*
X140690000Y-82090000D01*
X159680000Y-94090000D02*
X160390000Y-94800000D01*
D19*
X145330000Y-82240000D02*
X145480000Y-82090000D01*
D17*
X161950000Y-83710000D02*
X161505000Y-83265000D01*
X135840000Y-81590000D02*
X140190000Y-81590000D01*
X134880000Y-87370000D02*
X134880000Y-82550000D01*
D19*
X145220000Y-82240000D02*
X145070000Y-82090000D01*
D17*
X133680000Y-94900000D02*
X133680000Y-89050000D01*
X160825000Y-82095000D02*
X160825000Y-83265000D01*
X160390000Y-94800000D02*
X161870000Y-94800000D01*
X145070000Y-82090000D02*
X145280000Y-82090000D01*
X132675000Y-88115000D02*
X133060000Y-87730000D01*
X132700000Y-95150000D02*
X133430000Y-95150000D01*
X133060000Y-87730000D02*
X134520000Y-87730000D01*
D19*
X145275000Y-82095000D02*
X145280000Y-82090000D01*
D17*
X161950000Y-86880000D02*
X161950000Y-83710000D01*
X156650000Y-81880000D02*
X157260000Y-81880000D01*
X156985000Y-82215000D02*
X157260000Y-81940000D01*
X162110000Y-97272894D02*
X161150000Y-98232894D01*
X157260000Y-81940000D02*
X157260000Y-81880000D01*
X159680000Y-91430000D02*
X159680000Y-94090000D01*
X160610000Y-81880000D02*
X160825000Y-82095000D01*
X134520000Y-87730000D02*
X134880000Y-87370000D01*
X157260000Y-81880000D02*
X160610000Y-81880000D01*
X145280000Y-82090000D02*
X145480000Y-82090000D01*
X145480000Y-82090000D02*
X152334500Y-82090000D01*
X162110000Y-95040000D02*
X162110000Y-97272894D01*
X157870000Y-102600000D02*
X156260000Y-102600000D01*
X134880000Y-82550000D02*
X135840000Y-81590000D01*
D19*
X145275000Y-82240000D02*
X145275000Y-82095000D01*
D17*
%TO.N,VBAT*%
X162730000Y-92910000D02*
X163050000Y-92590000D01*
X160779998Y-93317494D02*
X162322506Y-93317494D01*
X162322506Y-93317494D02*
X162730000Y-92910000D01*
X163050000Y-92590000D02*
X163050000Y-88960000D01*
D18*
%TO.N,/MCU/PA1*%
X151890000Y-97990000D02*
X156510000Y-97990000D01*
X156840000Y-98320000D02*
X156950000Y-98430000D01*
X156510000Y-97990000D02*
X156840000Y-98320000D01*
X156950000Y-98430000D02*
X156950000Y-99880000D01*
%TD*%
%TA.AperFunction,Conductor*%
%TO.N,+3.3V*%
G36*
X163531850Y-97617593D02*
G01*
X163557570Y-97662142D01*
X163548637Y-97712800D01*
X163536686Y-97728374D01*
X163101184Y-98163876D01*
X163093227Y-98172556D01*
X163093148Y-98172650D01*
X163073186Y-98189402D01*
X163073125Y-98189438D01*
X163073116Y-98189443D01*
X163073112Y-98189446D01*
X163063128Y-98195807D01*
X163063124Y-98195810D01*
X163060481Y-98197659D01*
X163030424Y-98210107D01*
X163028189Y-98210501D01*
X163027230Y-98210671D01*
X163015691Y-98213230D01*
X163015677Y-98213233D01*
X163015628Y-98213246D01*
X162989623Y-98215521D01*
X162989563Y-98215516D01*
X162977739Y-98215000D01*
X162825122Y-98215000D01*
X162779368Y-98220415D01*
X162779366Y-98220415D01*
X162779361Y-98220416D01*
X162779352Y-98220418D01*
X162745229Y-98228610D01*
X162701995Y-98244560D01*
X162639442Y-98276433D01*
X162617064Y-98283703D01*
X162571762Y-98290877D01*
X162548237Y-98290877D01*
X162502932Y-98283702D01*
X162480555Y-98276432D01*
X162418003Y-98244560D01*
X162374770Y-98228610D01*
X162340647Y-98220418D01*
X162340638Y-98220416D01*
X162340634Y-98220415D01*
X162340632Y-98220415D01*
X162294878Y-98215000D01*
X162188121Y-98215000D01*
X162188120Y-98215000D01*
X162177299Y-98215471D01*
X162177295Y-98215472D01*
X162103010Y-98233649D01*
X162056384Y-98255392D01*
X162056382Y-98255393D01*
X162018332Y-98282036D01*
X161968645Y-98295349D01*
X161922025Y-98273609D01*
X161900286Y-98226988D01*
X161900000Y-98220435D01*
X161900000Y-97996288D01*
X161917593Y-97947950D01*
X161922011Y-97943128D01*
X162047132Y-97818007D01*
X162093750Y-97796269D01*
X162143437Y-97809583D01*
X162154268Y-97818810D01*
X162174580Y-97839739D01*
X162174583Y-97839741D01*
X162202946Y-97858160D01*
X162217720Y-97867754D01*
X162261579Y-97889010D01*
X162261578Y-97889010D01*
X162265253Y-97889387D01*
X162348352Y-97897913D01*
X162399408Y-97891645D01*
X162464506Y-97871744D01*
X162480552Y-97863567D01*
X162502926Y-97856297D01*
X162548243Y-97849120D01*
X162571757Y-97849120D01*
X162617068Y-97856296D01*
X162639442Y-97863566D01*
X162697009Y-97892899D01*
X162697019Y-97892903D01*
X162748604Y-97910665D01*
X162789298Y-97918575D01*
X162824252Y-97922161D01*
X162909528Y-97903813D01*
X162956148Y-97882074D01*
X163011909Y-97843030D01*
X163232912Y-97622025D01*
X163279533Y-97600286D01*
X163286087Y-97600000D01*
X163483512Y-97600000D01*
X163531850Y-97617593D01*
G37*
%TD.AperFunction*%
%TD*%
%TA.AperFunction,Conductor*%
%TO.N,VIN*%
G36*
X162647070Y-101986296D02*
G01*
X162669440Y-101993564D01*
X162710315Y-102014392D01*
X162729347Y-102028220D01*
X162761777Y-102060650D01*
X162775606Y-102079683D01*
X162796432Y-102120555D01*
X162803703Y-102142933D01*
X162810878Y-102188237D01*
X162810878Y-102211764D01*
X162803703Y-102257066D01*
X162796433Y-102279441D01*
X162764560Y-102341997D01*
X162748612Y-102385224D01*
X162748609Y-102385235D01*
X162745113Y-102399798D01*
X162740416Y-102419363D01*
X162736900Y-102449073D01*
X162735000Y-102465124D01*
X162735000Y-102624800D01*
X162717407Y-102673138D01*
X162672858Y-102698858D01*
X162659800Y-102700000D01*
X162520200Y-102700000D01*
X162471862Y-102682407D01*
X162446142Y-102637858D01*
X162445000Y-102624800D01*
X162445000Y-102465124D01*
X162444661Y-102462258D01*
X162439584Y-102419363D01*
X162431387Y-102385222D01*
X162415439Y-102341996D01*
X162383564Y-102279441D01*
X162376295Y-102257067D01*
X162370807Y-102222418D01*
X162369120Y-102211762D01*
X162369120Y-102188237D01*
X162376296Y-102142929D01*
X162383563Y-102120561D01*
X162404394Y-102079678D01*
X162418218Y-102060652D01*
X162450653Y-102028217D01*
X162469679Y-102014393D01*
X162510559Y-101993563D01*
X162532925Y-101986296D01*
X162578242Y-101979120D01*
X162601756Y-101979120D01*
X162647070Y-101986296D01*
G37*
%TD.AperFunction*%
%TD*%
%TA.AperFunction,Conductor*%
%TO.N,VBAT*%
G36*
X162829116Y-88408593D02*
G01*
X162833952Y-88413026D01*
X163261974Y-88841048D01*
X163283714Y-88887668D01*
X163284000Y-88894222D01*
X163284000Y-94958858D01*
X163266407Y-95007196D01*
X163221858Y-95032916D01*
X163171200Y-95023983D01*
X163141797Y-94992999D01*
X163100746Y-94912433D01*
X163007568Y-94819255D01*
X162890153Y-94759429D01*
X162890155Y-94759429D01*
X162760001Y-94738815D01*
X162759999Y-94738815D01*
X162629845Y-94759429D01*
X162512432Y-94819254D01*
X162495427Y-94836259D01*
X162448806Y-94857996D01*
X162399119Y-94844680D01*
X162377129Y-94820680D01*
X162375253Y-94817430D01*
X162354278Y-94799830D01*
X162341843Y-94789395D01*
X162339441Y-94787194D01*
X162122803Y-94570556D01*
X162120597Y-94568148D01*
X162092573Y-94534750D01*
X162092572Y-94534749D01*
X162054805Y-94512944D01*
X162052046Y-94511186D01*
X162016336Y-94486182D01*
X162016335Y-94486181D01*
X162016334Y-94486181D01*
X162011186Y-94484802D01*
X161993047Y-94477288D01*
X161988428Y-94474622D01*
X161988427Y-94474621D01*
X161988426Y-94474621D01*
X161945488Y-94467049D01*
X161942285Y-94466339D01*
X161913056Y-94458507D01*
X161900179Y-94455057D01*
X161900178Y-94455057D01*
X161856744Y-94458857D01*
X161853466Y-94459000D01*
X160562394Y-94459000D01*
X160514056Y-94441407D01*
X160509220Y-94436974D01*
X160043026Y-93970779D01*
X160021286Y-93924159D01*
X160021000Y-93917605D01*
X160021000Y-91602395D01*
X160038593Y-91554057D01*
X160043026Y-91549221D01*
X160609221Y-90983026D01*
X160655841Y-90961286D01*
X160662395Y-90961000D01*
X162044878Y-90961000D01*
X162079018Y-90969196D01*
X162179845Y-91020570D01*
X162179847Y-91020571D01*
X162279827Y-91036406D01*
X162309999Y-91041185D01*
X162310000Y-91041185D01*
X162310001Y-91041185D01*
X162330615Y-91037919D01*
X162440153Y-91020571D01*
X162557566Y-90960746D01*
X162650746Y-90867566D01*
X162710571Y-90750153D01*
X162731185Y-90620000D01*
X162710571Y-90489847D01*
X162650746Y-90372434D01*
X162650745Y-90372433D01*
X162650744Y-90372431D01*
X162557568Y-90279255D01*
X162440153Y-90219429D01*
X162440155Y-90219429D01*
X162310001Y-90198815D01*
X162309999Y-90198815D01*
X162179845Y-90219429D01*
X162079018Y-90270804D01*
X162044878Y-90279000D01*
X160521969Y-90279000D01*
X160473631Y-90261407D01*
X160447911Y-90216858D01*
X160447695Y-90192036D01*
X160451185Y-90170001D01*
X160451185Y-90169999D01*
X160443835Y-90123593D01*
X160430571Y-90039847D01*
X160370746Y-89922434D01*
X160370745Y-89922433D01*
X160370744Y-89922431D01*
X160326487Y-89878174D01*
X160304747Y-89831554D01*
X160318061Y-89781867D01*
X160326487Y-89771826D01*
X160380744Y-89717568D01*
X160380746Y-89717566D01*
X160440571Y-89600153D01*
X160461185Y-89470000D01*
X160440571Y-89339847D01*
X160380746Y-89222434D01*
X160380745Y-89222433D01*
X160380744Y-89222431D01*
X160291486Y-89133173D01*
X160269746Y-89086553D01*
X160283060Y-89036866D01*
X160291553Y-89026758D01*
X160291905Y-89026406D01*
X160338556Y-89004737D01*
X160388224Y-89018123D01*
X160398168Y-89026480D01*
X160432434Y-89060746D01*
X160549845Y-89120570D01*
X160549847Y-89120571D01*
X160629414Y-89133173D01*
X160679999Y-89141185D01*
X160680000Y-89141185D01*
X160680001Y-89141185D01*
X160700615Y-89137919D01*
X160810153Y-89120571D01*
X160927566Y-89060746D01*
X161020746Y-88967566D01*
X161080571Y-88850153D01*
X161101185Y-88720000D01*
X161080571Y-88589847D01*
X161079242Y-88587239D01*
X161034965Y-88500340D01*
X161028696Y-88449284D01*
X161056712Y-88406143D01*
X161101969Y-88391000D01*
X162780778Y-88391000D01*
X162829116Y-88408593D01*
G37*
%TD.AperFunction*%
%TA.AperFunction,Conductor*%
G36*
X162581152Y-81018093D02*
G01*
X162606872Y-81062642D01*
X162607902Y-81071619D01*
X162623927Y-81367170D01*
X162623928Y-81367180D01*
X162683414Y-81730029D01*
X162683414Y-81730030D01*
X162781788Y-82084341D01*
X162781789Y-82084344D01*
X162917884Y-82425917D01*
X162917888Y-82425925D01*
X162917892Y-82425935D01*
X163090130Y-82750811D01*
X163296484Y-83055160D01*
X163423243Y-83204392D01*
X163509831Y-83306332D01*
X163534534Y-83335414D01*
X163801489Y-83588287D01*
X163921900Y-83679821D01*
X164092166Y-83809254D01*
X164094220Y-83810815D01*
X164409294Y-84000389D01*
X164743018Y-84154786D01*
X164743026Y-84154788D01*
X164743029Y-84154790D01*
X164785957Y-84169254D01*
X165091479Y-84272197D01*
X165450592Y-84351243D01*
X165816145Y-84391000D01*
X165924300Y-84391000D01*
X165972638Y-84408593D01*
X165998358Y-84453142D01*
X165999500Y-84466200D01*
X165999500Y-111533800D01*
X165981907Y-111582138D01*
X165937358Y-111607858D01*
X165924300Y-111609000D01*
X165816145Y-111609000D01*
X165708576Y-111620699D01*
X165450594Y-111648756D01*
X165091474Y-111727804D01*
X164743029Y-111845209D01*
X164743018Y-111845214D01*
X164519940Y-111948421D01*
X164409290Y-111999613D01*
X164094218Y-112189186D01*
X164094208Y-112189193D01*
X163801488Y-112411713D01*
X163534533Y-112664586D01*
X163534532Y-112664587D01*
X163296482Y-112944842D01*
X163090129Y-113249190D01*
X163090127Y-113249193D01*
X162917897Y-113574056D01*
X162917884Y-113574082D01*
X162781789Y-113915655D01*
X162781788Y-113915658D01*
X162683414Y-114269969D01*
X162683414Y-114269970D01*
X162623928Y-114632819D01*
X162623927Y-114632826D01*
X162623927Y-114632830D01*
X162607903Y-114928372D01*
X162587719Y-114975685D01*
X162541844Y-114998956D01*
X162532814Y-114999500D01*
X137492219Y-114999500D01*
X137443881Y-114981907D01*
X137418161Y-114937358D01*
X137427094Y-114886700D01*
X137466499Y-114853635D01*
X137480453Y-114850026D01*
X137540153Y-114840571D01*
X137640982Y-114789196D01*
X137675122Y-114781000D01*
X137843466Y-114781000D01*
X137846744Y-114781143D01*
X137848763Y-114781319D01*
X137890179Y-114784943D01*
X137932301Y-114773655D01*
X137935484Y-114772949D01*
X137978428Y-114765378D01*
X137983045Y-114762711D01*
X138001184Y-114755197D01*
X138006336Y-114753818D01*
X138042045Y-114728814D01*
X138044814Y-114727050D01*
X138051309Y-114723299D01*
X138082572Y-114705251D01*
X138110620Y-114671822D01*
X138112787Y-114669458D01*
X138459458Y-114322787D01*
X138461822Y-114320620D01*
X138495251Y-114292572D01*
X138517050Y-114254814D01*
X138518814Y-114252045D01*
X138522182Y-114247234D01*
X138543818Y-114216336D01*
X138545197Y-114211184D01*
X138552711Y-114193045D01*
X138555378Y-114188428D01*
X138562949Y-114145484D01*
X138563655Y-114142301D01*
X138574943Y-114100179D01*
X138571143Y-114056747D01*
X138571000Y-114053469D01*
X138571000Y-113320000D01*
X139983925Y-113320000D01*
X140004152Y-113486582D01*
X140004152Y-113486584D01*
X140004153Y-113486585D01*
X140063654Y-113643479D01*
X140063659Y-113643487D01*
X140158976Y-113781578D01*
X140158978Y-113781580D01*
X140158980Y-113781583D01*
X140158983Y-113781585D01*
X140158988Y-113781591D01*
X140284580Y-113892855D01*
X140284582Y-113892856D01*
X140284584Y-113892858D01*
X140433168Y-113970841D01*
X140596097Y-114011000D01*
X140596100Y-114011000D01*
X140763900Y-114011000D01*
X140763903Y-114011000D01*
X140926832Y-113970841D01*
X141075416Y-113892858D01*
X141144341Y-113831796D01*
X143379000Y-113831796D01*
X143394152Y-113956582D01*
X143394152Y-113956584D01*
X143394153Y-113956585D01*
X143453654Y-114113479D01*
X143453659Y-114113487D01*
X143548976Y-114251578D01*
X143548978Y-114251580D01*
X143548980Y-114251583D01*
X143548983Y-114251585D01*
X143548988Y-114251591D01*
X143674580Y-114362855D01*
X143674582Y-114362856D01*
X143674584Y-114362858D01*
X143823168Y-114440841D01*
X143986097Y-114481000D01*
X143986100Y-114481000D01*
X144153900Y-114481000D01*
X144153903Y-114481000D01*
X144316832Y-114440841D01*
X144465416Y-114362858D01*
X144591020Y-114251583D01*
X144686344Y-114113482D01*
X144745848Y-113956582D01*
X144761000Y-113831796D01*
X152019000Y-113831796D01*
X152034152Y-113956582D01*
X152034152Y-113956584D01*
X152034153Y-113956585D01*
X152093654Y-114113479D01*
X152093659Y-114113487D01*
X152188976Y-114251578D01*
X152188978Y-114251580D01*
X152188980Y-114251583D01*
X152188983Y-114251585D01*
X152188988Y-114251591D01*
X152314580Y-114362855D01*
X152314582Y-114362856D01*
X152314584Y-114362858D01*
X152463168Y-114440841D01*
X152626097Y-114481000D01*
X152626100Y-114481000D01*
X152793900Y-114481000D01*
X152793903Y-114481000D01*
X152956832Y-114440841D01*
X153105416Y-114362858D01*
X153231020Y-114251583D01*
X153326344Y-114113482D01*
X153385848Y-113956582D01*
X153401000Y-113831796D01*
X153401000Y-113148204D01*
X153385848Y-113023418D01*
X153346178Y-112918818D01*
X153326345Y-112866520D01*
X153326340Y-112866512D01*
X153231023Y-112728421D01*
X153231022Y-112728419D01*
X153231020Y-112728417D01*
X153231016Y-112728413D01*
X153231011Y-112728408D01*
X153105419Y-112617144D01*
X153105413Y-112617140D01*
X152956835Y-112539160D01*
X152956832Y-112539159D01*
X152793903Y-112499000D01*
X152626097Y-112499000D01*
X152463168Y-112539159D01*
X152463164Y-112539160D01*
X152314586Y-112617140D01*
X152314580Y-112617144D01*
X152188988Y-112728408D01*
X152188976Y-112728421D01*
X152093659Y-112866512D01*
X152093654Y-112866520D01*
X152034153Y-113023414D01*
X152034152Y-113023416D01*
X152034152Y-113023418D01*
X152024188Y-113105475D01*
X152019975Y-113140178D01*
X152019000Y-113148204D01*
X152019000Y-113831796D01*
X144761000Y-113831796D01*
X144761000Y-113148204D01*
X144745848Y-113023418D01*
X144706178Y-112918818D01*
X144686345Y-112866520D01*
X144686340Y-112866512D01*
X144591023Y-112728421D01*
X144591022Y-112728419D01*
X144591020Y-112728417D01*
X144591016Y-112728413D01*
X144591011Y-112728408D01*
X144465419Y-112617144D01*
X144465413Y-112617140D01*
X144316835Y-112539160D01*
X144316832Y-112539159D01*
X144153903Y-112499000D01*
X143986097Y-112499000D01*
X143823168Y-112539159D01*
X143823164Y-112539160D01*
X143674586Y-112617140D01*
X143674580Y-112617144D01*
X143548988Y-112728408D01*
X143548976Y-112728421D01*
X143453659Y-112866512D01*
X143453654Y-112866520D01*
X143394153Y-113023414D01*
X143394152Y-113023416D01*
X143394152Y-113023418D01*
X143384188Y-113105475D01*
X143379975Y-113140178D01*
X143379000Y-113148204D01*
X143379000Y-113831796D01*
X141144341Y-113831796D01*
X141201020Y-113781583D01*
X141296344Y-113643482D01*
X141355848Y-113486582D01*
X141367575Y-113390000D01*
X142018815Y-113390000D01*
X142039429Y-113520154D01*
X142099255Y-113637568D01*
X142192431Y-113730744D01*
X142192433Y-113730745D01*
X142192434Y-113730746D01*
X142309845Y-113790570D01*
X142309847Y-113790571D01*
X142409827Y-113806406D01*
X142439999Y-113811185D01*
X142440000Y-113811185D01*
X142440001Y-113811185D01*
X142460615Y-113807919D01*
X142570153Y-113790571D01*
X142687566Y-113730746D01*
X142780746Y-113637566D01*
X142840571Y-113520153D01*
X142861185Y-113390000D01*
X142840571Y-113259847D01*
X142780746Y-113142434D01*
X142780745Y-113142433D01*
X142780744Y-113142431D01*
X142687568Y-113049255D01*
X142570153Y-112989429D01*
X142570155Y-112989429D01*
X142440001Y-112968815D01*
X142439999Y-112968815D01*
X142309845Y-112989429D01*
X142192431Y-113049255D01*
X142099255Y-113142431D01*
X142039429Y-113259845D01*
X142018815Y-113389999D01*
X142018815Y-113390000D01*
X141367575Y-113390000D01*
X141376075Y-113320000D01*
X141355848Y-113153418D01*
X141306544Y-113023414D01*
X141296345Y-112996520D01*
X141296340Y-112996512D01*
X141201023Y-112858421D01*
X141201022Y-112858419D01*
X141201020Y-112858417D01*
X141201016Y-112858413D01*
X141201011Y-112858408D01*
X141075419Y-112747144D01*
X141075413Y-112747140D01*
X140926835Y-112669160D01*
X140926832Y-112669159D01*
X140763903Y-112629000D01*
X140596097Y-112629000D01*
X140451717Y-112664587D01*
X140433164Y-112669160D01*
X140284586Y-112747140D01*
X140284580Y-112747144D01*
X140158988Y-112858408D01*
X140158976Y-112858421D01*
X140063659Y-112996512D01*
X140063654Y-112996520D01*
X140004153Y-113153414D01*
X140004152Y-113153416D01*
X140004152Y-113153418D01*
X139983925Y-113320000D01*
X138571000Y-113320000D01*
X138571000Y-112410000D01*
X154683925Y-112410000D01*
X154704152Y-112576582D01*
X154704152Y-112576584D01*
X154704153Y-112576585D01*
X154763654Y-112733479D01*
X154763659Y-112733487D01*
X154858979Y-112871583D01*
X154860881Y-112873730D01*
X154861440Y-112875147D01*
X154861564Y-112875327D01*
X154861522Y-112875355D01*
X154879756Y-112921581D01*
X154863458Y-112970371D01*
X154819611Y-112997269D01*
X154819255Y-112997341D01*
X154805476Y-113000081D01*
X154805474Y-113000082D01*
X154742297Y-113042297D01*
X154700082Y-113105474D01*
X154700081Y-113105476D01*
X154689000Y-113161187D01*
X154689000Y-114198812D01*
X154700081Y-114254523D01*
X154700082Y-114254525D01*
X154742297Y-114317703D01*
X154805475Y-114359918D01*
X154833331Y-114365459D01*
X154861187Y-114371000D01*
X154861188Y-114371000D01*
X155898813Y-114371000D01*
X155917383Y-114367306D01*
X155954525Y-114359918D01*
X156017703Y-114317703D01*
X156059918Y-114254525D01*
X156071000Y-114198812D01*
X156071000Y-114024216D01*
X156088593Y-113975878D01*
X156108601Y-113959091D01*
X156122997Y-113950779D01*
X156132572Y-113945251D01*
X156160610Y-113911835D01*
X156162787Y-113909458D01*
X156542217Y-113530030D01*
X156709453Y-113362792D01*
X156711841Y-113360604D01*
X156745251Y-113332572D01*
X156767050Y-113294814D01*
X156768814Y-113292045D01*
X156772182Y-113287234D01*
X156793818Y-113256336D01*
X156795198Y-113251184D01*
X156802711Y-113233046D01*
X156805378Y-113228428D01*
X156812950Y-113185480D01*
X156813656Y-113182296D01*
X156824943Y-113140178D01*
X156821143Y-113096743D01*
X156821000Y-113093465D01*
X156821000Y-111280000D01*
X161278925Y-111280000D01*
X161299152Y-111446582D01*
X161299152Y-111446584D01*
X161299153Y-111446585D01*
X161358654Y-111603479D01*
X161358659Y-111603487D01*
X161453976Y-111741578D01*
X161453978Y-111741580D01*
X161453980Y-111741583D01*
X161453983Y-111741585D01*
X161453988Y-111741591D01*
X161579580Y-111852855D01*
X161579582Y-111852856D01*
X161579584Y-111852858D01*
X161728168Y-111930841D01*
X161891097Y-111971000D01*
X161891100Y-111971000D01*
X162058900Y-111971000D01*
X162058903Y-111971000D01*
X162221832Y-111930841D01*
X162370416Y-111852858D01*
X162496020Y-111741583D01*
X162591344Y-111603482D01*
X162650848Y-111446582D01*
X162671075Y-111280000D01*
X162650848Y-111113418D01*
X162591344Y-110956518D01*
X162591340Y-110956512D01*
X162496023Y-110818421D01*
X162496022Y-110818419D01*
X162496020Y-110818417D01*
X162496016Y-110818413D01*
X162496011Y-110818408D01*
X162370419Y-110707144D01*
X162370413Y-110707140D01*
X162221835Y-110629160D01*
X162221832Y-110629159D01*
X162058903Y-110589000D01*
X161891097Y-110589000D01*
X161728168Y-110629159D01*
X161728164Y-110629160D01*
X161579586Y-110707140D01*
X161579580Y-110707144D01*
X161453988Y-110818408D01*
X161453976Y-110818421D01*
X161358659Y-110956512D01*
X161358654Y-110956520D01*
X161299153Y-111113414D01*
X161299152Y-111113416D01*
X161299152Y-111113418D01*
X161278925Y-111280000D01*
X156821000Y-111280000D01*
X156821000Y-110760000D01*
X158218815Y-110760000D01*
X158239429Y-110890154D01*
X158299255Y-111007568D01*
X158392431Y-111100744D01*
X158392433Y-111100745D01*
X158392434Y-111100746D01*
X158509845Y-111160570D01*
X158509847Y-111160571D01*
X158609827Y-111176406D01*
X158639999Y-111181185D01*
X158640000Y-111181185D01*
X158640001Y-111181185D01*
X158660615Y-111177919D01*
X158770153Y-111160571D01*
X158887566Y-111100746D01*
X158980746Y-111007566D01*
X159040571Y-110890153D01*
X159061185Y-110760000D01*
X159040571Y-110629847D01*
X158980746Y-110512434D01*
X158980745Y-110512433D01*
X158980744Y-110512431D01*
X158887568Y-110419255D01*
X158770153Y-110359429D01*
X158770155Y-110359429D01*
X158640001Y-110338815D01*
X158639999Y-110338815D01*
X158509845Y-110359429D01*
X158392431Y-110419255D01*
X158299255Y-110512431D01*
X158239429Y-110629845D01*
X158218815Y-110759999D01*
X158218815Y-110760000D01*
X156821000Y-110760000D01*
X156821000Y-110015000D01*
X163188815Y-110015000D01*
X163209429Y-110145154D01*
X163269255Y-110262568D01*
X163362431Y-110355744D01*
X163362433Y-110355745D01*
X163362434Y-110355746D01*
X163479845Y-110415570D01*
X163479847Y-110415571D01*
X163579827Y-110431406D01*
X163609999Y-110436185D01*
X163610000Y-110436185D01*
X163610001Y-110436185D01*
X163631025Y-110432855D01*
X163740153Y-110415571D01*
X163857566Y-110355746D01*
X163950746Y-110262566D01*
X164010571Y-110145153D01*
X164031185Y-110015000D01*
X164010571Y-109884847D01*
X163950746Y-109767434D01*
X163950745Y-109767433D01*
X163950744Y-109767431D01*
X163857568Y-109674255D01*
X163740153Y-109614429D01*
X163740155Y-109614429D01*
X163610001Y-109593815D01*
X163609999Y-109593815D01*
X163479845Y-109614429D01*
X163362431Y-109674255D01*
X163269255Y-109767431D01*
X163209429Y-109884845D01*
X163188815Y-110014999D01*
X163188815Y-110015000D01*
X156821000Y-110015000D01*
X156821000Y-109300000D01*
X161778815Y-109300000D01*
X161799429Y-109430154D01*
X161859255Y-109547568D01*
X161952431Y-109640744D01*
X161952433Y-109640745D01*
X161952434Y-109640746D01*
X162069845Y-109700570D01*
X162069847Y-109700571D01*
X162169827Y-109716406D01*
X162199999Y-109721185D01*
X162200000Y-109721185D01*
X162200001Y-109721185D01*
X162220615Y-109717919D01*
X162330153Y-109700571D01*
X162447566Y-109640746D01*
X162540746Y-109547566D01*
X162600571Y-109430153D01*
X162621185Y-109300000D01*
X162620661Y-109296694D01*
X162608543Y-109220180D01*
X162600571Y-109169847D01*
X162540746Y-109052434D01*
X162540745Y-109052433D01*
X162540744Y-109052431D01*
X162447568Y-108959255D01*
X162330153Y-108899429D01*
X162330155Y-108899429D01*
X162200001Y-108878815D01*
X162199999Y-108878815D01*
X162069845Y-108899429D01*
X161952431Y-108959255D01*
X161859255Y-109052431D01*
X161799429Y-109169845D01*
X161778815Y-109299999D01*
X161778815Y-109300000D01*
X156821000Y-109300000D01*
X156821000Y-108575121D01*
X156829197Y-108540980D01*
X156850078Y-108500000D01*
X159178815Y-108500000D01*
X159199429Y-108630154D01*
X159259255Y-108747568D01*
X159352431Y-108840744D01*
X159352433Y-108840745D01*
X159352434Y-108840746D01*
X159469845Y-108900570D01*
X159469847Y-108900571D01*
X159569827Y-108916406D01*
X159599999Y-108921185D01*
X159600000Y-108921185D01*
X159600001Y-108921185D01*
X159620615Y-108917919D01*
X159730153Y-108900571D01*
X159847566Y-108840746D01*
X159940746Y-108747566D01*
X160000571Y-108630153D01*
X160021185Y-108500000D01*
X160020900Y-108498203D01*
X160017305Y-108475505D01*
X160000571Y-108369847D01*
X159940746Y-108252434D01*
X159940745Y-108252433D01*
X159940744Y-108252431D01*
X159847568Y-108159255D01*
X159730153Y-108099429D01*
X159730155Y-108099429D01*
X159600001Y-108078815D01*
X159599999Y-108078815D01*
X159469845Y-108099429D01*
X159352431Y-108159255D01*
X159259255Y-108252431D01*
X159199429Y-108369845D01*
X159178815Y-108499999D01*
X159178815Y-108500000D01*
X156850078Y-108500000D01*
X156880570Y-108440156D01*
X156880570Y-108440155D01*
X156880570Y-108440154D01*
X156880571Y-108440153D01*
X156901185Y-108310000D01*
X156899350Y-108298417D01*
X156894732Y-108269255D01*
X156880571Y-108179847D01*
X156820746Y-108062434D01*
X156820745Y-108062433D01*
X156820744Y-108062431D01*
X156727568Y-107969255D01*
X156610153Y-107909429D01*
X156610155Y-107909429D01*
X156480001Y-107888815D01*
X156479999Y-107888815D01*
X156349845Y-107909429D01*
X156232431Y-107969255D01*
X156139255Y-108062431D01*
X156079428Y-108179848D01*
X156078481Y-108182763D01*
X156076934Y-108184742D01*
X156076742Y-108185120D01*
X156076668Y-108185082D01*
X156046811Y-108223297D01*
X155996495Y-108233991D01*
X155951076Y-108209840D01*
X155945084Y-108202255D01*
X155901020Y-108138417D01*
X155901014Y-108138412D01*
X155901011Y-108138408D01*
X155775419Y-108027144D01*
X155775413Y-108027140D01*
X155626835Y-107949160D01*
X155626832Y-107949159D01*
X155463903Y-107909000D01*
X155296097Y-107909000D01*
X155139631Y-107947566D01*
X155133164Y-107949160D01*
X154984586Y-108027140D01*
X154984580Y-108027144D01*
X154858988Y-108138408D01*
X154858976Y-108138421D01*
X154763659Y-108276512D01*
X154763654Y-108276520D01*
X154704153Y-108433414D01*
X154704152Y-108433416D01*
X154704152Y-108433418D01*
X154683925Y-108600000D01*
X154704152Y-108766582D01*
X154704152Y-108766584D01*
X154704153Y-108766585D01*
X154763654Y-108923479D01*
X154763659Y-108923487D01*
X154858976Y-109061578D01*
X154858978Y-109061580D01*
X154858980Y-109061583D01*
X154858983Y-109061585D01*
X154858988Y-109061591D01*
X154984581Y-109172856D01*
X154984955Y-109173114D01*
X154985094Y-109173310D01*
X154987988Y-109175874D01*
X154987392Y-109176546D01*
X155014740Y-109215054D01*
X155010597Y-109266327D01*
X154987619Y-109293710D01*
X154987988Y-109294126D01*
X154985193Y-109296601D01*
X154984955Y-109296886D01*
X154984581Y-109297143D01*
X154858988Y-109408408D01*
X154858976Y-109408421D01*
X154763659Y-109546512D01*
X154763654Y-109546520D01*
X154704153Y-109703414D01*
X154704152Y-109703416D01*
X154704152Y-109703418D01*
X154683925Y-109870000D01*
X154704152Y-110036582D01*
X154704152Y-110036584D01*
X154704153Y-110036585D01*
X154763654Y-110193479D01*
X154763659Y-110193487D01*
X154858976Y-110331578D01*
X154858978Y-110331580D01*
X154858980Y-110331583D01*
X154858983Y-110331585D01*
X154858988Y-110331591D01*
X154984581Y-110442856D01*
X154984955Y-110443114D01*
X154985094Y-110443310D01*
X154987988Y-110445874D01*
X154987392Y-110446546D01*
X155014740Y-110485054D01*
X155010597Y-110536327D01*
X154987619Y-110563710D01*
X154987988Y-110564126D01*
X154985193Y-110566601D01*
X154984955Y-110566886D01*
X154984581Y-110567143D01*
X154858988Y-110678408D01*
X154858976Y-110678421D01*
X154763659Y-110816512D01*
X154763654Y-110816520D01*
X154704153Y-110973414D01*
X154704152Y-110973416D01*
X154704152Y-110973418D01*
X154683925Y-111140000D01*
X154704152Y-111306582D01*
X154704152Y-111306584D01*
X154704153Y-111306585D01*
X154763654Y-111463479D01*
X154763659Y-111463487D01*
X154858976Y-111601578D01*
X154858978Y-111601580D01*
X154858980Y-111601583D01*
X154858983Y-111601585D01*
X154858988Y-111601591D01*
X154984581Y-111712856D01*
X154984955Y-111713114D01*
X154985094Y-111713310D01*
X154987988Y-111715874D01*
X154987392Y-111716546D01*
X155014740Y-111755054D01*
X155010597Y-111806327D01*
X154987619Y-111833710D01*
X154987988Y-111834126D01*
X154985193Y-111836601D01*
X154984955Y-111836886D01*
X154984581Y-111837143D01*
X154858988Y-111948408D01*
X154858976Y-111948421D01*
X154763659Y-112086512D01*
X154763654Y-112086520D01*
X154704153Y-112243414D01*
X154704152Y-112243416D01*
X154704152Y-112243418D01*
X154683925Y-112410000D01*
X138571000Y-112410000D01*
X138571000Y-109901796D01*
X143379000Y-109901796D01*
X143394152Y-110026582D01*
X143394152Y-110026584D01*
X143394153Y-110026585D01*
X143453654Y-110183479D01*
X143453659Y-110183487D01*
X143548976Y-110321578D01*
X143548978Y-110321580D01*
X143548980Y-110321583D01*
X143548983Y-110321585D01*
X143548988Y-110321591D01*
X143674580Y-110432855D01*
X143674582Y-110432856D01*
X143674584Y-110432858D01*
X143823168Y-110510841D01*
X143986097Y-110551000D01*
X143986100Y-110551000D01*
X144153900Y-110551000D01*
X144153903Y-110551000D01*
X144316832Y-110510841D01*
X144465416Y-110432858D01*
X144591020Y-110321583D01*
X144686344Y-110183482D01*
X144745848Y-110026582D01*
X144761000Y-109901796D01*
X144761000Y-109840000D01*
X144919534Y-109840000D01*
X144939313Y-109990237D01*
X144953364Y-110024159D01*
X144997302Y-110130233D01*
X144997303Y-110130235D01*
X144997304Y-110130236D01*
X145089548Y-110250451D01*
X145209763Y-110342695D01*
X145209767Y-110342698D01*
X145349764Y-110400687D01*
X145462280Y-110415500D01*
X145462283Y-110415500D01*
X145537717Y-110415500D01*
X145537720Y-110415500D01*
X145650236Y-110400687D01*
X145790233Y-110342698D01*
X145910451Y-110250451D01*
X146002698Y-110130233D01*
X146060687Y-109990236D01*
X146080466Y-109840000D01*
X150699534Y-109840000D01*
X150719313Y-109990237D01*
X150733364Y-110024159D01*
X150777302Y-110130233D01*
X150777303Y-110130235D01*
X150777304Y-110130236D01*
X150869548Y-110250451D01*
X150989763Y-110342695D01*
X150989767Y-110342698D01*
X151129764Y-110400687D01*
X151242280Y-110415500D01*
X151242283Y-110415500D01*
X151317717Y-110415500D01*
X151317720Y-110415500D01*
X151430236Y-110400687D01*
X151570233Y-110342698D01*
X151690451Y-110250451D01*
X151782698Y-110130233D01*
X151840687Y-109990236D01*
X151852330Y-109901796D01*
X152019000Y-109901796D01*
X152034152Y-110026582D01*
X152034152Y-110026584D01*
X152034153Y-110026585D01*
X152093654Y-110183479D01*
X152093659Y-110183487D01*
X152188976Y-110321578D01*
X152188978Y-110321580D01*
X152188980Y-110321583D01*
X152188983Y-110321585D01*
X152188988Y-110321591D01*
X152314580Y-110432855D01*
X152314582Y-110432856D01*
X152314584Y-110432858D01*
X152463168Y-110510841D01*
X152626097Y-110551000D01*
X152626100Y-110551000D01*
X152793900Y-110551000D01*
X152793903Y-110551000D01*
X152956832Y-110510841D01*
X153105416Y-110432858D01*
X153231020Y-110321583D01*
X153326344Y-110183482D01*
X153385848Y-110026582D01*
X153401000Y-109901796D01*
X153401000Y-108718204D01*
X153385848Y-108593418D01*
X153339042Y-108469999D01*
X153326345Y-108436520D01*
X153326340Y-108436512D01*
X153231023Y-108298421D01*
X153231022Y-108298419D01*
X153231020Y-108298417D01*
X153231016Y-108298413D01*
X153231011Y-108298408D01*
X153105419Y-108187144D01*
X153105413Y-108187140D01*
X152956835Y-108109160D01*
X152956832Y-108109159D01*
X152793903Y-108069000D01*
X152626097Y-108069000D01*
X152463168Y-108109159D01*
X152463164Y-108109160D01*
X152314586Y-108187140D01*
X152314580Y-108187144D01*
X152188988Y-108298408D01*
X152188976Y-108298421D01*
X152093659Y-108436512D01*
X152093654Y-108436520D01*
X152034153Y-108593414D01*
X152034152Y-108593416D01*
X152034152Y-108593418D01*
X152019000Y-108718204D01*
X152019000Y-109901796D01*
X151852330Y-109901796D01*
X151860466Y-109840000D01*
X151840687Y-109689764D01*
X151782698Y-109549767D01*
X151781009Y-109547566D01*
X151690451Y-109429548D01*
X151570236Y-109337304D01*
X151570235Y-109337303D01*
X151570233Y-109337302D01*
X151465998Y-109294126D01*
X151430237Y-109279313D01*
X151402107Y-109275609D01*
X151317720Y-109264500D01*
X151242280Y-109264500D01*
X151174770Y-109273387D01*
X151129762Y-109279313D01*
X151030766Y-109320319D01*
X150989767Y-109337302D01*
X150989766Y-109337302D01*
X150989763Y-109337304D01*
X150869548Y-109429548D01*
X150777304Y-109549763D01*
X150777302Y-109549766D01*
X150777302Y-109549767D01*
X150772415Y-109561566D01*
X150719313Y-109689762D01*
X150699534Y-109840000D01*
X146080466Y-109840000D01*
X146060687Y-109689764D01*
X146002698Y-109549767D01*
X146001009Y-109547566D01*
X145910451Y-109429548D01*
X145790236Y-109337304D01*
X145790235Y-109337303D01*
X145790233Y-109337302D01*
X145685998Y-109294126D01*
X145650237Y-109279313D01*
X145622107Y-109275609D01*
X145537720Y-109264500D01*
X145462280Y-109264500D01*
X145394770Y-109273387D01*
X145349762Y-109279313D01*
X145250766Y-109320319D01*
X145209767Y-109337302D01*
X145209766Y-109337302D01*
X145209763Y-109337304D01*
X145089548Y-109429548D01*
X144997304Y-109549763D01*
X144997302Y-109549766D01*
X144997302Y-109549767D01*
X144992415Y-109561566D01*
X144939313Y-109689762D01*
X144919534Y-109840000D01*
X144761000Y-109840000D01*
X144761000Y-108718204D01*
X144745848Y-108593418D01*
X144699042Y-108469999D01*
X144686345Y-108436520D01*
X144686340Y-108436512D01*
X144591023Y-108298421D01*
X144591022Y-108298419D01*
X144591020Y-108298417D01*
X144591016Y-108298413D01*
X144591011Y-108298408D01*
X144465419Y-108187144D01*
X144465413Y-108187140D01*
X144316835Y-108109160D01*
X144316832Y-108109159D01*
X144153903Y-108069000D01*
X143986097Y-108069000D01*
X143823168Y-108109159D01*
X143823164Y-108109160D01*
X143674586Y-108187140D01*
X143674580Y-108187144D01*
X143548988Y-108298408D01*
X143548976Y-108298421D01*
X143453659Y-108436512D01*
X143453654Y-108436520D01*
X143394153Y-108593414D01*
X143394152Y-108593416D01*
X143394152Y-108593418D01*
X143379000Y-108718204D01*
X143379000Y-109901796D01*
X138571000Y-109901796D01*
X138571000Y-109862394D01*
X138588593Y-109814056D01*
X138593026Y-109809220D01*
X138619220Y-109783026D01*
X138665840Y-109761286D01*
X138672394Y-109761000D01*
X140720169Y-109761000D01*
X140763466Y-109761000D01*
X140766744Y-109761143D01*
X140768379Y-109761286D01*
X140810179Y-109764943D01*
X140815330Y-109763562D01*
X140834793Y-109761000D01*
X141225207Y-109761000D01*
X141244669Y-109763562D01*
X141249821Y-109764943D01*
X141289061Y-109761509D01*
X141293252Y-109761143D01*
X141296530Y-109761000D01*
X142134878Y-109761000D01*
X142169018Y-109769196D01*
X142269845Y-109820570D01*
X142269847Y-109820571D01*
X142369827Y-109836406D01*
X142399999Y-109841185D01*
X142400000Y-109841185D01*
X142400001Y-109841185D01*
X142420615Y-109837919D01*
X142530153Y-109820571D01*
X142647566Y-109760746D01*
X142740746Y-109667566D01*
X142800571Y-109550153D01*
X142821185Y-109420000D01*
X142819350Y-109408417D01*
X142808087Y-109337302D01*
X142800571Y-109289847D01*
X142777615Y-109244793D01*
X142769196Y-109228269D01*
X142761000Y-109194129D01*
X142761000Y-108012395D01*
X142778593Y-107964057D01*
X142783026Y-107959221D01*
X142869221Y-107873026D01*
X142915841Y-107851286D01*
X142922395Y-107851000D01*
X144183466Y-107851000D01*
X144186744Y-107851143D01*
X144188379Y-107851286D01*
X144230179Y-107854943D01*
X144272301Y-107843655D01*
X144275484Y-107842949D01*
X144318428Y-107835378D01*
X144323045Y-107832711D01*
X144341184Y-107825197D01*
X144346336Y-107823818D01*
X144382045Y-107798814D01*
X144384814Y-107797050D01*
X144414079Y-107780154D01*
X144422572Y-107775251D01*
X144450620Y-107741822D01*
X144452787Y-107739458D01*
X144829458Y-107362787D01*
X144831822Y-107360620D01*
X144865251Y-107332572D01*
X144883299Y-107301309D01*
X144887050Y-107294814D01*
X144888814Y-107292045D01*
X144892400Y-107286924D01*
X144913818Y-107256336D01*
X144915197Y-107251184D01*
X144922711Y-107233045D01*
X144925378Y-107228428D01*
X144932949Y-107185484D01*
X144933655Y-107182301D01*
X144944943Y-107140179D01*
X144941143Y-107096748D01*
X144941000Y-107093470D01*
X144941000Y-106291200D01*
X144958593Y-106242862D01*
X145003142Y-106217142D01*
X145016200Y-106216000D01*
X145508126Y-106216000D01*
X145556464Y-106233593D01*
X145582184Y-106278142D01*
X145575130Y-106325340D01*
X145524429Y-106424845D01*
X145503815Y-106554999D01*
X145503815Y-106555000D01*
X145524429Y-106685155D01*
X145524429Y-106685156D01*
X145575803Y-106785980D01*
X145584000Y-106820121D01*
X145584000Y-108159316D01*
X145575804Y-108193456D01*
X145539429Y-108264845D01*
X145518815Y-108394999D01*
X145518815Y-108395000D01*
X145539429Y-108525154D01*
X145599255Y-108642568D01*
X145692431Y-108735744D01*
X145692433Y-108735745D01*
X145692434Y-108735746D01*
X145809845Y-108795570D01*
X145809847Y-108795571D01*
X145905647Y-108810744D01*
X145939999Y-108816185D01*
X145940000Y-108816185D01*
X145940001Y-108816185D01*
X145960615Y-108812919D01*
X146070153Y-108795571D01*
X146170982Y-108744196D01*
X146205122Y-108736000D01*
X150574878Y-108736000D01*
X150609018Y-108744196D01*
X150709845Y-108795570D01*
X150709847Y-108795571D01*
X150805647Y-108810744D01*
X150839999Y-108816185D01*
X150840000Y-108816185D01*
X150840001Y-108816185D01*
X150860615Y-108812919D01*
X150970153Y-108795571D01*
X151087566Y-108735746D01*
X151180746Y-108642566D01*
X151240571Y-108525153D01*
X151261185Y-108395000D01*
X151240571Y-108264847D01*
X151180746Y-108147434D01*
X151180745Y-108147433D01*
X151180744Y-108147431D01*
X151087568Y-108054255D01*
X150970153Y-107994429D01*
X150970155Y-107994429D01*
X150840001Y-107973815D01*
X150839999Y-107973815D01*
X150709845Y-107994429D01*
X150609018Y-108045804D01*
X150574878Y-108054000D01*
X146341200Y-108054000D01*
X146292862Y-108036407D01*
X146267142Y-107991858D01*
X146266000Y-107978800D01*
X146266000Y-107680000D01*
X162988815Y-107680000D01*
X163009429Y-107810154D01*
X163069255Y-107927568D01*
X163162431Y-108020744D01*
X163162433Y-108020745D01*
X163162434Y-108020746D01*
X163279845Y-108080570D01*
X163279847Y-108080571D01*
X163379827Y-108096406D01*
X163409999Y-108101185D01*
X163410000Y-108101185D01*
X163410001Y-108101185D01*
X163430615Y-108097919D01*
X163540153Y-108080571D01*
X163657566Y-108020746D01*
X163676825Y-108001486D01*
X163723444Y-107979746D01*
X163773132Y-107993059D01*
X163783168Y-108001480D01*
X163822434Y-108040746D01*
X163939845Y-108100570D01*
X163939847Y-108100571D01*
X164039827Y-108116406D01*
X164069999Y-108121185D01*
X164070000Y-108121185D01*
X164070001Y-108121185D01*
X164090615Y-108117919D01*
X164200153Y-108100571D01*
X164317566Y-108040746D01*
X164330825Y-108027486D01*
X164377444Y-108005746D01*
X164427131Y-108019059D01*
X164437169Y-108027481D01*
X164450434Y-108040746D01*
X164567845Y-108100570D01*
X164567847Y-108100571D01*
X164667827Y-108116406D01*
X164697999Y-108121185D01*
X164698000Y-108121185D01*
X164698001Y-108121185D01*
X164718615Y-108117919D01*
X164828153Y-108100571D01*
X164945566Y-108040746D01*
X165038746Y-107947566D01*
X165098571Y-107830153D01*
X165119185Y-107700000D01*
X165118181Y-107693664D01*
X165112526Y-107657956D01*
X165098571Y-107569847D01*
X165038746Y-107452434D01*
X165038745Y-107452433D01*
X165038744Y-107452431D01*
X164945568Y-107359255D01*
X164828153Y-107299429D01*
X164828155Y-107299429D01*
X164698001Y-107278815D01*
X164697999Y-107278815D01*
X164567845Y-107299429D01*
X164450431Y-107359255D01*
X164437174Y-107372513D01*
X164390554Y-107394253D01*
X164340867Y-107380939D01*
X164330826Y-107372513D01*
X164317568Y-107359255D01*
X164200153Y-107299429D01*
X164200155Y-107299429D01*
X164070001Y-107278815D01*
X164069999Y-107278815D01*
X163939845Y-107299429D01*
X163822433Y-107359254D01*
X163803172Y-107378515D01*
X163756552Y-107400253D01*
X163706865Y-107386938D01*
X163696830Y-107378518D01*
X163657566Y-107339254D01*
X163540153Y-107279429D01*
X163540155Y-107279429D01*
X163410001Y-107258815D01*
X163409999Y-107258815D01*
X163279845Y-107279429D01*
X163162431Y-107339255D01*
X163069255Y-107432431D01*
X163009429Y-107549845D01*
X162988815Y-107679999D01*
X162988815Y-107680000D01*
X146266000Y-107680000D01*
X146266000Y-106820121D01*
X146274197Y-106785980D01*
X146325570Y-106685156D01*
X146325570Y-106685155D01*
X146325570Y-106685154D01*
X146325571Y-106685153D01*
X146346185Y-106555000D01*
X146325571Y-106424847D01*
X146304031Y-106382572D01*
X146274196Y-106324017D01*
X146266000Y-106289877D01*
X146266000Y-106081533D01*
X146266143Y-106078255D01*
X146269943Y-106034822D01*
X146258653Y-105992692D01*
X146257950Y-105989523D01*
X146250378Y-105946572D01*
X146247708Y-105941947D01*
X146240200Y-105923818D01*
X146238819Y-105918665D01*
X146238817Y-105918662D01*
X146213812Y-105882951D01*
X146212048Y-105880182D01*
X146190251Y-105842428D01*
X146190249Y-105842426D01*
X146156851Y-105814401D01*
X146154432Y-105812185D01*
X145987810Y-105645563D01*
X145985593Y-105643143D01*
X145957573Y-105609750D01*
X145957572Y-105609749D01*
X145919805Y-105587944D01*
X145917046Y-105586186D01*
X145904791Y-105577605D01*
X145881336Y-105561182D01*
X145881335Y-105561181D01*
X145881334Y-105561181D01*
X145876186Y-105559802D01*
X145858047Y-105552288D01*
X145853428Y-105549622D01*
X145853427Y-105549621D01*
X145853426Y-105549621D01*
X145810488Y-105542049D01*
X145807285Y-105541339D01*
X145778056Y-105533507D01*
X145765179Y-105530057D01*
X145765178Y-105530057D01*
X145721744Y-105533857D01*
X145718466Y-105534000D01*
X145016200Y-105534000D01*
X144967862Y-105516407D01*
X144942142Y-105471858D01*
X144941000Y-105458800D01*
X144941000Y-104475121D01*
X144949197Y-104440980D01*
X145000570Y-104340156D01*
X145000570Y-104340155D01*
X145000570Y-104340154D01*
X145000571Y-104340153D01*
X145021185Y-104210000D01*
X145000571Y-104079847D01*
X144940746Y-103962434D01*
X144940745Y-103962433D01*
X144940744Y-103962431D01*
X144847568Y-103869255D01*
X144730153Y-103809429D01*
X144730155Y-103809429D01*
X144610475Y-103790474D01*
X144603673Y-103786703D01*
X144603481Y-103786865D01*
X144589525Y-103790474D01*
X144469845Y-103809429D01*
X144352431Y-103869255D01*
X144259255Y-103962431D01*
X144199429Y-104079845D01*
X144178815Y-104209999D01*
X144178815Y-104210000D01*
X144199429Y-104340155D01*
X144199429Y-104340156D01*
X144250803Y-104440980D01*
X144259000Y-104475121D01*
X144259000Y-105609877D01*
X144250804Y-105644017D01*
X144199429Y-105744845D01*
X144178815Y-105874999D01*
X144178815Y-105875000D01*
X144199429Y-106005155D01*
X144199429Y-106005156D01*
X144250803Y-106105980D01*
X144259000Y-106140121D01*
X144259000Y-106937605D01*
X144241407Y-106985943D01*
X144236974Y-106990779D01*
X144080779Y-107146974D01*
X144034159Y-107168714D01*
X144027605Y-107169000D01*
X142766530Y-107169000D01*
X142763252Y-107168857D01*
X142719822Y-107165057D01*
X142719818Y-107165057D01*
X142677696Y-107176344D01*
X142674499Y-107177052D01*
X142663419Y-107179006D01*
X142631573Y-107184621D01*
X142631572Y-107184621D01*
X142626949Y-107187291D01*
X142608821Y-107194799D01*
X142605681Y-107195641D01*
X142603663Y-107196182D01*
X142567956Y-107221183D01*
X142565190Y-107222945D01*
X142527426Y-107244750D01*
X142499402Y-107278148D01*
X142497185Y-107280566D01*
X142190566Y-107587185D01*
X142188148Y-107589402D01*
X142154750Y-107617426D01*
X142132945Y-107655190D01*
X142131183Y-107657956D01*
X142106182Y-107693663D01*
X142104801Y-107698819D01*
X142097291Y-107716949D01*
X142094621Y-107721572D01*
X142094621Y-107721573D01*
X142087054Y-107764493D01*
X142086344Y-107767696D01*
X142075057Y-107809818D01*
X142075057Y-107809822D01*
X142078857Y-107853254D01*
X142079000Y-107856532D01*
X142079000Y-109003800D01*
X142061407Y-109052138D01*
X142016858Y-109077858D01*
X142003800Y-109079000D01*
X141452395Y-109079000D01*
X141404057Y-109061407D01*
X141399221Y-109056974D01*
X141393026Y-109050779D01*
X141371286Y-109004159D01*
X141371000Y-108997605D01*
X141371000Y-108735121D01*
X141379197Y-108700980D01*
X141430570Y-108600156D01*
X141430570Y-108600155D01*
X141430570Y-108600154D01*
X141430571Y-108600153D01*
X141451185Y-108470000D01*
X141430571Y-108339847D01*
X141370746Y-108222434D01*
X141370745Y-108222433D01*
X141370744Y-108222431D01*
X141277568Y-108129255D01*
X141160153Y-108069429D01*
X141160155Y-108069429D01*
X141030001Y-108048815D01*
X141029999Y-108048815D01*
X140899845Y-108069429D01*
X140782431Y-108129255D01*
X140689255Y-108222431D01*
X140629429Y-108339845D01*
X140608815Y-108469999D01*
X140608815Y-108470000D01*
X140629429Y-108600155D01*
X140629429Y-108600156D01*
X140680803Y-108700980D01*
X140689000Y-108735121D01*
X140689000Y-108997605D01*
X140671407Y-109045943D01*
X140666974Y-109050779D01*
X140660779Y-109056974D01*
X140614159Y-109078714D01*
X140607605Y-109079000D01*
X138646200Y-109079000D01*
X138597862Y-109061407D01*
X138572142Y-109016858D01*
X138571000Y-109003800D01*
X138571000Y-108555376D01*
X138588593Y-108507038D01*
X138603895Y-108498203D01*
X138590853Y-108493712D01*
X138565541Y-108454736D01*
X138563659Y-108447712D01*
X138562949Y-108444511D01*
X138562181Y-108440154D01*
X138555378Y-108401572D01*
X138552710Y-108396952D01*
X138545197Y-108378812D01*
X138543818Y-108373664D01*
X138518814Y-108337954D01*
X138517051Y-108335186D01*
X138495254Y-108297432D01*
X138495253Y-108297430D01*
X138495251Y-108297428D01*
X138461843Y-108269395D01*
X138459441Y-108267194D01*
X137612803Y-107420556D01*
X137610597Y-107418148D01*
X137582573Y-107384750D01*
X137582572Y-107384749D01*
X137544805Y-107362944D01*
X137542046Y-107361186D01*
X137520803Y-107346312D01*
X137506336Y-107336182D01*
X137506335Y-107336181D01*
X137506334Y-107336181D01*
X137501186Y-107334802D01*
X137483047Y-107327288D01*
X137478428Y-107324622D01*
X137478427Y-107324621D01*
X137478426Y-107324621D01*
X137435488Y-107317049D01*
X137432285Y-107316339D01*
X137403056Y-107308507D01*
X137390179Y-107305057D01*
X137390178Y-107305057D01*
X137346744Y-107308857D01*
X137343466Y-107309000D01*
X135262400Y-107309000D01*
X135214062Y-107291407D01*
X135188342Y-107246858D01*
X135187200Y-107233800D01*
X135187200Y-105773728D01*
X135188645Y-105759056D01*
X135192436Y-105740000D01*
X135171697Y-105635744D01*
X135132694Y-105577371D01*
X135121877Y-105561182D01*
X135112640Y-105547357D01*
X135096482Y-105536561D01*
X135085087Y-105527209D01*
X134652788Y-105094910D01*
X134643435Y-105083513D01*
X134632642Y-105067359D01*
X134559281Y-105018342D01*
X134544256Y-105008302D01*
X134440000Y-104987564D01*
X134420942Y-104991355D01*
X134406271Y-104992800D01*
X132873730Y-104992800D01*
X132825392Y-104975207D01*
X132820556Y-104970774D01*
X132619782Y-104770000D01*
X134778815Y-104770000D01*
X134799429Y-104900154D01*
X134859255Y-105017568D01*
X134952431Y-105110744D01*
X134952433Y-105110745D01*
X134952434Y-105110746D01*
X135069845Y-105170570D01*
X135069847Y-105170571D01*
X135200000Y-105191185D01*
X135229221Y-105186556D01*
X135279714Y-105196370D01*
X135312087Y-105236345D01*
X135315259Y-105249065D01*
X135324428Y-105306954D01*
X135384254Y-105424368D01*
X135477430Y-105517544D01*
X135477432Y-105517545D01*
X135477433Y-105517546D01*
X135594846Y-105577371D01*
X135656243Y-105587095D01*
X135701231Y-105612032D01*
X135718752Y-105649604D01*
X135739429Y-105780154D01*
X135799255Y-105897568D01*
X135892431Y-105990744D01*
X135892433Y-105990745D01*
X135892434Y-105990746D01*
X136009845Y-106050570D01*
X136009847Y-106050571D01*
X136109827Y-106066406D01*
X136139999Y-106071185D01*
X136140000Y-106071185D01*
X136140001Y-106071185D01*
X136160615Y-106067919D01*
X136270153Y-106050571D01*
X136387566Y-105990746D01*
X136480746Y-105897566D01*
X136540571Y-105780153D01*
X136561185Y-105650000D01*
X136560237Y-105644017D01*
X136555791Y-105615943D01*
X136540571Y-105519847D01*
X136480746Y-105402434D01*
X136480745Y-105402433D01*
X136480744Y-105402431D01*
X136387568Y-105309255D01*
X136270153Y-105249429D01*
X136270155Y-105249429D01*
X136208755Y-105239704D01*
X136163765Y-105214765D01*
X136146246Y-105177194D01*
X136146184Y-105176800D01*
X136125570Y-105046647D01*
X136065745Y-104929234D01*
X136065744Y-104929233D01*
X136065743Y-104929231D01*
X135972567Y-104836055D01*
X135855152Y-104776229D01*
X135855154Y-104776229D01*
X135725000Y-104755615D01*
X135724997Y-104755615D01*
X135695776Y-104760243D01*
X135645282Y-104750428D01*
X135612910Y-104710451D01*
X135609739Y-104697733D01*
X135604148Y-104662434D01*
X135600571Y-104639847D01*
X135540746Y-104522434D01*
X135540745Y-104522433D01*
X135540744Y-104522431D01*
X135447568Y-104429255D01*
X135409778Y-104410000D01*
X139118815Y-104410000D01*
X139139429Y-104540154D01*
X139199255Y-104657568D01*
X139292431Y-104750744D01*
X139292433Y-104750745D01*
X139292434Y-104750746D01*
X139409845Y-104810570D01*
X139409847Y-104810571D01*
X139509827Y-104826406D01*
X139539999Y-104831185D01*
X139540000Y-104831185D01*
X139540001Y-104831185D01*
X139560615Y-104827919D01*
X139670153Y-104810571D01*
X139787566Y-104750746D01*
X139880746Y-104657566D01*
X139940571Y-104540153D01*
X139961185Y-104410000D01*
X139940571Y-104279847D01*
X139880746Y-104162434D01*
X139880745Y-104162433D01*
X139880744Y-104162431D01*
X139787568Y-104069255D01*
X139670153Y-104009429D01*
X139670155Y-104009429D01*
X139540001Y-103988815D01*
X139539999Y-103988815D01*
X139409845Y-104009429D01*
X139292431Y-104069255D01*
X139199255Y-104162431D01*
X139139429Y-104279845D01*
X139118815Y-104409999D01*
X139118815Y-104410000D01*
X135409778Y-104410000D01*
X135330153Y-104369429D01*
X135330155Y-104369429D01*
X135200001Y-104348815D01*
X135199999Y-104348815D01*
X135069845Y-104369429D01*
X134952431Y-104429255D01*
X134859255Y-104522431D01*
X134799429Y-104639845D01*
X134778815Y-104769999D01*
X134778815Y-104770000D01*
X132619782Y-104770000D01*
X132049226Y-104199444D01*
X132027486Y-104152824D01*
X132027200Y-104146270D01*
X132027200Y-103650000D01*
X133968815Y-103650000D01*
X133989429Y-103780154D01*
X134049255Y-103897568D01*
X134142431Y-103990744D01*
X134142433Y-103990745D01*
X134142434Y-103990746D01*
X134259845Y-104050570D01*
X134259847Y-104050571D01*
X134359827Y-104066406D01*
X134389999Y-104071185D01*
X134390000Y-104071185D01*
X134390001Y-104071185D01*
X134410615Y-104067919D01*
X134520153Y-104050571D01*
X134637566Y-103990746D01*
X134730746Y-103897566D01*
X134790571Y-103780153D01*
X134811185Y-103650000D01*
X134809978Y-103642382D01*
X134800074Y-103579847D01*
X134790571Y-103519847D01*
X134730746Y-103402434D01*
X134730745Y-103402433D01*
X134730744Y-103402431D01*
X134637568Y-103309255D01*
X134520153Y-103249429D01*
X134520155Y-103249429D01*
X134390001Y-103228815D01*
X134389999Y-103228815D01*
X134259845Y-103249429D01*
X134142431Y-103309255D01*
X134049255Y-103402431D01*
X133989429Y-103519845D01*
X133968815Y-103649999D01*
X133968815Y-103650000D01*
X132027200Y-103650000D01*
X132027200Y-103120000D01*
X136708815Y-103120000D01*
X136729429Y-103250154D01*
X136789255Y-103367568D01*
X136789551Y-103367864D01*
X136789695Y-103368174D01*
X136792733Y-103372355D01*
X136791920Y-103372945D01*
X136811291Y-103414484D01*
X136800105Y-103456225D01*
X136801941Y-103457161D01*
X136739429Y-103579845D01*
X136718815Y-103709999D01*
X136718815Y-103710000D01*
X136739429Y-103840154D01*
X136799255Y-103957568D01*
X136892431Y-104050744D01*
X136892433Y-104050745D01*
X136892434Y-104050746D01*
X137009845Y-104110570D01*
X137009847Y-104110571D01*
X137109827Y-104126406D01*
X137139999Y-104131185D01*
X137140000Y-104131185D01*
X137140001Y-104131185D01*
X137160615Y-104127919D01*
X137270153Y-104110571D01*
X137387566Y-104050746D01*
X137480746Y-103957566D01*
X137540571Y-103840153D01*
X137561185Y-103710000D01*
X137540571Y-103579847D01*
X137480746Y-103462434D01*
X137480745Y-103462433D01*
X137480744Y-103462431D01*
X137480448Y-103462135D01*
X137480302Y-103461823D01*
X137477267Y-103457645D01*
X137478079Y-103457054D01*
X137458708Y-103415515D01*
X137469892Y-103373773D01*
X137468059Y-103372839D01*
X137500457Y-103309254D01*
X137510268Y-103290000D01*
X138998815Y-103290000D01*
X139019429Y-103420154D01*
X139079255Y-103537568D01*
X139172431Y-103630744D01*
X139172433Y-103630745D01*
X139172434Y-103630746D01*
X139289845Y-103690570D01*
X139289847Y-103690571D01*
X139389827Y-103706406D01*
X139419999Y-103711185D01*
X139420000Y-103711185D01*
X139420001Y-103711185D01*
X139440615Y-103707919D01*
X139550153Y-103690571D01*
X139667566Y-103630746D01*
X139760746Y-103537566D01*
X139820571Y-103420153D01*
X139841185Y-103290000D01*
X139820571Y-103159847D01*
X139760746Y-103042434D01*
X139760745Y-103042433D01*
X139760744Y-103042431D01*
X139667568Y-102949255D01*
X139550153Y-102889429D01*
X139550155Y-102889429D01*
X139420001Y-102868815D01*
X139419999Y-102868815D01*
X139289845Y-102889429D01*
X139172431Y-102949255D01*
X139079255Y-103042431D01*
X139019429Y-103159845D01*
X138998815Y-103289999D01*
X138998815Y-103290000D01*
X137510268Y-103290000D01*
X137530571Y-103250153D01*
X137551185Y-103120000D01*
X137530571Y-102989847D01*
X137470746Y-102872434D01*
X137470745Y-102872433D01*
X137470744Y-102872431D01*
X137377568Y-102779255D01*
X137336442Y-102758300D01*
X140438815Y-102758300D01*
X140459429Y-102888454D01*
X140519255Y-103005868D01*
X140612431Y-103099044D01*
X140612433Y-103099045D01*
X140612434Y-103099046D01*
X140729845Y-103158870D01*
X140729847Y-103158871D01*
X140829827Y-103174706D01*
X140859999Y-103179485D01*
X140860000Y-103179485D01*
X140860001Y-103179485D01*
X140880615Y-103176219D01*
X140990153Y-103158871D01*
X141107566Y-103099046D01*
X141200746Y-103005866D01*
X141260571Y-102888453D01*
X141281185Y-102758300D01*
X141260571Y-102628147D01*
X141200746Y-102510734D01*
X141200745Y-102510733D01*
X141200744Y-102510731D01*
X141107568Y-102417555D01*
X140990153Y-102357729D01*
X140990155Y-102357729D01*
X140860001Y-102337115D01*
X140859999Y-102337115D01*
X140729845Y-102357729D01*
X140612431Y-102417555D01*
X140519255Y-102510731D01*
X140459429Y-102628145D01*
X140438815Y-102758299D01*
X140438815Y-102758300D01*
X137336442Y-102758300D01*
X137260153Y-102719429D01*
X137260155Y-102719429D01*
X137130001Y-102698815D01*
X137129999Y-102698815D01*
X136999845Y-102719429D01*
X136882431Y-102779255D01*
X136789255Y-102872431D01*
X136729429Y-102989845D01*
X136708815Y-103119999D01*
X136708815Y-103120000D01*
X132027200Y-103120000D01*
X132027200Y-102182260D01*
X132044793Y-102133922D01*
X132049215Y-102129096D01*
X132090746Y-102087566D01*
X132150571Y-101970153D01*
X132171185Y-101840000D01*
X132150571Y-101709847D01*
X132090746Y-101592434D01*
X132090745Y-101592433D01*
X132090744Y-101592431D01*
X131997568Y-101499255D01*
X131880153Y-101439429D01*
X131880155Y-101439429D01*
X131750001Y-101418815D01*
X131749999Y-101418815D01*
X131619845Y-101439429D01*
X131502431Y-101499255D01*
X131409255Y-101592431D01*
X131349429Y-101709845D01*
X131328815Y-101839999D01*
X131328815Y-101840000D01*
X131349429Y-101970154D01*
X131395286Y-102060153D01*
X131409254Y-102087566D01*
X131470774Y-102149086D01*
X131492514Y-102195705D01*
X131492800Y-102202260D01*
X131492800Y-104254367D01*
X131491355Y-104269038D01*
X131487564Y-104288095D01*
X131487564Y-104288096D01*
X131508302Y-104392351D01*
X131508303Y-104392354D01*
X131528445Y-104422498D01*
X131540672Y-104472464D01*
X131517921Y-104518599D01*
X131500060Y-104531280D01*
X131425533Y-104569253D01*
X131332355Y-104662431D01*
X131272529Y-104779845D01*
X131251915Y-104909999D01*
X131251915Y-104910000D01*
X131272529Y-105040154D01*
X131332355Y-105157568D01*
X131425531Y-105250744D01*
X131425533Y-105250745D01*
X131425534Y-105250746D01*
X131542945Y-105310570D01*
X131542947Y-105310571D01*
X131642927Y-105326406D01*
X131673099Y-105331185D01*
X131673100Y-105331185D01*
X131673101Y-105331185D01*
X131693715Y-105327919D01*
X131803253Y-105310571D01*
X131920666Y-105250746D01*
X132013846Y-105157566D01*
X132047105Y-105092290D01*
X132084726Y-105057209D01*
X132136095Y-105054517D01*
X132167283Y-105073257D01*
X132519113Y-105425087D01*
X132528465Y-105436482D01*
X132539261Y-105452640D01*
X132563470Y-105468815D01*
X132571872Y-105474429D01*
X132627648Y-105511697D01*
X132731904Y-105532436D01*
X132750962Y-105528645D01*
X132765633Y-105527200D01*
X134298174Y-105527200D01*
X134346512Y-105544793D01*
X134351348Y-105549226D01*
X134630774Y-105828652D01*
X134652514Y-105875272D01*
X134652800Y-105881826D01*
X134652800Y-107297739D01*
X134635207Y-107346077D01*
X134630774Y-107350913D01*
X134579255Y-107402431D01*
X134519429Y-107519845D01*
X134498815Y-107649999D01*
X134498815Y-107650000D01*
X134519429Y-107780154D01*
X134579255Y-107897568D01*
X134672431Y-107990744D01*
X134672433Y-107990745D01*
X134672434Y-107990746D01*
X134789845Y-108050570D01*
X134789847Y-108050571D01*
X134889827Y-108066406D01*
X134919999Y-108071185D01*
X134920000Y-108071185D01*
X134920001Y-108071185D01*
X134940615Y-108067919D01*
X135050153Y-108050571D01*
X135138127Y-108005746D01*
X135150982Y-107999196D01*
X135185122Y-107991000D01*
X136642936Y-107991000D01*
X136691274Y-108008593D01*
X136716994Y-108053142D01*
X136709940Y-108100340D01*
X136669429Y-108179845D01*
X136648815Y-108309999D01*
X136648815Y-108310000D01*
X136669429Y-108440154D01*
X136729255Y-108557568D01*
X136822431Y-108650744D01*
X136822433Y-108650745D01*
X136822434Y-108650746D01*
X136939845Y-108710570D01*
X136939847Y-108710571D01*
X137039827Y-108726406D01*
X137069999Y-108731185D01*
X137070000Y-108731185D01*
X137070001Y-108731185D01*
X137090615Y-108727919D01*
X137200153Y-108710571D01*
X137317566Y-108650746D01*
X137410746Y-108557566D01*
X137470571Y-108440153D01*
X137474464Y-108415568D01*
X137499401Y-108370580D01*
X137547424Y-108352144D01*
X137596062Y-108368891D01*
X137601912Y-108374159D01*
X137866974Y-108639221D01*
X137888714Y-108685841D01*
X137889000Y-108692395D01*
X137889000Y-109173466D01*
X137888857Y-109176744D01*
X137885057Y-109220177D01*
X137885057Y-109220180D01*
X137886437Y-109225328D01*
X137889000Y-109244793D01*
X137889000Y-109635203D01*
X137886438Y-109654666D01*
X137885057Y-109659819D01*
X137888857Y-109703254D01*
X137889000Y-109706532D01*
X137889000Y-113897605D01*
X137871407Y-113945943D01*
X137866974Y-113950779D01*
X137740779Y-114076974D01*
X137694159Y-114098714D01*
X137687605Y-114099000D01*
X137675122Y-114099000D01*
X137640982Y-114090804D01*
X137540153Y-114039429D01*
X137540155Y-114039429D01*
X137410001Y-114018815D01*
X137409999Y-114018815D01*
X137279845Y-114039429D01*
X137162431Y-114099255D01*
X137144713Y-114116974D01*
X137098093Y-114138714D01*
X137091539Y-114139000D01*
X136035122Y-114139000D01*
X136000982Y-114130804D01*
X135900153Y-114079429D01*
X135900155Y-114079429D01*
X135770001Y-114058815D01*
X135769999Y-114058815D01*
X135639845Y-114079429D01*
X135522431Y-114139255D01*
X135429255Y-114232431D01*
X135369429Y-114349845D01*
X135348815Y-114479999D01*
X135348815Y-114480000D01*
X135369429Y-114610154D01*
X135429255Y-114727568D01*
X135522431Y-114820744D01*
X135522433Y-114820745D01*
X135522434Y-114820746D01*
X135561341Y-114840570D01*
X135594167Y-114857296D01*
X135629249Y-114894917D01*
X135631941Y-114946287D01*
X135600984Y-114987368D01*
X135560027Y-114999500D01*
X134467186Y-114999500D01*
X134418848Y-114981907D01*
X134393128Y-114937358D01*
X134392097Y-114928380D01*
X134376073Y-114632830D01*
X134329680Y-114349845D01*
X134316585Y-114269970D01*
X134316585Y-114269969D01*
X134312296Y-114254523D01*
X134218211Y-113915658D01*
X134209127Y-113892858D01*
X134082115Y-113574082D01*
X134082113Y-113574079D01*
X134082108Y-113574065D01*
X133909870Y-113249189D01*
X133703516Y-112944840D01*
X133465466Y-112664586D01*
X133198511Y-112411713D01*
X133196258Y-112410000D01*
X132905791Y-112189193D01*
X132905781Y-112189186D01*
X132905782Y-112189186D01*
X132905780Y-112189185D01*
X132590706Y-111999611D01*
X132256982Y-111845214D01*
X132256978Y-111845212D01*
X132256970Y-111845209D01*
X131908525Y-111727804D01*
X131908522Y-111727803D01*
X131908521Y-111727803D01*
X131815036Y-111707225D01*
X131549405Y-111648756D01*
X131303123Y-111621971D01*
X131183855Y-111609000D01*
X131183852Y-111609000D01*
X131075700Y-111609000D01*
X131027362Y-111591407D01*
X131001642Y-111546858D01*
X131000500Y-111533800D01*
X131000500Y-110675000D01*
X133023925Y-110675000D01*
X133044152Y-110841582D01*
X133044152Y-110841584D01*
X133044153Y-110841585D01*
X133103654Y-110998479D01*
X133103659Y-110998487D01*
X133198976Y-111136578D01*
X133198978Y-111136580D01*
X133198980Y-111136583D01*
X133198983Y-111136585D01*
X133198988Y-111136591D01*
X133324580Y-111247855D01*
X133324582Y-111247856D01*
X133324584Y-111247858D01*
X133473168Y-111325841D01*
X133636097Y-111366000D01*
X133636100Y-111366000D01*
X133803900Y-111366000D01*
X133803903Y-111366000D01*
X133966832Y-111325841D01*
X134115416Y-111247858D01*
X134241020Y-111136583D01*
X134336344Y-110998482D01*
X134395848Y-110841582D01*
X134416075Y-110675000D01*
X134395848Y-110508418D01*
X134339344Y-110359429D01*
X134336345Y-110351520D01*
X134336340Y-110351512D01*
X134241023Y-110213421D01*
X134241022Y-110213419D01*
X134241020Y-110213417D01*
X134241016Y-110213413D01*
X134241011Y-110213408D01*
X134115419Y-110102144D01*
X134115413Y-110102140D01*
X133966835Y-110024160D01*
X133966832Y-110024159D01*
X133803903Y-109984000D01*
X133636097Y-109984000D01*
X133473168Y-110024159D01*
X133473164Y-110024160D01*
X133324586Y-110102140D01*
X133324580Y-110102144D01*
X133198988Y-110213408D01*
X133198976Y-110213421D01*
X133103659Y-110351512D01*
X133103654Y-110351520D01*
X133044153Y-110508414D01*
X133044152Y-110508416D01*
X133044152Y-110508418D01*
X133023925Y-110675000D01*
X131000500Y-110675000D01*
X131000500Y-109300000D01*
X134708815Y-109300000D01*
X134729429Y-109430154D01*
X134789255Y-109547568D01*
X134882431Y-109640744D01*
X134882433Y-109640745D01*
X134882434Y-109640746D01*
X134999845Y-109700570D01*
X134999847Y-109700571D01*
X135099827Y-109716406D01*
X135129999Y-109721185D01*
X135130000Y-109721185D01*
X135130001Y-109721185D01*
X135150615Y-109717919D01*
X135260153Y-109700571D01*
X135377566Y-109640746D01*
X135470746Y-109547566D01*
X135530571Y-109430153D01*
X135551185Y-109300000D01*
X135550661Y-109296694D01*
X135538543Y-109220180D01*
X135530571Y-109169847D01*
X135470746Y-109052434D01*
X135431485Y-109013173D01*
X135409746Y-108966555D01*
X135423059Y-108916868D01*
X135431480Y-108906831D01*
X135480746Y-108857566D01*
X135540571Y-108740153D01*
X135561185Y-108610000D01*
X135540571Y-108479847D01*
X135480746Y-108362434D01*
X135480745Y-108362433D01*
X135480744Y-108362431D01*
X135387568Y-108269255D01*
X135270153Y-108209429D01*
X135270155Y-108209429D01*
X135140001Y-108188815D01*
X135139999Y-108188815D01*
X135009845Y-108209429D01*
X134892431Y-108269255D01*
X134799255Y-108362431D01*
X134739429Y-108479845D01*
X134718815Y-108609999D01*
X134718815Y-108610000D01*
X134739429Y-108740154D01*
X134799255Y-108857568D01*
X134838513Y-108896826D01*
X134860253Y-108943446D01*
X134846939Y-108993133D01*
X134838513Y-109003174D01*
X134789255Y-109052431D01*
X134729429Y-109169845D01*
X134708815Y-109299999D01*
X134708815Y-109300000D01*
X131000500Y-109300000D01*
X131000500Y-107070000D01*
X131218815Y-107070000D01*
X131239429Y-107200154D01*
X131299255Y-107317568D01*
X131392431Y-107410744D01*
X131392433Y-107410745D01*
X131392434Y-107410746D01*
X131509845Y-107470570D01*
X131509847Y-107470571D01*
X131609827Y-107486406D01*
X131639999Y-107491185D01*
X131640000Y-107491185D01*
X131640001Y-107491185D01*
X131660615Y-107487919D01*
X131770153Y-107470571D01*
X131887566Y-107410746D01*
X131980746Y-107317566D01*
X132040571Y-107200153D01*
X132061185Y-107070000D01*
X132040571Y-106939847D01*
X131980746Y-106822434D01*
X131980745Y-106822433D01*
X131980744Y-106822431D01*
X131887568Y-106729255D01*
X131770153Y-106669429D01*
X131770155Y-106669429D01*
X131640001Y-106648815D01*
X131639999Y-106648815D01*
X131509845Y-106669429D01*
X131392431Y-106729255D01*
X131299255Y-106822431D01*
X131239429Y-106939845D01*
X131218815Y-107069999D01*
X131218815Y-107070000D01*
X131000500Y-107070000D01*
X131000500Y-96190000D01*
X133818815Y-96190000D01*
X133839429Y-96320154D01*
X133899255Y-96437568D01*
X133992431Y-96530744D01*
X133992433Y-96530745D01*
X133992434Y-96530746D01*
X134109845Y-96590570D01*
X134109847Y-96590571D01*
X134209827Y-96606406D01*
X134239999Y-96611185D01*
X134240000Y-96611185D01*
X134240001Y-96611185D01*
X134260615Y-96607919D01*
X134370153Y-96590571D01*
X134487566Y-96530746D01*
X134580746Y-96437566D01*
X134640571Y-96320153D01*
X134661185Y-96190000D01*
X134644336Y-96083620D01*
X134654151Y-96033127D01*
X134694127Y-96000755D01*
X134745559Y-96001653D01*
X134760355Y-96009686D01*
X134762432Y-96010744D01*
X134762434Y-96010746D01*
X134879845Y-96070570D01*
X134879847Y-96070571D01*
X134962249Y-96083622D01*
X135009999Y-96091185D01*
X135010000Y-96091185D01*
X135010001Y-96091185D01*
X135030615Y-96087919D01*
X135140153Y-96070571D01*
X135257566Y-96010746D01*
X135350746Y-95917566D01*
X135410571Y-95800153D01*
X135431185Y-95670000D01*
X135410571Y-95539847D01*
X135350746Y-95422434D01*
X135350745Y-95422433D01*
X135350744Y-95422431D01*
X135257568Y-95329255D01*
X135140153Y-95269429D01*
X135140155Y-95269429D01*
X135010001Y-95248815D01*
X135009999Y-95248815D01*
X134879845Y-95269429D01*
X134762431Y-95329255D01*
X134669255Y-95422431D01*
X134609429Y-95539845D01*
X134588815Y-95669999D01*
X134588815Y-95670000D01*
X134605663Y-95776377D01*
X134595848Y-95826872D01*
X134555871Y-95859244D01*
X134504440Y-95858346D01*
X134489660Y-95850321D01*
X134414109Y-95811826D01*
X134370153Y-95789429D01*
X134370155Y-95789429D01*
X134240001Y-95768815D01*
X134239999Y-95768815D01*
X134109845Y-95789429D01*
X133992431Y-95849255D01*
X133899255Y-95942431D01*
X133839429Y-96059845D01*
X133818815Y-96189999D01*
X133818815Y-96190000D01*
X131000500Y-96190000D01*
X131000500Y-90175000D01*
X131978925Y-90175000D01*
X131999152Y-90341582D01*
X131999152Y-90341584D01*
X131999153Y-90341585D01*
X132058654Y-90498479D01*
X132058659Y-90498487D01*
X132153976Y-90636578D01*
X132153978Y-90636580D01*
X132153980Y-90636583D01*
X132153983Y-90636585D01*
X132153988Y-90636591D01*
X132279580Y-90747855D01*
X132279582Y-90747856D01*
X132279584Y-90747858D01*
X132428168Y-90825841D01*
X132591097Y-90866000D01*
X132591100Y-90866000D01*
X132758900Y-90866000D01*
X132758903Y-90866000D01*
X132921832Y-90825841D01*
X133070416Y-90747858D01*
X133196020Y-90636583D01*
X133201912Y-90628045D01*
X133243849Y-90598260D01*
X133295122Y-90602398D01*
X133331739Y-90638526D01*
X133339000Y-90670765D01*
X133339000Y-91851275D01*
X133321407Y-91899613D01*
X133276858Y-91925333D01*
X133249130Y-91925030D01*
X133218814Y-91919000D01*
X133218812Y-91919000D01*
X132181188Y-91919000D01*
X132181187Y-91919000D01*
X132125476Y-91930081D01*
X132125474Y-91930082D01*
X132062297Y-91972297D01*
X132020082Y-92035474D01*
X132020081Y-92035476D01*
X132009000Y-92091187D01*
X132009000Y-93128812D01*
X132020081Y-93184523D01*
X132020082Y-93184525D01*
X132062297Y-93247703D01*
X132125474Y-93289917D01*
X132125473Y-93289917D01*
X132125475Y-93289918D01*
X132139253Y-93292658D01*
X132183229Y-93319342D01*
X132199765Y-93368051D01*
X132181123Y-93415994D01*
X132180885Y-93416264D01*
X132178983Y-93418411D01*
X132083659Y-93556512D01*
X132083654Y-93556520D01*
X132024153Y-93713414D01*
X132024152Y-93713416D01*
X132024152Y-93713418D01*
X132003925Y-93880000D01*
X132024152Y-94046582D01*
X132024152Y-94046584D01*
X132024153Y-94046585D01*
X132083654Y-94203479D01*
X132083659Y-94203487D01*
X132178976Y-94341578D01*
X132178978Y-94341580D01*
X132178980Y-94341583D01*
X132178983Y-94341585D01*
X132178988Y-94341591D01*
X132304581Y-94452856D01*
X132304955Y-94453114D01*
X132305094Y-94453310D01*
X132307988Y-94455874D01*
X132307392Y-94456546D01*
X132334740Y-94495054D01*
X132330597Y-94546327D01*
X132307619Y-94573710D01*
X132307988Y-94574126D01*
X132305193Y-94576601D01*
X132304955Y-94576886D01*
X132304581Y-94577143D01*
X132178988Y-94688408D01*
X132178976Y-94688421D01*
X132083659Y-94826512D01*
X132083654Y-94826520D01*
X132024153Y-94983414D01*
X132024152Y-94983416D01*
X132024152Y-94983418D01*
X132003925Y-95150000D01*
X132024152Y-95316582D01*
X132024152Y-95316584D01*
X132024153Y-95316585D01*
X132083654Y-95473479D01*
X132083659Y-95473487D01*
X132178976Y-95611578D01*
X132178978Y-95611580D01*
X132178980Y-95611583D01*
X132178983Y-95611585D01*
X132178988Y-95611591D01*
X132304580Y-95722855D01*
X132304582Y-95722856D01*
X132304584Y-95722858D01*
X132453168Y-95800841D01*
X132616097Y-95841000D01*
X132616100Y-95841000D01*
X132783900Y-95841000D01*
X132783903Y-95841000D01*
X132946832Y-95800841D01*
X133095416Y-95722858D01*
X133221020Y-95611583D01*
X133281832Y-95523480D01*
X133323768Y-95493695D01*
X133343719Y-95491000D01*
X133413466Y-95491000D01*
X133416744Y-95491143D01*
X133418763Y-95491319D01*
X133460179Y-95494943D01*
X133502301Y-95483655D01*
X133505484Y-95482949D01*
X133548428Y-95475378D01*
X133553045Y-95472711D01*
X133571184Y-95465197D01*
X133576336Y-95463818D01*
X133612045Y-95438814D01*
X133614814Y-95437050D01*
X133627290Y-95429847D01*
X133652572Y-95415251D01*
X133680620Y-95381822D01*
X133682787Y-95379458D01*
X133909458Y-95152787D01*
X133911822Y-95150620D01*
X133945251Y-95122572D01*
X133967050Y-95084814D01*
X133968814Y-95082045D01*
X133983850Y-95060571D01*
X133993818Y-95046336D01*
X133995197Y-95041184D01*
X134002711Y-95023045D01*
X134005378Y-95018428D01*
X134012949Y-94975484D01*
X134013655Y-94972301D01*
X134024943Y-94930179D01*
X134021143Y-94886748D01*
X134021000Y-94883470D01*
X134021000Y-93561328D01*
X134038593Y-93512990D01*
X134083142Y-93487270D01*
X134133800Y-93496203D01*
X134163204Y-93527188D01*
X134209255Y-93617568D01*
X134302431Y-93710744D01*
X134302433Y-93710745D01*
X134302434Y-93710746D01*
X134419845Y-93770570D01*
X134419847Y-93770571D01*
X134507824Y-93784505D01*
X134549999Y-93791185D01*
X134550000Y-93791185D01*
X134550001Y-93791185D01*
X134570615Y-93787919D01*
X134680153Y-93770571D01*
X134797566Y-93710746D01*
X134890746Y-93617566D01*
X134950571Y-93500153D01*
X134971185Y-93370000D01*
X134950571Y-93239847D01*
X134890746Y-93122434D01*
X134890745Y-93122433D01*
X134890744Y-93122431D01*
X134797568Y-93029255D01*
X134680153Y-92969429D01*
X134680155Y-92969429D01*
X134550001Y-92948815D01*
X134549999Y-92948815D01*
X134419845Y-92969429D01*
X134302431Y-93029255D01*
X134209253Y-93122433D01*
X134163203Y-93212812D01*
X134125582Y-93247893D01*
X134074213Y-93250585D01*
X134033132Y-93219627D01*
X134021000Y-93178671D01*
X134021000Y-90760000D01*
X138178815Y-90760000D01*
X138199429Y-90890154D01*
X138259255Y-91007568D01*
X138352431Y-91100744D01*
X138352433Y-91100745D01*
X138352434Y-91100746D01*
X138469845Y-91160570D01*
X138469847Y-91160571D01*
X138569827Y-91176406D01*
X138599999Y-91181185D01*
X138600000Y-91181185D01*
X138600001Y-91181185D01*
X138625255Y-91177185D01*
X138730153Y-91160571D01*
X138847566Y-91100746D01*
X138940746Y-91007566D01*
X139000571Y-90890153D01*
X139021185Y-90760000D01*
X139019261Y-90747855D01*
X139010420Y-90692033D01*
X139000571Y-90629847D01*
X138940746Y-90512434D01*
X138940745Y-90512433D01*
X138940744Y-90512431D01*
X138847568Y-90419255D01*
X138730153Y-90359429D01*
X138730155Y-90359429D01*
X138600001Y-90338815D01*
X138599999Y-90338815D01*
X138469845Y-90359429D01*
X138352431Y-90419255D01*
X138259255Y-90512431D01*
X138199429Y-90629845D01*
X138178815Y-90759999D01*
X138178815Y-90760000D01*
X134021000Y-90760000D01*
X134021000Y-89066532D01*
X134021143Y-89063254D01*
X134021362Y-89060746D01*
X134024943Y-89019821D01*
X134013657Y-88977707D01*
X134012947Y-88974504D01*
X134011724Y-88967566D01*
X134005378Y-88931572D01*
X134002709Y-88926950D01*
X133995196Y-88908809D01*
X133993818Y-88903664D01*
X133968814Y-88867954D01*
X133967051Y-88865186D01*
X133945254Y-88827432D01*
X133945253Y-88827430D01*
X133945251Y-88827428D01*
X133911843Y-88799395D01*
X133909441Y-88797194D01*
X133787803Y-88675556D01*
X133785597Y-88673148D01*
X133757573Y-88639750D01*
X133757572Y-88639749D01*
X133719805Y-88617944D01*
X133717046Y-88616186D01*
X133693114Y-88599429D01*
X133681336Y-88591182D01*
X133681335Y-88591181D01*
X133681334Y-88591181D01*
X133676186Y-88589802D01*
X133658047Y-88582288D01*
X133653428Y-88579622D01*
X133653427Y-88579621D01*
X133653426Y-88579621D01*
X133610488Y-88572049D01*
X133607285Y-88571339D01*
X133578056Y-88563507D01*
X133565179Y-88560057D01*
X133565178Y-88560057D01*
X133521744Y-88563857D01*
X133518466Y-88564000D01*
X133441200Y-88564000D01*
X133392862Y-88546407D01*
X133367142Y-88501858D01*
X133366000Y-88488800D01*
X133366000Y-88386187D01*
X133354972Y-88330746D01*
X133354918Y-88330475D01*
X133312703Y-88267297D01*
X133249525Y-88225082D01*
X133249523Y-88225081D01*
X133223750Y-88219955D01*
X133179774Y-88193269D01*
X133163239Y-88144559D01*
X133181883Y-88096617D01*
X133226982Y-88071875D01*
X133238421Y-88071000D01*
X134503466Y-88071000D01*
X134506744Y-88071143D01*
X134508763Y-88071319D01*
X134550179Y-88074943D01*
X134592301Y-88063655D01*
X134595484Y-88062949D01*
X134638428Y-88055378D01*
X134643045Y-88052711D01*
X134661184Y-88045197D01*
X134666336Y-88043818D01*
X134702045Y-88018814D01*
X134704814Y-88017050D01*
X134716081Y-88010545D01*
X134742572Y-87995251D01*
X134770620Y-87961822D01*
X134772787Y-87959458D01*
X135109458Y-87622787D01*
X135111822Y-87620620D01*
X135145251Y-87592572D01*
X135167050Y-87554814D01*
X135168814Y-87552045D01*
X135172182Y-87547234D01*
X135193818Y-87516336D01*
X135195197Y-87511184D01*
X135202711Y-87493045D01*
X135205378Y-87488428D01*
X135212949Y-87445484D01*
X135213655Y-87442301D01*
X135224943Y-87400179D01*
X135221143Y-87356744D01*
X135221000Y-87353466D01*
X135221000Y-82722395D01*
X135238593Y-82674057D01*
X135243026Y-82669221D01*
X135959221Y-81953026D01*
X136005841Y-81931286D01*
X136012395Y-81931000D01*
X140017605Y-81931000D01*
X140065943Y-81948593D01*
X140070779Y-81953026D01*
X140437194Y-82319441D01*
X140439395Y-82321843D01*
X140444082Y-82327428D01*
X140467430Y-82355253D01*
X140467432Y-82355254D01*
X140505186Y-82377051D01*
X140507954Y-82378814D01*
X140543664Y-82403818D01*
X140548812Y-82405197D01*
X140566952Y-82412710D01*
X140571572Y-82415378D01*
X140614518Y-82422950D01*
X140617707Y-82423658D01*
X140659822Y-82434943D01*
X140692246Y-82432106D01*
X140741933Y-82445420D01*
X140771438Y-82487557D01*
X140774000Y-82507020D01*
X140774000Y-83518812D01*
X140785081Y-83574523D01*
X140785082Y-83574525D01*
X140827297Y-83637703D01*
X140890475Y-83679918D01*
X140932334Y-83688244D01*
X140976310Y-83714929D01*
X140992845Y-83763639D01*
X140974202Y-83811582D01*
X140951804Y-83829002D01*
X140892433Y-83859253D01*
X140799255Y-83952431D01*
X140739429Y-84069845D01*
X140718815Y-84199999D01*
X140718815Y-84200000D01*
X140739429Y-84330154D01*
X140799255Y-84447568D01*
X140892432Y-84540745D01*
X140901319Y-84545273D01*
X140936401Y-84582893D01*
X140939095Y-84634262D01*
X140908138Y-84675344D01*
X140858017Y-84686917D01*
X140855417Y-84686551D01*
X140775002Y-84673815D01*
X140774999Y-84673815D01*
X140644845Y-84694429D01*
X140527431Y-84754255D01*
X140524713Y-84756974D01*
X140478093Y-84778714D01*
X140471539Y-84779000D01*
X139841016Y-84779000D01*
X139792678Y-84761407D01*
X139766958Y-84716858D01*
X139774012Y-84669660D01*
X139777736Y-84662352D01*
X139808240Y-84602484D01*
X139828854Y-84472331D01*
X139808240Y-84342178D01*
X139748415Y-84224765D01*
X139748414Y-84224764D01*
X139748413Y-84224762D01*
X139655237Y-84131586D01*
X139537822Y-84071760D01*
X139537824Y-84071760D01*
X139407670Y-84051146D01*
X139407668Y-84051146D01*
X139277514Y-84071760D01*
X139160102Y-84131585D01*
X139107490Y-84184197D01*
X139060869Y-84205936D01*
X139011183Y-84192622D01*
X138981678Y-84150485D01*
X138980042Y-84142786D01*
X138979489Y-84139293D01*
X138960571Y-84019847D01*
X138900746Y-83902434D01*
X138900745Y-83902433D01*
X138900744Y-83902431D01*
X138807568Y-83809255D01*
X138690153Y-83749429D01*
X138690155Y-83749429D01*
X138560001Y-83728815D01*
X138559999Y-83728815D01*
X138429845Y-83749429D01*
X138355340Y-83787392D01*
X138304284Y-83793661D01*
X138261143Y-83765645D01*
X138246000Y-83720388D01*
X138246000Y-83355439D01*
X138246143Y-83352161D01*
X138246771Y-83344982D01*
X138249654Y-83312033D01*
X138239226Y-83273118D01*
X138238521Y-83269939D01*
X138231524Y-83230254D01*
X138229416Y-83226603D01*
X138221903Y-83208463D01*
X138220812Y-83204393D01*
X138220810Y-83204388D01*
X138197706Y-83171394D01*
X138195942Y-83168625D01*
X138194764Y-83166585D01*
X138175805Y-83133746D01*
X138144935Y-83107842D01*
X138142535Y-83105643D01*
X137694353Y-82657461D01*
X137692147Y-82655053D01*
X137666254Y-82624195D01*
X137631367Y-82604052D01*
X137628600Y-82602289D01*
X137595608Y-82579188D01*
X137595601Y-82579185D01*
X137591525Y-82578093D01*
X137573397Y-82570584D01*
X137569744Y-82568475D01*
X137530084Y-82561481D01*
X137526882Y-82560772D01*
X137487969Y-82550345D01*
X137447833Y-82553857D01*
X137444555Y-82554000D01*
X137193461Y-82554000D01*
X137145123Y-82536407D01*
X137140287Y-82531974D01*
X137137568Y-82529255D01*
X137020153Y-82469429D01*
X137020155Y-82469429D01*
X136890001Y-82448815D01*
X136889999Y-82448815D01*
X136759845Y-82469429D01*
X136642431Y-82529255D01*
X136549255Y-82622431D01*
X136489429Y-82739845D01*
X136468815Y-82869999D01*
X136468815Y-82870000D01*
X136489429Y-83000154D01*
X136549255Y-83117568D01*
X136642431Y-83210744D01*
X136642433Y-83210745D01*
X136642434Y-83210746D01*
X136759845Y-83270570D01*
X136759847Y-83270571D01*
X136859827Y-83286406D01*
X136889999Y-83291185D01*
X136890000Y-83291185D01*
X136890001Y-83291185D01*
X136910615Y-83287919D01*
X137020153Y-83270571D01*
X137137566Y-83210746D01*
X137137568Y-83210744D01*
X137140287Y-83208026D01*
X137186907Y-83186286D01*
X137193461Y-83186000D01*
X137297960Y-83186000D01*
X137346298Y-83203593D01*
X137351134Y-83208026D01*
X137591974Y-83448866D01*
X137613714Y-83495486D01*
X137614000Y-83502040D01*
X137614000Y-84674559D01*
X137613857Y-84677837D01*
X137610346Y-84717965D01*
X137610346Y-84717967D01*
X137611438Y-84722041D01*
X137614000Y-84741503D01*
X137614000Y-85108494D01*
X137611438Y-85127956D01*
X137610346Y-85132031D01*
X137613857Y-85172165D01*
X137614000Y-85175443D01*
X137614000Y-85308494D01*
X137611438Y-85327956D01*
X137610346Y-85332031D01*
X137613857Y-85372165D01*
X137614000Y-85375443D01*
X137614000Y-89421539D01*
X137596407Y-89469877D01*
X137591974Y-89474713D01*
X137589255Y-89477431D01*
X137529429Y-89594845D01*
X137508815Y-89724999D01*
X137508815Y-89725000D01*
X137529429Y-89855154D01*
X137589255Y-89972568D01*
X137682431Y-90065744D01*
X137682433Y-90065745D01*
X137682434Y-90065746D01*
X137799845Y-90125570D01*
X137799847Y-90125571D01*
X137889983Y-90139847D01*
X137929999Y-90146185D01*
X137930000Y-90146185D01*
X137930001Y-90146185D01*
X137950615Y-90142919D01*
X138060153Y-90125571D01*
X138082478Y-90114196D01*
X138116618Y-90106000D01*
X140087960Y-90106000D01*
X140136298Y-90123593D01*
X140141134Y-90128026D01*
X140841974Y-90828865D01*
X140863714Y-90875485D01*
X140864000Y-90882039D01*
X140864000Y-91668800D01*
X140846407Y-91717138D01*
X140801858Y-91742858D01*
X140788800Y-91744000D01*
X139945441Y-91744000D01*
X139942163Y-91743857D01*
X139930744Y-91742858D01*
X139902033Y-91740346D01*
X139902032Y-91740346D01*
X139902030Y-91740346D01*
X139863118Y-91750772D01*
X139859916Y-91751481D01*
X139820253Y-91758475D01*
X139816596Y-91760587D01*
X139798470Y-91768095D01*
X139794394Y-91769187D01*
X139794390Y-91769189D01*
X139761394Y-91792293D01*
X139758627Y-91794056D01*
X139723749Y-91814192D01*
X139723743Y-91814197D01*
X139697844Y-91845061D01*
X139695628Y-91847479D01*
X139062477Y-92480630D01*
X139060058Y-92482846D01*
X139029194Y-92508746D01*
X139029193Y-92508747D01*
X139009059Y-92543621D01*
X139007297Y-92546387D01*
X138984188Y-92579391D01*
X138984187Y-92579392D01*
X138983094Y-92583472D01*
X138975589Y-92601592D01*
X138973478Y-92605249D01*
X138973474Y-92605258D01*
X138966481Y-92644916D01*
X138965772Y-92648118D01*
X138955346Y-92687030D01*
X138958857Y-92727165D01*
X138959000Y-92730443D01*
X138959000Y-96428800D01*
X138941407Y-96477138D01*
X138896858Y-96502858D01*
X138883800Y-96504000D01*
X136892400Y-96504000D01*
X136844062Y-96486407D01*
X136818342Y-96441858D01*
X136817200Y-96428800D01*
X136817200Y-94645509D01*
X136834793Y-94597171D01*
X136879342Y-94571451D01*
X136926540Y-94578505D01*
X136969845Y-94600570D01*
X136969847Y-94600571D01*
X137069827Y-94616406D01*
X137099999Y-94621185D01*
X137100000Y-94621185D01*
X137100001Y-94621185D01*
X137120615Y-94617919D01*
X137230153Y-94600571D01*
X137347566Y-94540746D01*
X137440746Y-94447566D01*
X137440747Y-94447563D01*
X137444930Y-94443381D01*
X137446408Y-94444859D01*
X137481797Y-94420982D01*
X137532956Y-94426352D01*
X137554239Y-94444211D01*
X137555070Y-94443381D01*
X137559253Y-94447564D01*
X137559254Y-94447566D01*
X137652434Y-94540746D01*
X137769845Y-94600570D01*
X137769847Y-94600571D01*
X137869827Y-94616406D01*
X137899999Y-94621185D01*
X137900000Y-94621185D01*
X137900001Y-94621185D01*
X137920615Y-94617919D01*
X138030153Y-94600571D01*
X138147566Y-94540746D01*
X138240746Y-94447566D01*
X138300571Y-94330153D01*
X138321185Y-94200000D01*
X138300571Y-94069847D01*
X138240746Y-93952434D01*
X138240745Y-93952433D01*
X138240744Y-93952431D01*
X138143382Y-93855069D01*
X138144982Y-93853468D01*
X138121391Y-93818480D01*
X138126776Y-93767323D01*
X138141181Y-93747130D01*
X138230746Y-93657566D01*
X138290571Y-93540153D01*
X138311185Y-93410000D01*
X138290571Y-93279847D01*
X138230746Y-93162434D01*
X138230745Y-93162433D01*
X138230744Y-93162431D01*
X138137568Y-93069255D01*
X138020153Y-93009429D01*
X138020155Y-93009429D01*
X137890001Y-92988815D01*
X137889999Y-92988815D01*
X137759845Y-93009429D01*
X137642431Y-93069255D01*
X137578174Y-93133513D01*
X137531554Y-93155253D01*
X137481867Y-93141939D01*
X137471826Y-93133513D01*
X137407568Y-93069255D01*
X137290153Y-93009429D01*
X137290155Y-93009429D01*
X137160001Y-92988815D01*
X137159999Y-92988815D01*
X137029845Y-93009429D01*
X136926540Y-93062066D01*
X136875484Y-93068335D01*
X136832343Y-93040318D01*
X136817200Y-92995062D01*
X136817200Y-92503728D01*
X136818645Y-92489056D01*
X136822436Y-92470000D01*
X136801697Y-92365744D01*
X136757549Y-92299671D01*
X136742641Y-92277359D01*
X136742640Y-92277357D01*
X136726482Y-92266561D01*
X136715087Y-92257209D01*
X136622788Y-92164910D01*
X136613435Y-92153513D01*
X136602642Y-92137360D01*
X136585266Y-92125750D01*
X136557657Y-92107302D01*
X136514257Y-92078303D01*
X136514255Y-92078302D01*
X136410000Y-92057564D01*
X136390942Y-92061355D01*
X136376271Y-92062800D01*
X135212260Y-92062800D01*
X135163922Y-92045207D01*
X135159096Y-92040784D01*
X135107566Y-91989254D01*
X134990153Y-91929429D01*
X134990155Y-91929429D01*
X134860001Y-91908815D01*
X134859999Y-91908815D01*
X134729845Y-91929429D01*
X134612431Y-91989255D01*
X134519255Y-92082431D01*
X134459429Y-92199845D01*
X134438815Y-92329999D01*
X134438815Y-92330000D01*
X134459429Y-92460154D01*
X134519255Y-92577568D01*
X134612431Y-92670744D01*
X134612433Y-92670745D01*
X134612434Y-92670746D01*
X134729845Y-92730570D01*
X134729847Y-92730571D01*
X134829827Y-92746406D01*
X134859999Y-92751185D01*
X134860000Y-92751185D01*
X134860001Y-92751185D01*
X134880615Y-92747919D01*
X134990153Y-92730571D01*
X135107566Y-92670746D01*
X135159086Y-92619225D01*
X135205705Y-92597486D01*
X135212260Y-92597200D01*
X136207600Y-92597200D01*
X136255938Y-92614793D01*
X136281658Y-92659342D01*
X136282800Y-92672400D01*
X136282800Y-96467739D01*
X136265207Y-96516077D01*
X136260774Y-96520913D01*
X136209255Y-96572431D01*
X136149429Y-96689845D01*
X136128815Y-96819999D01*
X136128815Y-96820000D01*
X136149429Y-96950154D01*
X136209255Y-97067568D01*
X136302431Y-97160744D01*
X136302433Y-97160745D01*
X136302434Y-97160746D01*
X136419845Y-97220570D01*
X136419847Y-97220571D01*
X136519827Y-97236406D01*
X136549999Y-97241185D01*
X136550000Y-97241185D01*
X136550001Y-97241185D01*
X136570615Y-97237919D01*
X136680153Y-97220571D01*
X136797566Y-97160746D01*
X136797568Y-97160744D01*
X136800287Y-97158026D01*
X136846907Y-97136286D01*
X136853461Y-97136000D01*
X138883800Y-97136000D01*
X138932138Y-97153593D01*
X138957858Y-97198142D01*
X138959000Y-97211200D01*
X138959000Y-98796539D01*
X138941407Y-98844877D01*
X138936974Y-98849713D01*
X138934255Y-98852431D01*
X138874429Y-98969845D01*
X138853815Y-99099999D01*
X138853815Y-99100000D01*
X138874429Y-99230155D01*
X138874429Y-99230156D01*
X138925803Y-99330980D01*
X138934000Y-99365121D01*
X138934000Y-101332605D01*
X138916407Y-101380943D01*
X138911974Y-101385779D01*
X138810779Y-101486974D01*
X138764159Y-101508714D01*
X138757605Y-101509000D01*
X134075122Y-101509000D01*
X134040982Y-101500804D01*
X133940153Y-101449429D01*
X133940155Y-101449429D01*
X133810001Y-101428815D01*
X133809999Y-101428815D01*
X133679845Y-101449429D01*
X133562431Y-101509255D01*
X133469255Y-101602431D01*
X133409429Y-101719845D01*
X133388815Y-101849999D01*
X133388815Y-101850000D01*
X133409429Y-101980154D01*
X133469255Y-102097568D01*
X133562431Y-102190744D01*
X133562433Y-102190745D01*
X133562434Y-102190746D01*
X133679845Y-102250570D01*
X133679847Y-102250571D01*
X133779827Y-102266406D01*
X133809999Y-102271185D01*
X133810000Y-102271185D01*
X133810001Y-102271185D01*
X133830615Y-102267919D01*
X133940153Y-102250571D01*
X134008213Y-102215892D01*
X134040982Y-102199196D01*
X134075122Y-102191000D01*
X138913466Y-102191000D01*
X138916744Y-102191143D01*
X138918763Y-102191319D01*
X138960179Y-102194943D01*
X139002301Y-102183655D01*
X139005484Y-102182949D01*
X139048428Y-102175378D01*
X139053045Y-102172711D01*
X139071184Y-102165197D01*
X139076336Y-102163818D01*
X139112045Y-102138814D01*
X139114814Y-102137050D01*
X139128610Y-102129085D01*
X139152572Y-102115251D01*
X139180604Y-102081841D01*
X139182793Y-102079452D01*
X139552217Y-101710030D01*
X139552218Y-101710027D01*
X139556500Y-101705746D01*
X139556503Y-101705741D01*
X139573639Y-101688607D01*
X139583663Y-101667109D01*
X139590214Y-101655763D01*
X139603818Y-101636336D01*
X139609957Y-101613422D01*
X139614435Y-101601117D01*
X139624461Y-101579619D01*
X139626528Y-101555987D01*
X139628801Y-101543097D01*
X139634943Y-101520179D01*
X139632875Y-101496546D01*
X139632875Y-101483450D01*
X139634943Y-101459821D01*
X139628803Y-101436909D01*
X139626529Y-101424007D01*
X139624462Y-101400380D01*
X139623045Y-101397341D01*
X139616000Y-101365562D01*
X139616000Y-101045000D01*
X140328815Y-101045000D01*
X140349429Y-101175154D01*
X140409255Y-101292568D01*
X140502431Y-101385744D01*
X140502433Y-101385745D01*
X140502434Y-101385746D01*
X140619845Y-101445570D01*
X140619847Y-101445571D01*
X140709819Y-101459821D01*
X140749999Y-101466185D01*
X140750000Y-101466185D01*
X140750001Y-101466185D01*
X140770615Y-101462919D01*
X140880153Y-101445571D01*
X140997566Y-101385746D01*
X141090746Y-101292566D01*
X141150571Y-101175153D01*
X141171185Y-101045000D01*
X141150571Y-100914847D01*
X141090746Y-100797434D01*
X141090745Y-100797433D01*
X141090744Y-100797431D01*
X140997568Y-100704255D01*
X140880153Y-100644429D01*
X140880155Y-100644429D01*
X140750001Y-100623815D01*
X140749999Y-100623815D01*
X140619845Y-100644429D01*
X140502431Y-100704255D01*
X140409255Y-100797431D01*
X140349429Y-100914845D01*
X140328815Y-101044999D01*
X140328815Y-101045000D01*
X139616000Y-101045000D01*
X139616000Y-99365121D01*
X139624197Y-99330980D01*
X139675570Y-99230156D01*
X139675570Y-99230155D01*
X139675570Y-99230154D01*
X139675571Y-99230153D01*
X139678763Y-99210000D01*
X142188815Y-99210000D01*
X142209429Y-99340154D01*
X142269255Y-99457568D01*
X142328513Y-99516826D01*
X142350253Y-99563446D01*
X142336939Y-99613133D01*
X142328513Y-99623174D01*
X142289255Y-99662431D01*
X142229429Y-99779845D01*
X142208815Y-99909999D01*
X142208815Y-99910000D01*
X142229429Y-100040154D01*
X142289255Y-100157568D01*
X142382431Y-100250744D01*
X142382433Y-100250745D01*
X142382434Y-100250746D01*
X142499845Y-100310570D01*
X142499847Y-100310571D01*
X142599827Y-100326406D01*
X142629999Y-100331185D01*
X142630000Y-100331185D01*
X142630001Y-100331185D01*
X142650615Y-100327919D01*
X142760153Y-100310571D01*
X142877566Y-100250746D01*
X142970746Y-100157566D01*
X143030571Y-100040153D01*
X143051185Y-99910000D01*
X143032179Y-99790000D01*
X153238815Y-99790000D01*
X153259429Y-99920154D01*
X153319255Y-100037568D01*
X153412431Y-100130744D01*
X153412433Y-100130745D01*
X153412434Y-100130746D01*
X153529845Y-100190570D01*
X153529847Y-100190571D01*
X153629827Y-100206406D01*
X153659999Y-100211185D01*
X153660000Y-100211185D01*
X153660001Y-100211185D01*
X153680615Y-100207919D01*
X153790153Y-100190571D01*
X153907566Y-100130746D01*
X153941826Y-100096485D01*
X153988443Y-100074746D01*
X154038130Y-100088059D01*
X154048173Y-100096486D01*
X154062431Y-100110744D01*
X154062433Y-100110745D01*
X154062434Y-100110746D01*
X154179845Y-100170570D01*
X154179847Y-100170571D01*
X154279827Y-100186406D01*
X154309999Y-100191185D01*
X154310000Y-100191185D01*
X154310001Y-100191185D01*
X154330615Y-100187919D01*
X154440153Y-100170571D01*
X154557566Y-100110746D01*
X154650746Y-100017566D01*
X154710571Y-99900153D01*
X154731185Y-99770000D01*
X154710571Y-99639847D01*
X154650746Y-99522434D01*
X154650745Y-99522433D01*
X154650744Y-99522431D01*
X154557568Y-99429255D01*
X154440153Y-99369429D01*
X154440155Y-99369429D01*
X154310001Y-99348815D01*
X154309999Y-99348815D01*
X154179845Y-99369429D01*
X154062431Y-99429255D01*
X154028174Y-99463513D01*
X153981554Y-99485253D01*
X153931867Y-99471939D01*
X153921826Y-99463513D01*
X153907568Y-99449255D01*
X153790153Y-99389429D01*
X153790155Y-99389429D01*
X153660001Y-99368815D01*
X153659999Y-99368815D01*
X153529845Y-99389429D01*
X153412431Y-99449255D01*
X153319255Y-99542431D01*
X153259429Y-99659845D01*
X153238815Y-99789999D01*
X153238815Y-99790000D01*
X143032179Y-99790000D01*
X143030571Y-99779847D01*
X142970746Y-99662434D01*
X142970745Y-99662433D01*
X142970744Y-99662431D01*
X142911487Y-99603174D01*
X142889747Y-99556554D01*
X142903061Y-99506867D01*
X142911487Y-99496826D01*
X142950744Y-99457568D01*
X142950746Y-99457566D01*
X143010571Y-99340153D01*
X143031185Y-99210000D01*
X143010571Y-99079847D01*
X142950746Y-98962434D01*
X142950745Y-98962433D01*
X142950744Y-98962431D01*
X142857568Y-98869255D01*
X142740153Y-98809429D01*
X142740155Y-98809429D01*
X142610001Y-98788815D01*
X142609999Y-98788815D01*
X142479845Y-98809429D01*
X142362431Y-98869255D01*
X142269255Y-98962431D01*
X142209429Y-99079845D01*
X142188815Y-99209999D01*
X142188815Y-99210000D01*
X139678763Y-99210000D01*
X139696185Y-99100000D01*
X139675571Y-98969847D01*
X139615746Y-98852434D01*
X139615745Y-98852433D01*
X139615744Y-98852431D01*
X139613026Y-98849713D01*
X139591286Y-98803093D01*
X139591000Y-98796539D01*
X139591000Y-98080000D01*
X144218815Y-98080000D01*
X144239429Y-98210154D01*
X144299255Y-98327568D01*
X144392431Y-98420744D01*
X144392433Y-98420745D01*
X144392434Y-98420746D01*
X144509845Y-98480570D01*
X144509847Y-98480571D01*
X144609827Y-98496406D01*
X144639999Y-98501185D01*
X144640000Y-98501185D01*
X144640001Y-98501185D01*
X144660615Y-98497919D01*
X144770153Y-98480571D01*
X144887566Y-98420746D01*
X144980746Y-98327566D01*
X145040571Y-98210153D01*
X145048514Y-98160000D01*
X145798115Y-98160000D01*
X145818729Y-98290154D01*
X145878555Y-98407568D01*
X145971731Y-98500744D01*
X145971733Y-98500745D01*
X145971734Y-98500746D01*
X146089145Y-98560570D01*
X146089147Y-98560571D01*
X146189127Y-98576406D01*
X146219299Y-98581185D01*
X146225218Y-98581185D01*
X146225218Y-98583841D01*
X146265511Y-98591651D01*
X146297906Y-98631609D01*
X146301090Y-98644367D01*
X146319429Y-98760154D01*
X146379255Y-98877568D01*
X146472431Y-98970744D01*
X146472433Y-98970745D01*
X146472434Y-98970746D01*
X146589845Y-99030570D01*
X146589847Y-99030571D01*
X146689827Y-99046406D01*
X146719999Y-99051185D01*
X146720000Y-99051185D01*
X146720001Y-99051185D01*
X146740615Y-99047919D01*
X146850153Y-99030571D01*
X146967566Y-98970746D01*
X147060746Y-98877566D01*
X147120571Y-98760153D01*
X147141185Y-98630000D01*
X147134181Y-98585779D01*
X149564979Y-98585779D01*
X149585593Y-98715933D01*
X149645419Y-98833347D01*
X149738595Y-98926523D01*
X149738597Y-98926524D01*
X149738598Y-98926525D01*
X149856009Y-98986349D01*
X149856011Y-98986350D01*
X149978619Y-99005769D01*
X149982464Y-99006378D01*
X150027454Y-99031316D01*
X150044974Y-99068888D01*
X150059429Y-99160154D01*
X150119255Y-99277568D01*
X150212431Y-99370744D01*
X150212433Y-99370745D01*
X150212434Y-99370746D01*
X150329845Y-99430570D01*
X150329847Y-99430571D01*
X150429827Y-99446406D01*
X150459999Y-99451185D01*
X150460000Y-99451185D01*
X150460001Y-99451185D01*
X150480615Y-99447919D01*
X150590153Y-99430571D01*
X150707566Y-99370746D01*
X150800746Y-99277566D01*
X150860571Y-99160153D01*
X150881185Y-99030000D01*
X150877536Y-99006964D01*
X150876088Y-98997817D01*
X150860571Y-98899847D01*
X150800746Y-98782434D01*
X150800745Y-98782433D01*
X150800744Y-98782431D01*
X150707568Y-98689255D01*
X150590153Y-98629429D01*
X150590154Y-98629429D01*
X150463699Y-98609400D01*
X150418709Y-98584461D01*
X150401189Y-98546889D01*
X150386735Y-98455626D01*
X150326910Y-98338213D01*
X150326909Y-98338212D01*
X150326908Y-98338210D01*
X150233732Y-98245034D01*
X150116317Y-98185208D01*
X150116319Y-98185208D01*
X149986165Y-98164594D01*
X149986163Y-98164594D01*
X149856009Y-98185208D01*
X149738595Y-98245034D01*
X149645419Y-98338210D01*
X149585593Y-98455624D01*
X149564979Y-98585778D01*
X149564979Y-98585779D01*
X147134181Y-98585779D01*
X147120571Y-98499847D01*
X147060746Y-98382434D01*
X147060745Y-98382433D01*
X147060744Y-98382431D01*
X146967568Y-98289255D01*
X146850153Y-98229429D01*
X146850155Y-98229429D01*
X146720001Y-98208815D01*
X146714082Y-98208815D01*
X146714082Y-98206168D01*
X146673742Y-98198321D01*
X146641376Y-98158340D01*
X146638209Y-98145632D01*
X146634174Y-98120154D01*
X146619871Y-98029847D01*
X146560046Y-97912434D01*
X146560045Y-97912433D01*
X146560044Y-97912431D01*
X146466868Y-97819255D01*
X146349454Y-97759429D01*
X146219301Y-97738815D01*
X146219299Y-97738815D01*
X146089145Y-97759429D01*
X145971731Y-97819255D01*
X145878555Y-97912431D01*
X145818729Y-98029845D01*
X145798115Y-98159999D01*
X145798115Y-98160000D01*
X145048514Y-98160000D01*
X145061185Y-98080000D01*
X145040571Y-97949847D01*
X144980746Y-97832434D01*
X144980745Y-97832433D01*
X144980744Y-97832431D01*
X144887568Y-97739255D01*
X144770153Y-97679429D01*
X144770155Y-97679429D01*
X144640001Y-97658815D01*
X144639999Y-97658815D01*
X144509845Y-97679429D01*
X144392431Y-97739255D01*
X144299255Y-97832431D01*
X144239429Y-97949845D01*
X144218815Y-98079999D01*
X144218815Y-98080000D01*
X139591000Y-98080000D01*
X139591000Y-97590000D01*
X150558815Y-97590000D01*
X150579429Y-97720154D01*
X150639255Y-97837568D01*
X150732431Y-97930744D01*
X150732433Y-97930745D01*
X150732434Y-97930746D01*
X150849845Y-97990570D01*
X150849847Y-97990571D01*
X150949827Y-98006406D01*
X150979999Y-98011185D01*
X150980000Y-98011185D01*
X150980001Y-98011185D01*
X151000615Y-98007919D01*
X151110153Y-97990571D01*
X151111274Y-97990000D01*
X151468815Y-97990000D01*
X151489429Y-98120154D01*
X151549255Y-98237568D01*
X151642431Y-98330744D01*
X151642433Y-98330745D01*
X151642434Y-98330746D01*
X151759845Y-98390570D01*
X151759847Y-98390571D01*
X151842476Y-98403658D01*
X151889999Y-98411185D01*
X151890000Y-98411185D01*
X151890001Y-98411185D01*
X151912850Y-98407566D01*
X152020153Y-98390571D01*
X152137566Y-98330746D01*
X152189086Y-98279225D01*
X152235705Y-98257486D01*
X152242260Y-98257200D01*
X156368174Y-98257200D01*
X156416512Y-98274793D01*
X156421348Y-98279226D01*
X156660774Y-98518652D01*
X156682514Y-98565272D01*
X156682800Y-98571826D01*
X156682800Y-99527739D01*
X156665207Y-99576077D01*
X156660774Y-99580913D01*
X156609255Y-99632431D01*
X156549429Y-99749845D01*
X156528815Y-99879999D01*
X156528815Y-99880000D01*
X156549429Y-100010154D01*
X156609255Y-100127568D01*
X156702431Y-100220744D01*
X156702433Y-100220745D01*
X156702434Y-100220746D01*
X156819845Y-100280570D01*
X156819847Y-100280571D01*
X156919827Y-100296406D01*
X156949999Y-100301185D01*
X156950000Y-100301185D01*
X156950001Y-100301185D01*
X156970615Y-100297919D01*
X157080153Y-100280571D01*
X157197566Y-100220746D01*
X157290746Y-100127566D01*
X157350571Y-100010153D01*
X157371185Y-99880000D01*
X157350571Y-99749847D01*
X157290746Y-99632434D01*
X157290745Y-99632433D01*
X157290744Y-99632431D01*
X157239226Y-99580913D01*
X157217486Y-99534293D01*
X157217200Y-99527739D01*
X157217200Y-98463724D01*
X157218645Y-98449052D01*
X157222435Y-98429999D01*
X157216138Y-98398342D01*
X157213249Y-98383818D01*
X157201697Y-98325744D01*
X157201696Y-98325742D01*
X157201695Y-98325740D01*
X157149606Y-98247783D01*
X157142641Y-98237359D01*
X157142640Y-98237358D01*
X157126482Y-98226561D01*
X157115087Y-98217209D01*
X156722788Y-97824910D01*
X156713435Y-97813513D01*
X156702642Y-97797360D01*
X156645874Y-97759429D01*
X156614257Y-97738303D01*
X156614255Y-97738302D01*
X156510000Y-97717564D01*
X156490942Y-97721355D01*
X156476271Y-97722800D01*
X153271194Y-97722800D01*
X153222856Y-97705207D01*
X153197136Y-97660658D01*
X153204190Y-97613460D01*
X153215536Y-97591192D01*
X153259197Y-97505503D01*
X153279811Y-97375350D01*
X153276848Y-97356645D01*
X153269145Y-97308007D01*
X153263515Y-97272461D01*
X153273330Y-97221967D01*
X153303647Y-97193694D01*
X153407566Y-97140746D01*
X153500746Y-97047566D01*
X153560571Y-96930153D01*
X153581185Y-96800000D01*
X153560571Y-96669847D01*
X153500746Y-96552434D01*
X153500745Y-96552433D01*
X153500744Y-96552431D01*
X153407568Y-96459255D01*
X153290153Y-96399429D01*
X153290155Y-96399429D01*
X153160001Y-96378815D01*
X153159999Y-96378815D01*
X153029845Y-96399429D01*
X152912431Y-96459255D01*
X152819255Y-96552431D01*
X152759429Y-96669845D01*
X152738815Y-96799999D01*
X152738815Y-96800001D01*
X152755110Y-96902889D01*
X152745295Y-96953383D01*
X152714976Y-96981656D01*
X152611057Y-97034605D01*
X152517881Y-97127781D01*
X152458055Y-97245195D01*
X152437441Y-97375349D01*
X152437441Y-97375350D01*
X152458055Y-97505504D01*
X152513062Y-97613460D01*
X152519331Y-97664516D01*
X152491315Y-97707657D01*
X152446058Y-97722800D01*
X152242260Y-97722800D01*
X152193922Y-97705207D01*
X152189096Y-97700784D01*
X152137566Y-97649254D01*
X152020153Y-97589429D01*
X152020155Y-97589429D01*
X151890001Y-97568815D01*
X151889999Y-97568815D01*
X151759845Y-97589429D01*
X151642431Y-97649255D01*
X151549255Y-97742431D01*
X151489429Y-97859845D01*
X151468815Y-97989999D01*
X151468815Y-97990000D01*
X151111274Y-97990000D01*
X151227566Y-97930746D01*
X151320746Y-97837566D01*
X151380571Y-97720153D01*
X151401185Y-97590000D01*
X151399413Y-97578815D01*
X151397305Y-97565505D01*
X151380571Y-97459847D01*
X151320746Y-97342434D01*
X151320745Y-97342433D01*
X151320744Y-97342431D01*
X151227568Y-97249255D01*
X151110153Y-97189429D01*
X151110155Y-97189429D01*
X150980001Y-97168815D01*
X150979999Y-97168815D01*
X150849845Y-97189429D01*
X150732431Y-97249255D01*
X150639255Y-97342431D01*
X150579429Y-97459845D01*
X150558815Y-97589999D01*
X150558815Y-97590000D01*
X139591000Y-97590000D01*
X139591000Y-96980439D01*
X139591143Y-96977161D01*
X139593223Y-96953383D01*
X139594654Y-96937033D01*
X139593562Y-96932956D01*
X139591000Y-96913494D01*
X139591000Y-96701503D01*
X139593562Y-96682041D01*
X139594654Y-96677967D01*
X139591143Y-96637833D01*
X139591000Y-96634555D01*
X139591000Y-96170000D01*
X156038815Y-96170000D01*
X156059429Y-96300154D01*
X156099509Y-96378815D01*
X156119254Y-96417566D01*
X156138512Y-96436824D01*
X156160253Y-96483443D01*
X156146940Y-96533131D01*
X156140019Y-96541379D01*
X156139255Y-96542431D01*
X156079429Y-96659845D01*
X156058815Y-96789999D01*
X156058815Y-96790000D01*
X156079429Y-96920154D01*
X156139255Y-97037568D01*
X156232431Y-97130744D01*
X156232433Y-97130745D01*
X156232434Y-97130746D01*
X156349845Y-97190570D01*
X156349847Y-97190571D01*
X156444655Y-97205587D01*
X156479999Y-97211185D01*
X156480000Y-97211185D01*
X156480001Y-97211185D01*
X156500615Y-97207919D01*
X156610153Y-97190571D01*
X156727566Y-97130746D01*
X156820746Y-97037566D01*
X156880571Y-96920153D01*
X156901185Y-96790000D01*
X156880571Y-96659847D01*
X156820746Y-96542434D01*
X156801486Y-96523174D01*
X156779746Y-96476556D01*
X156793059Y-96426868D01*
X156799979Y-96418621D01*
X156800744Y-96417568D01*
X156800746Y-96417566D01*
X156860571Y-96300153D01*
X156881185Y-96170000D01*
X156860571Y-96039847D01*
X156800746Y-95922434D01*
X156796488Y-95918176D01*
X156774747Y-95871559D01*
X156788057Y-95821871D01*
X156796486Y-95811826D01*
X156800746Y-95807566D01*
X156860571Y-95690153D01*
X156881185Y-95560000D01*
X156860571Y-95429847D01*
X156800746Y-95312434D01*
X156800745Y-95312433D01*
X156800744Y-95312431D01*
X156707568Y-95219255D01*
X156590153Y-95159429D01*
X156590155Y-95159429D01*
X156460001Y-95138815D01*
X156459999Y-95138815D01*
X156329845Y-95159429D01*
X156212431Y-95219255D01*
X156119255Y-95312431D01*
X156059429Y-95429845D01*
X156038815Y-95559999D01*
X156038815Y-95560000D01*
X156059429Y-95690154D01*
X156119255Y-95807568D01*
X156123513Y-95811826D01*
X156145253Y-95858446D01*
X156131939Y-95908133D01*
X156123513Y-95918174D01*
X156119255Y-95922431D01*
X156059429Y-96039845D01*
X156038815Y-96169999D01*
X156038815Y-96170000D01*
X139591000Y-96170000D01*
X139591000Y-93800580D01*
X139608593Y-93752242D01*
X139653142Y-93726522D01*
X139703800Y-93735455D01*
X139733204Y-93766440D01*
X139759255Y-93817568D01*
X139852431Y-93910744D01*
X139852433Y-93910745D01*
X139852434Y-93910746D01*
X139969847Y-93970571D01*
X140060846Y-93984983D01*
X140105836Y-94009921D01*
X140124271Y-94057944D01*
X140123356Y-94071020D01*
X140117072Y-94110698D01*
X140117072Y-94110700D01*
X140137686Y-94240854D01*
X140197512Y-94358268D01*
X140290688Y-94451444D01*
X140290690Y-94451445D01*
X140290691Y-94451446D01*
X140408102Y-94511270D01*
X140408104Y-94511271D01*
X140508084Y-94527106D01*
X140538256Y-94531885D01*
X140538257Y-94531885D01*
X140611273Y-94520320D01*
X140661766Y-94530135D01*
X140694139Y-94570111D01*
X140697310Y-94606357D01*
X140688815Y-94659997D01*
X140688815Y-94660000D01*
X140696865Y-94710827D01*
X140687050Y-94761322D01*
X140647074Y-94793694D01*
X140610827Y-94796865D01*
X140560001Y-94788815D01*
X140559999Y-94788815D01*
X140429845Y-94809429D01*
X140312431Y-94869255D01*
X140219255Y-94962431D01*
X140159429Y-95079845D01*
X140138815Y-95209999D01*
X140138815Y-95210000D01*
X140159429Y-95340154D01*
X140219255Y-95457568D01*
X140312431Y-95550744D01*
X140312433Y-95550745D01*
X140312434Y-95550746D01*
X140429845Y-95610570D01*
X140429847Y-95610571D01*
X140529827Y-95626406D01*
X140559999Y-95631185D01*
X140560000Y-95631185D01*
X140560001Y-95631185D01*
X140580615Y-95627919D01*
X140690153Y-95610571D01*
X140807566Y-95550746D01*
X140900746Y-95457566D01*
X140960571Y-95340153D01*
X140981185Y-95210000D01*
X140973134Y-95159170D01*
X140982949Y-95108678D01*
X141022924Y-95076305D01*
X141059169Y-95073134D01*
X141110000Y-95081185D01*
X141240153Y-95060571D01*
X141357566Y-95000746D01*
X141450746Y-94907566D01*
X141510571Y-94790153D01*
X141531185Y-94660000D01*
X141512290Y-94540700D01*
X156938815Y-94540700D01*
X156959429Y-94670854D01*
X157019255Y-94788268D01*
X157112431Y-94881444D01*
X157112433Y-94881445D01*
X157112434Y-94881446D01*
X157229845Y-94941270D01*
X157229847Y-94941271D01*
X157329827Y-94957106D01*
X157359999Y-94961885D01*
X157360000Y-94961885D01*
X157360001Y-94961885D01*
X157380615Y-94958619D01*
X157490153Y-94941271D01*
X157607566Y-94881446D01*
X157700746Y-94788266D01*
X157760571Y-94670853D01*
X157781185Y-94540700D01*
X157780242Y-94534749D01*
X157771926Y-94482239D01*
X157760571Y-94410547D01*
X157700746Y-94293134D01*
X157700745Y-94293133D01*
X157700744Y-94293131D01*
X157607568Y-94199955D01*
X157490153Y-94140129D01*
X157490155Y-94140129D01*
X157360001Y-94119515D01*
X157359999Y-94119515D01*
X157229845Y-94140129D01*
X157112431Y-94199955D01*
X157019255Y-94293131D01*
X156959429Y-94410545D01*
X156938815Y-94540699D01*
X156938815Y-94540700D01*
X141512290Y-94540700D01*
X141510571Y-94529847D01*
X141450746Y-94412434D01*
X141450745Y-94412433D01*
X141450744Y-94412431D01*
X141357568Y-94319255D01*
X141240153Y-94259429D01*
X141240155Y-94259429D01*
X141110001Y-94238815D01*
X141109998Y-94238815D01*
X141036983Y-94250379D01*
X140986489Y-94240564D01*
X140954117Y-94200587D01*
X140950946Y-94164341D01*
X140959442Y-94110700D01*
X140959442Y-94110699D01*
X140953157Y-94071020D01*
X140938828Y-93980547D01*
X140879003Y-93863134D01*
X140879002Y-93863133D01*
X140879001Y-93863131D01*
X140785825Y-93769955D01*
X140668410Y-93710129D01*
X140668412Y-93710129D01*
X140577410Y-93695716D01*
X140532420Y-93670777D01*
X140513985Y-93622754D01*
X140514899Y-93609684D01*
X140521185Y-93570000D01*
X140500571Y-93439847D01*
X140440746Y-93322434D01*
X140440745Y-93322433D01*
X140440744Y-93322431D01*
X140347568Y-93229255D01*
X140230153Y-93169429D01*
X140230155Y-93169429D01*
X140100001Y-93148815D01*
X140099999Y-93148815D01*
X139969845Y-93169429D01*
X139852431Y-93229255D01*
X139759253Y-93322433D01*
X139733203Y-93373560D01*
X139695582Y-93408641D01*
X139644213Y-93411333D01*
X139603132Y-93380375D01*
X139591000Y-93339419D01*
X139591000Y-93109300D01*
X140709766Y-93109300D01*
X140730380Y-93239454D01*
X140790206Y-93356868D01*
X140883382Y-93450044D01*
X140883384Y-93450045D01*
X140883385Y-93450046D01*
X141000796Y-93509870D01*
X141000798Y-93509871D01*
X141084936Y-93523197D01*
X141130950Y-93530485D01*
X141130951Y-93530485D01*
X141130952Y-93530485D01*
X141151768Y-93527188D01*
X141261104Y-93509871D01*
X141378517Y-93450046D01*
X141471697Y-93356866D01*
X141531522Y-93239453D01*
X141552136Y-93109300D01*
X141531522Y-92979147D01*
X141471697Y-92861734D01*
X141471696Y-92861733D01*
X141471695Y-92861731D01*
X141378519Y-92768555D01*
X141261104Y-92708729D01*
X141261106Y-92708729D01*
X141130952Y-92688115D01*
X141130950Y-92688115D01*
X141000796Y-92708729D01*
X140883382Y-92768555D01*
X140790206Y-92861731D01*
X140730380Y-92979145D01*
X140709766Y-93109299D01*
X140709766Y-93109300D01*
X139591000Y-93109300D01*
X139591000Y-92877040D01*
X139608593Y-92828702D01*
X139613026Y-92823866D01*
X139896892Y-92540000D01*
X144068815Y-92540000D01*
X144089429Y-92670154D01*
X144149255Y-92787568D01*
X144242431Y-92880744D01*
X144242433Y-92880745D01*
X144242434Y-92880746D01*
X144359847Y-92940571D01*
X144422356Y-92950471D01*
X144467347Y-92975409D01*
X144485782Y-93023432D01*
X144469035Y-93072070D01*
X144463768Y-93077919D01*
X144379254Y-93162433D01*
X144319429Y-93279845D01*
X144298815Y-93409999D01*
X144298815Y-93410000D01*
X144319429Y-93540154D01*
X144379255Y-93657568D01*
X144472431Y-93750744D01*
X144472433Y-93750745D01*
X144472434Y-93750746D01*
X144589845Y-93810570D01*
X144589847Y-93810571D01*
X144689827Y-93826406D01*
X144719999Y-93831185D01*
X144720000Y-93831185D01*
X144720001Y-93831185D01*
X144740615Y-93827919D01*
X144850153Y-93810571D01*
X144967566Y-93750746D01*
X145060746Y-93657566D01*
X145120571Y-93540153D01*
X145141185Y-93410000D01*
X145120571Y-93279847D01*
X145060746Y-93162434D01*
X145060745Y-93162433D01*
X145060744Y-93162431D01*
X144967568Y-93069255D01*
X144850153Y-93009429D01*
X144850154Y-93009429D01*
X144787642Y-92999528D01*
X144742652Y-92974589D01*
X144724217Y-92926566D01*
X144740965Y-92877929D01*
X144746222Y-92872089D01*
X144830746Y-92787566D01*
X144890571Y-92670153D01*
X144911185Y-92540000D01*
X144890571Y-92409847D01*
X144830746Y-92292434D01*
X144830745Y-92292433D01*
X144830744Y-92292431D01*
X144737568Y-92199255D01*
X144620153Y-92139429D01*
X144620155Y-92139429D01*
X144490001Y-92118815D01*
X144489999Y-92118815D01*
X144359845Y-92139429D01*
X144242431Y-92199255D01*
X144149255Y-92292431D01*
X144089429Y-92409845D01*
X144068815Y-92539999D01*
X144068815Y-92540000D01*
X139896892Y-92540000D01*
X140038866Y-92398026D01*
X140085486Y-92376286D01*
X140092040Y-92376000D01*
X140876539Y-92376000D01*
X140924877Y-92393593D01*
X140929713Y-92398026D01*
X140932431Y-92400744D01*
X140932433Y-92400745D01*
X140932434Y-92400746D01*
X141049845Y-92460570D01*
X141049847Y-92460571D01*
X141149827Y-92476406D01*
X141179999Y-92481185D01*
X141180000Y-92481185D01*
X141180001Y-92481185D01*
X141200615Y-92477919D01*
X141310153Y-92460571D01*
X141427566Y-92400746D01*
X141520746Y-92307566D01*
X141580571Y-92190153D01*
X141601185Y-92060000D01*
X141580571Y-91929847D01*
X141520746Y-91812434D01*
X141520745Y-91812433D01*
X141520744Y-91812431D01*
X141518026Y-91809713D01*
X141496286Y-91763093D01*
X141496000Y-91756539D01*
X141496000Y-90800000D01*
X146178815Y-90800000D01*
X146199429Y-90930154D01*
X146259255Y-91047568D01*
X146352431Y-91140744D01*
X146352433Y-91140745D01*
X146352434Y-91140746D01*
X146469845Y-91200570D01*
X146469847Y-91200571D01*
X146554118Y-91213918D01*
X146599999Y-91221185D01*
X146600000Y-91221185D01*
X146600001Y-91221185D01*
X146615655Y-91218705D01*
X146730153Y-91200571D01*
X146746631Y-91192174D01*
X146797684Y-91185904D01*
X146840826Y-91213918D01*
X146847774Y-91225035D01*
X146857888Y-91244885D01*
X146859255Y-91247568D01*
X146952431Y-91340744D01*
X146952433Y-91340745D01*
X146952434Y-91340746D01*
X147069845Y-91400570D01*
X147069847Y-91400571D01*
X147169827Y-91416406D01*
X147199999Y-91421185D01*
X147200000Y-91421185D01*
X147200001Y-91421185D01*
X147220615Y-91417919D01*
X147330153Y-91400571D01*
X147447566Y-91340746D01*
X147540746Y-91247566D01*
X147552224Y-91225037D01*
X147589841Y-91189957D01*
X147641211Y-91187263D01*
X147653368Y-91192175D01*
X147669844Y-91200570D01*
X147669845Y-91200570D01*
X147669847Y-91200571D01*
X147754118Y-91213918D01*
X147799999Y-91221185D01*
X147800000Y-91221185D01*
X147800001Y-91221185D01*
X147820615Y-91217919D01*
X147930153Y-91200571D01*
X148047566Y-91140746D01*
X148140746Y-91047566D01*
X148200571Y-90930153D01*
X148221185Y-90800000D01*
X148798815Y-90800000D01*
X148819429Y-90930154D01*
X148879255Y-91047568D01*
X148972431Y-91140744D01*
X148972433Y-91140745D01*
X148972434Y-91140746D01*
X149089845Y-91200570D01*
X149089847Y-91200571D01*
X149174118Y-91213918D01*
X149219999Y-91221185D01*
X149220000Y-91221185D01*
X149220001Y-91221185D01*
X149240615Y-91217919D01*
X149350153Y-91200571D01*
X149467566Y-91140746D01*
X149560746Y-91047566D01*
X149620571Y-90930153D01*
X149641185Y-90800000D01*
X149620571Y-90669847D01*
X149560746Y-90552434D01*
X149560745Y-90552433D01*
X149560744Y-90552431D01*
X149467568Y-90459255D01*
X149350153Y-90399429D01*
X149350155Y-90399429D01*
X149220001Y-90378815D01*
X149219999Y-90378815D01*
X149089845Y-90399429D01*
X148972431Y-90459255D01*
X148879255Y-90552431D01*
X148819429Y-90669845D01*
X148798815Y-90799999D01*
X148798815Y-90800000D01*
X148221185Y-90800000D01*
X148200571Y-90669847D01*
X148140746Y-90552434D01*
X148140745Y-90552433D01*
X148140744Y-90552431D01*
X148047568Y-90459255D01*
X147930153Y-90399429D01*
X147930155Y-90399429D01*
X147800001Y-90378815D01*
X147799999Y-90378815D01*
X147721650Y-90391224D01*
X147671155Y-90381409D01*
X147638783Y-90341432D01*
X147635612Y-90305186D01*
X147641185Y-90270000D01*
X147641185Y-90269999D01*
X147632768Y-90216858D01*
X147620571Y-90139847D01*
X147560746Y-90022434D01*
X147560745Y-90022433D01*
X147560744Y-90022431D01*
X147467568Y-89929255D01*
X147350153Y-89869429D01*
X147350155Y-89869429D01*
X147220001Y-89848815D01*
X147219999Y-89848815D01*
X147089845Y-89869429D01*
X146972431Y-89929255D01*
X146879255Y-90022431D01*
X146819429Y-90139845D01*
X146798815Y-90269999D01*
X146798815Y-90270000D01*
X146805417Y-90311684D01*
X146795602Y-90362179D01*
X146755626Y-90394551D01*
X146719380Y-90397722D01*
X146600002Y-90378815D01*
X146599999Y-90378815D01*
X146469845Y-90399429D01*
X146352431Y-90459255D01*
X146259255Y-90552431D01*
X146199429Y-90669845D01*
X146178815Y-90799999D01*
X146178815Y-90800000D01*
X141496000Y-90800000D01*
X141496000Y-90735439D01*
X141496143Y-90732161D01*
X141499654Y-90692033D01*
X141489228Y-90653124D01*
X141488519Y-90649928D01*
X141486785Y-90640095D01*
X141481524Y-90610254D01*
X141479414Y-90606600D01*
X141471903Y-90588466D01*
X141470812Y-90584393D01*
X141448434Y-90552434D01*
X141447703Y-90551390D01*
X141445946Y-90548632D01*
X141425805Y-90513746D01*
X141424241Y-90512434D01*
X141407614Y-90498482D01*
X141394929Y-90487837D01*
X141392529Y-90485638D01*
X140484353Y-89577461D01*
X140482147Y-89575053D01*
X140456254Y-89544195D01*
X140421367Y-89524052D01*
X140418600Y-89522289D01*
X140385608Y-89499188D01*
X140385601Y-89499185D01*
X140381525Y-89498093D01*
X140363397Y-89490584D01*
X140359744Y-89488475D01*
X140320084Y-89481481D01*
X140316882Y-89480772D01*
X140277969Y-89470345D01*
X140237833Y-89473857D01*
X140234555Y-89474000D01*
X139545599Y-89474000D01*
X139497261Y-89456407D01*
X139471541Y-89411858D01*
X139480474Y-89361200D01*
X139494299Y-89345848D01*
X139493382Y-89344931D01*
X139588312Y-89250000D01*
X140578815Y-89250000D01*
X140599429Y-89380154D01*
X140659255Y-89497568D01*
X140752431Y-89590744D01*
X140752433Y-89590745D01*
X140752434Y-89590746D01*
X140869845Y-89650570D01*
X140869847Y-89650571D01*
X140969827Y-89666406D01*
X140999999Y-89671185D01*
X141000000Y-89671185D01*
X141000001Y-89671185D01*
X141024390Y-89667322D01*
X141130153Y-89650571D01*
X141247566Y-89590746D01*
X141340746Y-89497566D01*
X141400571Y-89380153D01*
X141421185Y-89250000D01*
X141420799Y-89247566D01*
X141411657Y-89189845D01*
X141400571Y-89119847D01*
X141340746Y-89002434D01*
X141340745Y-89002433D01*
X141340744Y-89002431D01*
X141247568Y-88909255D01*
X141130153Y-88849429D01*
X141130155Y-88849429D01*
X141000001Y-88828815D01*
X140999999Y-88828815D01*
X140869845Y-88849429D01*
X140752431Y-88909255D01*
X140659255Y-89002431D01*
X140599429Y-89119845D01*
X140578815Y-89249999D01*
X140578815Y-89250000D01*
X139588312Y-89250000D01*
X139590744Y-89247568D01*
X139590746Y-89247566D01*
X139650571Y-89130153D01*
X139671185Y-89000000D01*
X139667654Y-88977709D01*
X139660347Y-88931570D01*
X139650571Y-88869847D01*
X139590746Y-88752434D01*
X139590745Y-88752433D01*
X139590744Y-88752431D01*
X139497568Y-88659255D01*
X139380153Y-88599429D01*
X139380155Y-88599429D01*
X139250001Y-88578815D01*
X139249999Y-88578815D01*
X139119845Y-88599429D01*
X139002431Y-88659255D01*
X138909255Y-88752431D01*
X138849429Y-88869845D01*
X138828815Y-88999999D01*
X138828815Y-89000000D01*
X138849429Y-89130154D01*
X138909255Y-89247568D01*
X139006618Y-89344931D01*
X139004636Y-89346912D01*
X139027363Y-89380592D01*
X139021997Y-89431752D01*
X138985002Y-89467492D01*
X138954401Y-89474000D01*
X138321200Y-89474000D01*
X138272862Y-89456407D01*
X138247142Y-89411858D01*
X138246000Y-89398800D01*
X138246000Y-87990000D01*
X138788815Y-87990000D01*
X138809429Y-88120154D01*
X138869255Y-88237568D01*
X138962431Y-88330744D01*
X138962433Y-88330745D01*
X138962434Y-88330746D01*
X139079845Y-88390570D01*
X139079847Y-88390571D01*
X139178166Y-88406143D01*
X139209999Y-88411185D01*
X139210000Y-88411185D01*
X139210001Y-88411185D01*
X139241834Y-88406143D01*
X139340153Y-88390571D01*
X139457566Y-88330746D01*
X139550746Y-88237566D01*
X139600102Y-88140700D01*
X143418815Y-88140700D01*
X143439429Y-88270854D01*
X143499255Y-88388268D01*
X143557114Y-88446127D01*
X143578854Y-88492747D01*
X143568223Y-88532420D01*
X143570751Y-88533708D01*
X143568064Y-88538980D01*
X143568064Y-88538981D01*
X143564280Y-88546407D01*
X143508239Y-88656392D01*
X143487625Y-88786546D01*
X143487625Y-88786547D01*
X143508239Y-88916701D01*
X143568065Y-89034115D01*
X143661241Y-89127291D01*
X143661243Y-89127292D01*
X143661244Y-89127293D01*
X143778655Y-89187117D01*
X143778657Y-89187118D01*
X143878637Y-89202953D01*
X143908809Y-89207732D01*
X143908810Y-89207732D01*
X143908811Y-89207732D01*
X143929425Y-89204466D01*
X144038963Y-89187118D01*
X144156376Y-89127293D01*
X144249556Y-89034113D01*
X144309381Y-88916700D01*
X144329995Y-88786547D01*
X144309381Y-88656394D01*
X144249556Y-88538981D01*
X144249555Y-88538980D01*
X144249554Y-88538978D01*
X144191695Y-88481119D01*
X144169955Y-88434499D01*
X144180585Y-88394827D01*
X144178059Y-88393540D01*
X144210055Y-88330744D01*
X144240571Y-88270853D01*
X144261185Y-88140700D01*
X144257483Y-88117326D01*
X144267298Y-88066831D01*
X144307274Y-88034459D01*
X144358706Y-88035357D01*
X144365894Y-88038557D01*
X144369847Y-88040571D01*
X144463336Y-88055378D01*
X144499999Y-88061185D01*
X144500000Y-88061185D01*
X144500001Y-88061185D01*
X144536664Y-88055378D01*
X144630153Y-88040571D01*
X144747566Y-87980746D01*
X144840746Y-87887566D01*
X144900571Y-87770153D01*
X144921185Y-87640000D01*
X144900571Y-87509847D01*
X144840746Y-87392434D01*
X144840745Y-87392433D01*
X144840744Y-87392431D01*
X144747568Y-87299255D01*
X144630153Y-87239429D01*
X144630155Y-87239429D01*
X144500001Y-87218815D01*
X144499999Y-87218815D01*
X144369845Y-87239429D01*
X144252431Y-87299255D01*
X144159255Y-87392431D01*
X144099429Y-87509845D01*
X144078815Y-87639999D01*
X144078815Y-87640003D01*
X144082516Y-87663375D01*
X144072700Y-87713870D01*
X144032723Y-87746241D01*
X143981291Y-87745341D01*
X143974101Y-87742140D01*
X143970155Y-87740129D01*
X143840001Y-87719515D01*
X143839999Y-87719515D01*
X143709845Y-87740129D01*
X143592431Y-87799955D01*
X143499255Y-87893131D01*
X143439429Y-88010545D01*
X143418815Y-88140699D01*
X143418815Y-88140700D01*
X139600102Y-88140700D01*
X139610571Y-88120153D01*
X139631185Y-87990000D01*
X139610571Y-87859847D01*
X139550746Y-87742434D01*
X139550745Y-87742433D01*
X139550744Y-87742431D01*
X139457568Y-87649255D01*
X139340153Y-87589429D01*
X139340155Y-87589429D01*
X139210001Y-87568815D01*
X139209999Y-87568815D01*
X139079845Y-87589429D01*
X138962431Y-87649255D01*
X138869255Y-87742431D01*
X138809429Y-87859845D01*
X138788815Y-87989999D01*
X138788815Y-87990000D01*
X138246000Y-87990000D01*
X138246000Y-86870000D01*
X140448815Y-86870000D01*
X140469429Y-87000154D01*
X140529255Y-87117568D01*
X140622431Y-87210744D01*
X140622433Y-87210745D01*
X140622434Y-87210746D01*
X140739845Y-87270570D01*
X140739847Y-87270571D01*
X140839827Y-87286406D01*
X140869999Y-87291185D01*
X140870000Y-87291185D01*
X140870001Y-87291185D01*
X140890615Y-87287919D01*
X141000153Y-87270571D01*
X141117566Y-87210746D01*
X141210746Y-87117566D01*
X141270571Y-87000153D01*
X141288017Y-86890000D01*
X141448815Y-86890000D01*
X141469429Y-87020154D01*
X141529255Y-87137568D01*
X141622431Y-87230744D01*
X141622433Y-87230745D01*
X141622434Y-87230746D01*
X141739845Y-87290570D01*
X141739847Y-87290571D01*
X141839827Y-87306406D01*
X141869999Y-87311185D01*
X141870000Y-87311185D01*
X141870001Y-87311185D01*
X141890615Y-87307919D01*
X142000153Y-87290571D01*
X142117566Y-87230746D01*
X142210746Y-87137566D01*
X142270571Y-87020153D01*
X142291185Y-86890000D01*
X142270571Y-86759847D01*
X142210746Y-86642434D01*
X142210745Y-86642433D01*
X142210744Y-86642431D01*
X142117568Y-86549255D01*
X142000153Y-86489429D01*
X142000155Y-86489429D01*
X141870001Y-86468815D01*
X141869999Y-86468815D01*
X141739845Y-86489429D01*
X141622431Y-86549255D01*
X141529255Y-86642431D01*
X141469429Y-86759845D01*
X141448815Y-86889999D01*
X141448815Y-86890000D01*
X141288017Y-86890000D01*
X141291185Y-86870000D01*
X141270571Y-86739847D01*
X141210746Y-86622434D01*
X141210745Y-86622433D01*
X141210744Y-86622431D01*
X141117568Y-86529255D01*
X141000153Y-86469429D01*
X141000155Y-86469429D01*
X140870001Y-86448815D01*
X140869999Y-86448815D01*
X140739845Y-86469429D01*
X140622431Y-86529255D01*
X140529255Y-86622431D01*
X140469429Y-86739845D01*
X140448815Y-86869999D01*
X140448815Y-86870000D01*
X138246000Y-86870000D01*
X138246000Y-86050000D01*
X138968815Y-86050000D01*
X138989429Y-86180154D01*
X139049255Y-86297568D01*
X139142431Y-86390744D01*
X139142433Y-86390745D01*
X139142434Y-86390746D01*
X139259845Y-86450570D01*
X139259847Y-86450571D01*
X139342066Y-86463593D01*
X139389999Y-86471185D01*
X139390000Y-86471185D01*
X139390001Y-86471185D01*
X139410615Y-86467919D01*
X139520153Y-86450571D01*
X139637566Y-86390746D01*
X139730746Y-86297566D01*
X139790571Y-86180153D01*
X139811185Y-86050000D01*
X139811058Y-86049201D01*
X139805828Y-86016179D01*
X139790571Y-85919847D01*
X139730746Y-85802434D01*
X139730745Y-85802433D01*
X139730744Y-85802431D01*
X139637568Y-85709255D01*
X139520153Y-85649429D01*
X139520155Y-85649429D01*
X139390001Y-85628815D01*
X139389999Y-85628815D01*
X139259845Y-85649429D01*
X139142431Y-85709255D01*
X139049255Y-85802431D01*
X138989429Y-85919845D01*
X138968815Y-86049999D01*
X138968815Y-86050000D01*
X138246000Y-86050000D01*
X138246000Y-85522039D01*
X138263593Y-85473701D01*
X138268026Y-85468865D01*
X138303865Y-85433026D01*
X138350485Y-85411286D01*
X138357039Y-85411000D01*
X140322352Y-85411000D01*
X140471539Y-85411000D01*
X140519877Y-85428593D01*
X140524713Y-85433026D01*
X140527431Y-85435744D01*
X140527433Y-85435745D01*
X140527434Y-85435746D01*
X140644845Y-85495570D01*
X140644847Y-85495571D01*
X140744827Y-85511406D01*
X140774999Y-85516185D01*
X140775000Y-85516185D01*
X140775001Y-85516185D01*
X140795615Y-85512919D01*
X140905153Y-85495571D01*
X141022566Y-85435746D01*
X141022568Y-85435744D01*
X141025287Y-85433026D01*
X141071907Y-85411286D01*
X141078461Y-85411000D01*
X142472960Y-85411000D01*
X142521298Y-85428593D01*
X142526134Y-85433026D01*
X142541974Y-85448866D01*
X142563714Y-85495486D01*
X142564000Y-85502040D01*
X142564000Y-85810252D01*
X142555804Y-85844392D01*
X142494429Y-85964845D01*
X142473815Y-86094999D01*
X142473815Y-86095000D01*
X142494429Y-86225154D01*
X142554255Y-86342568D01*
X142647431Y-86435744D01*
X142647433Y-86435745D01*
X142647434Y-86435746D01*
X142764845Y-86495570D01*
X142764847Y-86495571D01*
X142864827Y-86511406D01*
X142894999Y-86516185D01*
X142895000Y-86516185D01*
X142895001Y-86516185D01*
X142915615Y-86512919D01*
X143025153Y-86495571D01*
X143087913Y-86463593D01*
X143106356Y-86454196D01*
X143140496Y-86446000D01*
X145015993Y-86446000D01*
X145064331Y-86463593D01*
X145090051Y-86508142D01*
X145082997Y-86555340D01*
X145050129Y-86619845D01*
X145029515Y-86749999D01*
X145029515Y-86750000D01*
X145050129Y-86880154D01*
X145109955Y-86997568D01*
X145203131Y-87090744D01*
X145203133Y-87090745D01*
X145203134Y-87090746D01*
X145320545Y-87150570D01*
X145320547Y-87150571D01*
X145420527Y-87166406D01*
X145450699Y-87171185D01*
X145450700Y-87171185D01*
X145450701Y-87171185D01*
X145473821Y-87167523D01*
X145580853Y-87150571D01*
X145698266Y-87090746D01*
X145719012Y-87070000D01*
X146588815Y-87070000D01*
X146609429Y-87200154D01*
X146669255Y-87317568D01*
X146762431Y-87410744D01*
X146762430Y-87410744D01*
X146762434Y-87410746D01*
X146845194Y-87452914D01*
X146880275Y-87490534D01*
X146885327Y-87531681D01*
X146865371Y-87657681D01*
X146865371Y-87657682D01*
X146885985Y-87787836D01*
X146945811Y-87905250D01*
X147038987Y-87998426D01*
X147038989Y-87998427D01*
X147038990Y-87998428D01*
X147156401Y-88058252D01*
X147156403Y-88058253D01*
X147242410Y-88071875D01*
X147286555Y-88078867D01*
X147286556Y-88078867D01*
X147286557Y-88078867D01*
X147311338Y-88074942D01*
X147416709Y-88058253D01*
X147534122Y-87998428D01*
X147627302Y-87905248D01*
X147687127Y-87787835D01*
X147701039Y-87700000D01*
X150968815Y-87700000D01*
X150989429Y-87830154D01*
X151049255Y-87947568D01*
X151142431Y-88040744D01*
X151142433Y-88040745D01*
X151142434Y-88040746D01*
X151259845Y-88100570D01*
X151259847Y-88100571D01*
X151359827Y-88116406D01*
X151389999Y-88121185D01*
X151390000Y-88121185D01*
X151390001Y-88121185D01*
X151414365Y-88117326D01*
X151520153Y-88100571D01*
X151637566Y-88040746D01*
X151730746Y-87947566D01*
X151790571Y-87830153D01*
X151811185Y-87700000D01*
X151790571Y-87569847D01*
X151730746Y-87452434D01*
X151730745Y-87452433D01*
X151730744Y-87452431D01*
X151637568Y-87359255D01*
X151520153Y-87299429D01*
X151520155Y-87299429D01*
X151390001Y-87278815D01*
X151389999Y-87278815D01*
X151259845Y-87299429D01*
X151142431Y-87359255D01*
X151049255Y-87452431D01*
X150989429Y-87569845D01*
X150968815Y-87699999D01*
X150968815Y-87700000D01*
X147701039Y-87700000D01*
X147707741Y-87657682D01*
X147704940Y-87640000D01*
X147697625Y-87593812D01*
X147687127Y-87527529D01*
X147627302Y-87410116D01*
X147627301Y-87410115D01*
X147627300Y-87410113D01*
X147534122Y-87316935D01*
X147451361Y-87274766D01*
X147416280Y-87237145D01*
X147411228Y-87196002D01*
X147431185Y-87070000D01*
X147410571Y-86939847D01*
X147350746Y-86822434D01*
X147350745Y-86822433D01*
X147350744Y-86822431D01*
X147257568Y-86729255D01*
X147140153Y-86669429D01*
X147140155Y-86669429D01*
X147010001Y-86648815D01*
X147009999Y-86648815D01*
X146879845Y-86669429D01*
X146762431Y-86729255D01*
X146669255Y-86822431D01*
X146609429Y-86939845D01*
X146588815Y-87069999D01*
X146588815Y-87070000D01*
X145719012Y-87070000D01*
X145791446Y-86997566D01*
X145851271Y-86880153D01*
X145871885Y-86750000D01*
X145871860Y-86749845D01*
X145858829Y-86667568D01*
X145851271Y-86619847D01*
X145818403Y-86555340D01*
X145812134Y-86504284D01*
X145840150Y-86461143D01*
X145885407Y-86446000D01*
X149674139Y-86446000D01*
X149722477Y-86463593D01*
X149748197Y-86508142D01*
X149739264Y-86558800D01*
X149727313Y-86574374D01*
X149669255Y-86632431D01*
X149609429Y-86749845D01*
X149588815Y-86879999D01*
X149588815Y-86880000D01*
X149609429Y-87010154D01*
X149669255Y-87127568D01*
X149762431Y-87220744D01*
X149762433Y-87220745D01*
X149762434Y-87220746D01*
X149879845Y-87280570D01*
X149879847Y-87280571D01*
X149979827Y-87296406D01*
X150009999Y-87301185D01*
X150010000Y-87301185D01*
X150010001Y-87301185D01*
X150030615Y-87297919D01*
X150140153Y-87280571D01*
X150257566Y-87220746D01*
X150350746Y-87127566D01*
X150410571Y-87010153D01*
X150431185Y-86880000D01*
X150410571Y-86749847D01*
X150350746Y-86632434D01*
X150350745Y-86632433D01*
X150350744Y-86632431D01*
X150295675Y-86577362D01*
X150273935Y-86530742D01*
X150287249Y-86481055D01*
X150329386Y-86451550D01*
X150333774Y-86450777D01*
X150337965Y-86449653D01*
X150337967Y-86449654D01*
X150376880Y-86439226D01*
X150380064Y-86438520D01*
X150419746Y-86431524D01*
X150423398Y-86429415D01*
X150441533Y-86421903D01*
X150445608Y-86420812D01*
X150478618Y-86397696D01*
X150481371Y-86395944D01*
X150516254Y-86375805D01*
X150542161Y-86344928D01*
X150544349Y-86342541D01*
X150788867Y-86098025D01*
X150835487Y-86076286D01*
X150842041Y-86076000D01*
X152146539Y-86076000D01*
X152194877Y-86093593D01*
X152199713Y-86098026D01*
X152202431Y-86100744D01*
X152202433Y-86100745D01*
X152202434Y-86100746D01*
X152319845Y-86160570D01*
X152319847Y-86160571D01*
X152402331Y-86173635D01*
X152449999Y-86181185D01*
X152450000Y-86181185D01*
X152559636Y-86163820D01*
X152610128Y-86173635D01*
X152642501Y-86213611D01*
X152641603Y-86265043D01*
X152638403Y-86272232D01*
X152629429Y-86289844D01*
X152608815Y-86419999D01*
X152608815Y-86420000D01*
X152629429Y-86550154D01*
X152689255Y-86667568D01*
X152782431Y-86760744D01*
X152782433Y-86760745D01*
X152782434Y-86760746D01*
X152899845Y-86820570D01*
X152899847Y-86820571D01*
X152999827Y-86836406D01*
X153029999Y-86841185D01*
X153030000Y-86841185D01*
X153030001Y-86841185D01*
X153050615Y-86837919D01*
X153160153Y-86820571D01*
X153277566Y-86760746D01*
X153370746Y-86667566D01*
X153430571Y-86550153D01*
X153451185Y-86420000D01*
X153430571Y-86289847D01*
X153370746Y-86172434D01*
X153370745Y-86172433D01*
X153370744Y-86172431D01*
X153277568Y-86079255D01*
X153160153Y-86019429D01*
X153160155Y-86019429D01*
X153030001Y-85998815D01*
X153029999Y-85998815D01*
X152920365Y-86016179D01*
X152869870Y-86006364D01*
X152837498Y-85966387D01*
X152838396Y-85914955D01*
X152841598Y-85907764D01*
X152850570Y-85890155D01*
X152850570Y-85890154D01*
X152850571Y-85890153D01*
X152871185Y-85760000D01*
X152869895Y-85751858D01*
X152851928Y-85638418D01*
X152850571Y-85629847D01*
X152815785Y-85561576D01*
X152799196Y-85529017D01*
X152791000Y-85494877D01*
X152791000Y-85491200D01*
X152808593Y-85442862D01*
X152853142Y-85417142D01*
X152866200Y-85416000D01*
X157658800Y-85416000D01*
X157707138Y-85433593D01*
X157732858Y-85478142D01*
X157734000Y-85491200D01*
X157734000Y-87628466D01*
X157733857Y-87631744D01*
X157730057Y-87675177D01*
X157730057Y-87675179D01*
X157741339Y-87717285D01*
X157742049Y-87720488D01*
X157749621Y-87763426D01*
X157752288Y-87768045D01*
X157759802Y-87786186D01*
X157761181Y-87791334D01*
X157761181Y-87791335D01*
X157786186Y-87827046D01*
X157787944Y-87829805D01*
X157807311Y-87863350D01*
X157809750Y-87867573D01*
X157843148Y-87895597D01*
X157845556Y-87897803D01*
X158227194Y-88279441D01*
X158229401Y-88281849D01*
X158257430Y-88315253D01*
X158257432Y-88315254D01*
X158295186Y-88337051D01*
X158297954Y-88338814D01*
X158333664Y-88363818D01*
X158338809Y-88365196D01*
X158356950Y-88372709D01*
X158361572Y-88375378D01*
X158404509Y-88382948D01*
X158407707Y-88383657D01*
X158449821Y-88394943D01*
X158489061Y-88391509D01*
X158493252Y-88391143D01*
X158496530Y-88391000D01*
X159592936Y-88391000D01*
X159641274Y-88408593D01*
X159666994Y-88453142D01*
X159659940Y-88500339D01*
X159656312Y-88507459D01*
X159619429Y-88579845D01*
X159598815Y-88709999D01*
X159598815Y-88710000D01*
X159619429Y-88840154D01*
X159654638Y-88909254D01*
X159679254Y-88957566D01*
X159768513Y-89046825D01*
X159790253Y-89093444D01*
X159776939Y-89143132D01*
X159768514Y-89153173D01*
X159699254Y-89222433D01*
X159639429Y-89339845D01*
X159618815Y-89469999D01*
X159618815Y-89470000D01*
X159639429Y-89600154D01*
X159699255Y-89717568D01*
X159743513Y-89761826D01*
X159765253Y-89808446D01*
X159751939Y-89858133D01*
X159743513Y-89868174D01*
X159689255Y-89922431D01*
X159629429Y-90039845D01*
X159608815Y-90169999D01*
X159608815Y-90170000D01*
X159629429Y-90300154D01*
X159689255Y-90417568D01*
X159782431Y-90510744D01*
X159782433Y-90510745D01*
X159782434Y-90510746D01*
X159899847Y-90570571D01*
X159899857Y-90570572D01*
X159901879Y-90571230D01*
X159903265Y-90572313D01*
X159905120Y-90573258D01*
X159904936Y-90573618D01*
X159942418Y-90602895D01*
X159953120Y-90653209D01*
X159931824Y-90695927D01*
X159450566Y-91177185D01*
X159448148Y-91179402D01*
X159414750Y-91207426D01*
X159392945Y-91245190D01*
X159391183Y-91247956D01*
X159366182Y-91283663D01*
X159364801Y-91288819D01*
X159357291Y-91306949D01*
X159354621Y-91311572D01*
X159354621Y-91311573D01*
X159347054Y-91354493D01*
X159346344Y-91357696D01*
X159335057Y-91399818D01*
X159335057Y-91399822D01*
X159338857Y-91443254D01*
X159339000Y-91446532D01*
X159339000Y-91675154D01*
X159321407Y-91723492D01*
X159276858Y-91749212D01*
X159226200Y-91740279D01*
X159210626Y-91728328D01*
X159137150Y-91654852D01*
X159019735Y-91595026D01*
X159019737Y-91595026D01*
X158889583Y-91574412D01*
X158889581Y-91574412D01*
X158759427Y-91595026D01*
X158642013Y-91654852D01*
X158548837Y-91748028D01*
X158489011Y-91865442D01*
X158468397Y-91995596D01*
X158468397Y-91995597D01*
X158489011Y-92125751D01*
X158548837Y-92243165D01*
X158642013Y-92336341D01*
X158642015Y-92336342D01*
X158642016Y-92336343D01*
X158759427Y-92396167D01*
X158759429Y-92396168D01*
X158845796Y-92409847D01*
X158889581Y-92416782D01*
X158889582Y-92416782D01*
X158889583Y-92416782D01*
X158910197Y-92413516D01*
X159019735Y-92396168D01*
X159137148Y-92336343D01*
X159173820Y-92299671D01*
X159210626Y-92262866D01*
X159257246Y-92241126D01*
X159306933Y-92254440D01*
X159336438Y-92296577D01*
X159339000Y-92316040D01*
X159339000Y-93449139D01*
X159321407Y-93497477D01*
X159276858Y-93523197D01*
X159226200Y-93514264D01*
X159210626Y-93502313D01*
X159137568Y-93429255D01*
X159020153Y-93369429D01*
X159020155Y-93369429D01*
X158890001Y-93348815D01*
X158889999Y-93348815D01*
X158759845Y-93369429D01*
X158642431Y-93429255D01*
X158549255Y-93522431D01*
X158489429Y-93639845D01*
X158468815Y-93769999D01*
X158468815Y-93770000D01*
X158489429Y-93900154D01*
X158549255Y-94017568D01*
X158642431Y-94110744D01*
X158642433Y-94110745D01*
X158642434Y-94110746D01*
X158759845Y-94170570D01*
X158759847Y-94170571D01*
X158859827Y-94186406D01*
X158889999Y-94191185D01*
X158890000Y-94191185D01*
X158890001Y-94191185D01*
X158910615Y-94187919D01*
X159020153Y-94170571D01*
X159137566Y-94110746D01*
X159208801Y-94039510D01*
X159255420Y-94017771D01*
X159305108Y-94031084D01*
X159334612Y-94073221D01*
X159336889Y-94099238D01*
X159335057Y-94120177D01*
X159335057Y-94120179D01*
X159346339Y-94162285D01*
X159347049Y-94165488D01*
X159354621Y-94208426D01*
X159357288Y-94213045D01*
X159364802Y-94231186D01*
X159366181Y-94236334D01*
X159366181Y-94236335D01*
X159391186Y-94272046D01*
X159392944Y-94274805D01*
X159403526Y-94293134D01*
X159414750Y-94312573D01*
X159448148Y-94340597D01*
X159450556Y-94342803D01*
X160137189Y-95029435D01*
X160139396Y-95031844D01*
X160167426Y-95065250D01*
X160205196Y-95087056D01*
X160207964Y-95088820D01*
X160243665Y-95113818D01*
X160243667Y-95113819D01*
X160248817Y-95115199D01*
X160266952Y-95122711D01*
X160271569Y-95125377D01*
X160271570Y-95125377D01*
X160271572Y-95125378D01*
X160314519Y-95132950D01*
X160317708Y-95133658D01*
X160359822Y-95144943D01*
X160403256Y-95141143D01*
X160406534Y-95141000D01*
X161693800Y-95141000D01*
X161742138Y-95158593D01*
X161767858Y-95203142D01*
X161769000Y-95216200D01*
X161769000Y-96349504D01*
X161751407Y-96397842D01*
X161706858Y-96423562D01*
X161670568Y-96421025D01*
X161665657Y-96419429D01*
X161535501Y-96398815D01*
X161535499Y-96398815D01*
X161405345Y-96419429D01*
X161287931Y-96479255D01*
X161194755Y-96572431D01*
X161134929Y-96689845D01*
X161114315Y-96819999D01*
X161114315Y-96820000D01*
X161134929Y-96950154D01*
X161194755Y-97067568D01*
X161287931Y-97160744D01*
X161287933Y-97160745D01*
X161287934Y-97160746D01*
X161405345Y-97220570D01*
X161405347Y-97220571D01*
X161496741Y-97235046D01*
X161541731Y-97259984D01*
X161560166Y-97308007D01*
X161543418Y-97356645D01*
X161538151Y-97362494D01*
X160920566Y-97980079D01*
X160918148Y-97982296D01*
X160884750Y-98010320D01*
X160862945Y-98048084D01*
X160861183Y-98050850D01*
X160836182Y-98086557D01*
X160834801Y-98091713D01*
X160827291Y-98109843D01*
X160824621Y-98114466D01*
X160824621Y-98114467D01*
X160817054Y-98157387D01*
X160816344Y-98160590D01*
X160805057Y-98202712D01*
X160805057Y-98202715D01*
X160808759Y-98245034D01*
X160808857Y-98246148D01*
X160809000Y-98249426D01*
X160809000Y-101747605D01*
X160791407Y-101795943D01*
X160786974Y-101800779D01*
X160350779Y-102236974D01*
X160304159Y-102258714D01*
X160297605Y-102259000D01*
X158135122Y-102259000D01*
X158100982Y-102250804D01*
X158000153Y-102199429D01*
X158000155Y-102199429D01*
X157870001Y-102178815D01*
X157869999Y-102178815D01*
X157739845Y-102199429D01*
X157639018Y-102250804D01*
X157604878Y-102259000D01*
X156525122Y-102259000D01*
X156490982Y-102250804D01*
X156390153Y-102199429D01*
X156390155Y-102199429D01*
X156260001Y-102178815D01*
X156259999Y-102178815D01*
X156129845Y-102199429D01*
X156012431Y-102259255D01*
X155919255Y-102352431D01*
X155859429Y-102469845D01*
X155838815Y-102599999D01*
X155838815Y-102600000D01*
X155859429Y-102730154D01*
X155919255Y-102847568D01*
X156012431Y-102940744D01*
X156012433Y-102940745D01*
X156012434Y-102940746D01*
X156129845Y-103000570D01*
X156129847Y-103000571D01*
X156229827Y-103016406D01*
X156259999Y-103021185D01*
X156260000Y-103021185D01*
X156260001Y-103021185D01*
X156280615Y-103017919D01*
X156390153Y-103000571D01*
X156472021Y-102958857D01*
X156490982Y-102949196D01*
X156525122Y-102941000D01*
X157604878Y-102941000D01*
X157639018Y-102949196D01*
X157657979Y-102958857D01*
X157739845Y-103000570D01*
X157739847Y-103000571D01*
X157839827Y-103016406D01*
X157869999Y-103021185D01*
X157870000Y-103021185D01*
X157870001Y-103021185D01*
X157890615Y-103017919D01*
X158000153Y-103000571D01*
X158082021Y-102958857D01*
X158100982Y-102949196D01*
X158135122Y-102941000D01*
X160453466Y-102941000D01*
X160456744Y-102941143D01*
X160458763Y-102941319D01*
X160500179Y-102944943D01*
X160542301Y-102933655D01*
X160545484Y-102932949D01*
X160588428Y-102925378D01*
X160593045Y-102922711D01*
X160611184Y-102915197D01*
X160616336Y-102913818D01*
X160647234Y-102892182D01*
X160652045Y-102888814D01*
X160654814Y-102887050D01*
X160671795Y-102877246D01*
X160692572Y-102865251D01*
X160720620Y-102831822D01*
X160722787Y-102829458D01*
X161180627Y-102371619D01*
X161227246Y-102349880D01*
X161276933Y-102363194D01*
X161306438Y-102405331D01*
X161309000Y-102424794D01*
X161309000Y-105567605D01*
X161291407Y-105615943D01*
X161286974Y-105620779D01*
X160920779Y-105986974D01*
X160874159Y-106008714D01*
X160867605Y-106009000D01*
X155655122Y-106009000D01*
X155620982Y-106000804D01*
X155520153Y-105949429D01*
X155520155Y-105949429D01*
X155440596Y-105936828D01*
X155395606Y-105911889D01*
X155377172Y-105863866D01*
X155379839Y-105846028D01*
X155379645Y-105845998D01*
X155382393Y-105828652D01*
X155401185Y-105710000D01*
X155380571Y-105579847D01*
X155320746Y-105462434D01*
X155320745Y-105462433D01*
X155320744Y-105462431D01*
X155227568Y-105369255D01*
X155110153Y-105309429D01*
X155110155Y-105309429D01*
X154980001Y-105288815D01*
X154979999Y-105288815D01*
X154849845Y-105309429D01*
X154732431Y-105369255D01*
X154639255Y-105462431D01*
X154579429Y-105579845D01*
X154558815Y-105709999D01*
X154558815Y-105710000D01*
X154579429Y-105840154D01*
X154609749Y-105899660D01*
X154616018Y-105950716D01*
X154588001Y-105993857D01*
X154542745Y-106009000D01*
X153472395Y-106009000D01*
X153424057Y-105991407D01*
X153419221Y-105986974D01*
X153063026Y-105630779D01*
X153041286Y-105584159D01*
X153041000Y-105577605D01*
X153041000Y-102950121D01*
X153049197Y-102915980D01*
X153100570Y-102815156D01*
X153100570Y-102815155D01*
X153100570Y-102815154D01*
X153100571Y-102815153D01*
X153121185Y-102685000D01*
X153100571Y-102554847D01*
X153040746Y-102437434D01*
X153040745Y-102437433D01*
X153040744Y-102437431D01*
X152947568Y-102344255D01*
X152830153Y-102284429D01*
X152830155Y-102284429D01*
X152700001Y-102263815D01*
X152699999Y-102263815D01*
X152569845Y-102284429D01*
X152452431Y-102344255D01*
X152359255Y-102437431D01*
X152299429Y-102554845D01*
X152278815Y-102684999D01*
X152278815Y-102685000D01*
X152299429Y-102815155D01*
X152299429Y-102815156D01*
X152350803Y-102915980D01*
X152359000Y-102950121D01*
X152359000Y-105733466D01*
X152358857Y-105736744D01*
X152355057Y-105780177D01*
X152355057Y-105780179D01*
X152366339Y-105822285D01*
X152367049Y-105825488D01*
X152374621Y-105868426D01*
X152374621Y-105868427D01*
X152374622Y-105868428D01*
X152376465Y-105871621D01*
X152377288Y-105873045D01*
X152384802Y-105891186D01*
X152386181Y-105896334D01*
X152386181Y-105896335D01*
X152411186Y-105932046D01*
X152412944Y-105934805D01*
X152428975Y-105962572D01*
X152434750Y-105972573D01*
X152468148Y-106000597D01*
X152470556Y-106002803D01*
X153047189Y-106579436D01*
X153049401Y-106581850D01*
X153058726Y-106592963D01*
X153076319Y-106641301D01*
X153058725Y-106689638D01*
X153014177Y-106715358D01*
X153001119Y-106716500D01*
X147689894Y-106716500D01*
X147641556Y-106698907D01*
X147636731Y-106694485D01*
X147283024Y-106340777D01*
X147261286Y-106294159D01*
X147261000Y-106287605D01*
X147261000Y-104780000D01*
X150388815Y-104780000D01*
X150409429Y-104910154D01*
X150469255Y-105027568D01*
X150562431Y-105120744D01*
X150562433Y-105120745D01*
X150562434Y-105120746D01*
X150679845Y-105180570D01*
X150679847Y-105180571D01*
X150779599Y-105196370D01*
X150809999Y-105201185D01*
X150810000Y-105201185D01*
X150810001Y-105201185D01*
X150840401Y-105196370D01*
X150940153Y-105180571D01*
X151057566Y-105120746D01*
X151150746Y-105027566D01*
X151210571Y-104910153D01*
X151231185Y-104780000D01*
X151231160Y-104779845D01*
X151226501Y-104750428D01*
X151210571Y-104649847D01*
X151150746Y-104532434D01*
X151150745Y-104532433D01*
X151150744Y-104532431D01*
X151057568Y-104439255D01*
X150940153Y-104379429D01*
X150940155Y-104379429D01*
X150810001Y-104358815D01*
X150809999Y-104358815D01*
X150679845Y-104379429D01*
X150562431Y-104439255D01*
X150469255Y-104532431D01*
X150409429Y-104649845D01*
X150388815Y-104779999D01*
X150388815Y-104780000D01*
X147261000Y-104780000D01*
X147261000Y-104196532D01*
X147261143Y-104193254D01*
X147264943Y-104149821D01*
X147253657Y-104107707D01*
X147252947Y-104104504D01*
X147245378Y-104061572D01*
X147242709Y-104056950D01*
X147235196Y-104038809D01*
X147233818Y-104033664D01*
X147208814Y-103997954D01*
X147207051Y-103995186D01*
X147185254Y-103957432D01*
X147185253Y-103957430D01*
X147185251Y-103957428D01*
X147151843Y-103929395D01*
X147149441Y-103927194D01*
X146331424Y-103109177D01*
X146309684Y-103062557D01*
X146322998Y-103012870D01*
X146365135Y-102983365D01*
X146372812Y-102981733D01*
X146380153Y-102980571D01*
X146497566Y-102920746D01*
X146590746Y-102827566D01*
X146650571Y-102710153D01*
X146671185Y-102580000D01*
X146654585Y-102475191D01*
X147695799Y-102475191D01*
X147716413Y-102605345D01*
X147776239Y-102722759D01*
X147869415Y-102815935D01*
X147869417Y-102815936D01*
X147869418Y-102815937D01*
X147986829Y-102875761D01*
X147986831Y-102875762D01*
X148073122Y-102889429D01*
X148116983Y-102896376D01*
X148116984Y-102896376D01*
X148116985Y-102896376D01*
X148137599Y-102893110D01*
X148247137Y-102875762D01*
X148364550Y-102815937D01*
X148457730Y-102722757D01*
X148517555Y-102605344D01*
X148538169Y-102475191D01*
X148529104Y-102417958D01*
X148538919Y-102367466D01*
X148578895Y-102335093D01*
X148591604Y-102331924D01*
X148600153Y-102330571D01*
X148717566Y-102270746D01*
X148810746Y-102177566D01*
X148870571Y-102060153D01*
X148891185Y-101930000D01*
X148870571Y-101799847D01*
X148810746Y-101682434D01*
X148810745Y-101682433D01*
X148810744Y-101682431D01*
X148717568Y-101589255D01*
X148600153Y-101529429D01*
X148600155Y-101529429D01*
X148470001Y-101508815D01*
X148469999Y-101508815D01*
X148339845Y-101529429D01*
X148222431Y-101589255D01*
X148129255Y-101682431D01*
X148069429Y-101799845D01*
X148048815Y-101929999D01*
X148048815Y-101930002D01*
X148057878Y-101987230D01*
X148048062Y-102037725D01*
X148008086Y-102070096D01*
X147995373Y-102073266D01*
X147986836Y-102074618D01*
X147986827Y-102074621D01*
X147869415Y-102134446D01*
X147776239Y-102227622D01*
X147716413Y-102345036D01*
X147695799Y-102475190D01*
X147695799Y-102475191D01*
X146654585Y-102475191D01*
X146650571Y-102449847D01*
X146590746Y-102332434D01*
X146590745Y-102332433D01*
X146590744Y-102332431D01*
X146497568Y-102239255D01*
X146380153Y-102179429D01*
X146380155Y-102179429D01*
X146250001Y-102158815D01*
X146249999Y-102158815D01*
X146119845Y-102179429D01*
X146002431Y-102239255D01*
X145909255Y-102332431D01*
X145849429Y-102449845D01*
X145828815Y-102579999D01*
X145828815Y-102580000D01*
X145849429Y-102710154D01*
X145909255Y-102827568D01*
X145912313Y-102830626D01*
X145934053Y-102877246D01*
X145920739Y-102926933D01*
X145878602Y-102956438D01*
X145859139Y-102959000D01*
X143836534Y-102959000D01*
X143833256Y-102958857D01*
X143824959Y-102958131D01*
X143789822Y-102955057D01*
X143789821Y-102955057D01*
X143789820Y-102955057D01*
X143747698Y-102966343D01*
X143744512Y-102967050D01*
X143713034Y-102972600D01*
X143701576Y-102974621D01*
X143701574Y-102974621D01*
X143701572Y-102974622D01*
X143701569Y-102974623D01*
X143701565Y-102974625D01*
X143696943Y-102977293D01*
X143678827Y-102984797D01*
X143673667Y-102986180D01*
X143673666Y-102986180D01*
X143637958Y-103011182D01*
X143635192Y-103012944D01*
X143597426Y-103034750D01*
X143569397Y-103068154D01*
X143567180Y-103070572D01*
X143030566Y-103607185D01*
X143028148Y-103609402D01*
X142994750Y-103637426D01*
X142972945Y-103675190D01*
X142971183Y-103677956D01*
X142946182Y-103713663D01*
X142944801Y-103718819D01*
X142937291Y-103736949D01*
X142934621Y-103741572D01*
X142934621Y-103741573D01*
X142927054Y-103784493D01*
X142926344Y-103787696D01*
X142915057Y-103829818D01*
X142915057Y-103829822D01*
X142918857Y-103873254D01*
X142919000Y-103876532D01*
X142919000Y-104907605D01*
X142901407Y-104955943D01*
X142896974Y-104960779D01*
X142330779Y-105526974D01*
X142284159Y-105548714D01*
X142277605Y-105549000D01*
X141565122Y-105549000D01*
X141530982Y-105540804D01*
X141430153Y-105489429D01*
X141430155Y-105489429D01*
X141300001Y-105468815D01*
X141299999Y-105468815D01*
X141169845Y-105489429D01*
X141069018Y-105540804D01*
X141034878Y-105549000D01*
X139906530Y-105549000D01*
X139903252Y-105548857D01*
X139859822Y-105545057D01*
X139859818Y-105545057D01*
X139817696Y-105556344D01*
X139814499Y-105557052D01*
X139803419Y-105559006D01*
X139771573Y-105564621D01*
X139771572Y-105564621D01*
X139766949Y-105567291D01*
X139748821Y-105574799D01*
X139745681Y-105575641D01*
X139743663Y-105576182D01*
X139707956Y-105601183D01*
X139705190Y-105602945D01*
X139667426Y-105624750D01*
X139639402Y-105658148D01*
X139637185Y-105660566D01*
X138900566Y-106397185D01*
X138898148Y-106399402D01*
X138864750Y-106427426D01*
X138842945Y-106465190D01*
X138841183Y-106467956D01*
X138816182Y-106503663D01*
X138814801Y-106508819D01*
X138807291Y-106526949D01*
X138804621Y-106531572D01*
X138804621Y-106531573D01*
X138797054Y-106574493D01*
X138796344Y-106577696D01*
X138785057Y-106619818D01*
X138785057Y-106619822D01*
X138788857Y-106663254D01*
X138789000Y-106666532D01*
X138789000Y-108204877D01*
X138780804Y-108239017D01*
X138729429Y-108339845D01*
X138712452Y-108447035D01*
X138687513Y-108492025D01*
X138685830Y-108492670D01*
X138716865Y-108529656D01*
X138720474Y-108543612D01*
X138729429Y-108600154D01*
X138789255Y-108717568D01*
X138882431Y-108810744D01*
X138882433Y-108810745D01*
X138882434Y-108810746D01*
X138999845Y-108870570D01*
X138999847Y-108870571D01*
X139091751Y-108885127D01*
X139129999Y-108891185D01*
X139130000Y-108891185D01*
X139130001Y-108891185D01*
X139150615Y-108887919D01*
X139260153Y-108870571D01*
X139377566Y-108810746D01*
X139470746Y-108717566D01*
X139530571Y-108600153D01*
X139551185Y-108470000D01*
X139530571Y-108339847D01*
X139515363Y-108309999D01*
X139479196Y-108239017D01*
X139471000Y-108204877D01*
X139471000Y-106822395D01*
X139488593Y-106774057D01*
X139493026Y-106769221D01*
X140009221Y-106253026D01*
X140055841Y-106231286D01*
X140062395Y-106231000D01*
X141034878Y-106231000D01*
X141069018Y-106239196D01*
X141169845Y-106290570D01*
X141169847Y-106290571D01*
X141269372Y-106306334D01*
X141299999Y-106311185D01*
X141300000Y-106311185D01*
X141300001Y-106311185D01*
X141320615Y-106307919D01*
X141430153Y-106290571D01*
X141530982Y-106239196D01*
X141565122Y-106231000D01*
X142433466Y-106231000D01*
X142436744Y-106231143D01*
X142438379Y-106231286D01*
X142480179Y-106234943D01*
X142522301Y-106223655D01*
X142525484Y-106222949D01*
X142568428Y-106215378D01*
X142573045Y-106212711D01*
X142591184Y-106205197D01*
X142596336Y-106203818D01*
X142632045Y-106178814D01*
X142634814Y-106177050D01*
X142641309Y-106173299D01*
X142672572Y-106155251D01*
X142700620Y-106121822D01*
X142702787Y-106119458D01*
X143489458Y-105332787D01*
X143491822Y-105330620D01*
X143525251Y-105302572D01*
X143547050Y-105264814D01*
X143548814Y-105262045D01*
X143552182Y-105257234D01*
X143573818Y-105226336D01*
X143575197Y-105221184D01*
X143582711Y-105203045D01*
X143585378Y-105198428D01*
X143592949Y-105155484D01*
X143593655Y-105152301D01*
X143604943Y-105110179D01*
X143601143Y-105066744D01*
X143601000Y-105063466D01*
X143601000Y-104032394D01*
X143618593Y-103984056D01*
X143623026Y-103979220D01*
X143939220Y-103663026D01*
X143985840Y-103641286D01*
X143992394Y-103641000D01*
X144577761Y-103641000D01*
X144597956Y-103648350D01*
X144607890Y-103642382D01*
X144622239Y-103641000D01*
X145867605Y-103641000D01*
X145915943Y-103658593D01*
X145920779Y-103663026D01*
X146556974Y-104299221D01*
X146578714Y-104345841D01*
X146579000Y-104352395D01*
X146579000Y-106443466D01*
X146578857Y-106446744D01*
X146575057Y-106490177D01*
X146575057Y-106490179D01*
X146586339Y-106532285D01*
X146587049Y-106535488D01*
X146594621Y-106578426D01*
X146594621Y-106578427D01*
X146594622Y-106578428D01*
X146595874Y-106580597D01*
X146597288Y-106583045D01*
X146604802Y-106601186D01*
X146606181Y-106606334D01*
X146606181Y-106606335D01*
X146631186Y-106642046D01*
X146632944Y-106644805D01*
X146650595Y-106675378D01*
X146654750Y-106682573D01*
X146688148Y-106710597D01*
X146690556Y-106712803D01*
X147264689Y-107286935D01*
X147266896Y-107289344D01*
X147294925Y-107322749D01*
X147294927Y-107322750D01*
X147294928Y-107322751D01*
X147332686Y-107344550D01*
X147335451Y-107346312D01*
X147371161Y-107371316D01*
X147371165Y-107371319D01*
X147376318Y-107372700D01*
X147394447Y-107380208D01*
X147399072Y-107382878D01*
X147442023Y-107390450D01*
X147445192Y-107391153D01*
X147487322Y-107402443D01*
X147530756Y-107398643D01*
X147534034Y-107398500D01*
X160474878Y-107398500D01*
X160509018Y-107406696D01*
X160609845Y-107458070D01*
X160609847Y-107458071D01*
X160688770Y-107470571D01*
X160739999Y-107478685D01*
X160740000Y-107478685D01*
X160740001Y-107478685D01*
X160760615Y-107475419D01*
X160870153Y-107458071D01*
X160970982Y-107406696D01*
X161005122Y-107398500D01*
X161675966Y-107398500D01*
X161679244Y-107398643D01*
X161681263Y-107398819D01*
X161722679Y-107402443D01*
X161764801Y-107391155D01*
X161767984Y-107390449D01*
X161810928Y-107382878D01*
X161815545Y-107380211D01*
X161833684Y-107372697D01*
X161838836Y-107371318D01*
X161874548Y-107346312D01*
X161877314Y-107344550D01*
X161898061Y-107332572D01*
X161915072Y-107322751D01*
X161943120Y-107289322D01*
X161945287Y-107286958D01*
X162819446Y-106412798D01*
X162821835Y-106410609D01*
X162855251Y-106382572D01*
X162877062Y-106344791D01*
X162878796Y-106342068D01*
X162903818Y-106306336D01*
X162905198Y-106301184D01*
X162912711Y-106283046D01*
X162915378Y-106278428D01*
X162922950Y-106235480D01*
X162923656Y-106232296D01*
X162934943Y-106190178D01*
X162931143Y-106146743D01*
X162931000Y-106143465D01*
X162931000Y-102465121D01*
X162939197Y-102430980D01*
X162990570Y-102330156D01*
X162990570Y-102330155D01*
X162990570Y-102330154D01*
X162990571Y-102330153D01*
X163011185Y-102200000D01*
X162990571Y-102069847D01*
X162930746Y-101952434D01*
X162930745Y-101952433D01*
X162930744Y-101952431D01*
X162837568Y-101859255D01*
X162720153Y-101799429D01*
X162720155Y-101799429D01*
X162590001Y-101778815D01*
X162589999Y-101778815D01*
X162459845Y-101799429D01*
X162342431Y-101859255D01*
X162249255Y-101952431D01*
X162189429Y-102069845D01*
X162168815Y-102199999D01*
X162168815Y-102200000D01*
X162189429Y-102330155D01*
X162189429Y-102330156D01*
X162240803Y-102430980D01*
X162249000Y-102465121D01*
X162249000Y-105987605D01*
X162231407Y-106035943D01*
X162226974Y-106040779D01*
X161573279Y-106694474D01*
X161526659Y-106716214D01*
X161520105Y-106716500D01*
X161338879Y-106716500D01*
X161290541Y-106698907D01*
X161264821Y-106654358D01*
X161273754Y-106603700D01*
X161281267Y-106592970D01*
X161290611Y-106581834D01*
X161292798Y-106579447D01*
X161879458Y-105992787D01*
X161881822Y-105990620D01*
X161915251Y-105962572D01*
X161937050Y-105924814D01*
X161938814Y-105922045D01*
X161954488Y-105899660D01*
X161963818Y-105886336D01*
X161965197Y-105881184D01*
X161972711Y-105863045D01*
X161975378Y-105858428D01*
X161982949Y-105815484D01*
X161983655Y-105812301D01*
X161994943Y-105770179D01*
X161991143Y-105726747D01*
X161991000Y-105723469D01*
X161991000Y-99870000D01*
X163298815Y-99870000D01*
X163319429Y-100000154D01*
X163357436Y-100074746D01*
X163379254Y-100117566D01*
X163472434Y-100210746D01*
X163472436Y-100210747D01*
X163473513Y-100211824D01*
X163495253Y-100258445D01*
X163481939Y-100308132D01*
X163473514Y-100318173D01*
X163389254Y-100402433D01*
X163329429Y-100519845D01*
X163308815Y-100649999D01*
X163308815Y-100650000D01*
X163329429Y-100780154D01*
X163389255Y-100897568D01*
X163482431Y-100990744D01*
X163482433Y-100990745D01*
X163482434Y-100990746D01*
X163599845Y-101050570D01*
X163599847Y-101050571D01*
X163699827Y-101066406D01*
X163729999Y-101071185D01*
X163730000Y-101071185D01*
X163730001Y-101071185D01*
X163750615Y-101067919D01*
X163860153Y-101050571D01*
X163977566Y-100990746D01*
X164070746Y-100897566D01*
X164130571Y-100780153D01*
X164151185Y-100650000D01*
X164130571Y-100519847D01*
X164070746Y-100402434D01*
X164070745Y-100402433D01*
X164070744Y-100402431D01*
X163976486Y-100308173D01*
X163954746Y-100261553D01*
X163968060Y-100211866D01*
X163976475Y-100201836D01*
X164060746Y-100117566D01*
X164120571Y-100000153D01*
X164141185Y-99870000D01*
X164120571Y-99739847D01*
X164060746Y-99622434D01*
X164060745Y-99622433D01*
X164060744Y-99622431D01*
X163967568Y-99529255D01*
X163850153Y-99469429D01*
X163850155Y-99469429D01*
X163720001Y-99448815D01*
X163719999Y-99448815D01*
X163589845Y-99469429D01*
X163472431Y-99529255D01*
X163379255Y-99622431D01*
X163319429Y-99739845D01*
X163298815Y-99869999D01*
X163298815Y-99870000D01*
X161991000Y-99870000D01*
X161991000Y-98612395D01*
X162008593Y-98564057D01*
X162013026Y-98559221D01*
X162139221Y-98433026D01*
X162185841Y-98411286D01*
X162192395Y-98411000D01*
X162294878Y-98411000D01*
X162329018Y-98419196D01*
X162332060Y-98420746D01*
X162429845Y-98470570D01*
X162429847Y-98470571D01*
X162529827Y-98486406D01*
X162559999Y-98491185D01*
X162560000Y-98491185D01*
X162560001Y-98491185D01*
X162580615Y-98487919D01*
X162690153Y-98470571D01*
X162787940Y-98420746D01*
X162790982Y-98419196D01*
X162825122Y-98411000D01*
X162973466Y-98411000D01*
X162976744Y-98411143D01*
X162978379Y-98411286D01*
X163020179Y-98414943D01*
X163062301Y-98403655D01*
X163065484Y-98402949D01*
X163108428Y-98395378D01*
X163113045Y-98392711D01*
X163131184Y-98385197D01*
X163136336Y-98383818D01*
X163172045Y-98358814D01*
X163174814Y-98357050D01*
X163207441Y-98338213D01*
X163212572Y-98335251D01*
X163240620Y-98301822D01*
X163242787Y-98299458D01*
X163839458Y-97702787D01*
X163841822Y-97700620D01*
X163875251Y-97672572D01*
X163897050Y-97634814D01*
X163898814Y-97632045D01*
X163911827Y-97613460D01*
X163923818Y-97596336D01*
X163925197Y-97591184D01*
X163932711Y-97573045D01*
X163935378Y-97568428D01*
X163942949Y-97525484D01*
X163943655Y-97522301D01*
X163954943Y-97480179D01*
X163951143Y-97436748D01*
X163951000Y-97433470D01*
X163951000Y-96346479D01*
X163952142Y-96333423D01*
X163957947Y-96300495D01*
X163958655Y-96297301D01*
X163969943Y-96255179D01*
X163966143Y-96211747D01*
X163966000Y-96208469D01*
X163966000Y-95965682D01*
X163974197Y-95931541D01*
X164010570Y-95860156D01*
X164010570Y-95860155D01*
X164010570Y-95860154D01*
X164010571Y-95860153D01*
X164031185Y-95730000D01*
X164010571Y-95599847D01*
X163990559Y-95560571D01*
X163974196Y-95528456D01*
X163966000Y-95494316D01*
X163966000Y-89734325D01*
X163983593Y-89685987D01*
X164028142Y-89660267D01*
X164075339Y-89667321D01*
X164082922Y-89671185D01*
X164179844Y-89720570D01*
X164179845Y-89720570D01*
X164179847Y-89720571D01*
X164279827Y-89736406D01*
X164309999Y-89741185D01*
X164310000Y-89741185D01*
X164310001Y-89741185D01*
X164330615Y-89737919D01*
X164440153Y-89720571D01*
X164557566Y-89660746D01*
X164650746Y-89567566D01*
X164710571Y-89450153D01*
X164731185Y-89320000D01*
X164710571Y-89189847D01*
X164650746Y-89072434D01*
X164650745Y-89072433D01*
X164650744Y-89072431D01*
X164557568Y-88979255D01*
X164440153Y-88919429D01*
X164440155Y-88919429D01*
X164310001Y-88898815D01*
X164309999Y-88898815D01*
X164179845Y-88919429D01*
X164075340Y-88972678D01*
X164024284Y-88978947D01*
X163981143Y-88950931D01*
X163966000Y-88905674D01*
X163966000Y-88738359D01*
X163966143Y-88735081D01*
X163967462Y-88720000D01*
X163969943Y-88691648D01*
X163958657Y-88649534D01*
X163957947Y-88646331D01*
X163956787Y-88639750D01*
X163950378Y-88603399D01*
X163947709Y-88598777D01*
X163940196Y-88580636D01*
X163938818Y-88575491D01*
X163913814Y-88539781D01*
X163912051Y-88537013D01*
X163890254Y-88499259D01*
X163890253Y-88499257D01*
X163882495Y-88492747D01*
X163856843Y-88471222D01*
X163854441Y-88469021D01*
X163205976Y-87820556D01*
X163203770Y-87818148D01*
X163175746Y-87784750D01*
X163175745Y-87784749D01*
X163137978Y-87762944D01*
X163135219Y-87761186D01*
X163113875Y-87746241D01*
X163099509Y-87736182D01*
X163099508Y-87736181D01*
X163099507Y-87736181D01*
X163094359Y-87734802D01*
X163076220Y-87727288D01*
X163071601Y-87724622D01*
X163071600Y-87724621D01*
X163071599Y-87724621D01*
X163028661Y-87717049D01*
X163025458Y-87716339D01*
X162996229Y-87708507D01*
X162983352Y-87705057D01*
X162983351Y-87705057D01*
X162939917Y-87708857D01*
X162936639Y-87709000D01*
X161584719Y-87709000D01*
X161536381Y-87691407D01*
X161510661Y-87646858D01*
X161510964Y-87619129D01*
X161516000Y-87593812D01*
X161516000Y-87215861D01*
X161533593Y-87167523D01*
X161578142Y-87141803D01*
X161628800Y-87150736D01*
X161644374Y-87162687D01*
X161702431Y-87220744D01*
X161702433Y-87220745D01*
X161702434Y-87220746D01*
X161819845Y-87280570D01*
X161819847Y-87280571D01*
X161919827Y-87296406D01*
X161949999Y-87301185D01*
X161950000Y-87301185D01*
X161950001Y-87301185D01*
X161970615Y-87297919D01*
X162080153Y-87280571D01*
X162197566Y-87220746D01*
X162290746Y-87127566D01*
X162350571Y-87010153D01*
X162371185Y-86880000D01*
X162350571Y-86749847D01*
X162299196Y-86649017D01*
X162291000Y-86614877D01*
X162291000Y-85780000D01*
X163478925Y-85780000D01*
X163499152Y-85946582D01*
X163499152Y-85946584D01*
X163499153Y-85946585D01*
X163558654Y-86103479D01*
X163558659Y-86103487D01*
X163653976Y-86241578D01*
X163653978Y-86241580D01*
X163653980Y-86241583D01*
X163653983Y-86241585D01*
X163653988Y-86241591D01*
X163779580Y-86352855D01*
X163779582Y-86352856D01*
X163779584Y-86352858D01*
X163803967Y-86365655D01*
X163885305Y-86408345D01*
X163928168Y-86430841D01*
X164091097Y-86471000D01*
X164091100Y-86471000D01*
X164258900Y-86471000D01*
X164258903Y-86471000D01*
X164421832Y-86430841D01*
X164570416Y-86352858D01*
X164696020Y-86241583D01*
X164791344Y-86103482D01*
X164850848Y-85946582D01*
X164871075Y-85780000D01*
X164850848Y-85613418D01*
X164792888Y-85460589D01*
X164791345Y-85456520D01*
X164791340Y-85456512D01*
X164696023Y-85318421D01*
X164696022Y-85318419D01*
X164696020Y-85318417D01*
X164696016Y-85318413D01*
X164696011Y-85318408D01*
X164570419Y-85207144D01*
X164570413Y-85207140D01*
X164421835Y-85129160D01*
X164421832Y-85129159D01*
X164258903Y-85089000D01*
X164091097Y-85089000D01*
X163971839Y-85118395D01*
X163928164Y-85129160D01*
X163779586Y-85207140D01*
X163779580Y-85207144D01*
X163653988Y-85318408D01*
X163653976Y-85318421D01*
X163558659Y-85456512D01*
X163558654Y-85456520D01*
X163499153Y-85613414D01*
X163499152Y-85613416D01*
X163499152Y-85613418D01*
X163478925Y-85780000D01*
X162291000Y-85780000D01*
X162291000Y-83726529D01*
X162291143Y-83723251D01*
X162292316Y-83709845D01*
X162294943Y-83679821D01*
X162283657Y-83637707D01*
X162282947Y-83634504D01*
X162275378Y-83591572D01*
X162272709Y-83586950D01*
X162265196Y-83568809D01*
X162263818Y-83563664D01*
X162245696Y-83537784D01*
X162238814Y-83527954D01*
X162237051Y-83525186D01*
X162215254Y-83487432D01*
X162215253Y-83487430D01*
X162195544Y-83470892D01*
X162181843Y-83459395D01*
X162179441Y-83457194D01*
X161757803Y-83035556D01*
X161755597Y-83033148D01*
X161727573Y-82999750D01*
X161727572Y-82999749D01*
X161689805Y-82977944D01*
X161687046Y-82976186D01*
X161659048Y-82956582D01*
X161651336Y-82951182D01*
X161651335Y-82951181D01*
X161651334Y-82951181D01*
X161646186Y-82949802D01*
X161628047Y-82942288D01*
X161623428Y-82939622D01*
X161623427Y-82939621D01*
X161623426Y-82939621D01*
X161580488Y-82932049D01*
X161577285Y-82931339D01*
X161548056Y-82923507D01*
X161535179Y-82920057D01*
X161535178Y-82920057D01*
X161491744Y-82923857D01*
X161488466Y-82924000D01*
X161468719Y-82924000D01*
X161420381Y-82906407D01*
X161406835Y-82891524D01*
X161346020Y-82803417D01*
X161346014Y-82803412D01*
X161346011Y-82803408D01*
X161220419Y-82692144D01*
X161220413Y-82692140D01*
X161206251Y-82684707D01*
X161171627Y-82646665D01*
X161166000Y-82618122D01*
X161166000Y-82111532D01*
X161166143Y-82108254D01*
X161169943Y-82064821D01*
X161158657Y-82022707D01*
X161157947Y-82019504D01*
X161150378Y-81976572D01*
X161147709Y-81971950D01*
X161140196Y-81953809D01*
X161138818Y-81948664D01*
X161113814Y-81912954D01*
X161112051Y-81910186D01*
X161090254Y-81872432D01*
X161090253Y-81872430D01*
X161090251Y-81872428D01*
X161056843Y-81844395D01*
X161054441Y-81842194D01*
X160862803Y-81650556D01*
X160860597Y-81648148D01*
X160832573Y-81614750D01*
X160832572Y-81614749D01*
X160794805Y-81592944D01*
X160792046Y-81591186D01*
X160792042Y-81591183D01*
X160756336Y-81566182D01*
X160756335Y-81566181D01*
X160756334Y-81566181D01*
X160751186Y-81564802D01*
X160733047Y-81557288D01*
X160728428Y-81554622D01*
X160728427Y-81554621D01*
X160728426Y-81554621D01*
X160685488Y-81547049D01*
X160682285Y-81546339D01*
X160653056Y-81538507D01*
X160640179Y-81535057D01*
X160640178Y-81535057D01*
X160596744Y-81538857D01*
X160593466Y-81539000D01*
X156704793Y-81539000D01*
X156685330Y-81536437D01*
X156680179Y-81535057D01*
X156636744Y-81538857D01*
X156633466Y-81539000D01*
X152561034Y-81539000D01*
X152557756Y-81538857D01*
X152514322Y-81535057D01*
X152514318Y-81535057D01*
X152472196Y-81546344D01*
X152468999Y-81547052D01*
X152457919Y-81549006D01*
X152426073Y-81554621D01*
X152426072Y-81554621D01*
X152421449Y-81557291D01*
X152403321Y-81564799D01*
X152400181Y-81565641D01*
X152398163Y-81566182D01*
X152362456Y-81591183D01*
X152359690Y-81592945D01*
X152321926Y-81614750D01*
X152293907Y-81648141D01*
X152291691Y-81650560D01*
X152215279Y-81726974D01*
X152168659Y-81748714D01*
X152162104Y-81749000D01*
X140862395Y-81749000D01*
X140814057Y-81731407D01*
X140809221Y-81726974D01*
X140628586Y-81546339D01*
X140442803Y-81360556D01*
X140440597Y-81358148D01*
X140412573Y-81324750D01*
X140412572Y-81324749D01*
X140374805Y-81302944D01*
X140372046Y-81301186D01*
X140372042Y-81301183D01*
X140336336Y-81276182D01*
X140336335Y-81276181D01*
X140336334Y-81276181D01*
X140331186Y-81274802D01*
X140313047Y-81267288D01*
X140308428Y-81264622D01*
X140308427Y-81264621D01*
X140308426Y-81264621D01*
X140265488Y-81257049D01*
X140262285Y-81256339D01*
X140233056Y-81248507D01*
X140220179Y-81245057D01*
X140220178Y-81245057D01*
X140176744Y-81248857D01*
X140173466Y-81249000D01*
X135856530Y-81249000D01*
X135853252Y-81248857D01*
X135809822Y-81245057D01*
X135809818Y-81245057D01*
X135767696Y-81256344D01*
X135764499Y-81257052D01*
X135753419Y-81259006D01*
X135721573Y-81264621D01*
X135721572Y-81264621D01*
X135716949Y-81267291D01*
X135698821Y-81274799D01*
X135695681Y-81275641D01*
X135693663Y-81276182D01*
X135657956Y-81301183D01*
X135655190Y-81302945D01*
X135617426Y-81324750D01*
X135589402Y-81358148D01*
X135587185Y-81360566D01*
X134650566Y-82297185D01*
X134648148Y-82299402D01*
X134614750Y-82327426D01*
X134592945Y-82365190D01*
X134591183Y-82367956D01*
X134566182Y-82403663D01*
X134566123Y-82403885D01*
X134565085Y-82407760D01*
X134564801Y-82408819D01*
X134557291Y-82426949D01*
X134554621Y-82431572D01*
X134554621Y-82431573D01*
X134547054Y-82474493D01*
X134546344Y-82477696D01*
X134535057Y-82519818D01*
X134535057Y-82519822D01*
X134538857Y-82563254D01*
X134539000Y-82566532D01*
X134539000Y-87197605D01*
X134521407Y-87245943D01*
X134516974Y-87250779D01*
X134400779Y-87366974D01*
X134354159Y-87388714D01*
X134347605Y-87389000D01*
X133076530Y-87389000D01*
X133073252Y-87388857D01*
X133029822Y-87385057D01*
X133029818Y-87385057D01*
X132987696Y-87396344D01*
X132984499Y-87397052D01*
X132973419Y-87399006D01*
X132941573Y-87404621D01*
X132941572Y-87404621D01*
X132936949Y-87407291D01*
X132918821Y-87414799D01*
X132915681Y-87415641D01*
X132913663Y-87416182D01*
X132877956Y-87441183D01*
X132875190Y-87442945D01*
X132837426Y-87464750D01*
X132809402Y-87498148D01*
X132807185Y-87500566D01*
X132445566Y-87862185D01*
X132443148Y-87864402D01*
X132409750Y-87892426D01*
X132387945Y-87930190D01*
X132386183Y-87932956D01*
X132361182Y-87968663D01*
X132359801Y-87973819D01*
X132352291Y-87991949D01*
X132349621Y-87996572D01*
X132349621Y-87996573D01*
X132346011Y-88017050D01*
X132342942Y-88034459D01*
X132342054Y-88039493D01*
X132341344Y-88042696D01*
X132330057Y-88084818D01*
X132330057Y-88084821D01*
X132333238Y-88121185D01*
X132333857Y-88128254D01*
X132334000Y-88131532D01*
X132334000Y-88138800D01*
X132316407Y-88187138D01*
X132271858Y-88212858D01*
X132258800Y-88214000D01*
X132156187Y-88214000D01*
X132100476Y-88225081D01*
X132100474Y-88225082D01*
X132037297Y-88267297D01*
X131995082Y-88330474D01*
X131995081Y-88330476D01*
X131984000Y-88386187D01*
X131984000Y-89423812D01*
X131995081Y-89479523D01*
X131995082Y-89479525D01*
X132037297Y-89542703D01*
X132100474Y-89584917D01*
X132100473Y-89584917D01*
X132100475Y-89584918D01*
X132114253Y-89587658D01*
X132158229Y-89614342D01*
X132174765Y-89663051D01*
X132156123Y-89710994D01*
X132155885Y-89711264D01*
X132153983Y-89713411D01*
X132058659Y-89851512D01*
X132058654Y-89851520D01*
X131999153Y-90008414D01*
X131999152Y-90008416D01*
X131999152Y-90008418D01*
X131978925Y-90175000D01*
X131000500Y-90175000D01*
X131000500Y-86470000D01*
X131963925Y-86470000D01*
X131984152Y-86636582D01*
X131984152Y-86636584D01*
X131984153Y-86636585D01*
X132043654Y-86793479D01*
X132043659Y-86793487D01*
X132138976Y-86931578D01*
X132138978Y-86931580D01*
X132138980Y-86931583D01*
X132138983Y-86931585D01*
X132138988Y-86931591D01*
X132264580Y-87042855D01*
X132264582Y-87042856D01*
X132264584Y-87042858D01*
X132413168Y-87120841D01*
X132576097Y-87161000D01*
X132576100Y-87161000D01*
X132743900Y-87161000D01*
X132743903Y-87161000D01*
X132906832Y-87120841D01*
X133055416Y-87042858D01*
X133181020Y-86931583D01*
X133276344Y-86793482D01*
X133335848Y-86636582D01*
X133356075Y-86470000D01*
X133335848Y-86303418D01*
X133286173Y-86172434D01*
X133276345Y-86146520D01*
X133276340Y-86146512D01*
X133181023Y-86008421D01*
X133181022Y-86008419D01*
X133181020Y-86008417D01*
X133181016Y-86008413D01*
X133181011Y-86008408D01*
X133055419Y-85897144D01*
X133055413Y-85897140D01*
X132906835Y-85819160D01*
X132906832Y-85819159D01*
X132743903Y-85779000D01*
X132576097Y-85779000D01*
X132449305Y-85810252D01*
X132413164Y-85819160D01*
X132264586Y-85897140D01*
X132264580Y-85897144D01*
X132138988Y-86008408D01*
X132138976Y-86008421D01*
X132043659Y-86146512D01*
X132043654Y-86146520D01*
X131984153Y-86303414D01*
X131984152Y-86303416D01*
X131984152Y-86303418D01*
X131963925Y-86470000D01*
X131000500Y-86470000D01*
X131000500Y-84466200D01*
X131018093Y-84417862D01*
X131062642Y-84392142D01*
X131075700Y-84391000D01*
X131183852Y-84391000D01*
X131183855Y-84391000D01*
X131549408Y-84351243D01*
X131908521Y-84272197D01*
X132256982Y-84154786D01*
X132590706Y-84000389D01*
X132905780Y-83810815D01*
X133198511Y-83588287D01*
X133465466Y-83335414D01*
X133703516Y-83055160D01*
X133909870Y-82750811D01*
X134082108Y-82425935D01*
X134218211Y-82084342D01*
X134316584Y-81730035D01*
X134376073Y-81367170D01*
X134392096Y-81071627D01*
X134412281Y-81024315D01*
X134458156Y-81001044D01*
X134467186Y-81000500D01*
X162532814Y-81000500D01*
X162581152Y-81018093D01*
G37*
%TD.AperFunction*%
%TD*%
%TA.AperFunction,Conductor*%
%TO.N,VIN*%
G36*
X162257070Y-109086296D02*
G01*
X162279440Y-109093564D01*
X162320315Y-109114392D01*
X162339347Y-109128220D01*
X162371777Y-109160650D01*
X162385606Y-109179683D01*
X162406432Y-109220555D01*
X162413703Y-109242933D01*
X162420822Y-109287886D01*
X162420878Y-109288236D01*
X162420878Y-109311763D01*
X162413703Y-109357065D01*
X162406433Y-109379441D01*
X162385609Y-109420311D01*
X162371779Y-109439345D01*
X162339345Y-109471779D01*
X162320311Y-109485609D01*
X162279441Y-109506433D01*
X162257063Y-109513703D01*
X162211762Y-109520877D01*
X162188237Y-109520877D01*
X162142932Y-109513702D01*
X162120555Y-109506432D01*
X162086011Y-109488831D01*
X162079685Y-109485607D01*
X162060653Y-109471779D01*
X162028219Y-109439345D01*
X162014390Y-109420312D01*
X161993564Y-109379440D01*
X161986296Y-109357070D01*
X161979120Y-109311756D01*
X161979120Y-109288241D01*
X161986296Y-109242928D01*
X161993563Y-109220561D01*
X162014394Y-109179678D01*
X162028218Y-109160652D01*
X162060653Y-109128217D01*
X162079679Y-109114393D01*
X162120559Y-109093563D01*
X162142925Y-109086296D01*
X162188242Y-109079120D01*
X162211756Y-109079120D01*
X162257070Y-109086296D01*
G37*
%TD.AperFunction*%
%TA.AperFunction,Conductor*%
G36*
X159657070Y-108286296D02*
G01*
X159679440Y-108293564D01*
X159720315Y-108314392D01*
X159739347Y-108328220D01*
X159771777Y-108360650D01*
X159785606Y-108379683D01*
X159796553Y-108401168D01*
X159806432Y-108420555D01*
X159813703Y-108442933D01*
X159820878Y-108488236D01*
X159820878Y-108511763D01*
X159813703Y-108557065D01*
X159806433Y-108579441D01*
X159785609Y-108620311D01*
X159771779Y-108639345D01*
X159739345Y-108671779D01*
X159720311Y-108685609D01*
X159679441Y-108706433D01*
X159657063Y-108713703D01*
X159611762Y-108720877D01*
X159588237Y-108720877D01*
X159542932Y-108713702D01*
X159520555Y-108706432D01*
X159493685Y-108692741D01*
X159479685Y-108685607D01*
X159460653Y-108671779D01*
X159428219Y-108639345D01*
X159414390Y-108620312D01*
X159393564Y-108579440D01*
X159386296Y-108557070D01*
X159379120Y-108511756D01*
X159379120Y-108488241D01*
X159386296Y-108442928D01*
X159393563Y-108420561D01*
X159414394Y-108379678D01*
X159428218Y-108360652D01*
X159460653Y-108328217D01*
X159479679Y-108314393D01*
X159520559Y-108293563D01*
X159542925Y-108286296D01*
X159588242Y-108279120D01*
X159611756Y-108279120D01*
X159657070Y-108286296D01*
G37*
%TD.AperFunction*%
%TA.AperFunction,Conductor*%
G36*
X162706867Y-106117593D02*
G01*
X162732587Y-106162142D01*
X162731947Y-106191472D01*
X162730670Y-106197235D01*
X162730108Y-106200420D01*
X162717652Y-106230487D01*
X162715781Y-106233159D01*
X162709440Y-106243119D01*
X162709401Y-106243187D01*
X162692656Y-106263142D01*
X162692588Y-106263199D01*
X162683878Y-106271180D01*
X161803684Y-107151376D01*
X161795725Y-107160058D01*
X161795644Y-107160155D01*
X161775681Y-107176905D01*
X161775623Y-107176939D01*
X161765629Y-107183305D01*
X161762984Y-107185157D01*
X161732926Y-107197607D01*
X161729733Y-107198170D01*
X161723960Y-107199450D01*
X161718191Y-107200730D01*
X161718177Y-107200733D01*
X161718128Y-107200746D01*
X161692123Y-107203021D01*
X161692063Y-107203016D01*
X161680239Y-107202500D01*
X161005122Y-107202500D01*
X160959368Y-107207915D01*
X160959366Y-107207915D01*
X160959361Y-107207916D01*
X160959352Y-107207918D01*
X160925229Y-107216110D01*
X160881995Y-107232060D01*
X160819442Y-107263933D01*
X160797064Y-107271203D01*
X160751762Y-107278377D01*
X160728237Y-107278377D01*
X160682932Y-107271202D01*
X160660555Y-107263932D01*
X160598003Y-107232060D01*
X160554770Y-107216110D01*
X160520647Y-107207918D01*
X160520638Y-107207916D01*
X160520634Y-107207915D01*
X160520632Y-107207915D01*
X160474878Y-107202500D01*
X159675200Y-107202500D01*
X159626862Y-107184907D01*
X159601142Y-107140358D01*
X159600000Y-107127300D01*
X159600000Y-106766200D01*
X159617593Y-106717862D01*
X159662142Y-106692142D01*
X159675200Y-106691000D01*
X161020653Y-106691000D01*
X161068991Y-106708593D01*
X161092512Y-106744034D01*
X161095079Y-106752356D01*
X161095080Y-106752360D01*
X161120800Y-106796908D01*
X161150233Y-106835763D01*
X161223505Y-106883086D01*
X161223509Y-106883088D01*
X161229035Y-106885099D01*
X161271845Y-106900680D01*
X161338874Y-106912499D01*
X161338875Y-106912500D01*
X161338879Y-106912500D01*
X161524380Y-106912500D01*
X161526544Y-106912405D01*
X161535204Y-106912028D01*
X161609494Y-106893849D01*
X161656114Y-106872109D01*
X161711872Y-106833067D01*
X162368578Y-106176360D01*
X162375889Y-106168385D01*
X162381245Y-106159561D01*
X162395434Y-106136183D01*
X162435554Y-106103989D01*
X162459720Y-106100000D01*
X162658529Y-106100000D01*
X162706867Y-106117593D01*
G37*
%TD.AperFunction*%
%TD*%
M02*
