%TF.GenerationSoftware,KiCad,Pcbnew,7.0.9*%
%TF.CreationDate,2024-03-28T09:14:24+03:00*%
%TF.ProjectId,MicroFlightController-v2,4d696372-6f46-46c6-9967-6874436f6e74,rev?*%
%TF.SameCoordinates,Original*%
%TF.FileFunction,Legend,Top*%
%TF.FilePolarity,Positive*%
%FSLAX46Y46*%
G04 Gerber Fmt 4.6, Leading zero omitted, Abs format (unit mm)*
G04 Created by KiCad (PCBNEW 7.0.9) date 2024-03-28 09:14:24*
%MOMM*%
%LPD*%
G01*
G04 APERTURE LIST*
%ADD10C,0.150000*%
%ADD11C,0.120000*%
%ADD12C,0.100000*%
%ADD13C,0.152400*%
G04 APERTURE END LIST*
D10*
X133172295Y-106710000D02*
X133362771Y-106710000D01*
X133286580Y-106900476D02*
X133362771Y-106710000D01*
X133362771Y-106710000D02*
X133286580Y-106519523D01*
X133515152Y-106824285D02*
X133362771Y-106710000D01*
X133362771Y-106710000D02*
X133515152Y-106595714D01*
X139765180Y-91210000D02*
X139527085Y-91210000D01*
X139622323Y-90971905D02*
X139527085Y-91210000D01*
X139527085Y-91210000D02*
X139622323Y-91448095D01*
X139336609Y-91067143D02*
X139527085Y-91210000D01*
X139527085Y-91210000D02*
X139336609Y-91352857D01*
D11*
%TO.C,J8*%
X161935000Y-87835000D02*
X160825000Y-87835000D01*
X161935000Y-87075000D02*
X161935000Y-87835000D01*
X161935000Y-86315000D02*
X161935000Y-82570000D01*
X161935000Y-86315000D02*
X161388471Y-86315000D01*
X161935000Y-82570000D02*
X161132530Y-82570000D01*
X160517470Y-82570000D02*
X159715000Y-82570000D01*
X160261529Y-86315000D02*
X159715000Y-86315000D01*
X159715000Y-86315000D02*
X159715000Y-82570000D01*
%TO.C,U7*%
X134023199Y-106878600D02*
X134515258Y-106878600D01*
X136934740Y-106878600D02*
X137426799Y-106878600D01*
X137426799Y-106878600D02*
X137426799Y-106386541D01*
X134023199Y-106386541D02*
X134023199Y-106878600D01*
X137426799Y-103967059D02*
X137426799Y-103475000D01*
X134023199Y-103475000D02*
X134023199Y-103967059D01*
X134515258Y-103475000D02*
X134023199Y-103475000D01*
X137426799Y-103475000D02*
X136934740Y-103475000D01*
D12*
X136165499Y-103043200D02*
X135784498Y-103043200D01*
X135784498Y-102789200D01*
X136165499Y-102789200D01*
X136165499Y-103043200D01*
G36*
X136165499Y-103043200D02*
G01*
X135784498Y-103043200D01*
X135784498Y-102789200D01*
X136165499Y-102789200D01*
X136165499Y-103043200D01*
G37*
D11*
%TO.C,C25*%
X164660000Y-97737836D02*
X164660000Y-97522164D01*
X165380000Y-97737836D02*
X165380000Y-97522164D01*
%TO.C,D1*%
X140590000Y-104875000D02*
X140590000Y-106875000D01*
X140590000Y-104875000D02*
X144600000Y-104875000D01*
X140590000Y-106875000D02*
X144600000Y-106875000D01*
%TO.C,R29*%
X155205000Y-88331359D02*
X155205000Y-88638641D01*
X154445000Y-88331359D02*
X154445000Y-88638641D01*
%TO.C,G\u002A\u002A\u002A*%
G36*
X142913300Y-87599015D02*
G01*
X143270934Y-87963460D01*
X143548418Y-88265244D01*
X143705630Y-88459792D01*
X143726601Y-88502543D01*
X143617906Y-88571442D01*
X143357476Y-88600000D01*
X143149244Y-88612678D01*
X143035029Y-88690803D01*
X142980839Y-88894509D01*
X142952687Y-89283933D01*
X142950825Y-89319458D01*
X142913300Y-90038916D01*
X142157426Y-90075489D01*
X141742116Y-90081270D01*
X141432559Y-90059100D01*
X141312845Y-90023354D01*
X141262973Y-89857247D01*
X141230793Y-89526908D01*
X141224138Y-89267323D01*
X141217269Y-88881485D01*
X141173212Y-88683345D01*
X141056786Y-88610365D01*
X140848768Y-88600000D01*
X140585100Y-88571743D01*
X140473424Y-88503670D01*
X140473399Y-88502543D01*
X140556772Y-88377056D01*
X140780143Y-88122420D01*
X141103388Y-87783209D01*
X141286699Y-87599015D01*
X142100000Y-86792943D01*
X142913300Y-87599015D01*
G37*
%TO.C,C2*%
X146285000Y-105967164D02*
X146285000Y-106182836D01*
X145565000Y-105967164D02*
X145565000Y-106182836D01*
%TO.C,R12*%
X142020000Y-110083641D02*
X142020000Y-109776359D01*
X142780000Y-110083641D02*
X142780000Y-109776359D01*
%TO.C,R4*%
X149760000Y-106233641D02*
X149760000Y-105926359D01*
X150520000Y-106233641D02*
X150520000Y-105926359D01*
%TO.C,SW1*%
X157240000Y-114110000D02*
X157240000Y-110810000D01*
X157540000Y-114110000D02*
X157240000Y-114110000D01*
X159740000Y-114110000D02*
X160040000Y-114110000D01*
X160040000Y-114110000D02*
X160040000Y-110810000D01*
X157240000Y-110810000D02*
X157540000Y-110810000D01*
X160040000Y-110810000D02*
X159740000Y-110810000D01*
%TO.C,R18*%
X138806359Y-102920000D02*
X139113641Y-102920000D01*
X138806359Y-103680000D02*
X139113641Y-103680000D01*
%TO.C,R3*%
X158950000Y-108886359D02*
X158950000Y-109193641D01*
X158190000Y-108886359D02*
X158190000Y-109193641D01*
%TO.C,R27*%
X133445000Y-101478641D02*
X133445000Y-101171359D01*
X134205000Y-101478641D02*
X134205000Y-101171359D01*
%TO.C,C5*%
X140662164Y-91660000D02*
X140877836Y-91660000D01*
X140662164Y-92380000D02*
X140877836Y-92380000D01*
%TO.C,C7*%
X145615000Y-85727836D02*
X145615000Y-85512164D01*
X146335000Y-85727836D02*
X146335000Y-85512164D01*
%TO.C,D2*%
X157092500Y-101640000D02*
X157092500Y-103640000D01*
X157092500Y-101640000D02*
X161102500Y-101640000D01*
X157092500Y-103640000D02*
X161102500Y-103640000D01*
%TO.C,J7*%
X152415000Y-83900000D02*
X152415000Y-82790000D01*
X153175000Y-83900000D02*
X152415000Y-83900000D01*
X153935000Y-83900000D02*
X157680000Y-83900000D01*
X153935000Y-83900000D02*
X153935000Y-83353471D01*
X157680000Y-83900000D02*
X157680000Y-83097530D01*
X157680000Y-82482470D02*
X157680000Y-81680000D01*
X153935000Y-82226529D02*
X153935000Y-81680000D01*
X153935000Y-81680000D02*
X157680000Y-81680000D01*
%TO.C,C8*%
X152340000Y-103272836D02*
X152340000Y-103057164D01*
X153060000Y-103272836D02*
X153060000Y-103057164D01*
%TO.C,J1*%
X143690000Y-110540000D02*
X143690000Y-112540000D01*
X143690000Y-114440000D02*
X143690000Y-116340000D01*
X143690000Y-116340000D02*
X153090000Y-116340000D01*
X153090000Y-110540000D02*
X153090000Y-112540000D01*
X153090000Y-114440000D02*
X153090000Y-116340000D01*
%TO.C,R15*%
X157130000Y-105183641D02*
X157130000Y-104876359D01*
X157890000Y-105183641D02*
X157890000Y-104876359D01*
%TO.C,R8*%
X142180000Y-100381359D02*
X142180000Y-100688641D01*
X141420000Y-100381359D02*
X141420000Y-100688641D01*
%TO.C,C17*%
X135220000Y-91742164D02*
X135220000Y-91957836D01*
X134500000Y-91742164D02*
X134500000Y-91957836D01*
%TO.C,C3*%
X157150000Y-109137836D02*
X157150000Y-108922164D01*
X157870000Y-109137836D02*
X157870000Y-108922164D01*
%TO.C,C10*%
X153835000Y-85172164D02*
X153835000Y-85387836D01*
X153115000Y-85172164D02*
X153115000Y-85387836D01*
%TO.C,U4*%
X134570000Y-88850000D02*
X134830000Y-88850000D01*
X134830000Y-88850000D02*
X134830000Y-90525000D01*
X140020000Y-88850000D02*
X139760000Y-88850000D01*
X134570000Y-86125000D02*
X134570000Y-88850000D01*
X134570000Y-86125000D02*
X134570000Y-83400000D01*
X140020000Y-86125000D02*
X140020000Y-88850000D01*
X140020000Y-86125000D02*
X140020000Y-83400000D01*
X134570000Y-83400000D02*
X134830000Y-83400000D01*
X140020000Y-83400000D02*
X139760000Y-83400000D01*
%TO.C,C19*%
X141135000Y-85467164D02*
X141135000Y-85682836D01*
X140415000Y-85467164D02*
X140415000Y-85682836D01*
%TO.C,R19*%
X132303641Y-106355000D02*
X131996359Y-106355000D01*
X132303641Y-105595000D02*
X131996359Y-105595000D01*
%TO.C,R16*%
X138846359Y-104045000D02*
X139153641Y-104045000D01*
X138846359Y-104805000D02*
X139153641Y-104805000D01*
%TO.C,U1*%
X154060000Y-89680000D02*
X153110000Y-89680000D01*
X153110000Y-89680000D02*
X153110000Y-88340000D01*
X143840000Y-89680000D02*
X144790000Y-89680000D01*
X154060000Y-90630000D02*
X154060000Y-89680000D01*
X143840000Y-90630000D02*
X143840000Y-89680000D01*
X154060000Y-98950000D02*
X154060000Y-99900000D01*
X143840000Y-98950000D02*
X143840000Y-99900000D01*
X154060000Y-99900000D02*
X153110000Y-99900000D01*
X143840000Y-99900000D02*
X144790000Y-99900000D01*
%TO.C,C29*%
X132282836Y-103185000D02*
X132067164Y-103185000D01*
X132282836Y-102465000D02*
X132067164Y-102465000D01*
%TO.C,R20*%
X131996359Y-106670000D02*
X132303641Y-106670000D01*
X131996359Y-107430000D02*
X132303641Y-107430000D01*
%TO.C,J10*%
X163085000Y-113310000D02*
X161975000Y-113310000D01*
X163085000Y-112550000D02*
X163085000Y-113310000D01*
X163085000Y-111790000D02*
X163085000Y-110585000D01*
X163085000Y-111790000D02*
X162538471Y-111790000D01*
X163085000Y-110585000D02*
X162282530Y-110585000D01*
X161667470Y-110585000D02*
X160865000Y-110585000D01*
X161411529Y-111790000D02*
X160865000Y-111790000D01*
X160865000Y-111790000D02*
X160865000Y-110585000D01*
%TO.C,J6*%
X140705000Y-84110000D02*
X140705000Y-83000000D01*
X141465000Y-84110000D02*
X140705000Y-84110000D01*
X142225000Y-84110000D02*
X145970000Y-84110000D01*
X142225000Y-84110000D02*
X142225000Y-83563471D01*
X145970000Y-84110000D02*
X145970000Y-83307530D01*
X145970000Y-82692470D02*
X145970000Y-81890000D01*
X142225000Y-82436529D02*
X142225000Y-81890000D01*
X142225000Y-81890000D02*
X145970000Y-81890000D01*
%TO.C,R10*%
X142800000Y-111756359D02*
X142800000Y-112063641D01*
X142040000Y-111756359D02*
X142040000Y-112063641D01*
%TO.C,C16*%
X135140000Y-97432836D02*
X135140000Y-97217164D01*
X135860000Y-97432836D02*
X135860000Y-97217164D01*
%TO.C,Q1*%
X141640000Y-109407500D02*
X141640000Y-107732500D01*
X141640000Y-109407500D02*
X141640000Y-110057500D01*
X138520000Y-109407500D02*
X138520000Y-108757500D01*
X138520000Y-109407500D02*
X138520000Y-110057500D01*
%TO.C,L2*%
X161710000Y-96540000D02*
X161260000Y-96540000D01*
X161710000Y-96540000D02*
X161710000Y-101360000D01*
X156890000Y-96540000D02*
X157340000Y-96540000D01*
X156890000Y-96540000D02*
X156890000Y-101360000D01*
X161710000Y-101360000D02*
X161260000Y-101360000D01*
X156890000Y-101360000D02*
X157340000Y-101360000D01*
%TO.C,D5*%
X154090000Y-87347500D02*
X155560000Y-87347500D01*
X155560000Y-87347500D02*
X155560000Y-85062500D01*
X154090000Y-85062500D02*
X154090000Y-87347500D01*
%TO.C,U6*%
X162547500Y-101525000D02*
X165047500Y-101525000D01*
X163797500Y-98805000D02*
X165047500Y-98805000D01*
%TO.C,R14*%
X157890000Y-106886359D02*
X157890000Y-107193641D01*
X157130000Y-106886359D02*
X157130000Y-107193641D01*
%TO.C,L3*%
X161880000Y-108286252D02*
X161880000Y-105513748D01*
X165300000Y-108286252D02*
X165300000Y-105513748D01*
%TO.C,D7*%
X157340000Y-87347500D02*
X158810000Y-87347500D01*
X158810000Y-87347500D02*
X158810000Y-85062500D01*
X157340000Y-85062500D02*
X157340000Y-87347500D01*
%TO.C,R5*%
X144220000Y-103853641D02*
X144220000Y-103546359D01*
X144980000Y-103853641D02*
X144980000Y-103546359D01*
%TO.C,C4*%
X150990000Y-84187836D02*
X150990000Y-83972164D01*
X151710000Y-84187836D02*
X151710000Y-83972164D01*
%TO.C,R9*%
X141130000Y-100381359D02*
X141130000Y-100688641D01*
X140370000Y-100381359D02*
X140370000Y-100688641D01*
%TO.C,J3*%
X138650000Y-114430000D02*
X138650000Y-113320000D01*
X139410000Y-114430000D02*
X138650000Y-114430000D01*
X140170000Y-114430000D02*
X141375000Y-114430000D01*
X140170000Y-114430000D02*
X140170000Y-113883471D01*
X141375000Y-114430000D02*
X141375000Y-113627530D01*
X141375000Y-113012470D02*
X141375000Y-112210000D01*
X140170000Y-112756529D02*
X140170000Y-112210000D01*
X140170000Y-112210000D02*
X141375000Y-112210000D01*
%TO.C,C18*%
X141102164Y-98690000D02*
X141317836Y-98690000D01*
X141102164Y-99410000D02*
X141317836Y-99410000D01*
%TO.C,D4*%
X136505000Y-109865000D02*
X135035000Y-109865000D01*
X135035000Y-109865000D02*
X135035000Y-112150000D01*
X136505000Y-112150000D02*
X136505000Y-109865000D01*
D12*
%TO.C,U8*%
X159025000Y-96150000D02*
X158025000Y-95150000D01*
X162954180Y-94450000D02*
X164295820Y-94450000D01*
X163625000Y-93779180D02*
X163625000Y-95120820D01*
X158025000Y-96150000D02*
X165525000Y-96150000D01*
X165525000Y-96150000D02*
X165525000Y-88650000D01*
X165525000Y-88650000D02*
X158025000Y-88650000D01*
X158025000Y-88650000D02*
X158025000Y-96150000D01*
X164295820Y-94450000D02*
G75*
G03*
X164295820Y-94450000I-670820J0D01*
G01*
D11*
%TO.C,J2*%
X156490000Y-114440000D02*
X155380000Y-114440000D01*
X156490000Y-113680000D02*
X156490000Y-114440000D01*
X156490000Y-112920000D02*
X156490000Y-107905000D01*
X156490000Y-112920000D02*
X155943471Y-112920000D01*
X156490000Y-107905000D02*
X155687530Y-107905000D01*
X155072470Y-107905000D02*
X154270000Y-107905000D01*
X154816529Y-112920000D02*
X154270000Y-112920000D01*
X154270000Y-112920000D02*
X154270000Y-107905000D01*
%TO.C,C23*%
X156060000Y-105117836D02*
X156060000Y-104902164D01*
X156780000Y-105117836D02*
X156780000Y-104902164D01*
%TO.C,C9*%
X156787836Y-91440000D02*
X156572164Y-91440000D01*
X156787836Y-90720000D02*
X156572164Y-90720000D01*
%TO.C,R23*%
X136150000Y-113806359D02*
X136150000Y-114113641D01*
X135390000Y-113806359D02*
X135390000Y-114113641D01*
%TO.C,J5*%
X131565000Y-88145000D02*
X132675000Y-88145000D01*
X131565000Y-88905000D02*
X131565000Y-88145000D01*
X131565000Y-89665000D02*
X131565000Y-90870000D01*
X131565000Y-89665000D02*
X132111529Y-89665000D01*
X131565000Y-90870000D02*
X132367470Y-90870000D01*
X132982530Y-90870000D02*
X133785000Y-90870000D01*
X133238471Y-89665000D02*
X133785000Y-89665000D01*
X133785000Y-89665000D02*
X133785000Y-90870000D01*
%TO.C,C21*%
X162950000Y-102572164D02*
X162950000Y-102787836D01*
X162230000Y-102572164D02*
X162230000Y-102787836D01*
%TO.C,R31*%
X157280000Y-88311359D02*
X157280000Y-88618641D01*
X156520000Y-88311359D02*
X156520000Y-88618641D01*
%TO.C,D6*%
X155715000Y-87347500D02*
X157185000Y-87347500D01*
X157185000Y-87347500D02*
X157185000Y-85062500D01*
X155715000Y-85062500D02*
X155715000Y-87347500D01*
%TO.C,J9*%
X131690000Y-111785000D02*
X131690000Y-110675000D01*
X132450000Y-111785000D02*
X131690000Y-111785000D01*
X133210000Y-111785000D02*
X134415000Y-111785000D01*
X133210000Y-111785000D02*
X133210000Y-111238471D01*
X134415000Y-111785000D02*
X134415000Y-110982530D01*
X134415000Y-110367470D02*
X134415000Y-109565000D01*
X133210000Y-110111529D02*
X133210000Y-109565000D01*
X133210000Y-109565000D02*
X134415000Y-109565000D01*
%TO.C,R26*%
X132420000Y-101488641D02*
X132420000Y-101181359D01*
X133180000Y-101488641D02*
X133180000Y-101181359D01*
%TO.C,R17*%
X132343641Y-104230000D02*
X132036359Y-104230000D01*
X132343641Y-103470000D02*
X132036359Y-103470000D01*
%TO.C,R22*%
X137790000Y-113776359D02*
X137790000Y-114083641D01*
X137030000Y-113776359D02*
X137030000Y-114083641D01*
%TO.C,R11*%
X142820000Y-113746359D02*
X142820000Y-114053641D01*
X142060000Y-113746359D02*
X142060000Y-114053641D01*
%TO.C,C6*%
X140597164Y-97415000D02*
X140812836Y-97415000D01*
X140597164Y-98135000D02*
X140812836Y-98135000D01*
%TO.C,J11*%
X131550000Y-84440000D02*
X132660000Y-84440000D01*
X131550000Y-85200000D02*
X131550000Y-84440000D01*
X131550000Y-85960000D02*
X131550000Y-87165000D01*
X131550000Y-85960000D02*
X132096529Y-85960000D01*
X131550000Y-87165000D02*
X132352470Y-87165000D01*
X132967530Y-87165000D02*
X133770000Y-87165000D01*
X133223471Y-85960000D02*
X133770000Y-85960000D01*
X133770000Y-85960000D02*
X133770000Y-87165000D01*
%TO.C,R6*%
X143920000Y-103536359D02*
X143920000Y-103843641D01*
X143160000Y-103536359D02*
X143160000Y-103843641D01*
%TO.C,C13*%
X145310000Y-85512164D02*
X145310000Y-85727836D01*
X144590000Y-85512164D02*
X144590000Y-85727836D01*
%TO.C,C20*%
X161050000Y-108902164D02*
X161050000Y-109117836D01*
X160330000Y-108902164D02*
X160330000Y-109117836D01*
%TO.C,R24*%
X132130000Y-101156359D02*
X132130000Y-101463641D01*
X131370000Y-101156359D02*
X131370000Y-101463641D01*
%TO.C,C28*%
X134385000Y-107947164D02*
X134385000Y-108162836D01*
X133665000Y-107947164D02*
X133665000Y-108162836D01*
%TO.C,R2*%
X146760000Y-106233641D02*
X146760000Y-105926359D01*
X147520000Y-106233641D02*
X147520000Y-105926359D01*
%TO.C,J4*%
X131590000Y-91850000D02*
X132700000Y-91850000D01*
X131590000Y-92610000D02*
X131590000Y-91850000D01*
X131590000Y-93370000D02*
X131590000Y-95845000D01*
X131590000Y-93370000D02*
X132136529Y-93370000D01*
X131590000Y-95845000D02*
X132392470Y-95845000D01*
X133007530Y-95845000D02*
X133810000Y-95845000D01*
X133263471Y-93370000D02*
X133810000Y-93370000D01*
X133810000Y-93370000D02*
X133810000Y-95845000D01*
%TO.C,C24*%
X162210000Y-97677836D02*
X162210000Y-97462164D01*
X162930000Y-97677836D02*
X162930000Y-97462164D01*
%TO.C,C26*%
X155672164Y-102240000D02*
X155887836Y-102240000D01*
X155672164Y-102960000D02*
X155887836Y-102960000D01*
%TO.C,C1*%
X142215000Y-85467164D02*
X142215000Y-85682836D01*
X141495000Y-85467164D02*
X141495000Y-85682836D01*
D13*
%TO.C,U9*%
X139246400Y-91993600D02*
X139004341Y-91993600D01*
X136135659Y-91993600D02*
X135893600Y-91993600D01*
X135893600Y-91993600D02*
X135893600Y-92235659D01*
X139246400Y-92235659D02*
X139246400Y-91993600D01*
X135893600Y-95104341D02*
X135893600Y-95346400D01*
X139246400Y-95346400D02*
X139246400Y-95104341D01*
X139004341Y-95346400D02*
X139246400Y-95346400D01*
X135893600Y-95346400D02*
X136135659Y-95346400D01*
G36*
X135461800Y-94060500D02*
G01*
X135207800Y-94060500D01*
X135207800Y-93679500D01*
X135461800Y-93679500D01*
X135461800Y-94060500D01*
G37*
G36*
X139932200Y-94460499D02*
G01*
X139678200Y-94460499D01*
X139678200Y-94079499D01*
X139932200Y-94079499D01*
X139932200Y-94460499D01*
G37*
D11*
%TO.C,Y1*%
X150675000Y-86475000D02*
X150675000Y-83175000D01*
X150675000Y-83175000D02*
X146675000Y-83175000D01*
%TO.C,C14*%
X144285000Y-85507164D02*
X144285000Y-85722836D01*
X143565000Y-85507164D02*
X143565000Y-85722836D01*
%TO.C,R7*%
X150970000Y-86163641D02*
X150970000Y-85856359D01*
X151730000Y-86163641D02*
X151730000Y-85856359D01*
%TO.C,D3*%
X138135000Y-109857500D02*
X136665000Y-109857500D01*
X136665000Y-109857500D02*
X136665000Y-112142500D01*
X138135000Y-112142500D02*
X138135000Y-109857500D01*
%TO.C,C15*%
X136190000Y-97407836D02*
X136190000Y-97192164D01*
X136910000Y-97407836D02*
X136910000Y-97192164D01*
%TO.C,C27*%
X138817164Y-105540000D02*
X139032836Y-105540000D01*
X138817164Y-106260000D02*
X139032836Y-106260000D01*
%TO.C,R1*%
X142505000Y-85748641D02*
X142505000Y-85441359D01*
X143265000Y-85748641D02*
X143265000Y-85441359D01*
%TO.C,J12*%
X165285000Y-87810000D02*
X164175000Y-87810000D01*
X165285000Y-87050000D02*
X165285000Y-87810000D01*
X165285000Y-86290000D02*
X165285000Y-85085000D01*
X165285000Y-86290000D02*
X164738471Y-86290000D01*
X165285000Y-85085000D02*
X164482530Y-85085000D01*
X163867470Y-85085000D02*
X163065000Y-85085000D01*
X163611529Y-86290000D02*
X163065000Y-86290000D01*
X163065000Y-86290000D02*
X163065000Y-85085000D01*
%TO.C,C12*%
X152810000Y-85172164D02*
X152810000Y-85387836D01*
X152090000Y-85172164D02*
X152090000Y-85387836D01*
%TO.C,C11*%
X140807836Y-97135000D02*
X140592164Y-97135000D01*
X140807836Y-96415000D02*
X140592164Y-96415000D01*
%TO.C,R13*%
X160010000Y-108876359D02*
X160010000Y-109183641D01*
X159250000Y-108876359D02*
X159250000Y-109183641D01*
%TO.C,U5*%
X161350000Y-105920000D02*
X161350000Y-104120000D01*
X161350000Y-105920000D02*
X161350000Y-106720000D01*
X158230000Y-105920000D02*
X158230000Y-105120000D01*
X158230000Y-105920000D02*
X158230000Y-106720000D01*
%TO.C,R21*%
X132313641Y-108480000D02*
X132006359Y-108480000D01*
X132313641Y-107720000D02*
X132006359Y-107720000D01*
%TO.C,R25*%
X132021359Y-104545000D02*
X132328641Y-104545000D01*
X132021359Y-105305000D02*
X132328641Y-105305000D01*
%TO.C,U3*%
X134800000Y-98525000D02*
X135300000Y-98525000D01*
X140000000Y-98625000D02*
X140000000Y-99575000D01*
X134800000Y-99025000D02*
X134800000Y-98525000D01*
X140000000Y-101325000D02*
X140000000Y-101825000D01*
X140000000Y-101825000D02*
X139500000Y-101825000D01*
X135300000Y-101825000D02*
X134800000Y-101825000D01*
X134800000Y-101825000D02*
X134800000Y-101325000D01*
%TO.C,C22*%
X164660000Y-102797836D02*
X164660000Y-102582164D01*
X165380000Y-102797836D02*
X165380000Y-102582164D01*
%TO.C,Q2*%
X131315000Y-98337500D02*
X131315000Y-100012500D01*
X131315000Y-98337500D02*
X131315000Y-97687500D01*
X134435000Y-98337500D02*
X134435000Y-98987500D01*
X134435000Y-98337500D02*
X134435000Y-97687500D01*
%TO.C,R30*%
X156255000Y-88331359D02*
X156255000Y-88638641D01*
X155495000Y-88331359D02*
X155495000Y-88638641D01*
%TD*%
M02*
