%TF.GenerationSoftware,KiCad,Pcbnew,7.0.9*%
%TF.CreationDate,2024-03-28T09:14:24+03:00*%
%TF.ProjectId,MicroFlightController-v2,4d696372-6f46-46c6-9967-6874436f6e74,rev?*%
%TF.SameCoordinates,Original*%
%TF.FileFunction,Copper,L4,Bot*%
%TF.FilePolarity,Positive*%
%FSLAX46Y46*%
G04 Gerber Fmt 4.6, Leading zero omitted, Abs format (unit mm)*
G04 Created by KiCad (PCBNEW 7.0.9) date 2024-03-28 09:14:24*
%MOMM*%
%LPD*%
G01*
G04 APERTURE LIST*
G04 Aperture macros list*
%AMRoundRect*
0 Rectangle with rounded corners*
0 $1 Rounding radius*
0 $2 $3 $4 $5 $6 $7 $8 $9 X,Y pos of 4 corners*
0 Add a 4 corners polygon primitive as box body*
4,1,4,$2,$3,$4,$5,$6,$7,$8,$9,$2,$3,0*
0 Add four circle primitives for the rounded corners*
1,1,$1+$1,$2,$3*
1,1,$1+$1,$4,$5*
1,1,$1+$1,$6,$7*
1,1,$1+$1,$8,$9*
0 Add four rect primitives between the rounded corners*
20,1,$1+$1,$2,$3,$4,$5,0*
20,1,$1+$1,$4,$5,$6,$7,0*
20,1,$1+$1,$6,$7,$8,$9,0*
20,1,$1+$1,$8,$9,$2,$3,0*%
%AMFreePoly0*
4,1,21,1.372500,0.787500,0.862500,0.787500,0.862500,0.532500,1.372500,0.532500,1.372500,0.127500,0.862500,0.127500,0.862500,-0.127500,1.372500,-0.127500,1.372500,-0.532500,0.862500,-0.532500,0.862500,-0.787500,1.372500,-0.787500,1.372500,-1.195000,0.612500,-1.195000,0.612500,-1.117500,-0.862500,-1.117500,-0.862500,1.117500,0.612500,1.117500,0.612500,1.195000,1.372500,1.195000,
1.372500,0.787500,1.372500,0.787500,$1*%
G04 Aperture macros list end*
%TA.AperFunction,ComponentPad*%
%ADD10R,1.000000X1.000000*%
%TD*%
%TA.AperFunction,ComponentPad*%
%ADD11O,1.000000X1.000000*%
%TD*%
%TA.AperFunction,ComponentPad*%
%ADD12C,0.800000*%
%TD*%
%TA.AperFunction,ComponentPad*%
%ADD13C,6.400000*%
%TD*%
%TA.AperFunction,ComponentPad*%
%ADD14O,1.000000X2.100000*%
%TD*%
%TA.AperFunction,ComponentPad*%
%ADD15O,1.000000X1.600000*%
%TD*%
%TA.AperFunction,SMDPad,CuDef*%
%ADD16R,0.990000X0.405000*%
%TD*%
%TA.AperFunction,SMDPad,CuDef*%
%ADD17FreePoly0,180.000000*%
%TD*%
%TA.AperFunction,SMDPad,CuDef*%
%ADD18RoundRect,0.135000X-0.135000X-0.185000X0.135000X-0.185000X0.135000X0.185000X-0.135000X0.185000X0*%
%TD*%
%TA.AperFunction,SMDPad,CuDef*%
%ADD19RoundRect,0.225000X-0.375000X0.225000X-0.375000X-0.225000X0.375000X-0.225000X0.375000X0.225000X0*%
%TD*%
%TA.AperFunction,SMDPad,CuDef*%
%ADD20RoundRect,0.135000X0.135000X0.185000X-0.135000X0.185000X-0.135000X-0.185000X0.135000X-0.185000X0*%
%TD*%
%TA.AperFunction,SMDPad,CuDef*%
%ADD21RoundRect,0.225000X-0.225000X-0.375000X0.225000X-0.375000X0.225000X0.375000X-0.225000X0.375000X0*%
%TD*%
%TA.AperFunction,SMDPad,CuDef*%
%ADD22RoundRect,0.225000X0.225000X0.375000X-0.225000X0.375000X-0.225000X-0.375000X0.225000X-0.375000X0*%
%TD*%
%TA.AperFunction,SMDPad,CuDef*%
%ADD23R,0.405000X0.990000*%
%TD*%
%TA.AperFunction,SMDPad,CuDef*%
%ADD24FreePoly0,270.000000*%
%TD*%
%TA.AperFunction,SMDPad,CuDef*%
%ADD25RoundRect,0.225000X0.375000X-0.225000X0.375000X0.225000X-0.375000X0.225000X-0.375000X-0.225000X0*%
%TD*%
%TA.AperFunction,SMDPad,CuDef*%
%ADD26RoundRect,0.135000X0.185000X-0.135000X0.185000X0.135000X-0.185000X0.135000X-0.185000X-0.135000X0*%
%TD*%
%TA.AperFunction,SMDPad,CuDef*%
%ADD27FreePoly0,90.000000*%
%TD*%
%TA.AperFunction,SMDPad,CuDef*%
%ADD28RoundRect,0.135000X-0.185000X0.135000X-0.185000X-0.135000X0.185000X-0.135000X0.185000X0.135000X0*%
%TD*%
%TA.AperFunction,SMDPad,CuDef*%
%ADD29RoundRect,0.150000X0.150000X-0.587500X0.150000X0.587500X-0.150000X0.587500X-0.150000X-0.587500X0*%
%TD*%
%TA.AperFunction,ViaPad*%
%ADD30C,0.450000*%
%TD*%
%TA.AperFunction,Conductor*%
%ADD31C,0.152400*%
%TD*%
%TA.AperFunction,Conductor*%
%ADD32C,0.300000*%
%TD*%
%TA.AperFunction,Conductor*%
%ADD33C,0.500000*%
%TD*%
G04 APERTURE END LIST*
D10*
%TO.P,J8,1,Pin_1*%
%TO.N,GND*%
X160825000Y-87075000D03*
D11*
%TO.P,J8,2,Pin_2*%
%TO.N,/MCU/PC6*%
X160825000Y-85805000D03*
%TO.P,J8,3,Pin_3*%
%TO.N,/MCU/PC7*%
X160825000Y-84535000D03*
%TO.P,J8,4,Pin_4*%
%TO.N,+5V*%
X160825000Y-83265000D03*
%TD*%
D12*
%TO.P,REF\u002A\u002A,1*%
%TO.N,N/C*%
X163600000Y-81000000D03*
X164302944Y-79302944D03*
X164302944Y-82697056D03*
X166000000Y-78600000D03*
D13*
X166000000Y-81000000D03*
D12*
X166000000Y-83400000D03*
X167697056Y-79302944D03*
X167697056Y-82697056D03*
X168400000Y-81000000D03*
%TD*%
D10*
%TO.P,J7,1,Pin_1*%
%TO.N,GND*%
X153175000Y-82790000D03*
D11*
%TO.P,J7,2,Pin_2*%
%TO.N,/MCU/PA9*%
X154445000Y-82790000D03*
%TO.P,J7,3,Pin_3*%
%TO.N,/MCU/PA10*%
X155715000Y-82790000D03*
%TO.P,J7,4,Pin_4*%
%TO.N,+5V*%
X156985000Y-82790000D03*
%TD*%
D14*
%TO.P,J1,S1,SHIELD*%
%TO.N,Net-(J1-SHIELD)*%
X144070000Y-109310000D03*
D15*
X144070000Y-113490000D03*
D14*
X152710000Y-109310000D03*
D15*
X152710000Y-113490000D03*
%TD*%
D12*
%TO.P,REF\u002A\u002A,1*%
%TO.N,N/C*%
X163600000Y-115000000D03*
X164302944Y-113302944D03*
X164302944Y-116697056D03*
X166000000Y-112600000D03*
D13*
X166000000Y-115000000D03*
D12*
X166000000Y-117400000D03*
X167697056Y-113302944D03*
X167697056Y-116697056D03*
X168400000Y-115000000D03*
%TD*%
D10*
%TO.P,J10,1,Pin_1*%
%TO.N,VBAT*%
X161975000Y-112550000D03*
D11*
%TO.P,J10,2,Pin_2*%
%TO.N,Net-(D9-A)*%
X161975000Y-111280000D03*
%TD*%
D10*
%TO.P,J6,1,Pin_1*%
%TO.N,GND*%
X141465000Y-83000000D03*
D11*
%TO.P,J6,2,Pin_2*%
%TO.N,/MCU/PC10*%
X142735000Y-83000000D03*
%TO.P,J6,3,Pin_3*%
%TO.N,/MCU/PC11*%
X144005000Y-83000000D03*
%TO.P,J6,4,Pin_4*%
%TO.N,+5V*%
X145275000Y-83000000D03*
%TD*%
D12*
%TO.P,REF\u002A\u002A,1*%
%TO.N,N/C*%
X128600000Y-81000000D03*
X129302944Y-79302944D03*
X129302944Y-82697056D03*
X131000000Y-78600000D03*
D13*
X131000000Y-81000000D03*
D12*
X131000000Y-83400000D03*
X132697056Y-79302944D03*
X132697056Y-82697056D03*
X133400000Y-81000000D03*
%TD*%
D10*
%TO.P,J3,1,Pin_1*%
%TO.N,VBAT*%
X139410000Y-113320000D03*
D11*
%TO.P,J3,2,Pin_2*%
%TO.N,GND*%
X140680000Y-113320000D03*
%TD*%
D10*
%TO.P,J2,1,Pin_1*%
%TO.N,+3.3V*%
X155380000Y-113680000D03*
D11*
%TO.P,J2,2,Pin_2*%
%TO.N,/MCU/NRST*%
X155380000Y-112410000D03*
%TO.P,J2,3,Pin_3*%
%TO.N,/MCU/SWDIO*%
X155380000Y-111140000D03*
%TO.P,J2,4,Pin_4*%
%TO.N,/MCU/SWCLK*%
X155380000Y-109870000D03*
%TO.P,J2,5,Pin_5*%
%TO.N,GND*%
X155380000Y-108600000D03*
%TD*%
D10*
%TO.P,J5,1,Pin_1*%
%TO.N,+5V*%
X132675000Y-88905000D03*
D11*
%TO.P,J5,2,Pin_2*%
%TO.N,GND*%
X132675000Y-90175000D03*
%TD*%
D10*
%TO.P,J9,1,Pin_1*%
%TO.N,VBAT*%
X132450000Y-110675000D03*
D11*
%TO.P,J9,2,Pin_2*%
%TO.N,Net-(D8-A)*%
X133720000Y-110675000D03*
%TD*%
D10*
%TO.P,J11,1,Pin_1*%
%TO.N,VBAT*%
X132660000Y-85200000D03*
D11*
%TO.P,J11,2,Pin_2*%
%TO.N,Net-(D10-A)*%
X132660000Y-86470000D03*
%TD*%
D12*
%TO.P,REF\u002A\u002A,1*%
%TO.N,N/C*%
X128600000Y-115000000D03*
X129302944Y-113302944D03*
X129302944Y-116697056D03*
X131000000Y-112600000D03*
D13*
X131000000Y-115000000D03*
D12*
X131000000Y-117400000D03*
X132697056Y-113302944D03*
X132697056Y-116697056D03*
X133400000Y-115000000D03*
%TD*%
D10*
%TO.P,J4,1,Pin_1*%
%TO.N,GND*%
X132700000Y-92610000D03*
D11*
%TO.P,J4,2,Pin_2*%
%TO.N,/MCU/PB14*%
X132700000Y-93880000D03*
%TO.P,J4,3,Pin_3*%
%TO.N,+5V*%
X132700000Y-95150000D03*
%TD*%
D10*
%TO.P,J12,1,Pin_1*%
%TO.N,VBAT*%
X164175000Y-87050000D03*
D11*
%TO.P,J12,2,Pin_2*%
%TO.N,Net-(D11-A)*%
X164175000Y-85780000D03*
%TD*%
D16*
%TO.P,Q7,1,S*%
%TO.N,GND*%
X159900000Y-89120000D03*
%TO.P,Q7,2,S*%
X159900000Y-89780000D03*
%TO.P,Q7,3,S*%
X159900000Y-90440000D03*
%TO.P,Q7,4,G*%
%TO.N,/MCU/PB5*%
X159900000Y-91100000D03*
D17*
%TO.P,Q7,5,D*%
%TO.N,Net-(D11-A)*%
X157907500Y-90110000D03*
%TD*%
D18*
%TO.P,R33,1*%
%TO.N,/MCU/PA1*%
X159950000Y-104490000D03*
%TO.P,R33,2*%
%TO.N,GND*%
X160970000Y-104490000D03*
%TD*%
D19*
%TO.P,D8,1,K*%
%TO.N,VBAT*%
X140080000Y-106040000D03*
%TO.P,D8,2,A*%
%TO.N,Net-(D8-A)*%
X140080000Y-109340000D03*
%TD*%
D20*
%TO.P,R32,1*%
%TO.N,/MCU/PA3*%
X137680000Y-107650000D03*
%TO.P,R32,2*%
%TO.N,GND*%
X136660000Y-107650000D03*
%TD*%
D21*
%TO.P,D10,1,K*%
%TO.N,VBAT*%
X135317200Y-82425000D03*
%TO.P,D10,2,A*%
%TO.N,Net-(D10-A)*%
X138617200Y-82425000D03*
%TD*%
D22*
%TO.P,D11,1,K*%
%TO.N,VBAT*%
X160779998Y-93317494D03*
%TO.P,D11,2,A*%
%TO.N,Net-(D11-A)*%
X157479998Y-93317494D03*
%TD*%
D23*
%TO.P,Q4,1,S*%
%TO.N,GND*%
X135710000Y-108990000D03*
%TO.P,Q4,2,S*%
X136370000Y-108990000D03*
%TO.P,Q4,3,S*%
X137030000Y-108990000D03*
%TO.P,Q4,4,G*%
%TO.N,/MCU/PA3*%
X137690000Y-108990000D03*
D24*
%TO.P,Q4,5,D*%
%TO.N,Net-(D8-A)*%
X136700000Y-110982500D03*
%TD*%
D18*
%TO.P,R35,1*%
%TO.N,/MCU/PB5*%
X161250000Y-89400000D03*
%TO.P,R35,2*%
%TO.N,GND*%
X162270000Y-89400000D03*
%TD*%
D25*
%TO.P,D9,1,K*%
%TO.N,VBAT*%
X160689000Y-109075000D03*
%TO.P,D9,2,A*%
%TO.N,Net-(D9-A)*%
X160689000Y-105775000D03*
%TD*%
D16*
%TO.P,Q6,1,S*%
%TO.N,GND*%
X138572500Y-84720000D03*
%TO.P,Q6,2,S*%
X138572500Y-85380000D03*
%TO.P,Q6,3,S*%
X138572500Y-86040000D03*
%TO.P,Q6,4,G*%
%TO.N,/MCU/PB0*%
X138572500Y-86700000D03*
D17*
%TO.P,Q6,5,D*%
%TO.N,Net-(D10-A)*%
X136580000Y-85710000D03*
%TD*%
D26*
%TO.P,R28,1*%
%TO.N,/MCU/PB8*%
X164475000Y-95785000D03*
%TO.P,R28,2*%
%TO.N,Net-(Q3-B)*%
X164475000Y-94765000D03*
%TD*%
D23*
%TO.P,Q5,1,S*%
%TO.N,GND*%
X164720000Y-108382500D03*
%TO.P,Q5,2,S*%
X164060000Y-108382500D03*
%TO.P,Q5,3,S*%
X163400000Y-108382500D03*
%TO.P,Q5,4,G*%
%TO.N,/MCU/PA1*%
X162740000Y-108382500D03*
D27*
%TO.P,Q5,5,D*%
%TO.N,Net-(D9-A)*%
X163730000Y-106390000D03*
%TD*%
D28*
%TO.P,R34,1*%
%TO.N,/MCU/PB0*%
X137210000Y-88190000D03*
%TO.P,R34,2*%
%TO.N,GND*%
X137210000Y-89210000D03*
%TD*%
D29*
%TO.P,Q3,1,B*%
%TO.N,Net-(Q3-B)*%
X164475000Y-93200000D03*
%TO.P,Q3,2,E*%
%TO.N,GND*%
X162575000Y-93200000D03*
%TO.P,Q3,3,C*%
%TO.N,Net-(Q3-C)*%
X163525000Y-91325000D03*
%TD*%
D30*
%TO.N,/MCU/NRST*%
X141840000Y-84510000D03*
X145450700Y-86750000D03*
%TO.N,GND*%
X135140000Y-108610000D03*
X156460000Y-96170000D03*
X154310000Y-99770000D03*
X137890000Y-93410000D03*
X146600000Y-90800000D03*
X141000000Y-89250000D03*
X139390000Y-86050000D03*
X134240000Y-96190000D03*
X142630000Y-99910000D03*
X139250000Y-89000000D03*
X138560000Y-84150000D03*
X137130000Y-103120000D03*
X156460000Y-95560000D03*
X135200000Y-104770000D03*
X139407669Y-84472331D03*
X141140000Y-84200000D03*
X137160000Y-93410000D03*
X153660000Y-99790000D03*
X147630000Y-82770000D03*
X156480000Y-96790000D03*
X135724999Y-105176800D03*
X148300000Y-82760000D03*
X151390000Y-87700000D03*
X137140000Y-103710000D03*
X141870000Y-86890000D03*
X159410000Y-85200000D03*
X160680000Y-88720000D03*
X160020000Y-88710000D03*
X144640000Y-98080000D03*
X136140000Y-105650000D03*
X147800000Y-90800000D03*
X147200000Y-91000000D03*
X163730000Y-100650000D03*
X150010000Y-86880000D03*
X164070000Y-107700000D03*
X164698000Y-107700000D03*
X135130000Y-109300000D03*
X140870000Y-86870000D03*
X160030000Y-90170000D03*
X142610000Y-99210000D03*
X147220000Y-90270000D03*
X153030000Y-86420000D03*
X139420000Y-103290000D03*
X163410000Y-107680000D03*
X155080000Y-83840000D03*
X137100000Y-94200000D03*
X150980000Y-97590000D03*
X146970000Y-82760000D03*
X160040000Y-89470000D03*
X137070000Y-108310000D03*
X163610000Y-110015000D03*
X163720000Y-99870000D03*
X137900000Y-94200000D03*
%TO.N,VBUS*%
X135770000Y-114480000D03*
X150840000Y-108395000D03*
X145940000Y-108395000D03*
X145925000Y-106555000D03*
X131750000Y-101840000D03*
X137410000Y-114440000D03*
X144600000Y-105875000D03*
X142400000Y-109420000D03*
X141030000Y-108470000D03*
X144600000Y-104210000D03*
X134920000Y-107650000D03*
%TO.N,/MCU/BOOT0*%
X161535500Y-96820000D03*
X158640000Y-110760000D03*
%TO.N,+3.3V*%
X152450000Y-85760000D03*
X142895000Y-86095000D03*
X152700000Y-102685000D03*
X140775000Y-85095000D03*
X156480000Y-108310000D03*
X158075000Y-85075000D03*
X136890000Y-82870000D03*
X139275000Y-99100000D03*
X136550000Y-96820000D03*
X137930000Y-89725000D03*
X141180000Y-92060000D03*
X131673100Y-104910000D03*
X134860000Y-92330000D03*
X133810000Y-101850000D03*
X162560000Y-98070000D03*
X163610000Y-95730000D03*
X155390000Y-106350000D03*
%TO.N,VIN*%
X162200000Y-109300000D03*
X159600000Y-108500000D03*
X139130000Y-108470000D03*
X141300000Y-105890000D03*
X160740000Y-107057500D03*
X162590000Y-102200000D03*
%TO.N,+5V*%
X157870000Y-102600000D03*
X162310000Y-90620000D03*
X156260000Y-102600000D03*
X161950000Y-86880000D03*
%TO.N,/Battery Charger/VREF*%
X139540000Y-104410000D03*
X131640000Y-107070000D03*
X134390000Y-103650000D03*
%TO.N,/MCU/SWDIO*%
X150810000Y-104780000D03*
%TO.N,VBAT*%
X140100000Y-110300000D03*
X142400000Y-111400000D03*
X140110000Y-106860000D03*
X135700000Y-102700000D03*
X160779998Y-93317494D03*
X163050000Y-88960000D03*
%TO.N,/MCU/PB14*%
X146250000Y-102580000D03*
%TO.N,/MCU/PC10*%
X152858626Y-97375350D03*
%TO.N,/MCU/PC11*%
X153160000Y-96800000D03*
%TO.N,/MCU/PA9*%
X149986164Y-98585779D03*
%TO.N,/MCU/PA10*%
X150460000Y-99030000D03*
%TO.N,/MCU/PA3*%
X138600000Y-90760000D03*
%TO.N,/MCU/PB0*%
X144720000Y-93410000D03*
%TO.N,/MCU/PA1*%
X156950000Y-99880000D03*
X151890000Y-97990000D03*
X154980000Y-105710000D03*
%TO.N,/MCU/PB5*%
X157360000Y-94540700D03*
%TO.N,Net-(Q3-C)*%
X164310000Y-89320000D03*
%TO.N,/Baro/SCL*%
X140750000Y-101045000D03*
X140860000Y-102758300D03*
%TO.N,/Buck Boost Converter/VBAT-MESAURE*%
X149220000Y-90800000D03*
X142440000Y-113390000D03*
%TO.N,/MCU/PB8*%
X162760000Y-95160000D03*
%TO.N,/MCU/PB6*%
X158889582Y-91995597D03*
X158890000Y-93770000D03*
%TO.N,/Flash/MOSI*%
X147010000Y-87070000D03*
X144500000Y-87640000D03*
%TO.N,/Flash/MISO*%
X143908810Y-88786547D03*
X147286556Y-87657682D03*
%TO.N,/MCU/PA4*%
X144490000Y-92540000D03*
X140100000Y-93570000D03*
%TO.N,/MCU/PA6*%
X140538257Y-94110700D03*
X134550000Y-93370000D03*
%TO.N,/MCU/PA7*%
X141110000Y-94660000D03*
X141130951Y-93109300D03*
%TO.N,/MCU/PC4*%
X135010000Y-95670000D03*
X140560000Y-95210000D03*
%TO.N,/Flash/CS*%
X139210000Y-87990000D03*
X146219300Y-98160000D03*
%TO.N,/Flash/CLK*%
X143840000Y-88140700D03*
X146720000Y-98630000D03*
%TO.N,/MCU/PC6*%
X148116984Y-102475191D03*
%TO.N,/MCU/PC7*%
X148470000Y-101930000D03*
%TD*%
D31*
%TO.N,/MCU/NRST*%
X153375200Y-88575200D02*
X151000000Y-86200000D01*
X147615784Y-101564216D02*
X149080000Y-100100000D01*
X149080000Y-100100000D02*
X149080000Y-98450000D01*
X147615784Y-110425784D02*
X147615784Y-101564216D01*
X145450700Y-86750000D02*
X145450700Y-84750700D01*
X146000700Y-86200000D02*
X145450700Y-86750000D01*
X153375200Y-94154799D02*
X153375200Y-88575200D01*
X145210000Y-84510000D02*
X141840000Y-84510000D01*
X149080000Y-98450000D02*
X153375200Y-94154799D01*
X151000000Y-86200000D02*
X146000700Y-86200000D01*
X148682400Y-111492400D02*
X147615784Y-110425784D01*
X154462400Y-111492400D02*
X148682400Y-111492400D01*
X145450700Y-84750700D02*
X145210000Y-84510000D01*
X155380000Y-112410000D02*
X154462400Y-111492400D01*
D32*
%TO.N,GND*%
X163400000Y-109805000D02*
X163610000Y-110015000D01*
X163400000Y-108382500D02*
X163400000Y-109805000D01*
D31*
%TO.N,/MCU/BOOT0*%
X165700000Y-110110000D02*
X165700000Y-97360000D01*
X159080000Y-113610000D02*
X162448400Y-113610000D01*
X158640000Y-113170000D02*
X159080000Y-113610000D01*
X165700000Y-97360000D02*
X165160000Y-96820000D01*
X162840000Y-113218400D02*
X162840000Y-112130000D01*
X162840000Y-112130000D02*
X163200000Y-111770000D01*
X158640000Y-110760000D02*
X158640000Y-113170000D01*
X165160000Y-96820000D02*
X161535500Y-96820000D01*
X163200000Y-111770000D02*
X164040000Y-111770000D01*
X162448400Y-113610000D02*
X162840000Y-113218400D01*
X164040000Y-111770000D02*
X165700000Y-110110000D01*
%TO.N,+3.3V*%
X133825000Y-102315000D02*
X133825000Y-101835000D01*
X132042400Y-102477600D02*
X133662400Y-102477600D01*
X131673100Y-104910000D02*
X131673100Y-102846900D01*
X131673100Y-102846900D02*
X132042400Y-102477600D01*
X133662400Y-102477600D02*
X133825000Y-102315000D01*
D32*
%TO.N,VIN*%
X159600000Y-107290000D02*
X159832500Y-107057500D01*
X161760000Y-107350000D02*
X161467500Y-107057500D01*
X161467500Y-107057500D02*
X160740000Y-107057500D01*
X159832500Y-107057500D02*
X160740000Y-107057500D01*
X161760000Y-108860000D02*
X161760000Y-107350000D01*
X159600000Y-108500000D02*
X159600000Y-107290000D01*
X162200000Y-109300000D02*
X161760000Y-108860000D01*
D31*
%TO.N,/Battery Charger/VREF*%
X139540000Y-104410000D02*
X139378300Y-104248300D01*
X134390000Y-103650000D02*
X134390000Y-103050000D01*
X132173800Y-103186200D02*
X132173800Y-106536200D01*
X132173800Y-106536200D02*
X131640000Y-107070000D01*
X134390000Y-103850000D02*
X134390000Y-103650000D01*
X134788300Y-104248300D02*
X134390000Y-103850000D01*
X134170000Y-102830000D02*
X132530000Y-102830000D01*
X132530000Y-102830000D02*
X132173800Y-103186200D01*
X139378300Y-104248300D02*
X134788300Y-104248300D01*
X134390000Y-103050000D02*
X134170000Y-102830000D01*
%TO.N,/MCU/SWDIO*%
X150070000Y-104780000D02*
X149790000Y-105060000D01*
X149790000Y-105060000D02*
X149790000Y-110770000D01*
X149790000Y-110770000D02*
X150160000Y-111140000D01*
X150810000Y-104780000D02*
X150070000Y-104780000D01*
X150160000Y-111140000D02*
X155380000Y-111140000D01*
D32*
%TO.N,VBAT*%
X140080000Y-106830000D02*
X140110000Y-106860000D01*
X133600000Y-85200000D02*
X134000000Y-84800000D01*
X134000000Y-84800000D02*
X134000000Y-83000000D01*
X160950000Y-112550000D02*
X161975000Y-112550000D01*
X160689000Y-112289000D02*
X160950000Y-112550000D01*
X140080000Y-106040000D02*
X140080000Y-106830000D01*
X134575000Y-82425000D02*
X135317200Y-82425000D01*
X132660000Y-85200000D02*
X133600000Y-85200000D01*
X160689000Y-109075000D02*
X160689000Y-112289000D01*
X134000000Y-83000000D02*
X134575000Y-82425000D01*
D31*
%TO.N,/MCU/PB14*%
X145470000Y-100500000D02*
X146250000Y-101280000D01*
X132700000Y-93880000D02*
X132030000Y-93880000D01*
X132030000Y-93880000D02*
X131660000Y-94250000D01*
X131660000Y-94250000D02*
X131660000Y-99820000D01*
X146250000Y-101280000D02*
X146250000Y-102580000D01*
X131660000Y-99820000D02*
X132340000Y-100500000D01*
X132340000Y-100500000D02*
X145470000Y-100500000D01*
%TO.N,/MCU/PC10*%
X152735350Y-97375350D02*
X152550000Y-97190000D01*
X146124934Y-84940000D02*
X145352034Y-84167100D01*
X153727600Y-96132400D02*
X153727600Y-85852534D01*
X152831200Y-96298800D02*
X153558800Y-96298800D01*
X153558800Y-96298800D02*
X153560000Y-96300000D01*
X153727600Y-85852534D02*
X152815066Y-84940000D01*
X152858626Y-97375350D02*
X152735350Y-97375350D01*
X152815066Y-84940000D02*
X146124934Y-84940000D01*
X143217100Y-84167100D02*
X142735000Y-83685000D01*
X152550000Y-96580000D02*
X152831200Y-96298800D01*
X152550000Y-97190000D02*
X152550000Y-96580000D01*
X153560000Y-96300000D02*
X153727600Y-96132400D01*
X142735000Y-83685000D02*
X142735000Y-83000000D01*
X145352034Y-84167100D02*
X143217100Y-84167100D01*
%TO.N,/MCU/PC11*%
X154080000Y-85720000D02*
X150070000Y-81710000D01*
X154080000Y-96350000D02*
X154080000Y-85720000D01*
X153630000Y-96800000D02*
X154080000Y-96350000D01*
X150070000Y-81710000D02*
X144650000Y-81710000D01*
X153160000Y-96800000D02*
X153630000Y-96800000D01*
X144650000Y-81710000D02*
X144005000Y-82355000D01*
X144005000Y-82355000D02*
X144005000Y-83000000D01*
%TO.N,/MCU/PA9*%
X154445000Y-82790000D02*
X154445000Y-97515000D01*
X150043143Y-98528800D02*
X149986164Y-98585779D01*
X153431200Y-98528800D02*
X150043143Y-98528800D01*
X154445000Y-97515000D02*
X153431200Y-98528800D01*
%TO.N,/MCU/PA10*%
X155715000Y-88178264D02*
X154797400Y-89095864D01*
X150608800Y-98881200D02*
X150460000Y-99030000D01*
X154797400Y-89095864D02*
X154797400Y-97660968D01*
X155715000Y-82790000D02*
X155715000Y-88178264D01*
X153577168Y-98881200D02*
X150608800Y-98881200D01*
X154797400Y-97660968D02*
X153577168Y-98881200D01*
%TO.N,/MCU/PA3*%
X137680000Y-107130000D02*
X137680000Y-107650000D01*
X132770000Y-106880000D02*
X137430000Y-106880000D01*
D32*
X137690000Y-107660000D02*
X137680000Y-107650000D01*
D31*
X131800000Y-107850000D02*
X132770000Y-106880000D01*
X131138800Y-107468800D02*
X131520000Y-107850000D01*
X134300000Y-90760000D02*
X133760000Y-91300000D01*
D32*
X137690000Y-108990000D02*
X137690000Y-107660000D01*
D31*
X137430000Y-106880000D02*
X137680000Y-107130000D01*
X133760000Y-91300000D02*
X131910000Y-91300000D01*
X131520000Y-107850000D02*
X131800000Y-107850000D01*
X138600000Y-90760000D02*
X134300000Y-90760000D01*
X131910000Y-91300000D02*
X131138800Y-92071200D01*
X131138800Y-92071200D02*
X131138800Y-107468800D01*
%TO.N,/MCU/PB0*%
X138480000Y-88160000D02*
X138600000Y-88040000D01*
X138480000Y-88190000D02*
X138480000Y-88160000D01*
X138600000Y-88040000D02*
X138600000Y-86727500D01*
X138600000Y-86727500D02*
X138572500Y-86700000D01*
X144720000Y-93410000D02*
X145140000Y-92990000D01*
X144780000Y-91950000D02*
X142880000Y-91950000D01*
X139166200Y-90226200D02*
X138600000Y-89660000D01*
X138480000Y-88190000D02*
X138600000Y-88310000D01*
X138600000Y-89660000D02*
X138600000Y-88440000D01*
X138600000Y-88310000D02*
X138600000Y-88040000D01*
X145140000Y-92990000D02*
X145140000Y-92310000D01*
X138480000Y-88190000D02*
X137210000Y-88190000D01*
X142880000Y-91950000D02*
X141156200Y-90226200D01*
X145140000Y-92310000D02*
X144780000Y-91950000D01*
X141156200Y-90226200D02*
X139166200Y-90226200D01*
X138600000Y-88310000D02*
X138600000Y-88440000D01*
%TO.N,/MCU/PA1*%
X162268300Y-108248300D02*
X162402500Y-108382500D01*
X158650000Y-104490000D02*
X159950000Y-104490000D01*
X159050000Y-105710000D02*
X159840000Y-106500000D01*
X158310000Y-105710000D02*
X158470000Y-105710000D01*
X158310000Y-105550000D02*
X158150000Y-105710000D01*
X154980000Y-105710000D02*
X158140000Y-105710000D01*
X158140000Y-105710000D02*
X158310000Y-105710000D01*
X162402500Y-108382500D02*
X162740000Y-108382500D01*
X158150000Y-105710000D02*
X158140000Y-105710000D01*
X159840000Y-106500000D02*
X161820000Y-106500000D01*
X158310000Y-105540000D02*
X158310000Y-104830000D01*
X158310000Y-105550000D02*
X158470000Y-105710000D01*
X158310000Y-105540000D02*
X158310000Y-105550000D01*
X161820000Y-106500000D02*
X162268300Y-106948300D01*
X162268300Y-106948300D02*
X162268300Y-108248300D01*
X158470000Y-105710000D02*
X159050000Y-105710000D01*
X158310000Y-105710000D02*
X158310000Y-105540000D01*
X158310000Y-104830000D02*
X158650000Y-104490000D01*
%TO.N,/MCU/PB5*%
X161250000Y-91000000D02*
X161250000Y-89400000D01*
X160980000Y-92120000D02*
X161250000Y-91850000D01*
X161150000Y-91100000D02*
X161250000Y-91200000D01*
X161250000Y-91100000D02*
X161250000Y-91000000D01*
X159630000Y-92350000D02*
X159860000Y-92120000D01*
X161250000Y-91200000D02*
X161250000Y-91100000D01*
X159900000Y-91100000D02*
X161100000Y-91100000D01*
X159630000Y-94050000D02*
X159630000Y-92350000D01*
X159139300Y-94540700D02*
X159630000Y-94050000D01*
X161150000Y-91100000D02*
X161250000Y-91000000D01*
X161100000Y-91100000D02*
X161150000Y-91100000D01*
X161250000Y-91850000D02*
X161250000Y-91200000D01*
X161100000Y-91100000D02*
X161250000Y-91100000D01*
X157360000Y-94540700D02*
X159139300Y-94540700D01*
X159860000Y-92120000D02*
X160980000Y-92120000D01*
D32*
%TO.N,Net-(Q3-B)*%
X164475000Y-94765000D02*
X164475000Y-93200000D01*
D31*
%TO.N,Net-(Q3-C)*%
X163525000Y-89575000D02*
X163525000Y-91325000D01*
X163780000Y-89320000D02*
X163525000Y-89575000D01*
X164310000Y-89320000D02*
X163780000Y-89320000D01*
%TO.N,/Baro/SCL*%
X140860000Y-101155000D02*
X140750000Y-101045000D01*
X140860000Y-102758300D02*
X140860000Y-101155000D01*
%TO.N,/Buck Boost Converter/VBAT-MESAURE*%
X153022800Y-91332800D02*
X153022800Y-94008831D01*
X147263384Y-110856616D02*
X146520000Y-111600000D01*
X148727600Y-99954032D02*
X147263384Y-101418247D01*
X146520000Y-111600000D02*
X143240000Y-111600000D01*
X149220000Y-90800000D02*
X152490000Y-90800000D01*
X142500000Y-113330000D02*
X142440000Y-113390000D01*
X142500000Y-112340000D02*
X142500000Y-113330000D01*
X148727600Y-98304031D02*
X148727600Y-99954032D01*
X153022800Y-94008831D02*
X148727600Y-98304031D01*
X143240000Y-111600000D02*
X142500000Y-112340000D01*
X152490000Y-90800000D02*
X153022800Y-91332800D01*
X147263384Y-101418247D02*
X147263384Y-110856616D01*
%TO.N,/MCU/PB8*%
X162760000Y-95160000D02*
X162760000Y-96210000D01*
X164340000Y-96430000D02*
X164475000Y-96295000D01*
X162980000Y-96430000D02*
X164340000Y-96430000D01*
X164475000Y-96295000D02*
X164475000Y-95785000D01*
X162760000Y-96210000D02*
X162980000Y-96430000D01*
%TO.N,/MCU/PB6*%
X158889582Y-91995597D02*
X158890000Y-91996015D01*
X158890000Y-91996015D02*
X158890000Y-93770000D01*
%TO.N,/Flash/MOSI*%
X147010000Y-87070000D02*
X146440000Y-87640000D01*
X146440000Y-87640000D02*
X144500000Y-87640000D01*
%TO.N,/Flash/MISO*%
X147286556Y-88333444D02*
X146833453Y-88786547D01*
X146833453Y-88786547D02*
X143908810Y-88786547D01*
X147286556Y-87657682D02*
X147286556Y-88333444D01*
%TO.N,/MCU/PA4*%
X144490000Y-92540000D02*
X142810000Y-92540000D01*
X140100000Y-91430000D02*
X140100000Y-93570000D01*
X142810000Y-92540000D02*
X141260000Y-90990000D01*
X140540000Y-90990000D02*
X140100000Y-91430000D01*
X141260000Y-90990000D02*
X140540000Y-90990000D01*
%TO.N,/MCU/PA6*%
X139945331Y-94110700D02*
X140538257Y-94110700D01*
X134550000Y-93370000D02*
X135780000Y-92140000D01*
X135780000Y-92140000D02*
X137974631Y-92140000D01*
X137974631Y-92140000D02*
X139945331Y-94110700D01*
%TO.N,/MCU/PA7*%
X141130951Y-94639049D02*
X141130951Y-93109300D01*
X141110000Y-94660000D02*
X141130951Y-94639049D01*
%TO.N,/MCU/PC4*%
X140560000Y-95210000D02*
X140550000Y-95210000D01*
X135010000Y-93560000D02*
X135010000Y-95670000D01*
X137840000Y-92500000D02*
X136070000Y-92500000D01*
X140550000Y-95210000D02*
X137840000Y-92500000D01*
X136070000Y-92500000D02*
X135010000Y-93560000D01*
%TO.N,/Flash/CS*%
X141298234Y-89883300D02*
X140663300Y-89883300D01*
X145520000Y-91550000D02*
X142964934Y-91550000D01*
X140663300Y-89883300D02*
X139960000Y-89180000D01*
X142964934Y-91550000D02*
X141298234Y-89883300D01*
X139630000Y-87990000D02*
X139210000Y-87990000D01*
X139960000Y-88320000D02*
X139630000Y-87990000D01*
X139960000Y-89180000D02*
X139960000Y-88320000D01*
X146219300Y-98160000D02*
X146219300Y-92249300D01*
X146219300Y-92249300D02*
X145520000Y-91550000D01*
%TO.N,/Flash/CLK*%
X143370000Y-88610700D02*
X143840000Y-88140700D01*
X143537600Y-91197600D02*
X143370000Y-91030000D01*
X146720000Y-92251632D02*
X145665968Y-91197600D01*
X143370000Y-91030000D02*
X143370000Y-88610700D01*
X145665968Y-91197600D02*
X143537600Y-91197600D01*
X146720000Y-98630000D02*
X146720000Y-92251632D01*
%TO.N,/MCU/PC6*%
X156400800Y-88462332D02*
X155502200Y-89360932D01*
X155502200Y-89360932D02*
X155502200Y-100992734D01*
X148734809Y-102475191D02*
X148116984Y-102475191D01*
X154902034Y-101592900D02*
X149617100Y-101592900D01*
X155502200Y-100992734D02*
X154902034Y-101592900D01*
X160825000Y-85805000D02*
X156875000Y-85805000D01*
X156875000Y-85805000D02*
X156400800Y-86279200D01*
X149617100Y-101592900D02*
X148734809Y-102475191D01*
X156400800Y-86279200D02*
X156400800Y-88462332D01*
%TO.N,/MCU/PC7*%
X156057900Y-85252100D02*
X156775000Y-84535000D01*
X155149800Y-89228398D02*
X156057900Y-88320298D01*
X154760000Y-101250000D02*
X155149800Y-100860200D01*
X155149800Y-100860200D02*
X155149800Y-89228398D01*
X149150000Y-101250000D02*
X154760000Y-101250000D01*
X156775000Y-84535000D02*
X160825000Y-84535000D01*
X148470000Y-101930000D02*
X149150000Y-101250000D01*
X156057900Y-88320298D02*
X156057900Y-85252100D01*
D32*
%TO.N,Net-(D8-A)*%
X138920000Y-109340000D02*
X140080000Y-109340000D01*
X138230000Y-111190000D02*
X138500000Y-110920000D01*
X136392500Y-110675000D02*
X136700000Y-110982500D01*
X133710000Y-110665000D02*
X133720000Y-110675000D01*
X133720000Y-110675000D02*
X136392500Y-110675000D01*
X138500000Y-110920000D02*
X138500000Y-109760000D01*
X138500000Y-109760000D02*
X138920000Y-109340000D01*
X136907500Y-111190000D02*
X138230000Y-111190000D01*
X136700000Y-110982500D02*
X136907500Y-111190000D01*
%TO.N,Net-(D9-A)*%
X163115000Y-105775000D02*
X160689000Y-105775000D01*
X165263000Y-106583000D02*
X165070000Y-106390000D01*
X165070000Y-106390000D02*
X163730000Y-106390000D01*
X163780000Y-111280000D02*
X165263000Y-109797000D01*
X161975000Y-111280000D02*
X163780000Y-111280000D01*
X163730000Y-106390000D02*
X163115000Y-105775000D01*
X165263000Y-109797000D02*
X165263000Y-106583000D01*
%TO.N,Net-(D10-A)*%
X138300000Y-83600000D02*
X138617200Y-83282800D01*
X137000000Y-83600000D02*
X138300000Y-83600000D01*
X138617200Y-83282800D02*
X138617200Y-82425000D01*
X136580000Y-84020000D02*
X137000000Y-83600000D01*
X136580000Y-85710000D02*
X136580000Y-84020000D01*
%TO.N,Net-(D11-A)*%
X163320000Y-85780000D02*
X162900000Y-86200000D01*
X157907500Y-88607500D02*
X157907500Y-90110000D01*
D33*
X157479998Y-90537502D02*
X157907500Y-90110000D01*
D32*
X158500000Y-88000000D02*
X157900000Y-88600000D01*
X164175000Y-85780000D02*
X163320000Y-85780000D01*
X162900000Y-87800000D02*
X162700000Y-88000000D01*
X162700000Y-88000000D02*
X158500000Y-88000000D01*
D33*
X157479998Y-93317494D02*
X157479998Y-90537502D01*
D32*
X157900000Y-88600000D02*
X157907500Y-88607500D01*
X162900000Y-86200000D02*
X162900000Y-87800000D01*
%TD*%
%TA.AperFunction,Conductor*%
%TO.N,GND*%
G36*
X154850533Y-98073593D02*
G01*
X154880038Y-98115730D01*
X154882600Y-98135193D01*
X154882600Y-100718374D01*
X154865007Y-100766712D01*
X154860574Y-100771548D01*
X154671348Y-100960774D01*
X154624728Y-100982514D01*
X154618174Y-100982800D01*
X149183725Y-100982800D01*
X149169054Y-100981355D01*
X149150000Y-100977565D01*
X149045741Y-100998303D01*
X149036502Y-101004477D01*
X149031882Y-101007565D01*
X149007041Y-101024163D01*
X148957357Y-101057359D01*
X148946558Y-101073521D01*
X148937208Y-101084913D01*
X148534479Y-101487642D01*
X148487859Y-101509382D01*
X148471608Y-101508815D01*
X148469999Y-101508815D01*
X148339845Y-101529429D01*
X148222431Y-101589255D01*
X148129255Y-101682431D01*
X148069429Y-101799845D01*
X148048815Y-101929999D01*
X148048815Y-101930002D01*
X148057878Y-101987230D01*
X148048062Y-102037725D01*
X148008086Y-102070096D01*
X147995373Y-102073266D01*
X147986832Y-102074619D01*
X147981415Y-102076379D01*
X147930007Y-102074579D01*
X147891783Y-102040155D01*
X147882984Y-102004857D01*
X147882984Y-101706040D01*
X147900577Y-101657702D01*
X147904999Y-101652877D01*
X149245089Y-100312786D01*
X149256478Y-100303439D01*
X149272641Y-100292641D01*
X149320679Y-100220746D01*
X149331697Y-100204257D01*
X149352435Y-100100000D01*
X149348645Y-100080946D01*
X149347200Y-100066275D01*
X149347200Y-98591825D01*
X149364793Y-98543487D01*
X149369214Y-98538662D01*
X149447035Y-98460841D01*
X149493652Y-98439103D01*
X149543340Y-98452416D01*
X149572844Y-98494553D01*
X149574481Y-98525780D01*
X149564979Y-98585777D01*
X149564979Y-98585779D01*
X149585593Y-98715933D01*
X149645419Y-98833347D01*
X149738595Y-98926523D01*
X149738597Y-98926524D01*
X149738598Y-98926525D01*
X149856009Y-98986349D01*
X149856011Y-98986350D01*
X149978619Y-99005769D01*
X149982464Y-99006378D01*
X150027454Y-99031316D01*
X150044974Y-99068888D01*
X150059429Y-99160154D01*
X150119255Y-99277568D01*
X150212431Y-99370744D01*
X150212433Y-99370745D01*
X150212434Y-99370746D01*
X150329845Y-99430570D01*
X150329847Y-99430571D01*
X150429827Y-99446406D01*
X150459999Y-99451185D01*
X150460000Y-99451185D01*
X150460001Y-99451185D01*
X150480615Y-99447919D01*
X150590153Y-99430571D01*
X150707566Y-99370746D01*
X150800746Y-99277566D01*
X150845638Y-99189459D01*
X150883259Y-99154378D01*
X150912642Y-99148400D01*
X153543439Y-99148400D01*
X153558110Y-99149845D01*
X153577168Y-99153636D01*
X153681425Y-99132897D01*
X153747497Y-99088749D01*
X153747496Y-99088749D01*
X153769809Y-99073841D01*
X153769810Y-99073839D01*
X153770195Y-99073582D01*
X153771111Y-99071892D01*
X153773118Y-99068888D01*
X153780605Y-99057681D01*
X153789952Y-99046292D01*
X154754227Y-98082018D01*
X154800846Y-98060279D01*
X154850533Y-98073593D01*
G37*
%TD.AperFunction*%
%TA.AperFunction,Conductor*%
G36*
X153428333Y-94567425D02*
G01*
X153457838Y-94609562D01*
X153460400Y-94629025D01*
X153460400Y-95956400D01*
X153442807Y-96004738D01*
X153398258Y-96030458D01*
X153385200Y-96031600D01*
X152864929Y-96031600D01*
X152850258Y-96030155D01*
X152831200Y-96026364D01*
X152726945Y-96047102D01*
X152726943Y-96047103D01*
X152638557Y-96106159D01*
X152627760Y-96122318D01*
X152618410Y-96133710D01*
X152384910Y-96367210D01*
X152373518Y-96376560D01*
X152357362Y-96387355D01*
X152357359Y-96387359D01*
X152342450Y-96409671D01*
X152298302Y-96475744D01*
X152277564Y-96579999D01*
X152281355Y-96599056D01*
X152282800Y-96613728D01*
X152282800Y-97156271D01*
X152281355Y-97170942D01*
X152277564Y-97189999D01*
X152277564Y-97190000D01*
X152298302Y-97294255D01*
X152298303Y-97294257D01*
X152324646Y-97333682D01*
X152352487Y-97375350D01*
X152357360Y-97382642D01*
X152373513Y-97393435D01*
X152384910Y-97402788D01*
X152435212Y-97453090D01*
X152456312Y-97494498D01*
X152458055Y-97505502D01*
X152458056Y-97505506D01*
X152517881Y-97622918D01*
X152611057Y-97716094D01*
X152611059Y-97716095D01*
X152611060Y-97716096D01*
X152728471Y-97775920D01*
X152728473Y-97775921D01*
X152828453Y-97791756D01*
X152858625Y-97796535D01*
X152858626Y-97796535D01*
X152858627Y-97796535D01*
X152879241Y-97793269D01*
X152988779Y-97775921D01*
X153106192Y-97716096D01*
X153199372Y-97622916D01*
X153259197Y-97505503D01*
X153279811Y-97375350D01*
X153279466Y-97373174D01*
X153274274Y-97340390D01*
X153263515Y-97272461D01*
X153273330Y-97221967D01*
X153303647Y-97193694D01*
X153407566Y-97140746D01*
X153459086Y-97089225D01*
X153505705Y-97067486D01*
X153512260Y-97067200D01*
X153596271Y-97067200D01*
X153610942Y-97068645D01*
X153630000Y-97072436D01*
X153734257Y-97051697D01*
X153800329Y-97007549D01*
X153800328Y-97007549D01*
X153822641Y-96992641D01*
X153822642Y-96992639D01*
X153823027Y-96992382D01*
X153823943Y-96990692D01*
X153833437Y-96976481D01*
X153842779Y-96965097D01*
X154049427Y-96758449D01*
X154096046Y-96736711D01*
X154145733Y-96750025D01*
X154175238Y-96792162D01*
X154177800Y-96811625D01*
X154177800Y-97373174D01*
X154160207Y-97421512D01*
X154155774Y-97426348D01*
X153342548Y-98239574D01*
X153295928Y-98261314D01*
X153289374Y-98261600D01*
X152341216Y-98261600D01*
X152292878Y-98244007D01*
X152267158Y-98199458D01*
X152274212Y-98152260D01*
X152290570Y-98120154D01*
X152290571Y-98120153D01*
X152311185Y-97990000D01*
X152290571Y-97859847D01*
X152230746Y-97742434D01*
X152230745Y-97742433D01*
X152230744Y-97742431D01*
X152137568Y-97649255D01*
X152020153Y-97589429D01*
X152020155Y-97589429D01*
X151890001Y-97568815D01*
X151889999Y-97568815D01*
X151759845Y-97589429D01*
X151642431Y-97649255D01*
X151549255Y-97742431D01*
X151489429Y-97859845D01*
X151468815Y-97989999D01*
X151468815Y-97990000D01*
X151489429Y-98120154D01*
X151505788Y-98152260D01*
X151512057Y-98203316D01*
X151484040Y-98246457D01*
X151438784Y-98261600D01*
X150280966Y-98261600D01*
X150236763Y-98247237D01*
X150233732Y-98245035D01*
X150233730Y-98245033D01*
X150116317Y-98185208D01*
X150116319Y-98185208D01*
X149986165Y-98164594D01*
X149986162Y-98164594D01*
X149926165Y-98174096D01*
X149875671Y-98164281D01*
X149843299Y-98124304D01*
X149844197Y-98072872D01*
X149861226Y-98046650D01*
X153332026Y-94575851D01*
X153378646Y-94554111D01*
X153428333Y-94567425D01*
G37*
%TD.AperFunction*%
%TA.AperFunction,Conductor*%
G36*
X155111323Y-83150467D02*
G01*
X155141888Y-83176115D01*
X155193976Y-83251578D01*
X155193978Y-83251580D01*
X155193980Y-83251583D01*
X155193983Y-83251585D01*
X155193988Y-83251591D01*
X155319580Y-83362855D01*
X155319582Y-83362856D01*
X155319584Y-83362858D01*
X155407548Y-83409025D01*
X155442172Y-83447065D01*
X155447800Y-83475610D01*
X155447800Y-88036438D01*
X155430207Y-88084776D01*
X155425774Y-88089612D01*
X154840574Y-88674812D01*
X154793954Y-88696552D01*
X154744267Y-88683238D01*
X154714762Y-88641101D01*
X154712200Y-88621638D01*
X154712200Y-83475610D01*
X154729793Y-83427272D01*
X154752450Y-83409025D01*
X154840416Y-83362858D01*
X154966020Y-83251583D01*
X155018112Y-83176115D01*
X155060050Y-83146328D01*
X155111323Y-83150467D01*
G37*
%TD.AperFunction*%
%TA.AperFunction,Conductor*%
G36*
X145830700Y-85027267D02*
G01*
X145846274Y-85039218D01*
X145912143Y-85105087D01*
X145921495Y-85116482D01*
X145932291Y-85132640D01*
X145943802Y-85140331D01*
X145987938Y-85169821D01*
X146020678Y-85191697D01*
X146124934Y-85212436D01*
X146143992Y-85208645D01*
X146158663Y-85207200D01*
X152325479Y-85207200D01*
X152373817Y-85224793D01*
X152399537Y-85269342D01*
X152390604Y-85320000D01*
X152351199Y-85353065D01*
X152337245Y-85356673D01*
X152329967Y-85357826D01*
X152319845Y-85359429D01*
X152202431Y-85419255D01*
X152109255Y-85512431D01*
X152049429Y-85629845D01*
X152028815Y-85759999D01*
X152028815Y-85760000D01*
X152049429Y-85890154D01*
X152109255Y-86007568D01*
X152202431Y-86100744D01*
X152202433Y-86100745D01*
X152202434Y-86100746D01*
X152319845Y-86160570D01*
X152319847Y-86160571D01*
X152419827Y-86176406D01*
X152449999Y-86181185D01*
X152450000Y-86181185D01*
X152450001Y-86181185D01*
X152470615Y-86177919D01*
X152580153Y-86160571D01*
X152697566Y-86100746D01*
X152790746Y-86007566D01*
X152850571Y-85890153D01*
X152871185Y-85760000D01*
X152850571Y-85629847D01*
X152790746Y-85512434D01*
X152790745Y-85512433D01*
X152790744Y-85512431D01*
X152697568Y-85419255D01*
X152580153Y-85359429D01*
X152580155Y-85359429D01*
X152570032Y-85357826D01*
X152562756Y-85356673D01*
X152517767Y-85331736D01*
X152499332Y-85283712D01*
X152516080Y-85235075D01*
X152560172Y-85208582D01*
X152574521Y-85207200D01*
X152673240Y-85207200D01*
X152721578Y-85224793D01*
X152726414Y-85229226D01*
X153438374Y-85941186D01*
X153460114Y-85987806D01*
X153460400Y-85994360D01*
X153460400Y-88100974D01*
X153442807Y-88149312D01*
X153398258Y-88175032D01*
X153347600Y-88166099D01*
X153332026Y-88154148D01*
X151212788Y-86034910D01*
X151203435Y-86023513D01*
X151192641Y-86007358D01*
X151151650Y-85979970D01*
X151104257Y-85948303D01*
X151104255Y-85948302D01*
X151000000Y-85927564D01*
X150980942Y-85931355D01*
X150966271Y-85932800D01*
X146034424Y-85932800D01*
X146019753Y-85931355D01*
X146000700Y-85927565D01*
X146000698Y-85927565D01*
X145978048Y-85932070D01*
X145978044Y-85932071D01*
X145896445Y-85948302D01*
X145896440Y-85948304D01*
X145834878Y-85989439D01*
X145784913Y-86001665D01*
X145738778Y-85978913D01*
X145718061Y-85931830D01*
X145717900Y-85926912D01*
X145717900Y-85092392D01*
X145735493Y-85044054D01*
X145780042Y-85018334D01*
X145830700Y-85027267D01*
G37*
%TD.AperFunction*%
%TA.AperFunction,Conductor*%
G36*
X160183743Y-84819793D02*
G01*
X160205717Y-84850733D01*
X160208656Y-84858482D01*
X160208657Y-84858484D01*
X160208659Y-84858487D01*
X160303976Y-84996578D01*
X160303978Y-84996580D01*
X160303980Y-84996583D01*
X160303983Y-84996585D01*
X160303988Y-84996591D01*
X160429581Y-85107856D01*
X160429955Y-85108114D01*
X160430094Y-85108310D01*
X160432988Y-85110874D01*
X160432392Y-85111546D01*
X160459740Y-85150054D01*
X160455597Y-85201327D01*
X160432619Y-85228710D01*
X160432988Y-85229126D01*
X160430193Y-85231601D01*
X160429955Y-85231886D01*
X160429581Y-85232143D01*
X160303988Y-85343408D01*
X160303976Y-85343421D01*
X160208659Y-85481512D01*
X160208656Y-85481518D01*
X160205717Y-85489265D01*
X160172129Y-85528223D01*
X160135405Y-85537800D01*
X158382061Y-85537800D01*
X158333723Y-85520207D01*
X158308003Y-85475658D01*
X158316936Y-85425000D01*
X158328887Y-85409426D01*
X158415744Y-85322568D01*
X158415746Y-85322566D01*
X158475571Y-85205153D01*
X158496185Y-85075000D01*
X158475571Y-84944847D01*
X158475570Y-84944845D01*
X158475570Y-84944844D01*
X158475570Y-84944843D01*
X158458601Y-84911541D01*
X158452331Y-84860484D01*
X158480347Y-84817343D01*
X158525604Y-84802200D01*
X160135405Y-84802200D01*
X160183743Y-84819793D01*
G37*
%TD.AperFunction*%
%TA.AperFunction,Conductor*%
G36*
X149976512Y-81994793D02*
G01*
X149981348Y-81999226D01*
X152526548Y-84544426D01*
X152548288Y-84591046D01*
X152534974Y-84640733D01*
X152492837Y-84670238D01*
X152473374Y-84672800D01*
X146266760Y-84672800D01*
X146218422Y-84655207D01*
X146213586Y-84650774D01*
X145564819Y-84002007D01*
X145555471Y-83990618D01*
X145544675Y-83974459D01*
X145526243Y-83962143D01*
X145509780Y-83951142D01*
X145456293Y-83915404D01*
X145456289Y-83915402D01*
X145377921Y-83899813D01*
X145352034Y-83894664D01*
X145352033Y-83894664D01*
X145332976Y-83898455D01*
X145318305Y-83899900D01*
X143358926Y-83899900D01*
X143310588Y-83882307D01*
X143305752Y-83877874D01*
X143117497Y-83689619D01*
X143095757Y-83642999D01*
X143109071Y-83593312D01*
X143127962Y-83574550D01*
X143130401Y-83572865D01*
X143130416Y-83572858D01*
X143256020Y-83461583D01*
X143292299Y-83409024D01*
X143308112Y-83386115D01*
X143350050Y-83356328D01*
X143401323Y-83360467D01*
X143431888Y-83386115D01*
X143483976Y-83461578D01*
X143483978Y-83461580D01*
X143483980Y-83461583D01*
X143483983Y-83461585D01*
X143483988Y-83461591D01*
X143609580Y-83572855D01*
X143609582Y-83572856D01*
X143609584Y-83572858D01*
X143758168Y-83650841D01*
X143921097Y-83691000D01*
X143921100Y-83691000D01*
X144088900Y-83691000D01*
X144088903Y-83691000D01*
X144251832Y-83650841D01*
X144400416Y-83572858D01*
X144526020Y-83461583D01*
X144562299Y-83409024D01*
X144578112Y-83386115D01*
X144620050Y-83356328D01*
X144671323Y-83360467D01*
X144701888Y-83386115D01*
X144753976Y-83461578D01*
X144753978Y-83461580D01*
X144753980Y-83461583D01*
X144753983Y-83461585D01*
X144753988Y-83461591D01*
X144879580Y-83572855D01*
X144879582Y-83572856D01*
X144879584Y-83572858D01*
X145028168Y-83650841D01*
X145191097Y-83691000D01*
X145191100Y-83691000D01*
X145358900Y-83691000D01*
X145358903Y-83691000D01*
X145521832Y-83650841D01*
X145670416Y-83572858D01*
X145796020Y-83461583D01*
X145891344Y-83323482D01*
X145950848Y-83166582D01*
X145971075Y-83000000D01*
X145950848Y-82833418D01*
X145897270Y-82692144D01*
X145891345Y-82676520D01*
X145891340Y-82676512D01*
X145796023Y-82538421D01*
X145796022Y-82538419D01*
X145796020Y-82538417D01*
X145796016Y-82538413D01*
X145796011Y-82538408D01*
X145670419Y-82427144D01*
X145670413Y-82427140D01*
X145521835Y-82349160D01*
X145521832Y-82349159D01*
X145358903Y-82309000D01*
X145191097Y-82309000D01*
X145028168Y-82349159D01*
X145028164Y-82349160D01*
X144879586Y-82427140D01*
X144879580Y-82427144D01*
X144753988Y-82538408D01*
X144753979Y-82538418D01*
X144701888Y-82613885D01*
X144659950Y-82643671D01*
X144608677Y-82639532D01*
X144578112Y-82613885D01*
X144550581Y-82574000D01*
X144526020Y-82538417D01*
X144526016Y-82538414D01*
X144526015Y-82538412D01*
X144412658Y-82437987D01*
X144388144Y-82392765D01*
X144398433Y-82342364D01*
X144409342Y-82328534D01*
X144738653Y-81999224D01*
X144785272Y-81977486D01*
X144791826Y-81977200D01*
X149928174Y-81977200D01*
X149976512Y-81994793D01*
G37*
%TD.AperFunction*%
%TA.AperFunction,Conductor*%
G36*
X162581152Y-81018093D02*
G01*
X162606872Y-81062642D01*
X162607902Y-81071619D01*
X162623927Y-81367170D01*
X162623928Y-81367180D01*
X162683414Y-81730029D01*
X162683414Y-81730030D01*
X162781788Y-82084341D01*
X162781789Y-82084344D01*
X162917884Y-82425917D01*
X162917888Y-82425925D01*
X162917892Y-82425935D01*
X163090130Y-82750811D01*
X163296484Y-83055160D01*
X163419997Y-83200571D01*
X163515476Y-83312978D01*
X163534534Y-83335414D01*
X163801489Y-83588287D01*
X163928712Y-83684999D01*
X164065863Y-83789259D01*
X164094220Y-83810815D01*
X164409294Y-84000389D01*
X164743018Y-84154786D01*
X164743026Y-84154788D01*
X164743029Y-84154790D01*
X164909062Y-84210733D01*
X165091479Y-84272197D01*
X165450592Y-84351243D01*
X165816145Y-84391000D01*
X165924300Y-84391000D01*
X165972638Y-84408593D01*
X165998358Y-84453142D01*
X165999500Y-84466200D01*
X165999500Y-97098070D01*
X165981907Y-97146408D01*
X165937358Y-97172128D01*
X165886700Y-97163195D01*
X165882522Y-97160597D01*
X165876483Y-97156562D01*
X165865087Y-97147209D01*
X165372788Y-96654910D01*
X165363435Y-96643513D01*
X165352641Y-96627358D01*
X165317746Y-96604043D01*
X165264259Y-96568304D01*
X165264255Y-96568302D01*
X165185887Y-96552713D01*
X165160000Y-96547564D01*
X165159999Y-96547564D01*
X165140942Y-96551355D01*
X165126271Y-96552800D01*
X164764792Y-96552800D01*
X164716454Y-96535207D01*
X164690734Y-96490658D01*
X164699667Y-96440000D01*
X164702265Y-96435822D01*
X164719738Y-96409671D01*
X164726697Y-96399256D01*
X164727641Y-96394508D01*
X164747436Y-96295000D01*
X164747436Y-96294998D01*
X164747436Y-96287593D01*
X164750900Y-96287593D01*
X164756550Y-96250763D01*
X164790717Y-96218747D01*
X164849866Y-96191165D01*
X164849866Y-96191164D01*
X164849870Y-96191163D01*
X164931163Y-96109870D01*
X164932894Y-96106159D01*
X164979747Y-96005681D01*
X164979749Y-96005676D01*
X164986000Y-95958198D01*
X164986000Y-95611802D01*
X164979749Y-95564323D01*
X164973417Y-95550744D01*
X164931165Y-95460133D01*
X164931159Y-95460125D01*
X164849874Y-95378840D01*
X164849866Y-95378834D01*
X164773348Y-95343154D01*
X164736975Y-95306781D01*
X164732491Y-95255537D01*
X164761996Y-95213400D01*
X164773348Y-95206846D01*
X164849866Y-95171165D01*
X164849866Y-95171164D01*
X164849870Y-95171163D01*
X164931163Y-95089870D01*
X164937489Y-95076305D01*
X164979747Y-94985681D01*
X164979749Y-94985676D01*
X164985595Y-94941271D01*
X164986000Y-94938198D01*
X164986000Y-94591802D01*
X164979749Y-94544323D01*
X164978059Y-94540699D01*
X164931165Y-94440133D01*
X164931159Y-94440125D01*
X164849869Y-94358835D01*
X164848061Y-94357569D01*
X164846795Y-94355761D01*
X164845218Y-94354184D01*
X164845496Y-94353905D01*
X164818560Y-94315429D01*
X164816000Y-94295973D01*
X164816000Y-94109896D01*
X164833593Y-94061558D01*
X164838026Y-94056722D01*
X164908636Y-93986111D01*
X164908640Y-93986107D01*
X164959461Y-93877119D01*
X164966000Y-93827452D01*
X164966000Y-92572548D01*
X164959461Y-92522881D01*
X164908640Y-92413893D01*
X164908639Y-92413892D01*
X164908636Y-92413888D01*
X164823611Y-92328863D01*
X164823607Y-92328860D01*
X164714617Y-92278038D01*
X164674826Y-92272800D01*
X164664952Y-92271500D01*
X164285048Y-92271500D01*
X164275174Y-92272800D01*
X164235382Y-92278038D01*
X164126392Y-92328860D01*
X164126388Y-92328863D01*
X164041363Y-92413888D01*
X164041360Y-92413892D01*
X163990538Y-92522882D01*
X163988032Y-92541921D01*
X163984000Y-92572548D01*
X163984000Y-93827452D01*
X163985721Y-93840528D01*
X163990538Y-93877117D01*
X164041360Y-93986107D01*
X164041363Y-93986111D01*
X164111974Y-94056722D01*
X164133714Y-94103342D01*
X164134000Y-94109896D01*
X164134000Y-94295973D01*
X164116407Y-94344311D01*
X164101939Y-94357569D01*
X164100130Y-94358835D01*
X164018840Y-94440125D01*
X164018834Y-94440133D01*
X163970252Y-94544318D01*
X163970250Y-94544323D01*
X163966416Y-94573452D01*
X163964000Y-94591802D01*
X163964000Y-94938198D01*
X163964405Y-94941271D01*
X163970250Y-94985676D01*
X163970252Y-94985681D01*
X164018834Y-95089866D01*
X164018840Y-95089874D01*
X164100125Y-95171159D01*
X164100133Y-95171165D01*
X164176651Y-95206846D01*
X164213024Y-95243219D01*
X164217508Y-95294463D01*
X164188003Y-95336600D01*
X164176651Y-95343154D01*
X164100133Y-95378834D01*
X164100125Y-95378840D01*
X164026813Y-95452153D01*
X163980193Y-95473893D01*
X163930506Y-95460579D01*
X163920470Y-95452158D01*
X163857566Y-95389254D01*
X163740153Y-95329429D01*
X163740155Y-95329429D01*
X163610001Y-95308815D01*
X163609999Y-95308815D01*
X163479845Y-95329429D01*
X163362431Y-95389255D01*
X163269255Y-95482431D01*
X163209429Y-95599845D01*
X163188815Y-95729999D01*
X163188815Y-95730000D01*
X163209429Y-95860154D01*
X163269255Y-95977568D01*
X163326113Y-96034426D01*
X163347853Y-96081046D01*
X163334539Y-96130733D01*
X163292402Y-96160238D01*
X163272939Y-96162800D01*
X163121826Y-96162800D01*
X163073488Y-96145207D01*
X163068652Y-96140774D01*
X163049226Y-96121348D01*
X163027486Y-96074728D01*
X163027200Y-96068174D01*
X163027200Y-95512260D01*
X163044793Y-95463922D01*
X163049215Y-95459096D01*
X163100746Y-95407566D01*
X163160571Y-95290153D01*
X163181185Y-95160000D01*
X163160571Y-95029847D01*
X163100746Y-94912434D01*
X163100745Y-94912433D01*
X163100744Y-94912431D01*
X163007568Y-94819255D01*
X162890153Y-94759429D01*
X162890155Y-94759429D01*
X162760001Y-94738815D01*
X162759999Y-94738815D01*
X162629845Y-94759429D01*
X162512431Y-94819255D01*
X162419255Y-94912431D01*
X162359429Y-95029845D01*
X162338815Y-95159999D01*
X162338815Y-95160000D01*
X162359429Y-95290154D01*
X162409924Y-95389255D01*
X162419254Y-95407566D01*
X162470774Y-95459086D01*
X162492514Y-95505705D01*
X162492800Y-95512260D01*
X162492800Y-96176271D01*
X162491355Y-96190942D01*
X162487564Y-96209999D01*
X162487564Y-96210000D01*
X162508302Y-96314255D01*
X162508302Y-96314256D01*
X162508303Y-96314257D01*
X162532186Y-96350000D01*
X162565097Y-96399256D01*
X162567360Y-96402642D01*
X162583513Y-96413435D01*
X162594910Y-96422788D01*
X162596548Y-96424426D01*
X162618288Y-96471046D01*
X162604974Y-96520733D01*
X162562837Y-96550238D01*
X162543374Y-96552800D01*
X161887760Y-96552800D01*
X161839422Y-96535207D01*
X161834596Y-96530784D01*
X161783066Y-96479254D01*
X161665653Y-96419429D01*
X161665655Y-96419429D01*
X161535501Y-96398815D01*
X161535499Y-96398815D01*
X161405345Y-96419429D01*
X161287931Y-96479255D01*
X161194755Y-96572431D01*
X161134929Y-96689845D01*
X161114315Y-96819999D01*
X161114315Y-96820000D01*
X161134929Y-96950154D01*
X161194755Y-97067568D01*
X161287931Y-97160744D01*
X161287933Y-97160745D01*
X161287934Y-97160746D01*
X161405345Y-97220570D01*
X161405347Y-97220571D01*
X161505327Y-97236406D01*
X161535499Y-97241185D01*
X161535500Y-97241185D01*
X161535501Y-97241185D01*
X161556115Y-97237919D01*
X161665653Y-97220571D01*
X161783066Y-97160746D01*
X161834586Y-97109225D01*
X161881205Y-97087486D01*
X161887760Y-97087200D01*
X165018174Y-97087200D01*
X165066512Y-97104793D01*
X165071348Y-97109226D01*
X165410774Y-97448652D01*
X165432514Y-97495272D01*
X165432800Y-97501826D01*
X165432800Y-106085256D01*
X165415207Y-106133594D01*
X165370658Y-106159314D01*
X165320000Y-106150381D01*
X165299993Y-106133593D01*
X165292573Y-106124750D01*
X165292572Y-106124749D01*
X165254805Y-106102944D01*
X165252046Y-106101186D01*
X165229295Y-106085256D01*
X165216336Y-106076182D01*
X165216335Y-106076181D01*
X165216334Y-106076181D01*
X165211186Y-106074802D01*
X165193047Y-106067288D01*
X165188428Y-106064622D01*
X165188427Y-106064621D01*
X165188426Y-106064621D01*
X165145488Y-106057049D01*
X165142284Y-106056339D01*
X165121410Y-106050746D01*
X165100179Y-106045057D01*
X165100177Y-106045057D01*
X165097979Y-106044468D01*
X165055842Y-106014963D01*
X165042242Y-105971830D01*
X165042242Y-105966813D01*
X165058745Y-105921467D01*
X165058588Y-105921362D01*
X165059019Y-105920716D01*
X165059835Y-105918475D01*
X165062351Y-105915730D01*
X165104916Y-105852028D01*
X165104916Y-105852027D01*
X165104918Y-105852025D01*
X165119742Y-105777500D01*
X165119742Y-105017500D01*
X165104918Y-104942975D01*
X165062703Y-104879797D01*
X164999525Y-104837582D01*
X164999523Y-104837581D01*
X164925001Y-104822758D01*
X164925000Y-104822758D01*
X164517500Y-104822758D01*
X164517499Y-104822758D01*
X164442976Y-104837581D01*
X164442969Y-104837584D01*
X164431777Y-104845063D01*
X164381812Y-104857289D01*
X164348223Y-104845063D01*
X164337030Y-104837584D01*
X164337023Y-104837581D01*
X164262501Y-104822758D01*
X164262500Y-104822758D01*
X163857500Y-104822758D01*
X163857499Y-104822758D01*
X163782976Y-104837581D01*
X163782969Y-104837584D01*
X163771777Y-104845063D01*
X163721812Y-104857289D01*
X163688223Y-104845063D01*
X163677030Y-104837584D01*
X163677023Y-104837581D01*
X163602501Y-104822758D01*
X163602500Y-104822758D01*
X163197500Y-104822758D01*
X163197499Y-104822758D01*
X163122976Y-104837581D01*
X163122969Y-104837584D01*
X163111777Y-104845063D01*
X163061812Y-104857289D01*
X163028223Y-104845063D01*
X163017030Y-104837584D01*
X163017023Y-104837581D01*
X162942501Y-104822758D01*
X162942500Y-104822758D01*
X162535000Y-104822758D01*
X162534999Y-104822758D01*
X162460476Y-104837581D01*
X162460474Y-104837582D01*
X162397297Y-104879797D01*
X162355082Y-104942974D01*
X162355081Y-104942976D01*
X162340258Y-105017499D01*
X162340258Y-105358800D01*
X162322665Y-105407138D01*
X162278116Y-105432858D01*
X162265058Y-105434000D01*
X161517865Y-105434000D01*
X161469527Y-105416407D01*
X161450861Y-105392940D01*
X161444603Y-105380658D01*
X161404746Y-105302434D01*
X161404745Y-105302433D01*
X161404744Y-105302431D01*
X161311568Y-105209255D01*
X161194153Y-105149429D01*
X161194155Y-105149429D01*
X161145445Y-105141714D01*
X161096737Y-105134000D01*
X161096735Y-105134000D01*
X160281269Y-105134000D01*
X160281257Y-105134001D01*
X160183848Y-105149427D01*
X160066431Y-105209255D01*
X159973255Y-105302431D01*
X159913429Y-105419845D01*
X159898000Y-105517261D01*
X159898000Y-105998574D01*
X159880407Y-106046912D01*
X159835858Y-106072632D01*
X159785200Y-106063699D01*
X159769626Y-106051748D01*
X159262788Y-105544910D01*
X159253435Y-105533513D01*
X159242642Y-105517359D01*
X159178129Y-105474254D01*
X159154256Y-105458302D01*
X159050000Y-105437564D01*
X159030942Y-105441355D01*
X159016271Y-105442800D01*
X158652400Y-105442800D01*
X158604062Y-105425207D01*
X158578342Y-105380658D01*
X158577200Y-105367600D01*
X158577200Y-104971826D01*
X158594793Y-104923488D01*
X158599226Y-104918652D01*
X158738652Y-104779226D01*
X158785272Y-104757486D01*
X158791826Y-104757200D01*
X159445722Y-104757200D01*
X159494060Y-104774793D01*
X159513876Y-104800619D01*
X159543834Y-104864866D01*
X159543840Y-104864874D01*
X159625125Y-104946159D01*
X159625133Y-104946165D01*
X159729318Y-104994747D01*
X159729323Y-104994749D01*
X159776802Y-105001000D01*
X159776805Y-105001000D01*
X160123195Y-105001000D01*
X160123198Y-105001000D01*
X160170677Y-104994749D01*
X160222773Y-104970456D01*
X160274866Y-104946165D01*
X160274866Y-104946164D01*
X160274870Y-104946163D01*
X160356163Y-104864870D01*
X160360150Y-104856321D01*
X160386124Y-104800619D01*
X160404749Y-104760677D01*
X160411000Y-104713198D01*
X160411000Y-104266802D01*
X160404749Y-104219323D01*
X160400402Y-104210000D01*
X160356165Y-104115133D01*
X160356159Y-104115125D01*
X160274874Y-104033840D01*
X160274866Y-104033834D01*
X160170681Y-103985252D01*
X160170676Y-103985250D01*
X160138039Y-103980954D01*
X160123198Y-103979000D01*
X159776802Y-103979000D01*
X159763360Y-103980769D01*
X159729323Y-103985250D01*
X159729318Y-103985252D01*
X159625133Y-104033834D01*
X159625125Y-104033840D01*
X159543840Y-104115125D01*
X159543834Y-104115133D01*
X159513876Y-104179381D01*
X159477503Y-104215754D01*
X159445722Y-104222800D01*
X158683729Y-104222800D01*
X158669058Y-104221355D01*
X158650000Y-104217564D01*
X158545745Y-104238302D01*
X158545743Y-104238303D01*
X158457357Y-104297359D01*
X158446560Y-104313518D01*
X158437210Y-104324910D01*
X158144910Y-104617210D01*
X158133518Y-104626560D01*
X158117362Y-104637355D01*
X158117359Y-104637359D01*
X158102450Y-104659671D01*
X158058302Y-104725744D01*
X158037564Y-104829999D01*
X158037564Y-104830000D01*
X158040560Y-104845063D01*
X158041355Y-104849056D01*
X158042800Y-104863728D01*
X158042800Y-105367600D01*
X158025207Y-105415938D01*
X157980658Y-105441658D01*
X157967600Y-105442800D01*
X155332260Y-105442800D01*
X155283922Y-105425207D01*
X155279096Y-105420784D01*
X155227566Y-105369254D01*
X155110153Y-105309429D01*
X155110155Y-105309429D01*
X154980001Y-105288815D01*
X154979999Y-105288815D01*
X154849845Y-105309429D01*
X154732431Y-105369255D01*
X154639255Y-105462431D01*
X154579429Y-105579845D01*
X154558815Y-105709999D01*
X154558815Y-105710000D01*
X154579429Y-105840154D01*
X154639255Y-105957568D01*
X154732431Y-106050744D01*
X154732433Y-106050745D01*
X154732434Y-106050746D01*
X154849845Y-106110570D01*
X154849847Y-106110571D01*
X154920600Y-106121777D01*
X154929401Y-106123171D01*
X154974391Y-106148109D01*
X154992826Y-106196133D01*
X154990161Y-106213971D01*
X154990355Y-106214002D01*
X154989430Y-106219845D01*
X154989429Y-106219847D01*
X154980603Y-106275571D01*
X154968815Y-106349999D01*
X154968815Y-106350000D01*
X154989429Y-106480154D01*
X155049255Y-106597568D01*
X155142431Y-106690744D01*
X155142433Y-106690745D01*
X155142434Y-106690746D01*
X155259845Y-106750570D01*
X155259847Y-106750571D01*
X155359827Y-106766406D01*
X155389999Y-106771185D01*
X155390000Y-106771185D01*
X155390001Y-106771185D01*
X155410615Y-106767919D01*
X155520153Y-106750571D01*
X155637566Y-106690746D01*
X155730746Y-106597566D01*
X155790571Y-106480153D01*
X155811185Y-106350000D01*
X155790571Y-106219847D01*
X155730746Y-106102434D01*
X155730745Y-106102433D01*
X155730744Y-106102431D01*
X155727267Y-106097645D01*
X155729449Y-106096059D01*
X155712147Y-106058954D01*
X155725461Y-106009267D01*
X155767598Y-105979762D01*
X155787061Y-105977200D01*
X158113682Y-105977200D01*
X158116271Y-105977200D01*
X158130942Y-105978645D01*
X158150000Y-105982436D01*
X158169058Y-105978645D01*
X158183729Y-105977200D01*
X158276275Y-105977200D01*
X158290946Y-105978645D01*
X158310000Y-105982435D01*
X158329054Y-105978645D01*
X158343725Y-105977200D01*
X158436275Y-105977200D01*
X158450946Y-105978645D01*
X158470000Y-105982435D01*
X158489054Y-105978645D01*
X158503725Y-105977200D01*
X158908174Y-105977200D01*
X158956512Y-105994793D01*
X158961348Y-105999226D01*
X159627209Y-106665087D01*
X159636561Y-106676482D01*
X159640359Y-106682166D01*
X159652586Y-106732131D01*
X159629835Y-106778266D01*
X159615435Y-106789069D01*
X159609929Y-106792247D01*
X159581898Y-106825652D01*
X159579681Y-106828071D01*
X159370569Y-107037184D01*
X159368150Y-107039400D01*
X159334750Y-107067426D01*
X159312945Y-107105190D01*
X159311183Y-107107956D01*
X159286182Y-107143663D01*
X159286182Y-107143664D01*
X159285235Y-107147200D01*
X159284801Y-107148819D01*
X159277291Y-107166949D01*
X159274621Y-107171572D01*
X159274621Y-107171573D01*
X159267054Y-107214493D01*
X159266344Y-107217696D01*
X159255057Y-107259818D01*
X159255057Y-107259822D01*
X159258857Y-107303254D01*
X159259000Y-107306532D01*
X159259000Y-108234877D01*
X159250804Y-108269017D01*
X159199429Y-108369845D01*
X159178815Y-108499999D01*
X159178815Y-108500000D01*
X159199429Y-108630154D01*
X159259255Y-108747568D01*
X159352431Y-108840744D01*
X159352433Y-108840745D01*
X159352434Y-108840746D01*
X159469845Y-108900570D01*
X159469847Y-108900571D01*
X159569827Y-108916406D01*
X159599999Y-108921185D01*
X159600000Y-108921185D01*
X159600001Y-108921185D01*
X159624494Y-108917305D01*
X159730153Y-108900571D01*
X159730155Y-108900570D01*
X159730159Y-108900569D01*
X159788660Y-108870761D01*
X159839716Y-108864491D01*
X159882857Y-108892507D01*
X159898000Y-108937764D01*
X159898000Y-109332730D01*
X159898001Y-109332742D01*
X159913427Y-109430151D01*
X159973255Y-109547568D01*
X160066431Y-109640744D01*
X160066433Y-109640745D01*
X160066434Y-109640746D01*
X160183845Y-109700570D01*
X160183847Y-109700571D01*
X160281263Y-109716000D01*
X160281265Y-109715999D01*
X160284182Y-109716462D01*
X160283910Y-109718176D01*
X160325499Y-109737121D01*
X160347653Y-109783546D01*
X160348000Y-109790766D01*
X160348000Y-112272466D01*
X160347857Y-112275744D01*
X160344057Y-112319177D01*
X160344057Y-112319179D01*
X160355339Y-112361285D01*
X160356049Y-112364488D01*
X160363621Y-112407426D01*
X160366288Y-112412045D01*
X160373802Y-112430186D01*
X160375181Y-112435334D01*
X160375181Y-112435335D01*
X160400186Y-112471046D01*
X160401944Y-112473805D01*
X160416490Y-112499000D01*
X160423750Y-112511573D01*
X160457148Y-112539597D01*
X160459556Y-112541803D01*
X160697194Y-112779441D01*
X160699401Y-112781849D01*
X160727430Y-112815253D01*
X160727432Y-112815254D01*
X160765186Y-112837051D01*
X160767954Y-112838814D01*
X160803664Y-112863818D01*
X160808812Y-112865197D01*
X160826952Y-112872710D01*
X160831572Y-112875378D01*
X160874518Y-112882950D01*
X160877707Y-112883658D01*
X160919822Y-112894943D01*
X160963256Y-112891143D01*
X160966534Y-112891000D01*
X161208800Y-112891000D01*
X161257138Y-112908593D01*
X161282858Y-112953142D01*
X161284000Y-112966200D01*
X161284000Y-113068812D01*
X161295081Y-113124523D01*
X161295082Y-113124525D01*
X161337297Y-113187703D01*
X161363295Y-113205075D01*
X161393711Y-113246558D01*
X161390346Y-113297888D01*
X161354774Y-113335045D01*
X161321515Y-113342800D01*
X159221826Y-113342800D01*
X159173488Y-113325207D01*
X159168652Y-113320774D01*
X158929226Y-113081348D01*
X158907486Y-113034728D01*
X158907200Y-113028174D01*
X158907200Y-111112260D01*
X158924793Y-111063922D01*
X158929215Y-111059096D01*
X158980746Y-111007566D01*
X159040571Y-110890153D01*
X159061185Y-110760000D01*
X159040571Y-110629847D01*
X158980746Y-110512434D01*
X158980745Y-110512433D01*
X158980744Y-110512431D01*
X158887568Y-110419255D01*
X158770153Y-110359429D01*
X158770155Y-110359429D01*
X158640001Y-110338815D01*
X158639999Y-110338815D01*
X158509845Y-110359429D01*
X158392431Y-110419255D01*
X158299255Y-110512431D01*
X158239429Y-110629845D01*
X158218815Y-110759999D01*
X158218815Y-110760000D01*
X158239429Y-110890154D01*
X158286629Y-110982788D01*
X158299254Y-111007566D01*
X158350774Y-111059086D01*
X158372514Y-111105705D01*
X158372800Y-111112260D01*
X158372800Y-113136271D01*
X158371355Y-113150942D01*
X158367564Y-113169999D01*
X158367564Y-113170000D01*
X158388302Y-113274255D01*
X158388303Y-113274258D01*
X158392140Y-113280000D01*
X158395978Y-113285743D01*
X158404093Y-113297888D01*
X158447359Y-113362642D01*
X158463513Y-113373435D01*
X158474910Y-113382788D01*
X158867209Y-113775087D01*
X158876561Y-113786482D01*
X158887357Y-113802639D01*
X158887358Y-113802639D01*
X158887359Y-113802641D01*
X158909671Y-113817549D01*
X158975743Y-113861697D01*
X159027871Y-113872066D01*
X159079999Y-113882436D01*
X159079999Y-113882435D01*
X159080000Y-113882436D01*
X159099058Y-113878645D01*
X159113729Y-113877200D01*
X162414671Y-113877200D01*
X162429342Y-113878645D01*
X162448400Y-113882436D01*
X162552657Y-113861697D01*
X162618729Y-113817549D01*
X162618728Y-113817549D01*
X162641041Y-113802641D01*
X162641042Y-113802639D01*
X162641427Y-113802382D01*
X162642343Y-113800692D01*
X162649105Y-113790571D01*
X162651837Y-113786481D01*
X162661184Y-113775092D01*
X162696595Y-113739681D01*
X162743214Y-113717942D01*
X162792901Y-113731256D01*
X162822406Y-113773393D01*
X162819627Y-113820690D01*
X162781789Y-113915655D01*
X162781788Y-113915658D01*
X162683414Y-114269969D01*
X162683414Y-114269970D01*
X162623928Y-114632819D01*
X162623927Y-114632826D01*
X162623927Y-114632830D01*
X162607903Y-114928372D01*
X162587719Y-114975685D01*
X162541844Y-114998956D01*
X162532814Y-114999500D01*
X137492219Y-114999500D01*
X137443881Y-114981907D01*
X137418161Y-114937358D01*
X137427094Y-114886700D01*
X137466499Y-114853635D01*
X137480453Y-114850026D01*
X137540153Y-114840571D01*
X137657566Y-114780746D01*
X137750746Y-114687566D01*
X137810571Y-114570153D01*
X137831185Y-114440000D01*
X137810571Y-114309847D01*
X137750746Y-114192434D01*
X137750745Y-114192433D01*
X137750744Y-114192431D01*
X137657568Y-114099255D01*
X137540153Y-114039429D01*
X137540155Y-114039429D01*
X137410001Y-114018815D01*
X137409999Y-114018815D01*
X137279845Y-114039429D01*
X137162431Y-114099255D01*
X137069255Y-114192431D01*
X137009429Y-114309845D01*
X136988815Y-114439999D01*
X136988815Y-114440000D01*
X137009429Y-114570154D01*
X137069255Y-114687568D01*
X137162431Y-114780744D01*
X137162433Y-114780745D01*
X137162434Y-114780746D01*
X137279845Y-114840570D01*
X137279847Y-114840571D01*
X137339545Y-114850026D01*
X137384535Y-114874964D01*
X137402970Y-114922988D01*
X137386222Y-114971625D01*
X137342130Y-114998118D01*
X137327781Y-114999500D01*
X135979973Y-114999500D01*
X135931635Y-114981907D01*
X135905915Y-114937358D01*
X135914848Y-114886700D01*
X135945833Y-114857296D01*
X135978659Y-114840570D01*
X136017566Y-114820746D01*
X136110746Y-114727566D01*
X136170571Y-114610153D01*
X136191185Y-114480000D01*
X136170571Y-114349847D01*
X136110746Y-114232434D01*
X136110745Y-114232433D01*
X136110744Y-114232431D01*
X136017568Y-114139255D01*
X135900153Y-114079429D01*
X135900155Y-114079429D01*
X135770001Y-114058815D01*
X135769999Y-114058815D01*
X135639845Y-114079429D01*
X135522431Y-114139255D01*
X135429255Y-114232431D01*
X135369429Y-114349845D01*
X135348815Y-114479999D01*
X135348815Y-114480000D01*
X135369429Y-114610154D01*
X135429255Y-114727568D01*
X135522431Y-114820744D01*
X135522433Y-114820745D01*
X135522434Y-114820746D01*
X135561341Y-114840570D01*
X135594167Y-114857296D01*
X135629249Y-114894917D01*
X135631941Y-114946287D01*
X135600984Y-114987368D01*
X135560027Y-114999500D01*
X134467186Y-114999500D01*
X134418848Y-114981907D01*
X134393128Y-114937358D01*
X134392097Y-114928380D01*
X134376073Y-114632830D01*
X134316584Y-114269965D01*
X134218211Y-113915658D01*
X134187593Y-113838812D01*
X138719000Y-113838812D01*
X138730081Y-113894523D01*
X138730082Y-113894525D01*
X138772297Y-113957703D01*
X138835475Y-113999918D01*
X138863331Y-114005459D01*
X138891187Y-114011000D01*
X138891188Y-114011000D01*
X139928813Y-114011000D01*
X139947383Y-114007306D01*
X139984525Y-113999918D01*
X140047703Y-113957703D01*
X140089918Y-113894525D01*
X140101000Y-113838812D01*
X140101000Y-113831796D01*
X143379000Y-113831796D01*
X143394152Y-113956582D01*
X143394152Y-113956584D01*
X143394153Y-113956585D01*
X143453654Y-114113479D01*
X143453659Y-114113487D01*
X143548976Y-114251578D01*
X143548978Y-114251580D01*
X143548980Y-114251583D01*
X143548983Y-114251585D01*
X143548988Y-114251591D01*
X143674580Y-114362855D01*
X143674586Y-114362859D01*
X143821565Y-114440000D01*
X143823168Y-114440841D01*
X143986097Y-114481000D01*
X143986100Y-114481000D01*
X144153900Y-114481000D01*
X144153903Y-114481000D01*
X144316832Y-114440841D01*
X144465416Y-114362858D01*
X144591020Y-114251583D01*
X144686344Y-114113482D01*
X144745848Y-113956582D01*
X144761000Y-113831796D01*
X152019000Y-113831796D01*
X152034152Y-113956582D01*
X152034152Y-113956584D01*
X152034153Y-113956585D01*
X152093654Y-114113479D01*
X152093659Y-114113487D01*
X152188976Y-114251578D01*
X152188978Y-114251580D01*
X152188980Y-114251583D01*
X152188983Y-114251585D01*
X152188988Y-114251591D01*
X152314580Y-114362855D01*
X152314586Y-114362859D01*
X152461565Y-114440000D01*
X152463168Y-114440841D01*
X152626097Y-114481000D01*
X152626100Y-114481000D01*
X152793900Y-114481000D01*
X152793903Y-114481000D01*
X152956832Y-114440841D01*
X153105416Y-114362858D01*
X153231020Y-114251583D01*
X153326344Y-114113482D01*
X153385848Y-113956582D01*
X153401000Y-113831796D01*
X153401000Y-113148204D01*
X153385848Y-113023418D01*
X153332683Y-112883233D01*
X153326345Y-112866520D01*
X153326340Y-112866512D01*
X153231023Y-112728421D01*
X153231022Y-112728419D01*
X153231020Y-112728417D01*
X153231016Y-112728413D01*
X153231011Y-112728408D01*
X153105419Y-112617144D01*
X153105413Y-112617140D01*
X152956835Y-112539160D01*
X152956832Y-112539159D01*
X152793903Y-112499000D01*
X152626097Y-112499000D01*
X152463168Y-112539159D01*
X152463164Y-112539160D01*
X152314586Y-112617140D01*
X152314580Y-112617144D01*
X152188988Y-112728408D01*
X152188976Y-112728421D01*
X152093659Y-112866512D01*
X152093654Y-112866520D01*
X152034153Y-113023414D01*
X152034152Y-113023416D01*
X152034152Y-113023418D01*
X152024188Y-113105475D01*
X152019550Y-113143678D01*
X152019000Y-113148204D01*
X152019000Y-113831796D01*
X144761000Y-113831796D01*
X144761000Y-113148204D01*
X144745848Y-113023418D01*
X144692683Y-112883233D01*
X144686345Y-112866520D01*
X144686340Y-112866512D01*
X144591023Y-112728421D01*
X144591022Y-112728419D01*
X144591020Y-112728417D01*
X144591016Y-112728413D01*
X144591011Y-112728408D01*
X144465419Y-112617144D01*
X144465413Y-112617140D01*
X144316835Y-112539160D01*
X144316832Y-112539159D01*
X144153903Y-112499000D01*
X143986097Y-112499000D01*
X143823168Y-112539159D01*
X143823164Y-112539160D01*
X143674586Y-112617140D01*
X143674580Y-112617144D01*
X143548988Y-112728408D01*
X143548976Y-112728421D01*
X143453659Y-112866512D01*
X143453654Y-112866520D01*
X143394153Y-113023414D01*
X143394152Y-113023416D01*
X143394152Y-113023418D01*
X143384188Y-113105475D01*
X143379550Y-113143678D01*
X143379000Y-113148204D01*
X143379000Y-113831796D01*
X140101000Y-113831796D01*
X140101000Y-112801188D01*
X140089918Y-112745475D01*
X140047703Y-112682297D01*
X139984525Y-112640082D01*
X139984523Y-112640081D01*
X139928813Y-112629000D01*
X139928812Y-112629000D01*
X138891188Y-112629000D01*
X138891187Y-112629000D01*
X138835476Y-112640081D01*
X138835474Y-112640082D01*
X138772297Y-112682297D01*
X138730082Y-112745474D01*
X138730081Y-112745476D01*
X138719000Y-112801187D01*
X138719000Y-113838812D01*
X134187593Y-113838812D01*
X134082115Y-113574082D01*
X134082113Y-113574079D01*
X134082108Y-113574065D01*
X133909870Y-113249189D01*
X133703516Y-112944840D01*
X133465466Y-112664586D01*
X133198511Y-112411713D01*
X133138799Y-112366321D01*
X132905791Y-112189193D01*
X132905781Y-112189186D01*
X132905782Y-112189186D01*
X132905780Y-112189185D01*
X132590706Y-111999611D01*
X132256982Y-111845214D01*
X132256978Y-111845212D01*
X132256970Y-111845209D01*
X131908525Y-111727804D01*
X131908522Y-111727803D01*
X131908521Y-111727803D01*
X131801545Y-111704256D01*
X131549405Y-111648756D01*
X131294191Y-111621000D01*
X131183855Y-111609000D01*
X131183852Y-111609000D01*
X131075700Y-111609000D01*
X131027362Y-111591407D01*
X131001642Y-111546858D01*
X131000500Y-111533800D01*
X131000500Y-107889925D01*
X131018093Y-107841587D01*
X131062642Y-107815867D01*
X131113300Y-107824800D01*
X131128874Y-107836751D01*
X131307207Y-108015084D01*
X131316559Y-108026479D01*
X131327357Y-108042640D01*
X131356977Y-108062431D01*
X131389788Y-108084354D01*
X131415743Y-108101697D01*
X131520000Y-108122435D01*
X131539054Y-108118645D01*
X131553725Y-108117200D01*
X131766271Y-108117200D01*
X131780942Y-108118645D01*
X131800000Y-108122436D01*
X131904257Y-108101697D01*
X131970329Y-108057549D01*
X131988372Y-108045493D01*
X131992641Y-108042641D01*
X131992642Y-108042639D01*
X131993027Y-108042382D01*
X131993943Y-108040692D01*
X132003437Y-108026481D01*
X132012784Y-108015092D01*
X132858651Y-107169226D01*
X132905271Y-107147486D01*
X132911825Y-107147200D01*
X134677252Y-107147200D01*
X134725590Y-107164793D01*
X134751310Y-107209342D01*
X134742377Y-107260000D01*
X134711392Y-107289404D01*
X134672431Y-107309255D01*
X134579255Y-107402431D01*
X134519429Y-107519845D01*
X134498815Y-107649999D01*
X134498815Y-107650000D01*
X134519429Y-107780154D01*
X134579255Y-107897568D01*
X134672431Y-107990744D01*
X134672433Y-107990745D01*
X134672434Y-107990746D01*
X134789845Y-108050570D01*
X134789847Y-108050571D01*
X134889827Y-108066406D01*
X134919999Y-108071185D01*
X134920000Y-108071185D01*
X134920001Y-108071185D01*
X134940615Y-108067919D01*
X135050153Y-108050571D01*
X135167566Y-107990746D01*
X135260746Y-107897566D01*
X135320571Y-107780153D01*
X135341185Y-107650000D01*
X135320571Y-107519847D01*
X135260746Y-107402434D01*
X135260745Y-107402433D01*
X135260744Y-107402431D01*
X135167568Y-107309255D01*
X135128608Y-107289404D01*
X135093526Y-107251783D01*
X135090834Y-107200413D01*
X135121791Y-107159332D01*
X135162748Y-107147200D01*
X137220218Y-107147200D01*
X137268556Y-107164793D01*
X137294276Y-107209342D01*
X137285343Y-107260000D01*
X137274926Y-107273573D01*
X137273834Y-107275133D01*
X137225252Y-107379318D01*
X137225250Y-107379323D01*
X137219000Y-107426804D01*
X137219000Y-107873195D01*
X137225250Y-107920676D01*
X137225252Y-107920681D01*
X137273834Y-108024866D01*
X137273837Y-108024870D01*
X137326974Y-108078007D01*
X137348714Y-108124626D01*
X137349000Y-108131181D01*
X137349000Y-108335677D01*
X137336327Y-108377456D01*
X137307582Y-108420475D01*
X137307581Y-108420476D01*
X137296500Y-108476187D01*
X137296500Y-109503812D01*
X137307581Y-109559523D01*
X137307582Y-109559525D01*
X137349797Y-109622703D01*
X137412975Y-109664918D01*
X137440831Y-109670459D01*
X137468687Y-109676000D01*
X137468688Y-109676000D01*
X137911313Y-109676000D01*
X137929883Y-109672306D01*
X137967025Y-109664918D01*
X138030203Y-109622703D01*
X138032231Y-109619667D01*
X138073709Y-109589251D01*
X138125039Y-109592612D01*
X138162200Y-109628180D01*
X138168815Y-109674499D01*
X138167054Y-109684489D01*
X138166344Y-109687695D01*
X138155057Y-109729818D01*
X138155057Y-109729822D01*
X138158857Y-109773254D01*
X138159000Y-109776532D01*
X138159000Y-110094283D01*
X138141407Y-110142621D01*
X138096858Y-110168341D01*
X138046200Y-110159408D01*
X138013135Y-110120003D01*
X138010045Y-110108954D01*
X137997418Y-110045477D01*
X137997418Y-110045476D01*
X137997418Y-110045475D01*
X137955203Y-109982297D01*
X137892025Y-109940082D01*
X137892023Y-109940081D01*
X137817501Y-109925258D01*
X137817500Y-109925258D01*
X135582500Y-109925258D01*
X135582499Y-109925258D01*
X135507976Y-109940081D01*
X135507974Y-109940082D01*
X135444797Y-109982297D01*
X135402582Y-110045474D01*
X135402581Y-110045476D01*
X135387758Y-110119999D01*
X135387758Y-110258800D01*
X135370165Y-110307138D01*
X135325616Y-110332858D01*
X135312558Y-110334000D01*
X134363719Y-110334000D01*
X134315381Y-110316407D01*
X134301835Y-110301524D01*
X134241020Y-110213417D01*
X134241014Y-110213412D01*
X134241011Y-110213408D01*
X134115419Y-110102144D01*
X134115413Y-110102140D01*
X133966835Y-110024160D01*
X133966832Y-110024159D01*
X133803903Y-109984000D01*
X133636097Y-109984000D01*
X133473168Y-110024159D01*
X133473164Y-110024160D01*
X133324586Y-110102140D01*
X133324585Y-110102141D01*
X133257426Y-110161637D01*
X133209577Y-110180521D01*
X133160785Y-110164231D01*
X133133879Y-110120388D01*
X133133805Y-110120018D01*
X133133802Y-110120003D01*
X133129918Y-110100475D01*
X133087703Y-110037297D01*
X133024525Y-109995082D01*
X133024523Y-109995081D01*
X132968813Y-109984000D01*
X132968812Y-109984000D01*
X131931188Y-109984000D01*
X131931187Y-109984000D01*
X131875476Y-109995081D01*
X131875474Y-109995082D01*
X131812297Y-110037297D01*
X131770082Y-110100474D01*
X131770081Y-110100476D01*
X131759000Y-110156187D01*
X131759000Y-111193812D01*
X131770081Y-111249523D01*
X131770082Y-111249525D01*
X131812297Y-111312703D01*
X131875475Y-111354918D01*
X131903331Y-111360459D01*
X131931187Y-111366000D01*
X131931188Y-111366000D01*
X132968813Y-111366000D01*
X132987383Y-111362306D01*
X133024525Y-111354918D01*
X133087703Y-111312703D01*
X133129918Y-111249525D01*
X133133805Y-111229981D01*
X133160489Y-111186005D01*
X133209199Y-111169469D01*
X133257142Y-111188112D01*
X133257426Y-111188362D01*
X133263578Y-111193812D01*
X133324584Y-111247858D01*
X133473168Y-111325841D01*
X133636097Y-111366000D01*
X133636100Y-111366000D01*
X133803900Y-111366000D01*
X133803903Y-111366000D01*
X133966832Y-111325841D01*
X134115416Y-111247858D01*
X134241020Y-111136583D01*
X134301832Y-111048480D01*
X134343768Y-111018695D01*
X134363719Y-111016000D01*
X135312558Y-111016000D01*
X135360896Y-111033593D01*
X135386616Y-111078142D01*
X135387758Y-111091200D01*
X135387758Y-111405687D01*
X135371253Y-111451034D01*
X135371412Y-111451140D01*
X135370979Y-111451787D01*
X135370165Y-111454025D01*
X135367651Y-111456768D01*
X135367297Y-111457296D01*
X135367297Y-111457297D01*
X135363161Y-111463487D01*
X135325082Y-111520474D01*
X135325081Y-111520476D01*
X135310258Y-111594999D01*
X135310258Y-112355000D01*
X135325081Y-112429523D01*
X135325082Y-112429525D01*
X135367297Y-112492703D01*
X135430475Y-112534918D01*
X135451796Y-112539159D01*
X135504999Y-112549742D01*
X135505000Y-112549742D01*
X135912501Y-112549742D01*
X135937341Y-112544800D01*
X135987025Y-112534918D01*
X135998221Y-112527436D01*
X136048186Y-112515210D01*
X136081778Y-112527436D01*
X136092975Y-112534918D01*
X136114296Y-112539159D01*
X136167499Y-112549742D01*
X136167500Y-112549742D01*
X136572501Y-112549742D01*
X136597341Y-112544800D01*
X136647025Y-112534918D01*
X136658221Y-112527436D01*
X136708186Y-112515210D01*
X136741778Y-112527436D01*
X136752975Y-112534918D01*
X136774296Y-112539159D01*
X136827499Y-112549742D01*
X136827500Y-112549742D01*
X137232501Y-112549742D01*
X137257341Y-112544800D01*
X137307025Y-112534918D01*
X137318221Y-112527436D01*
X137368186Y-112515210D01*
X137401778Y-112527436D01*
X137412975Y-112534918D01*
X137434296Y-112539159D01*
X137487499Y-112549742D01*
X137487500Y-112549742D01*
X137895001Y-112549742D01*
X137919841Y-112544800D01*
X137969525Y-112534918D01*
X138032703Y-112492703D01*
X138074918Y-112429525D01*
X138089742Y-112355000D01*
X138089742Y-111606200D01*
X138107335Y-111557862D01*
X138151884Y-111532142D01*
X138164942Y-111531000D01*
X138213466Y-111531000D01*
X138216744Y-111531143D01*
X138218763Y-111531319D01*
X138260179Y-111534943D01*
X138302301Y-111523655D01*
X138305484Y-111522949D01*
X138348428Y-111515378D01*
X138353045Y-111512711D01*
X138371184Y-111505197D01*
X138376336Y-111503818D01*
X138412045Y-111478814D01*
X138414814Y-111477050D01*
X138438306Y-111463487D01*
X138452572Y-111455251D01*
X138480620Y-111421822D01*
X138482787Y-111419458D01*
X138729448Y-111172797D01*
X138731824Y-111170620D01*
X138765251Y-111142572D01*
X138787062Y-111104792D01*
X138788810Y-111102050D01*
X138792468Y-111096826D01*
X138813818Y-111066336D01*
X138815198Y-111061184D01*
X138822711Y-111043046D01*
X138825378Y-111038428D01*
X138832950Y-110995480D01*
X138833656Y-110992296D01*
X138844943Y-110950178D01*
X138841143Y-110906743D01*
X138841000Y-110903465D01*
X138841000Y-109932394D01*
X138858593Y-109884056D01*
X138863026Y-109879220D01*
X139039220Y-109703026D01*
X139085840Y-109681286D01*
X139092394Y-109681000D01*
X139251135Y-109681000D01*
X139299473Y-109698593D01*
X139318139Y-109722060D01*
X139364255Y-109812568D01*
X139457431Y-109905744D01*
X139457433Y-109905745D01*
X139457434Y-109905746D01*
X139574845Y-109965570D01*
X139574847Y-109965571D01*
X139672263Y-109981000D01*
X139672916Y-109980999D01*
X139673095Y-109981065D01*
X139675214Y-109981232D01*
X139675167Y-109981818D01*
X139721257Y-109998579D01*
X139746989Y-110043120D01*
X139739939Y-110090338D01*
X139699430Y-110169843D01*
X139699429Y-110169844D01*
X139678815Y-110299999D01*
X139678815Y-110300000D01*
X139699429Y-110430154D01*
X139759255Y-110547568D01*
X139852431Y-110640744D01*
X139852433Y-110640745D01*
X139852434Y-110640746D01*
X139969845Y-110700570D01*
X139969847Y-110700571D01*
X140059623Y-110714790D01*
X140099999Y-110721185D01*
X140100000Y-110721185D01*
X140100001Y-110721185D01*
X140120615Y-110717919D01*
X140230153Y-110700571D01*
X140347566Y-110640746D01*
X140440746Y-110547566D01*
X140500571Y-110430153D01*
X140521185Y-110300000D01*
X140500571Y-110169847D01*
X140500570Y-110169845D01*
X140500570Y-110169844D01*
X140500570Y-110169843D01*
X140457565Y-110085443D01*
X140451295Y-110034386D01*
X140479311Y-109991245D01*
X140512801Y-109977029D01*
X140585153Y-109965571D01*
X140702566Y-109905746D01*
X140706516Y-109901796D01*
X143379000Y-109901796D01*
X143394152Y-110026582D01*
X143394152Y-110026584D01*
X143394153Y-110026585D01*
X143453654Y-110183479D01*
X143453659Y-110183487D01*
X143548976Y-110321578D01*
X143548978Y-110321580D01*
X143548980Y-110321583D01*
X143548983Y-110321585D01*
X143548988Y-110321591D01*
X143674580Y-110432855D01*
X143674582Y-110432856D01*
X143674584Y-110432858D01*
X143823168Y-110510841D01*
X143986097Y-110551000D01*
X143986100Y-110551000D01*
X144153900Y-110551000D01*
X144153903Y-110551000D01*
X144316832Y-110510841D01*
X144465416Y-110432858D01*
X144591020Y-110321583D01*
X144686344Y-110183482D01*
X144745848Y-110026582D01*
X144761000Y-109901796D01*
X144761000Y-109840000D01*
X144919534Y-109840000D01*
X144939313Y-109990237D01*
X144953364Y-110024159D01*
X144997302Y-110130233D01*
X144997303Y-110130235D01*
X144997304Y-110130236D01*
X145089548Y-110250451D01*
X145209763Y-110342695D01*
X145209767Y-110342698D01*
X145349764Y-110400687D01*
X145462280Y-110415500D01*
X145462283Y-110415500D01*
X145537717Y-110415500D01*
X145537720Y-110415500D01*
X145650236Y-110400687D01*
X145790233Y-110342698D01*
X145910451Y-110250451D01*
X146002698Y-110130233D01*
X146060687Y-109990236D01*
X146080466Y-109840000D01*
X146060687Y-109689764D01*
X146002698Y-109549767D01*
X146001009Y-109547566D01*
X145910451Y-109429548D01*
X145790236Y-109337304D01*
X145790235Y-109337303D01*
X145790233Y-109337302D01*
X145693274Y-109297140D01*
X145650237Y-109279313D01*
X145622107Y-109275609D01*
X145537720Y-109264500D01*
X145462280Y-109264500D01*
X145394770Y-109273387D01*
X145349762Y-109279313D01*
X145250766Y-109320319D01*
X145209767Y-109337302D01*
X145209766Y-109337302D01*
X145209763Y-109337304D01*
X145089548Y-109429548D01*
X144997304Y-109549763D01*
X144939313Y-109689762D01*
X144919534Y-109840000D01*
X144761000Y-109840000D01*
X144761000Y-108718204D01*
X144745848Y-108593418D01*
X144694824Y-108458878D01*
X144686345Y-108436520D01*
X144686340Y-108436512D01*
X144657686Y-108395000D01*
X145518815Y-108395000D01*
X145539429Y-108525154D01*
X145599255Y-108642568D01*
X145692431Y-108735744D01*
X145692433Y-108735745D01*
X145692434Y-108735746D01*
X145809845Y-108795570D01*
X145809847Y-108795571D01*
X145905647Y-108810744D01*
X145939999Y-108816185D01*
X145940000Y-108816185D01*
X145940001Y-108816185D01*
X145960615Y-108812919D01*
X146070153Y-108795571D01*
X146187566Y-108735746D01*
X146280746Y-108642566D01*
X146340571Y-108525153D01*
X146361185Y-108395000D01*
X146340571Y-108264847D01*
X146280746Y-108147434D01*
X146280745Y-108147433D01*
X146280744Y-108147431D01*
X146187568Y-108054255D01*
X146070153Y-107994429D01*
X146070155Y-107994429D01*
X145940001Y-107973815D01*
X145939999Y-107973815D01*
X145809845Y-107994429D01*
X145692431Y-108054255D01*
X145599255Y-108147431D01*
X145539429Y-108264845D01*
X145518815Y-108394999D01*
X145518815Y-108395000D01*
X144657686Y-108395000D01*
X144591023Y-108298421D01*
X144591022Y-108298419D01*
X144591020Y-108298417D01*
X144591016Y-108298413D01*
X144591011Y-108298408D01*
X144465419Y-108187144D01*
X144465413Y-108187140D01*
X144316835Y-108109160D01*
X144316832Y-108109159D01*
X144153903Y-108069000D01*
X143986097Y-108069000D01*
X143823168Y-108109159D01*
X143823164Y-108109160D01*
X143674586Y-108187140D01*
X143674580Y-108187144D01*
X143548988Y-108298408D01*
X143548976Y-108298421D01*
X143453659Y-108436512D01*
X143453654Y-108436520D01*
X143394153Y-108593414D01*
X143394152Y-108593416D01*
X143394152Y-108593418D01*
X143388035Y-108643795D01*
X143380018Y-108709824D01*
X143379000Y-108718204D01*
X143379000Y-109901796D01*
X140706516Y-109901796D01*
X140795746Y-109812566D01*
X140855571Y-109695153D01*
X140871000Y-109597737D01*
X140871000Y-109420000D01*
X141978815Y-109420000D01*
X141999429Y-109550154D01*
X142059255Y-109667568D01*
X142152431Y-109760744D01*
X142152433Y-109760745D01*
X142152434Y-109760746D01*
X142269845Y-109820570D01*
X142269847Y-109820571D01*
X142369827Y-109836406D01*
X142399999Y-109841185D01*
X142400000Y-109841185D01*
X142400001Y-109841185D01*
X142420615Y-109837919D01*
X142530153Y-109820571D01*
X142647566Y-109760746D01*
X142740746Y-109667566D01*
X142800571Y-109550153D01*
X142821185Y-109420000D01*
X142819350Y-109408417D01*
X142813670Y-109372553D01*
X142800571Y-109289847D01*
X142740746Y-109172434D01*
X142740745Y-109172433D01*
X142740744Y-109172431D01*
X142647568Y-109079255D01*
X142530153Y-109019429D01*
X142530155Y-109019429D01*
X142400001Y-108998815D01*
X142399999Y-108998815D01*
X142269845Y-109019429D01*
X142152431Y-109079255D01*
X142059255Y-109172431D01*
X141999429Y-109289845D01*
X141978815Y-109419999D01*
X141978815Y-109420000D01*
X140871000Y-109420000D01*
X140870999Y-109082264D01*
X140870998Y-109082257D01*
X140855572Y-108984850D01*
X140855571Y-108984848D01*
X140855571Y-108984847D01*
X140855351Y-108984416D01*
X140855302Y-108984019D01*
X140853743Y-108979218D01*
X140854675Y-108978914D01*
X140849079Y-108933362D01*
X140877091Y-108890219D01*
X140926282Y-108875175D01*
X140934102Y-108875996D01*
X141030000Y-108891185D01*
X141030001Y-108891185D01*
X141050615Y-108887919D01*
X141160153Y-108870571D01*
X141277566Y-108810746D01*
X141370746Y-108717566D01*
X141430571Y-108600153D01*
X141451185Y-108470000D01*
X141449423Y-108458878D01*
X141439306Y-108394999D01*
X141430571Y-108339847D01*
X141370746Y-108222434D01*
X141370745Y-108222433D01*
X141370744Y-108222431D01*
X141277568Y-108129255D01*
X141160153Y-108069429D01*
X141160155Y-108069429D01*
X141030001Y-108048815D01*
X141029999Y-108048815D01*
X140899845Y-108069429D01*
X140782431Y-108129255D01*
X140689255Y-108222431D01*
X140629429Y-108339845D01*
X140608815Y-108469999D01*
X140608815Y-108470000D01*
X140629429Y-108600155D01*
X140629649Y-108600586D01*
X140629697Y-108600979D01*
X140631259Y-108605787D01*
X140630324Y-108606090D01*
X140635919Y-108651642D01*
X140607904Y-108694784D01*
X140558712Y-108709824D01*
X140550883Y-108709001D01*
X140487737Y-108699000D01*
X139672269Y-108699000D01*
X139672257Y-108699001D01*
X139609116Y-108709001D01*
X139558622Y-108699185D01*
X139526250Y-108659208D01*
X139527149Y-108607776D01*
X139530351Y-108600586D01*
X139530570Y-108600155D01*
X139530570Y-108600154D01*
X139530571Y-108600153D01*
X139551185Y-108470000D01*
X139549423Y-108458878D01*
X139539306Y-108394999D01*
X139530571Y-108339847D01*
X139470746Y-108222434D01*
X139470745Y-108222433D01*
X139470744Y-108222431D01*
X139377568Y-108129255D01*
X139260153Y-108069429D01*
X139260155Y-108069429D01*
X139130001Y-108048815D01*
X139129999Y-108048815D01*
X138999845Y-108069429D01*
X138882431Y-108129255D01*
X138789255Y-108222431D01*
X138729429Y-108339845D01*
X138708815Y-108469999D01*
X138708815Y-108470000D01*
X138729429Y-108600154D01*
X138789255Y-108717568D01*
X138882431Y-108810744D01*
X138882433Y-108810745D01*
X138882434Y-108810746D01*
X138941312Y-108840746D01*
X138972812Y-108856796D01*
X139007894Y-108894417D01*
X139010586Y-108945787D01*
X138979629Y-108986868D01*
X138938672Y-108999000D01*
X138936534Y-108999000D01*
X138933256Y-108998857D01*
X138927348Y-108998340D01*
X138889822Y-108995057D01*
X138889821Y-108995057D01*
X138889819Y-108995057D01*
X138847702Y-109006341D01*
X138844500Y-109007051D01*
X138801573Y-109014621D01*
X138796949Y-109017291D01*
X138778821Y-109024799D01*
X138775681Y-109025641D01*
X138773663Y-109026182D01*
X138773659Y-109026184D01*
X138737950Y-109051186D01*
X138735185Y-109052948D01*
X138697426Y-109074750D01*
X138669397Y-109108154D01*
X138667180Y-109110573D01*
X138270566Y-109507185D01*
X138268148Y-109509402D01*
X138234750Y-109537426D01*
X138234747Y-109537429D01*
X138221538Y-109560307D01*
X138182132Y-109593370D01*
X138130692Y-109593368D01*
X138091288Y-109560301D01*
X138082358Y-109509642D01*
X138082661Y-109508028D01*
X138083500Y-109503811D01*
X138083500Y-108476187D01*
X138076332Y-108440153D01*
X138072418Y-108420475D01*
X138043672Y-108377454D01*
X138031000Y-108335677D01*
X138031000Y-108111181D01*
X138048593Y-108062843D01*
X138053015Y-108058017D01*
X138086163Y-108024870D01*
X138134749Y-107920677D01*
X138141000Y-107873198D01*
X138141000Y-107426802D01*
X138134749Y-107379323D01*
X138102076Y-107309255D01*
X138086165Y-107275133D01*
X138086159Y-107275125D01*
X138004874Y-107193840D01*
X138004866Y-107193834D01*
X137995609Y-107189518D01*
X137959236Y-107153145D01*
X137953635Y-107136035D01*
X137947972Y-107107566D01*
X137931697Y-107025743D01*
X137898583Y-106976185D01*
X137872641Y-106937359D01*
X137872639Y-106937358D01*
X137872639Y-106937357D01*
X137856482Y-106926561D01*
X137845087Y-106917209D01*
X137642788Y-106714910D01*
X137633435Y-106703513D01*
X137622642Y-106687360D01*
X137619340Y-106685154D01*
X137574587Y-106655251D01*
X137534257Y-106628303D01*
X137534256Y-106628302D01*
X137534255Y-106628302D01*
X137430000Y-106607564D01*
X137410942Y-106611355D01*
X137396271Y-106612800D01*
X132803725Y-106612800D01*
X132789054Y-106611355D01*
X132770000Y-106607565D01*
X132665743Y-106628302D01*
X132655778Y-106634962D01*
X132648283Y-106639970D01*
X132634197Y-106649382D01*
X132577357Y-106687359D01*
X132566558Y-106703521D01*
X132557208Y-106714913D01*
X132547039Y-106725082D01*
X132500419Y-106746822D01*
X132450732Y-106733508D01*
X132421227Y-106691371D01*
X132424089Y-106647729D01*
X132424052Y-106647722D01*
X132424107Y-106647440D01*
X132424391Y-106643125D01*
X132425492Y-106640463D01*
X132425497Y-106640457D01*
X132446235Y-106536200D01*
X132442445Y-106517146D01*
X132441000Y-106502475D01*
X132441000Y-106297730D01*
X139289000Y-106297730D01*
X139289001Y-106297742D01*
X139304427Y-106395151D01*
X139364255Y-106512568D01*
X139457431Y-106605744D01*
X139457433Y-106605745D01*
X139457434Y-106605746D01*
X139574847Y-106665571D01*
X139641794Y-106676174D01*
X139686783Y-106701111D01*
X139705218Y-106749134D01*
X139704303Y-106762211D01*
X139688815Y-106859999D01*
X139688815Y-106860000D01*
X139709429Y-106990154D01*
X139769255Y-107107568D01*
X139862431Y-107200744D01*
X139862433Y-107200745D01*
X139862434Y-107200746D01*
X139979845Y-107260570D01*
X139979847Y-107260571D01*
X140071770Y-107275130D01*
X140109999Y-107281185D01*
X140110000Y-107281185D01*
X140110001Y-107281185D01*
X140130615Y-107277919D01*
X140240153Y-107260571D01*
X140357566Y-107200746D01*
X140450746Y-107107566D01*
X140510571Y-106990153D01*
X140531185Y-106860000D01*
X140514228Y-106752939D01*
X140524043Y-106702448D01*
X140564019Y-106670075D01*
X140576738Y-106666903D01*
X140585153Y-106665571D01*
X140702566Y-106605746D01*
X140753312Y-106555000D01*
X145503815Y-106555000D01*
X145524429Y-106685154D01*
X145584255Y-106802568D01*
X145677431Y-106895744D01*
X145677433Y-106895745D01*
X145677434Y-106895746D01*
X145794845Y-106955570D01*
X145794847Y-106955571D01*
X145894827Y-106971406D01*
X145924999Y-106976185D01*
X145925000Y-106976185D01*
X145925001Y-106976185D01*
X145945615Y-106972919D01*
X146055153Y-106955571D01*
X146172566Y-106895746D01*
X146265746Y-106802566D01*
X146325571Y-106685153D01*
X146346185Y-106555000D01*
X146325571Y-106424847D01*
X146265746Y-106307434D01*
X146265745Y-106307433D01*
X146265744Y-106307431D01*
X146172568Y-106214255D01*
X146055153Y-106154429D01*
X146055155Y-106154429D01*
X145925001Y-106133815D01*
X145924999Y-106133815D01*
X145794845Y-106154429D01*
X145677431Y-106214255D01*
X145584255Y-106307431D01*
X145524429Y-106424845D01*
X145503815Y-106554999D01*
X145503815Y-106555000D01*
X140753312Y-106555000D01*
X140795746Y-106512566D01*
X140855571Y-106395153D01*
X140871000Y-106297737D01*
X140870999Y-106230858D01*
X140888592Y-106182523D01*
X140933140Y-106156803D01*
X140983798Y-106165734D01*
X140999373Y-106177686D01*
X141052431Y-106230744D01*
X141052433Y-106230745D01*
X141052434Y-106230746D01*
X141169845Y-106290570D01*
X141169847Y-106290571D01*
X141269827Y-106306406D01*
X141299999Y-106311185D01*
X141300000Y-106311185D01*
X141300001Y-106311185D01*
X141324150Y-106307360D01*
X141430153Y-106290571D01*
X141547566Y-106230746D01*
X141640746Y-106137566D01*
X141700571Y-106020153D01*
X141721185Y-105890000D01*
X141718809Y-105875000D01*
X144178815Y-105875000D01*
X144199429Y-106005154D01*
X144259255Y-106122568D01*
X144352431Y-106215744D01*
X144352433Y-106215745D01*
X144352434Y-106215746D01*
X144469845Y-106275570D01*
X144469847Y-106275571D01*
X144564548Y-106290570D01*
X144599999Y-106296185D01*
X144600000Y-106296185D01*
X144600001Y-106296185D01*
X144620615Y-106292919D01*
X144730153Y-106275571D01*
X144847566Y-106215746D01*
X144940746Y-106122566D01*
X145000571Y-106005153D01*
X145021185Y-105875000D01*
X145000571Y-105744847D01*
X144940746Y-105627434D01*
X144940745Y-105627433D01*
X144940744Y-105627431D01*
X144847568Y-105534255D01*
X144730153Y-105474429D01*
X144730155Y-105474429D01*
X144600001Y-105453815D01*
X144599999Y-105453815D01*
X144469845Y-105474429D01*
X144352431Y-105534255D01*
X144259255Y-105627431D01*
X144199429Y-105744845D01*
X144178815Y-105874999D01*
X144178815Y-105875000D01*
X141718809Y-105875000D01*
X141700571Y-105759847D01*
X141640746Y-105642434D01*
X141640745Y-105642433D01*
X141640744Y-105642431D01*
X141547568Y-105549255D01*
X141430153Y-105489429D01*
X141430155Y-105489429D01*
X141300001Y-105468815D01*
X141299999Y-105468815D01*
X141169845Y-105489429D01*
X141052431Y-105549255D01*
X140959255Y-105642431D01*
X140957735Y-105644524D01*
X140955978Y-105645708D01*
X140955069Y-105646618D01*
X140954892Y-105646441D01*
X140915087Y-105673286D01*
X140863930Y-105667905D01*
X140829896Y-105634458D01*
X140826317Y-105627434D01*
X140795746Y-105567434D01*
X140795745Y-105567433D01*
X140795744Y-105567431D01*
X140702568Y-105474255D01*
X140585153Y-105414429D01*
X140585155Y-105414429D01*
X140536445Y-105406714D01*
X140487737Y-105399000D01*
X140487735Y-105399000D01*
X139672269Y-105399000D01*
X139672257Y-105399001D01*
X139574848Y-105414427D01*
X139457431Y-105474255D01*
X139364255Y-105567431D01*
X139304429Y-105684845D01*
X139289000Y-105782261D01*
X139289000Y-106297730D01*
X132441000Y-106297730D01*
X132441000Y-103328026D01*
X132458593Y-103279688D01*
X132463026Y-103274852D01*
X132618652Y-103119226D01*
X132665272Y-103097486D01*
X132671826Y-103097200D01*
X134028174Y-103097200D01*
X134076512Y-103114793D01*
X134081348Y-103119226D01*
X134100774Y-103138652D01*
X134122514Y-103185272D01*
X134122800Y-103191826D01*
X134122800Y-103297739D01*
X134105207Y-103346077D01*
X134100774Y-103350913D01*
X134049255Y-103402431D01*
X133989429Y-103519845D01*
X133968815Y-103649999D01*
X133968815Y-103650000D01*
X133989429Y-103780154D01*
X134049255Y-103897568D01*
X134142431Y-103990744D01*
X134142430Y-103990744D01*
X134142434Y-103990746D01*
X134155652Y-103997480D01*
X134184037Y-104022704D01*
X134197359Y-104042642D01*
X134213510Y-104053433D01*
X134224907Y-104062785D01*
X134575509Y-104413386D01*
X134584861Y-104424782D01*
X134595657Y-104440940D01*
X134620540Y-104457566D01*
X134659857Y-104483836D01*
X134684043Y-104499997D01*
X134788300Y-104520735D01*
X134807354Y-104516945D01*
X134822025Y-104515500D01*
X139080785Y-104515500D01*
X139129123Y-104533093D01*
X139147788Y-104556559D01*
X139183456Y-104626560D01*
X139199255Y-104657568D01*
X139292431Y-104750744D01*
X139292433Y-104750745D01*
X139292434Y-104750746D01*
X139409845Y-104810570D01*
X139409847Y-104810571D01*
X139509827Y-104826406D01*
X139539999Y-104831185D01*
X139540000Y-104831185D01*
X139540001Y-104831185D01*
X139560615Y-104827919D01*
X139670153Y-104810571D01*
X139787566Y-104750746D01*
X139880746Y-104657566D01*
X139940571Y-104540153D01*
X139961185Y-104410000D01*
X139940571Y-104279847D01*
X139904982Y-104210000D01*
X144178815Y-104210000D01*
X144199429Y-104340154D01*
X144259255Y-104457568D01*
X144352431Y-104550744D01*
X144352433Y-104550745D01*
X144352434Y-104550746D01*
X144469845Y-104610570D01*
X144469847Y-104610571D01*
X144569827Y-104626406D01*
X144599999Y-104631185D01*
X144600000Y-104631185D01*
X144600001Y-104631185D01*
X144629201Y-104626560D01*
X144730153Y-104610571D01*
X144847566Y-104550746D01*
X144940746Y-104457566D01*
X145000571Y-104340153D01*
X145021185Y-104210000D01*
X145000571Y-104079847D01*
X144940746Y-103962434D01*
X144940745Y-103962433D01*
X144940744Y-103962431D01*
X144847568Y-103869255D01*
X144730153Y-103809429D01*
X144730155Y-103809429D01*
X144600001Y-103788815D01*
X144599999Y-103788815D01*
X144469845Y-103809429D01*
X144352431Y-103869255D01*
X144259255Y-103962431D01*
X144199429Y-104079845D01*
X144178815Y-104209999D01*
X144178815Y-104210000D01*
X139904982Y-104210000D01*
X139880746Y-104162434D01*
X139880745Y-104162433D01*
X139880744Y-104162431D01*
X139787568Y-104069255D01*
X139670153Y-104009429D01*
X139670155Y-104009429D01*
X139540001Y-103988815D01*
X139540000Y-103988815D01*
X139523737Y-103991390D01*
X139499484Y-103995231D01*
X139473052Y-103994711D01*
X139378301Y-103975864D01*
X139378300Y-103975864D01*
X139359242Y-103979655D01*
X139344571Y-103981100D01*
X134930125Y-103981100D01*
X134881787Y-103963507D01*
X134876951Y-103959074D01*
X134797967Y-103880090D01*
X134776227Y-103833470D01*
X134784139Y-103792776D01*
X134790571Y-103780153D01*
X134811185Y-103650000D01*
X134790571Y-103519847D01*
X134730746Y-103402434D01*
X134730745Y-103402433D01*
X134730744Y-103402431D01*
X134679226Y-103350913D01*
X134657486Y-103304293D01*
X134657200Y-103297739D01*
X134657200Y-103083728D01*
X134658645Y-103069056D01*
X134662436Y-103050000D01*
X134641697Y-102945743D01*
X134597549Y-102879671D01*
X134582641Y-102857359D01*
X134582639Y-102857358D01*
X134582639Y-102857357D01*
X134566482Y-102846561D01*
X134555087Y-102837209D01*
X134417878Y-102700000D01*
X135278815Y-102700000D01*
X135299429Y-102830154D01*
X135359255Y-102947568D01*
X135452431Y-103040744D01*
X135452433Y-103040745D01*
X135452434Y-103040746D01*
X135569845Y-103100570D01*
X135569847Y-103100571D01*
X135659642Y-103114793D01*
X135699999Y-103121185D01*
X135700000Y-103121185D01*
X135700001Y-103121185D01*
X135720615Y-103117919D01*
X135830153Y-103100571D01*
X135947566Y-103040746D01*
X136040746Y-102947566D01*
X136100571Y-102830153D01*
X136121185Y-102700000D01*
X136100571Y-102569847D01*
X136040746Y-102452434D01*
X136040745Y-102452433D01*
X136040744Y-102452431D01*
X135947568Y-102359255D01*
X135830153Y-102299429D01*
X135830155Y-102299429D01*
X135700001Y-102278815D01*
X135699999Y-102278815D01*
X135569845Y-102299429D01*
X135452431Y-102359255D01*
X135359255Y-102452431D01*
X135299429Y-102569845D01*
X135278815Y-102699999D01*
X135278815Y-102700000D01*
X134417878Y-102700000D01*
X134382788Y-102664910D01*
X134373435Y-102653513D01*
X134362642Y-102637360D01*
X134350859Y-102629487D01*
X134314948Y-102605492D01*
X134274257Y-102578303D01*
X134274255Y-102578302D01*
X134170000Y-102557564D01*
X134150942Y-102561355D01*
X134136271Y-102562800D01*
X134121473Y-102562800D01*
X134073135Y-102545207D01*
X134047415Y-102500658D01*
X134056348Y-102450000D01*
X134058931Y-102445844D01*
X134064551Y-102437434D01*
X134076697Y-102419257D01*
X134097435Y-102315000D01*
X134093645Y-102295946D01*
X134092200Y-102281275D01*
X134092200Y-102187260D01*
X134109793Y-102138922D01*
X134114215Y-102134096D01*
X134150746Y-102097566D01*
X134210571Y-101980153D01*
X134231185Y-101850000D01*
X134210571Y-101719847D01*
X134150746Y-101602434D01*
X134150745Y-101602433D01*
X134150744Y-101602431D01*
X134057568Y-101509255D01*
X133940153Y-101449429D01*
X133940155Y-101449429D01*
X133810001Y-101428815D01*
X133809999Y-101428815D01*
X133679845Y-101449429D01*
X133562431Y-101509255D01*
X133469255Y-101602431D01*
X133409429Y-101719845D01*
X133388815Y-101849999D01*
X133388815Y-101850000D01*
X133409429Y-101980155D01*
X133409429Y-101980156D01*
X133457562Y-102074619D01*
X133465907Y-102090998D01*
X133471034Y-102101059D01*
X133477304Y-102152116D01*
X133449288Y-102195257D01*
X133404031Y-102210400D01*
X132149090Y-102210400D01*
X132100752Y-102192807D01*
X132075032Y-102148258D01*
X132083965Y-102097600D01*
X132088252Y-102090998D01*
X132090740Y-102087571D01*
X132090746Y-102087566D01*
X132150571Y-101970153D01*
X132171185Y-101840000D01*
X132150571Y-101709847D01*
X132090746Y-101592434D01*
X132090745Y-101592433D01*
X132090744Y-101592431D01*
X131997568Y-101499255D01*
X131880153Y-101439429D01*
X131880155Y-101439429D01*
X131750001Y-101418815D01*
X131749999Y-101418815D01*
X131619845Y-101439429D01*
X131515340Y-101492678D01*
X131464284Y-101498947D01*
X131421143Y-101470931D01*
X131406000Y-101425674D01*
X131406000Y-100125425D01*
X131423593Y-100077087D01*
X131468142Y-100051367D01*
X131518800Y-100060300D01*
X131534370Y-100072247D01*
X132127207Y-100665084D01*
X132136559Y-100676479D01*
X132147357Y-100692640D01*
X132185872Y-100718374D01*
X132211557Y-100735536D01*
X132235743Y-100751697D01*
X132340000Y-100772435D01*
X132359054Y-100768645D01*
X132373725Y-100767200D01*
X140301943Y-100767200D01*
X140350281Y-100784793D01*
X140376001Y-100829342D01*
X140368947Y-100876540D01*
X140349429Y-100914845D01*
X140328815Y-101044999D01*
X140328815Y-101045000D01*
X140349429Y-101175154D01*
X140402851Y-101279999D01*
X140409254Y-101292566D01*
X140502434Y-101385746D01*
X140551740Y-101410868D01*
X140586822Y-101448489D01*
X140592800Y-101477872D01*
X140592800Y-102406039D01*
X140575207Y-102454377D01*
X140570774Y-102459213D01*
X140519255Y-102510731D01*
X140459429Y-102628145D01*
X140438815Y-102758299D01*
X140438815Y-102758300D01*
X140459429Y-102888454D01*
X140519255Y-103005868D01*
X140612431Y-103099044D01*
X140612433Y-103099045D01*
X140612434Y-103099046D01*
X140729845Y-103158870D01*
X140729847Y-103158871D01*
X140829827Y-103174706D01*
X140859999Y-103179485D01*
X140860000Y-103179485D01*
X140860001Y-103179485D01*
X140880615Y-103176219D01*
X140990153Y-103158871D01*
X141107566Y-103099046D01*
X141200746Y-103005866D01*
X141260571Y-102888453D01*
X141281185Y-102758300D01*
X141260571Y-102628147D01*
X141200746Y-102510734D01*
X141200745Y-102510733D01*
X141200744Y-102510731D01*
X141149226Y-102459213D01*
X141127486Y-102412593D01*
X141127200Y-102406039D01*
X141127200Y-101239075D01*
X141135397Y-101204934D01*
X141150570Y-101175155D01*
X141150570Y-101175154D01*
X141150571Y-101175153D01*
X141171185Y-101045000D01*
X141150571Y-100914847D01*
X141131053Y-100876540D01*
X141124784Y-100825484D01*
X141152801Y-100782343D01*
X141198057Y-100767200D01*
X145328174Y-100767200D01*
X145376512Y-100784793D01*
X145381348Y-100789226D01*
X145960774Y-101368652D01*
X145982514Y-101415272D01*
X145982800Y-101421826D01*
X145982800Y-102227739D01*
X145965207Y-102276077D01*
X145960774Y-102280913D01*
X145909255Y-102332431D01*
X145849429Y-102449845D01*
X145828815Y-102579999D01*
X145828815Y-102580000D01*
X145849429Y-102710154D01*
X145909255Y-102827568D01*
X146002431Y-102920744D01*
X146002433Y-102920745D01*
X146002434Y-102920746D01*
X146119845Y-102980570D01*
X146119847Y-102980571D01*
X146201851Y-102993559D01*
X146249999Y-103001185D01*
X146250000Y-103001185D01*
X146250001Y-103001185D01*
X146270615Y-102997919D01*
X146380153Y-102980571D01*
X146497566Y-102920746D01*
X146590746Y-102827566D01*
X146650571Y-102710153D01*
X146671185Y-102580000D01*
X146670240Y-102574036D01*
X146664968Y-102540746D01*
X146650571Y-102449847D01*
X146590746Y-102332434D01*
X146590745Y-102332433D01*
X146590744Y-102332431D01*
X146539226Y-102280913D01*
X146517486Y-102234293D01*
X146517200Y-102227739D01*
X146517200Y-101313728D01*
X146518645Y-101299056D01*
X146519936Y-101292566D01*
X146522436Y-101280000D01*
X146501697Y-101175744D01*
X146493224Y-101163063D01*
X146442641Y-101087359D01*
X146442640Y-101087357D01*
X146426482Y-101076561D01*
X146415087Y-101067209D01*
X145682788Y-100334910D01*
X145673435Y-100323513D01*
X145662642Y-100307360D01*
X145656769Y-100303436D01*
X145607221Y-100270329D01*
X145574257Y-100248303D01*
X145574255Y-100248302D01*
X145470000Y-100227564D01*
X145450942Y-100231355D01*
X145436271Y-100232800D01*
X132481825Y-100232800D01*
X132433487Y-100215207D01*
X132428651Y-100210774D01*
X131949226Y-99731348D01*
X131927486Y-99684728D01*
X131927200Y-99678174D01*
X131927200Y-99100000D01*
X138853815Y-99100000D01*
X138874429Y-99230154D01*
X138934255Y-99347568D01*
X139027431Y-99440744D01*
X139027433Y-99440745D01*
X139027434Y-99440746D01*
X139144845Y-99500570D01*
X139144847Y-99500571D01*
X139244827Y-99516406D01*
X139274999Y-99521185D01*
X139275000Y-99521185D01*
X139275001Y-99521185D01*
X139295615Y-99517919D01*
X139405153Y-99500571D01*
X139522566Y-99440746D01*
X139615746Y-99347566D01*
X139675571Y-99230153D01*
X139696185Y-99100000D01*
X139675571Y-98969847D01*
X139615746Y-98852434D01*
X139615745Y-98852433D01*
X139615744Y-98852431D01*
X139522568Y-98759255D01*
X139405153Y-98699429D01*
X139405155Y-98699429D01*
X139275001Y-98678815D01*
X139274999Y-98678815D01*
X139144845Y-98699429D01*
X139027431Y-98759255D01*
X138934255Y-98852431D01*
X138874429Y-98969845D01*
X138853815Y-99099999D01*
X138853815Y-99100000D01*
X131927200Y-99100000D01*
X131927200Y-96820000D01*
X136128815Y-96820000D01*
X136149429Y-96950154D01*
X136209255Y-97067568D01*
X136302431Y-97160744D01*
X136302433Y-97160745D01*
X136302434Y-97160746D01*
X136419845Y-97220570D01*
X136419847Y-97220571D01*
X136519827Y-97236406D01*
X136549999Y-97241185D01*
X136550000Y-97241185D01*
X136550001Y-97241185D01*
X136570615Y-97237919D01*
X136680153Y-97220571D01*
X136797566Y-97160746D01*
X136890746Y-97067566D01*
X136950571Y-96950153D01*
X136971185Y-96820000D01*
X136950571Y-96689847D01*
X136890746Y-96572434D01*
X136890745Y-96572433D01*
X136890744Y-96572431D01*
X136797568Y-96479255D01*
X136680153Y-96419429D01*
X136680155Y-96419429D01*
X136550001Y-96398815D01*
X136549999Y-96398815D01*
X136419845Y-96419429D01*
X136302431Y-96479255D01*
X136209255Y-96572431D01*
X136149429Y-96689845D01*
X136128815Y-96819999D01*
X136128815Y-96820000D01*
X131927200Y-96820000D01*
X131927200Y-95471293D01*
X131944793Y-95422955D01*
X131989342Y-95397235D01*
X132040000Y-95406168D01*
X132072712Y-95444626D01*
X132083656Y-95473482D01*
X132083657Y-95473484D01*
X132083659Y-95473487D01*
X132178976Y-95611578D01*
X132178978Y-95611580D01*
X132178980Y-95611583D01*
X132178983Y-95611585D01*
X132178988Y-95611591D01*
X132304580Y-95722855D01*
X132304582Y-95722856D01*
X132304584Y-95722858D01*
X132453168Y-95800841D01*
X132616097Y-95841000D01*
X132616100Y-95841000D01*
X132783900Y-95841000D01*
X132783903Y-95841000D01*
X132946832Y-95800841D01*
X133095416Y-95722858D01*
X133221020Y-95611583D01*
X133316344Y-95473482D01*
X133375848Y-95316582D01*
X133396075Y-95150000D01*
X133375848Y-94983418D01*
X133327287Y-94855373D01*
X133316345Y-94826520D01*
X133316340Y-94826512D01*
X133221023Y-94688421D01*
X133221022Y-94688419D01*
X133221020Y-94688417D01*
X133221016Y-94688413D01*
X133221011Y-94688408D01*
X133095422Y-94577147D01*
X133095420Y-94577145D01*
X133095416Y-94577142D01*
X133095410Y-94577139D01*
X133095051Y-94576891D01*
X133094911Y-94576694D01*
X133092012Y-94574126D01*
X133092608Y-94573452D01*
X133065262Y-94534954D01*
X133069398Y-94483681D01*
X133092381Y-94456290D01*
X133092012Y-94455874D01*
X133094813Y-94453392D01*
X133095051Y-94453109D01*
X133095405Y-94452863D01*
X133095416Y-94452858D01*
X133221020Y-94341583D01*
X133316344Y-94203482D01*
X133375848Y-94046582D01*
X133396075Y-93880000D01*
X133375848Y-93713418D01*
X133316344Y-93556518D01*
X133253917Y-93466077D01*
X133221023Y-93418421D01*
X133221022Y-93418419D01*
X133221020Y-93418417D01*
X133221016Y-93418413D01*
X133221011Y-93418408D01*
X133095419Y-93307144D01*
X133095413Y-93307140D01*
X132946835Y-93229160D01*
X132946832Y-93229159D01*
X132783903Y-93189000D01*
X132616097Y-93189000D01*
X132472910Y-93224293D01*
X132453164Y-93229160D01*
X132304586Y-93307140D01*
X132304580Y-93307144D01*
X132178988Y-93418408D01*
X132178976Y-93418421D01*
X132083659Y-93556512D01*
X132083655Y-93556519D01*
X132081868Y-93561232D01*
X132048273Y-93600186D01*
X132026229Y-93608314D01*
X131925743Y-93628303D01*
X131925739Y-93628304D01*
X131872253Y-93664042D01*
X131837359Y-93687359D01*
X131837355Y-93687362D01*
X131826560Y-93703518D01*
X131817211Y-93714910D01*
X131534373Y-93997747D01*
X131487754Y-94019487D01*
X131438067Y-94006173D01*
X131408562Y-93964036D01*
X131406000Y-93944573D01*
X131406000Y-92213026D01*
X131423593Y-92164688D01*
X131428026Y-92159852D01*
X131998652Y-91589226D01*
X132045272Y-91567486D01*
X132051826Y-91567200D01*
X133726271Y-91567200D01*
X133740942Y-91568645D01*
X133760000Y-91572436D01*
X133864257Y-91551697D01*
X133930329Y-91507549D01*
X133949559Y-91494700D01*
X133952641Y-91492641D01*
X133952642Y-91492639D01*
X133953027Y-91492382D01*
X133953943Y-91490692D01*
X133957801Y-91484918D01*
X133963437Y-91476481D01*
X133972779Y-91465097D01*
X134388653Y-91049224D01*
X134435272Y-91027486D01*
X134441826Y-91027200D01*
X138247740Y-91027200D01*
X138296078Y-91044793D01*
X138300903Y-91049215D01*
X138352434Y-91100746D01*
X138469845Y-91160570D01*
X138469847Y-91160571D01*
X138569827Y-91176406D01*
X138599999Y-91181185D01*
X138600000Y-91181185D01*
X138600001Y-91181185D01*
X138620615Y-91177919D01*
X138730153Y-91160571D01*
X138847566Y-91100746D01*
X138940746Y-91007566D01*
X139000571Y-90890153D01*
X139021185Y-90760000D01*
X139000571Y-90629847D01*
X138977882Y-90585317D01*
X138971613Y-90534261D01*
X138999629Y-90491120D01*
X139048822Y-90476080D01*
X139059558Y-90477422D01*
X139061943Y-90477896D01*
X139061944Y-90477897D01*
X139166200Y-90498636D01*
X139185258Y-90494845D01*
X139199929Y-90493400D01*
X141014374Y-90493400D01*
X141062712Y-90510993D01*
X141067548Y-90515426D01*
X141146548Y-90594426D01*
X141168288Y-90641046D01*
X141154974Y-90690733D01*
X141112837Y-90720238D01*
X141093374Y-90722800D01*
X140573729Y-90722800D01*
X140559058Y-90721355D01*
X140540000Y-90717564D01*
X140435744Y-90738302D01*
X140435742Y-90738303D01*
X140388305Y-90770000D01*
X140347358Y-90797358D01*
X140336560Y-90813518D01*
X140327210Y-90824910D01*
X139934910Y-91217210D01*
X139923518Y-91226560D01*
X139907362Y-91237355D01*
X139907359Y-91237359D01*
X139892450Y-91259671D01*
X139848302Y-91325744D01*
X139833408Y-91400621D01*
X139827564Y-91430000D01*
X139829593Y-91440202D01*
X139831355Y-91449056D01*
X139832800Y-91463728D01*
X139832800Y-93217739D01*
X139815207Y-93266077D01*
X139810774Y-93270913D01*
X139759255Y-93322431D01*
X139759253Y-93322433D01*
X139730528Y-93378809D01*
X139692907Y-93413890D01*
X139641537Y-93416582D01*
X139610351Y-93397842D01*
X138187419Y-91974910D01*
X138178066Y-91963513D01*
X138167273Y-91947359D01*
X138097697Y-91900871D01*
X138078887Y-91888302D01*
X137974631Y-91867564D01*
X137955573Y-91871355D01*
X137940902Y-91872800D01*
X135813729Y-91872800D01*
X135799058Y-91871355D01*
X135780000Y-91867564D01*
X135675745Y-91888302D01*
X135675743Y-91888303D01*
X135587357Y-91947359D01*
X135576560Y-91963518D01*
X135567210Y-91974910D01*
X135361337Y-92180783D01*
X135314717Y-92202523D01*
X135265030Y-92189209D01*
X135241159Y-92161749D01*
X135233835Y-92147375D01*
X135200746Y-92082434D01*
X135200745Y-92082433D01*
X135200744Y-92082431D01*
X135107568Y-91989255D01*
X134990153Y-91929429D01*
X134990155Y-91929429D01*
X134860001Y-91908815D01*
X134859999Y-91908815D01*
X134729845Y-91929429D01*
X134612431Y-91989255D01*
X134519255Y-92082431D01*
X134459429Y-92199845D01*
X134438815Y-92329999D01*
X134438815Y-92330000D01*
X134459429Y-92460154D01*
X134519255Y-92577568D01*
X134612431Y-92670744D01*
X134612433Y-92670745D01*
X134612434Y-92670746D01*
X134646523Y-92688115D01*
X134691749Y-92711159D01*
X134726831Y-92748780D01*
X134729523Y-92800150D01*
X134710783Y-92831337D01*
X134614478Y-92927642D01*
X134567858Y-92949382D01*
X134551630Y-92948815D01*
X134549999Y-92948815D01*
X134419845Y-92969429D01*
X134302431Y-93029255D01*
X134209255Y-93122431D01*
X134149429Y-93239845D01*
X134128815Y-93369999D01*
X134128815Y-93370000D01*
X134149429Y-93500154D01*
X134209255Y-93617568D01*
X134302431Y-93710744D01*
X134302433Y-93710745D01*
X134302434Y-93710746D01*
X134419845Y-93770570D01*
X134419847Y-93770571D01*
X134506132Y-93784237D01*
X134549999Y-93791185D01*
X134550000Y-93791185D01*
X134655837Y-93774422D01*
X134706331Y-93784237D01*
X134738703Y-93824213D01*
X134742800Y-93848696D01*
X134742800Y-95317739D01*
X134725207Y-95366077D01*
X134720774Y-95370913D01*
X134669255Y-95422431D01*
X134609429Y-95539845D01*
X134588815Y-95669999D01*
X134588815Y-95670000D01*
X134609429Y-95800154D01*
X134669255Y-95917568D01*
X134762431Y-96010744D01*
X134762433Y-96010745D01*
X134762434Y-96010746D01*
X134879845Y-96070570D01*
X134879847Y-96070571D01*
X134979827Y-96086406D01*
X135009999Y-96091185D01*
X135010000Y-96091185D01*
X135010001Y-96091185D01*
X135030615Y-96087919D01*
X135140153Y-96070571D01*
X135257566Y-96010746D01*
X135350746Y-95917566D01*
X135410571Y-95800153D01*
X135431185Y-95670000D01*
X135410571Y-95539847D01*
X135350746Y-95422434D01*
X135350745Y-95422433D01*
X135350744Y-95422431D01*
X135299226Y-95370913D01*
X135277486Y-95324293D01*
X135277200Y-95317739D01*
X135277200Y-93701826D01*
X135294793Y-93653488D01*
X135299226Y-93648652D01*
X136158652Y-92789226D01*
X136205272Y-92767486D01*
X136211826Y-92767200D01*
X137698174Y-92767200D01*
X137746512Y-92784793D01*
X137751348Y-92789226D01*
X140116789Y-95154667D01*
X140138529Y-95201287D01*
X140138815Y-95207841D01*
X140138815Y-95210001D01*
X140159429Y-95340154D01*
X140219255Y-95457568D01*
X140312431Y-95550744D01*
X140312433Y-95550745D01*
X140312434Y-95550746D01*
X140429845Y-95610570D01*
X140429847Y-95610571D01*
X140529827Y-95626406D01*
X140559999Y-95631185D01*
X140560000Y-95631185D01*
X140560001Y-95631185D01*
X140580615Y-95627919D01*
X140690153Y-95610571D01*
X140807566Y-95550746D01*
X140900746Y-95457566D01*
X140960571Y-95340153D01*
X140981185Y-95210000D01*
X140973134Y-95159170D01*
X140982949Y-95108678D01*
X141022924Y-95076305D01*
X141059169Y-95073134D01*
X141110000Y-95081185D01*
X141240153Y-95060571D01*
X141357566Y-95000746D01*
X141450746Y-94907566D01*
X141510571Y-94790153D01*
X141531185Y-94660000D01*
X141510571Y-94529847D01*
X141450746Y-94412434D01*
X141450745Y-94412433D01*
X141450744Y-94412431D01*
X141420177Y-94381864D01*
X141398437Y-94335244D01*
X141398151Y-94328690D01*
X141398151Y-93461560D01*
X141415744Y-93413222D01*
X141420166Y-93408396D01*
X141471697Y-93356866D01*
X141531522Y-93239453D01*
X141552136Y-93109300D01*
X141531522Y-92979147D01*
X141471697Y-92861734D01*
X141471696Y-92861733D01*
X141471695Y-92861731D01*
X141378519Y-92768555D01*
X141261104Y-92708729D01*
X141261106Y-92708729D01*
X141130952Y-92688115D01*
X141130950Y-92688115D01*
X141000796Y-92708729D01*
X140883382Y-92768555D01*
X140790206Y-92861731D01*
X140730380Y-92979145D01*
X140709766Y-93109299D01*
X140709766Y-93109300D01*
X140730380Y-93239454D01*
X140764868Y-93307140D01*
X140790205Y-93356866D01*
X140841725Y-93408386D01*
X140863465Y-93455005D01*
X140863751Y-93461560D01*
X140863751Y-93686944D01*
X140846158Y-93735282D01*
X140801609Y-93761002D01*
X140754411Y-93753948D01*
X140668410Y-93710129D01*
X140668412Y-93710129D01*
X140577410Y-93695716D01*
X140532420Y-93670777D01*
X140513985Y-93622754D01*
X140514899Y-93609684D01*
X140521185Y-93570000D01*
X140500571Y-93439847D01*
X140440746Y-93322434D01*
X140440745Y-93322433D01*
X140440744Y-93322431D01*
X140389226Y-93270913D01*
X140367486Y-93224293D01*
X140367200Y-93217739D01*
X140367200Y-91571826D01*
X140384793Y-91523488D01*
X140389226Y-91518652D01*
X140628652Y-91279226D01*
X140675272Y-91257486D01*
X140681826Y-91257200D01*
X141118174Y-91257200D01*
X141166512Y-91274793D01*
X141171348Y-91279226D01*
X141466596Y-91574474D01*
X141488336Y-91621094D01*
X141475022Y-91670781D01*
X141432885Y-91700286D01*
X141381641Y-91695802D01*
X141379282Y-91694652D01*
X141310153Y-91659429D01*
X141310155Y-91659429D01*
X141180001Y-91638815D01*
X141179999Y-91638815D01*
X141049845Y-91659429D01*
X140932431Y-91719255D01*
X140839255Y-91812431D01*
X140779429Y-91929845D01*
X140758815Y-92059999D01*
X140758815Y-92060000D01*
X140779429Y-92190154D01*
X140839255Y-92307568D01*
X140932431Y-92400744D01*
X140932433Y-92400745D01*
X140932434Y-92400746D01*
X141049845Y-92460570D01*
X141049847Y-92460571D01*
X141149827Y-92476406D01*
X141179999Y-92481185D01*
X141180000Y-92481185D01*
X141180001Y-92481185D01*
X141200615Y-92477919D01*
X141310153Y-92460571D01*
X141427566Y-92400746D01*
X141520746Y-92307566D01*
X141580571Y-92190153D01*
X141601185Y-92060000D01*
X141598435Y-92042640D01*
X141596406Y-92029827D01*
X141580571Y-91929847D01*
X141580570Y-91929845D01*
X141580570Y-91929844D01*
X141580570Y-91929843D01*
X141545348Y-91860718D01*
X141539078Y-91809661D01*
X141567094Y-91766520D01*
X141616286Y-91751480D01*
X141663637Y-91771579D01*
X141665525Y-91773403D01*
X142597209Y-92705087D01*
X142606561Y-92716482D01*
X142617357Y-92732639D01*
X142617358Y-92732639D01*
X142617359Y-92732641D01*
X142639671Y-92747549D01*
X142705743Y-92791697D01*
X142810000Y-92812435D01*
X142829054Y-92808645D01*
X142843725Y-92807200D01*
X144137740Y-92807200D01*
X144186078Y-92824793D01*
X144190903Y-92829215D01*
X144242434Y-92880746D01*
X144359847Y-92940571D01*
X144422356Y-92950471D01*
X144467347Y-92975409D01*
X144485782Y-93023432D01*
X144469035Y-93072070D01*
X144463768Y-93077919D01*
X144379254Y-93162433D01*
X144319429Y-93279845D01*
X144298815Y-93409999D01*
X144298815Y-93410000D01*
X144319429Y-93540154D01*
X144379255Y-93657568D01*
X144472431Y-93750744D01*
X144472433Y-93750745D01*
X144472434Y-93750746D01*
X144589845Y-93810570D01*
X144589847Y-93810571D01*
X144689827Y-93826406D01*
X144719999Y-93831185D01*
X144720000Y-93831185D01*
X144720001Y-93831185D01*
X144743582Y-93827450D01*
X144850153Y-93810571D01*
X144967566Y-93750746D01*
X145060746Y-93657566D01*
X145120571Y-93540153D01*
X145141185Y-93410000D01*
X145141185Y-93409999D01*
X145141185Y-93404081D01*
X145142498Y-93404081D01*
X145151068Y-93359969D01*
X145162353Y-93345523D01*
X145305092Y-93202784D01*
X145316481Y-93193437D01*
X145332641Y-93182641D01*
X145391697Y-93094256D01*
X145394220Y-93081572D01*
X145412436Y-92990000D01*
X145408645Y-92970942D01*
X145407200Y-92956271D01*
X145407200Y-92343728D01*
X145408645Y-92329056D01*
X145412436Y-92310000D01*
X145391697Y-92205744D01*
X145351139Y-92145044D01*
X145332641Y-92117359D01*
X145332640Y-92117357D01*
X145316482Y-92106561D01*
X145305087Y-92097209D01*
X145153452Y-91945574D01*
X145131712Y-91898954D01*
X145145026Y-91849267D01*
X145187163Y-91819762D01*
X145206626Y-91817200D01*
X145378174Y-91817200D01*
X145426512Y-91834793D01*
X145431348Y-91839226D01*
X145930074Y-92337952D01*
X145951814Y-92384572D01*
X145952100Y-92391126D01*
X145952100Y-97807739D01*
X145934507Y-97856077D01*
X145930074Y-97860913D01*
X145878555Y-97912431D01*
X145818729Y-98029845D01*
X145798115Y-98159999D01*
X145798115Y-98160000D01*
X145818729Y-98290154D01*
X145878555Y-98407568D01*
X145971731Y-98500744D01*
X145971733Y-98500745D01*
X145971734Y-98500746D01*
X146089145Y-98560570D01*
X146089147Y-98560571D01*
X146189127Y-98576406D01*
X146219299Y-98581185D01*
X146225218Y-98581185D01*
X146225218Y-98583841D01*
X146265511Y-98591651D01*
X146297906Y-98631609D01*
X146301090Y-98644367D01*
X146319429Y-98760154D01*
X146379255Y-98877568D01*
X146472431Y-98970744D01*
X146472433Y-98970745D01*
X146472434Y-98970746D01*
X146589845Y-99030570D01*
X146589847Y-99030571D01*
X146689075Y-99046287D01*
X146719999Y-99051185D01*
X146720000Y-99051185D01*
X146720001Y-99051185D01*
X146750925Y-99046287D01*
X146850153Y-99030571D01*
X146967566Y-98970746D01*
X147060746Y-98877566D01*
X147120571Y-98760153D01*
X147141185Y-98630000D01*
X147120571Y-98499847D01*
X147060746Y-98382434D01*
X147060745Y-98382433D01*
X147060744Y-98382431D01*
X147009226Y-98330913D01*
X146987486Y-98284293D01*
X146987200Y-98277739D01*
X146987200Y-92285355D01*
X146988645Y-92270683D01*
X146992435Y-92251632D01*
X146971697Y-92147375D01*
X146934468Y-92091658D01*
X146912641Y-92058991D01*
X146912639Y-92058990D01*
X146912639Y-92058989D01*
X146896482Y-92048193D01*
X146885087Y-92038841D01*
X145878756Y-91032510D01*
X145869403Y-91021113D01*
X145858610Y-91004960D01*
X145856691Y-91003678D01*
X145803723Y-90968286D01*
X145770225Y-90945903D01*
X145770224Y-90945902D01*
X145770223Y-90945902D01*
X145665968Y-90925164D01*
X145646910Y-90928955D01*
X145632239Y-90930400D01*
X143712400Y-90930400D01*
X143664062Y-90912807D01*
X143638342Y-90868258D01*
X143637200Y-90855200D01*
X143637200Y-89237757D01*
X143654793Y-89189419D01*
X143699342Y-89163699D01*
X143746541Y-89170754D01*
X143778654Y-89187117D01*
X143778655Y-89187117D01*
X143778657Y-89187118D01*
X143878637Y-89202953D01*
X143908809Y-89207732D01*
X143908810Y-89207732D01*
X143908811Y-89207732D01*
X143929425Y-89204466D01*
X144038963Y-89187118D01*
X144156376Y-89127293D01*
X144207896Y-89075772D01*
X144254515Y-89054033D01*
X144261070Y-89053747D01*
X146799724Y-89053747D01*
X146814395Y-89055192D01*
X146833453Y-89058983D01*
X146937710Y-89038244D01*
X147003782Y-88994096D01*
X147003781Y-88994096D01*
X147026094Y-88979188D01*
X147026095Y-88979186D01*
X147026480Y-88978929D01*
X147027396Y-88977239D01*
X147036890Y-88963028D01*
X147046237Y-88951639D01*
X147451648Y-88546228D01*
X147463037Y-88536881D01*
X147479197Y-88526085D01*
X147538253Y-88437700D01*
X147553756Y-88359762D01*
X147553756Y-88359760D01*
X147558991Y-88333444D01*
X147555201Y-88314391D01*
X147553756Y-88299720D01*
X147553756Y-88009942D01*
X147571349Y-87961604D01*
X147575771Y-87956778D01*
X147627302Y-87905248D01*
X147687127Y-87787835D01*
X147707741Y-87657682D01*
X147706799Y-87651737D01*
X147703695Y-87632138D01*
X147687127Y-87527529D01*
X147627302Y-87410116D01*
X147627301Y-87410115D01*
X147627300Y-87410113D01*
X147534122Y-87316935D01*
X147451361Y-87274766D01*
X147416280Y-87237145D01*
X147411228Y-87196002D01*
X147431185Y-87070000D01*
X147410571Y-86939847D01*
X147350746Y-86822434D01*
X147350745Y-86822433D01*
X147350744Y-86822431D01*
X147257568Y-86729255D01*
X147140153Y-86669429D01*
X147140155Y-86669429D01*
X147010001Y-86648815D01*
X147009999Y-86648815D01*
X146879845Y-86669429D01*
X146762431Y-86729255D01*
X146669255Y-86822431D01*
X146609429Y-86939845D01*
X146588815Y-87069999D01*
X146588815Y-87075918D01*
X146587502Y-87075918D01*
X146578927Y-87120036D01*
X146567643Y-87134478D01*
X146351348Y-87350774D01*
X146304727Y-87372514D01*
X146298173Y-87372800D01*
X144852260Y-87372800D01*
X144803922Y-87355207D01*
X144799096Y-87350784D01*
X144747566Y-87299254D01*
X144630153Y-87239429D01*
X144630155Y-87239429D01*
X144500001Y-87218815D01*
X144499999Y-87218815D01*
X144369845Y-87239429D01*
X144252431Y-87299255D01*
X144159255Y-87392431D01*
X144099429Y-87509845D01*
X144078815Y-87639999D01*
X144078815Y-87640003D01*
X144082516Y-87663375D01*
X144072700Y-87713870D01*
X144032723Y-87746241D01*
X143981291Y-87745341D01*
X143974101Y-87742140D01*
X143970155Y-87740129D01*
X143840001Y-87719515D01*
X143839999Y-87719515D01*
X143709845Y-87740129D01*
X143592431Y-87799955D01*
X143499255Y-87893131D01*
X143439429Y-88010545D01*
X143418815Y-88140699D01*
X143418815Y-88146618D01*
X143417502Y-88146618D01*
X143408927Y-88190736D01*
X143397642Y-88205178D01*
X143204910Y-88397910D01*
X143193518Y-88407260D01*
X143177362Y-88418055D01*
X143177359Y-88418059D01*
X143162450Y-88440371D01*
X143118302Y-88506444D01*
X143097564Y-88610699D01*
X143101355Y-88629756D01*
X143102800Y-88644428D01*
X143102800Y-90996271D01*
X143101355Y-91010942D01*
X143097564Y-91029999D01*
X143097564Y-91030000D01*
X143117423Y-91129837D01*
X143109598Y-91180678D01*
X143070924Y-91214595D01*
X143019496Y-91215717D01*
X142990494Y-91197682D01*
X141511019Y-89718207D01*
X141501671Y-89706818D01*
X141490875Y-89690659D01*
X141444990Y-89660000D01*
X141402491Y-89631603D01*
X141402489Y-89631602D01*
X141298234Y-89610864D01*
X141279176Y-89614655D01*
X141264505Y-89616100D01*
X140805126Y-89616100D01*
X140756788Y-89598507D01*
X140751952Y-89594074D01*
X140249226Y-89091348D01*
X140227486Y-89044728D01*
X140227200Y-89038174D01*
X140227200Y-88353723D01*
X140228645Y-88339051D01*
X140232435Y-88320000D01*
X140225211Y-88283682D01*
X140211697Y-88215744D01*
X140211696Y-88215742D01*
X140211695Y-88215740D01*
X140152640Y-88127358D01*
X140136482Y-88116561D01*
X140125087Y-88107209D01*
X139842788Y-87824910D01*
X139833435Y-87813513D01*
X139822641Y-87797358D01*
X139781924Y-87770153D01*
X139734257Y-87738303D01*
X139734255Y-87738302D01*
X139630000Y-87717564D01*
X139610942Y-87721355D01*
X139596271Y-87722800D01*
X139562260Y-87722800D01*
X139513922Y-87705207D01*
X139509096Y-87700784D01*
X139457566Y-87649254D01*
X139340153Y-87589429D01*
X139340155Y-87589429D01*
X139210001Y-87568815D01*
X139209999Y-87568815D01*
X139079845Y-87589429D01*
X138976540Y-87642066D01*
X138925484Y-87648335D01*
X138882343Y-87620318D01*
X138867200Y-87575062D01*
X138867200Y-87168700D01*
X138884793Y-87120362D01*
X138929342Y-87094642D01*
X138942400Y-87093500D01*
X139086313Y-87093500D01*
X139104883Y-87089806D01*
X139142025Y-87082418D01*
X139205203Y-87040203D01*
X139247418Y-86977025D01*
X139258500Y-86921312D01*
X139258500Y-86478688D01*
X139247418Y-86422975D01*
X139205203Y-86359797D01*
X139142025Y-86317582D01*
X139142023Y-86317581D01*
X139086313Y-86306500D01*
X139086312Y-86306500D01*
X138058688Y-86306500D01*
X138058687Y-86306500D01*
X138002973Y-86317582D01*
X137999973Y-86318825D01*
X137995815Y-86319006D01*
X137995711Y-86319027D01*
X137995707Y-86319010D01*
X137948582Y-86321065D01*
X137907774Y-86289747D01*
X137896000Y-86249347D01*
X137896000Y-86095000D01*
X142473815Y-86095000D01*
X142494429Y-86225154D01*
X142554255Y-86342568D01*
X142647431Y-86435744D01*
X142647433Y-86435745D01*
X142647434Y-86435746D01*
X142764845Y-86495570D01*
X142764847Y-86495571D01*
X142864827Y-86511406D01*
X142894999Y-86516185D01*
X142895000Y-86516185D01*
X142895001Y-86516185D01*
X142915615Y-86512919D01*
X143025153Y-86495571D01*
X143142566Y-86435746D01*
X143235746Y-86342566D01*
X143295571Y-86225153D01*
X143316185Y-86095000D01*
X143316062Y-86094226D01*
X143311969Y-86068378D01*
X143295571Y-85964847D01*
X143235746Y-85847434D01*
X143235745Y-85847433D01*
X143235744Y-85847431D01*
X143142568Y-85754255D01*
X143025153Y-85694429D01*
X143025155Y-85694429D01*
X142895001Y-85673815D01*
X142894999Y-85673815D01*
X142764845Y-85694429D01*
X142647431Y-85754255D01*
X142554255Y-85847431D01*
X142494429Y-85964845D01*
X142473815Y-86094999D01*
X142473815Y-86095000D01*
X137896000Y-86095000D01*
X137896000Y-85095000D01*
X140353815Y-85095000D01*
X140374429Y-85225154D01*
X140434255Y-85342568D01*
X140527431Y-85435744D01*
X140527433Y-85435745D01*
X140527434Y-85435746D01*
X140644845Y-85495570D01*
X140644847Y-85495571D01*
X140744827Y-85511406D01*
X140774999Y-85516185D01*
X140775000Y-85516185D01*
X140775001Y-85516185D01*
X140798702Y-85512431D01*
X140905153Y-85495571D01*
X141022566Y-85435746D01*
X141115746Y-85342566D01*
X141175571Y-85225153D01*
X141196185Y-85095000D01*
X141175571Y-84964847D01*
X141115746Y-84847434D01*
X141115745Y-84847433D01*
X141115744Y-84847431D01*
X141022568Y-84754255D01*
X140905153Y-84694429D01*
X140905155Y-84694429D01*
X140775001Y-84673815D01*
X140774999Y-84673815D01*
X140644845Y-84694429D01*
X140527431Y-84754255D01*
X140434255Y-84847431D01*
X140374429Y-84964845D01*
X140353815Y-85094999D01*
X140353815Y-85095000D01*
X137896000Y-85095000D01*
X137896000Y-84510000D01*
X141418815Y-84510000D01*
X141439429Y-84640154D01*
X141499255Y-84757568D01*
X141592431Y-84850744D01*
X141592433Y-84850745D01*
X141592434Y-84850746D01*
X141709845Y-84910570D01*
X141709847Y-84910571D01*
X141809827Y-84926406D01*
X141839999Y-84931185D01*
X141840000Y-84931185D01*
X141840001Y-84931185D01*
X141860615Y-84927919D01*
X141970153Y-84910571D01*
X142087566Y-84850746D01*
X142139086Y-84799225D01*
X142185705Y-84777486D01*
X142192260Y-84777200D01*
X145068173Y-84777200D01*
X145116511Y-84794793D01*
X145121347Y-84799225D01*
X145161474Y-84839351D01*
X145183214Y-84885971D01*
X145183500Y-84892526D01*
X145183500Y-86397739D01*
X145165907Y-86446077D01*
X145161474Y-86450913D01*
X145109955Y-86502431D01*
X145050129Y-86619845D01*
X145029515Y-86749999D01*
X145029515Y-86750000D01*
X145050129Y-86880154D01*
X145109955Y-86997568D01*
X145203131Y-87090744D01*
X145203133Y-87090745D01*
X145203134Y-87090746D01*
X145320545Y-87150570D01*
X145320547Y-87150571D01*
X145420527Y-87166406D01*
X145450699Y-87171185D01*
X145450700Y-87171185D01*
X145450701Y-87171185D01*
X145471315Y-87167919D01*
X145580853Y-87150571D01*
X145698266Y-87090746D01*
X145791446Y-86997566D01*
X145851271Y-86880153D01*
X145871885Y-86750000D01*
X145871885Y-86749999D01*
X145871885Y-86744081D01*
X145873200Y-86744081D01*
X145881767Y-86699972D01*
X145893053Y-86685524D01*
X146089353Y-86489225D01*
X146135973Y-86467486D01*
X146142527Y-86467200D01*
X150858174Y-86467200D01*
X150906512Y-86484793D01*
X150911348Y-86489226D01*
X153085974Y-88663852D01*
X153107714Y-88710472D01*
X153108000Y-88717026D01*
X153108000Y-90858574D01*
X153090407Y-90906912D01*
X153045858Y-90932632D01*
X152995200Y-90923699D01*
X152979626Y-90911748D01*
X152702788Y-90634910D01*
X152693435Y-90623513D01*
X152682641Y-90607358D01*
X152647746Y-90584043D01*
X152594259Y-90548304D01*
X152594255Y-90548302D01*
X152515887Y-90532713D01*
X152490000Y-90527564D01*
X152489999Y-90527564D01*
X152470942Y-90531355D01*
X152456271Y-90532800D01*
X149572260Y-90532800D01*
X149523922Y-90515207D01*
X149519096Y-90510784D01*
X149467566Y-90459254D01*
X149350153Y-90399429D01*
X149350155Y-90399429D01*
X149220001Y-90378815D01*
X149219999Y-90378815D01*
X149089845Y-90399429D01*
X148972431Y-90459255D01*
X148879255Y-90552431D01*
X148819429Y-90669845D01*
X148798815Y-90799999D01*
X148798815Y-90800000D01*
X148819429Y-90930154D01*
X148879255Y-91047568D01*
X148972431Y-91140744D01*
X148972433Y-91140745D01*
X148972434Y-91140746D01*
X149089845Y-91200570D01*
X149089847Y-91200571D01*
X149178392Y-91214595D01*
X149219999Y-91221185D01*
X149220000Y-91221185D01*
X149220001Y-91221185D01*
X149245097Y-91217210D01*
X149350153Y-91200571D01*
X149467566Y-91140746D01*
X149519086Y-91089225D01*
X149565705Y-91067486D01*
X149572260Y-91067200D01*
X152348174Y-91067200D01*
X152396512Y-91084793D01*
X152401348Y-91089226D01*
X152733574Y-91421452D01*
X152755314Y-91468072D01*
X152755600Y-91474626D01*
X152755600Y-93867004D01*
X152738007Y-93915342D01*
X152733574Y-93920178D01*
X148562510Y-98091241D01*
X148551118Y-98100591D01*
X148534962Y-98111386D01*
X148534959Y-98111390D01*
X148520050Y-98133702D01*
X148475902Y-98199775D01*
X148457924Y-98290154D01*
X148455164Y-98304031D01*
X148457856Y-98317566D01*
X148458955Y-98323087D01*
X148460400Y-98337759D01*
X148460400Y-99812204D01*
X148442807Y-99860542D01*
X148438374Y-99865378D01*
X147098294Y-101205457D01*
X147086902Y-101214807D01*
X147070746Y-101225602D01*
X147070743Y-101225606D01*
X147055834Y-101247918D01*
X147011686Y-101313991D01*
X146997413Y-101385746D01*
X146990948Y-101418247D01*
X146992425Y-101425674D01*
X146994739Y-101437303D01*
X146996184Y-101451975D01*
X146996184Y-110714790D01*
X146978591Y-110763128D01*
X146974158Y-110767964D01*
X146431348Y-111310774D01*
X146384728Y-111332514D01*
X146378174Y-111332800D01*
X143273725Y-111332800D01*
X143259054Y-111331355D01*
X143240000Y-111327565D01*
X143135744Y-111348302D01*
X143135739Y-111348304D01*
X143082253Y-111384042D01*
X143047359Y-111407359D01*
X143047355Y-111407362D01*
X143036560Y-111423518D01*
X143027210Y-111434910D01*
X142939496Y-111522624D01*
X142892876Y-111544364D01*
X142843189Y-111531050D01*
X142813684Y-111488913D01*
X142812048Y-111457688D01*
X142821185Y-111400000D01*
X142800571Y-111269847D01*
X142740746Y-111152434D01*
X142740745Y-111152433D01*
X142740744Y-111152431D01*
X142647568Y-111059255D01*
X142530153Y-110999429D01*
X142530155Y-110999429D01*
X142400001Y-110978815D01*
X142399999Y-110978815D01*
X142269845Y-110999429D01*
X142152431Y-111059255D01*
X142059255Y-111152431D01*
X141999429Y-111269845D01*
X141978815Y-111399999D01*
X141978815Y-111400000D01*
X141999429Y-111530154D01*
X142059255Y-111647568D01*
X142152431Y-111740744D01*
X142152433Y-111740745D01*
X142152434Y-111740746D01*
X142269845Y-111800570D01*
X142269847Y-111800571D01*
X142369827Y-111816406D01*
X142399999Y-111821185D01*
X142400000Y-111821185D01*
X142457687Y-111812048D01*
X142508180Y-111821863D01*
X142540553Y-111861839D01*
X142539655Y-111913271D01*
X142522624Y-111939496D01*
X142334910Y-112127210D01*
X142323518Y-112136560D01*
X142307362Y-112147355D01*
X142307359Y-112147359D01*
X142292450Y-112169671D01*
X142248302Y-112235744D01*
X142227564Y-112339999D01*
X142231355Y-112359056D01*
X142232800Y-112373728D01*
X142232800Y-112982603D01*
X142215207Y-113030941D01*
X142196980Y-113045438D01*
X142197224Y-113045773D01*
X142192432Y-113049254D01*
X142099255Y-113142431D01*
X142039429Y-113259845D01*
X142018815Y-113389999D01*
X142018815Y-113390000D01*
X142039429Y-113520154D01*
X142099255Y-113637568D01*
X142192431Y-113730744D01*
X142192433Y-113730745D01*
X142192434Y-113730746D01*
X142309845Y-113790570D01*
X142309847Y-113790571D01*
X142409827Y-113806406D01*
X142439999Y-113811185D01*
X142440000Y-113811185D01*
X142440001Y-113811185D01*
X142460615Y-113807919D01*
X142570153Y-113790571D01*
X142687566Y-113730746D01*
X142780746Y-113637566D01*
X142840571Y-113520153D01*
X142861185Y-113390000D01*
X142840571Y-113259847D01*
X142780746Y-113142434D01*
X142780745Y-113142433D01*
X142778059Y-113137161D01*
X142779279Y-113136538D01*
X142767200Y-113099355D01*
X142767200Y-112481826D01*
X142784793Y-112433488D01*
X142789226Y-112428652D01*
X143328652Y-111889226D01*
X143375272Y-111867486D01*
X143381826Y-111867200D01*
X146486271Y-111867200D01*
X146500942Y-111868645D01*
X146520000Y-111872436D01*
X146624257Y-111851697D01*
X146690329Y-111807549D01*
X146706906Y-111796473D01*
X146713027Y-111792383D01*
X146713943Y-111790692D01*
X146722962Y-111777193D01*
X146723437Y-111776481D01*
X146732784Y-111765092D01*
X147428476Y-111069400D01*
X147439865Y-111060053D01*
X147456025Y-111049257D01*
X147515081Y-110960872D01*
X147519432Y-110939000D01*
X147530425Y-110883733D01*
X147557110Y-110839759D01*
X147605820Y-110823224D01*
X147653763Y-110841868D01*
X147657354Y-110845232D01*
X148469609Y-111657487D01*
X148478961Y-111668882D01*
X148489757Y-111685040D01*
X148518517Y-111704256D01*
X148578144Y-111744097D01*
X148682400Y-111764836D01*
X148701458Y-111761045D01*
X148716129Y-111759600D01*
X154320574Y-111759600D01*
X154368912Y-111777193D01*
X154373748Y-111781626D01*
X154705899Y-112113777D01*
X154727639Y-112160397D01*
X154723039Y-112193616D01*
X154704152Y-112243416D01*
X154700625Y-112272466D01*
X154683925Y-112410000D01*
X154704152Y-112576582D01*
X154704152Y-112576584D01*
X154704153Y-112576585D01*
X154763654Y-112733479D01*
X154763659Y-112733487D01*
X154858979Y-112871583D01*
X154860881Y-112873730D01*
X154861440Y-112875147D01*
X154861564Y-112875327D01*
X154861522Y-112875355D01*
X154879756Y-112921581D01*
X154863458Y-112970371D01*
X154819611Y-112997269D01*
X154819255Y-112997341D01*
X154805476Y-113000081D01*
X154805474Y-113000082D01*
X154742297Y-113042297D01*
X154700082Y-113105474D01*
X154700081Y-113105476D01*
X154689000Y-113161187D01*
X154689000Y-114198812D01*
X154700081Y-114254523D01*
X154700082Y-114254525D01*
X154742297Y-114317703D01*
X154805475Y-114359918D01*
X154833331Y-114365459D01*
X154861187Y-114371000D01*
X154861188Y-114371000D01*
X155898813Y-114371000D01*
X155917383Y-114367306D01*
X155954525Y-114359918D01*
X156017703Y-114317703D01*
X156059918Y-114254525D01*
X156071000Y-114198812D01*
X156071000Y-113161188D01*
X156059918Y-113105475D01*
X156017703Y-113042297D01*
X155954525Y-113000082D01*
X155954523Y-113000081D01*
X155940745Y-112997341D01*
X155896768Y-112970655D01*
X155880234Y-112921945D01*
X155898878Y-112874003D01*
X155899123Y-112873724D01*
X155901013Y-112871588D01*
X155901020Y-112871583D01*
X155996344Y-112733482D01*
X156055848Y-112576582D01*
X156076075Y-112410000D01*
X156055848Y-112243418D01*
X156010240Y-112123159D01*
X155996345Y-112086520D01*
X155996340Y-112086512D01*
X155901023Y-111948421D01*
X155901022Y-111948419D01*
X155901020Y-111948417D01*
X155901016Y-111948413D01*
X155901011Y-111948408D01*
X155775422Y-111837147D01*
X155775420Y-111837145D01*
X155775416Y-111837142D01*
X155775410Y-111837139D01*
X155775051Y-111836891D01*
X155774911Y-111836694D01*
X155772012Y-111834126D01*
X155772608Y-111833452D01*
X155745262Y-111794954D01*
X155749398Y-111743681D01*
X155772381Y-111716290D01*
X155772012Y-111715874D01*
X155774813Y-111713392D01*
X155775051Y-111713109D01*
X155775405Y-111712863D01*
X155775416Y-111712858D01*
X155901020Y-111601583D01*
X155996344Y-111463482D01*
X156055848Y-111306582D01*
X156076075Y-111140000D01*
X156055848Y-110973418D01*
X155996344Y-110816518D01*
X155964235Y-110770000D01*
X155901023Y-110678421D01*
X155901022Y-110678419D01*
X155901020Y-110678417D01*
X155901016Y-110678413D01*
X155901011Y-110678408D01*
X155775422Y-110567147D01*
X155775420Y-110567145D01*
X155775416Y-110567142D01*
X155775410Y-110567139D01*
X155775051Y-110566891D01*
X155774911Y-110566694D01*
X155772012Y-110564126D01*
X155772608Y-110563452D01*
X155745262Y-110524954D01*
X155749398Y-110473681D01*
X155772381Y-110446290D01*
X155772012Y-110445874D01*
X155774813Y-110443392D01*
X155775051Y-110443109D01*
X155775405Y-110442863D01*
X155775416Y-110442858D01*
X155901020Y-110331583D01*
X155996344Y-110193482D01*
X156055848Y-110036582D01*
X156076075Y-109870000D01*
X156055848Y-109703418D01*
X156007756Y-109576609D01*
X155996345Y-109546520D01*
X155996340Y-109546512D01*
X155901023Y-109408421D01*
X155901022Y-109408419D01*
X155901020Y-109408417D01*
X155901016Y-109408413D01*
X155901011Y-109408408D01*
X155775419Y-109297144D01*
X155775413Y-109297140D01*
X155626835Y-109219160D01*
X155626832Y-109219159D01*
X155463903Y-109179000D01*
X155296097Y-109179000D01*
X155133168Y-109219159D01*
X155133164Y-109219160D01*
X154984586Y-109297140D01*
X154984580Y-109297144D01*
X154858988Y-109408408D01*
X154858976Y-109408421D01*
X154763659Y-109546512D01*
X154763654Y-109546520D01*
X154704153Y-109703414D01*
X154704152Y-109703416D01*
X154704152Y-109703418D01*
X154683925Y-109870000D01*
X154704152Y-110036582D01*
X154704152Y-110036584D01*
X154704153Y-110036585D01*
X154763654Y-110193479D01*
X154763659Y-110193487D01*
X154858976Y-110331578D01*
X154858978Y-110331580D01*
X154858980Y-110331583D01*
X154858983Y-110331585D01*
X154858988Y-110331591D01*
X154984581Y-110442856D01*
X154984955Y-110443114D01*
X154985094Y-110443310D01*
X154987988Y-110445874D01*
X154987392Y-110446546D01*
X155014740Y-110485054D01*
X155010597Y-110536327D01*
X154987619Y-110563710D01*
X154987988Y-110564126D01*
X154985193Y-110566601D01*
X154984955Y-110566886D01*
X154984581Y-110567143D01*
X154858988Y-110678408D01*
X154858976Y-110678421D01*
X154763659Y-110816512D01*
X154763656Y-110816518D01*
X154760717Y-110824265D01*
X154727129Y-110863223D01*
X154690405Y-110872800D01*
X150301826Y-110872800D01*
X150253488Y-110855207D01*
X150248652Y-110850774D01*
X150079226Y-110681348D01*
X150057486Y-110634728D01*
X150057200Y-110628174D01*
X150057200Y-109840000D01*
X150699534Y-109840000D01*
X150719313Y-109990237D01*
X150733364Y-110024159D01*
X150777302Y-110130233D01*
X150777303Y-110130235D01*
X150777304Y-110130236D01*
X150869548Y-110250451D01*
X150989763Y-110342695D01*
X150989767Y-110342698D01*
X151129764Y-110400687D01*
X151242280Y-110415500D01*
X151242283Y-110415500D01*
X151317717Y-110415500D01*
X151317720Y-110415500D01*
X151430236Y-110400687D01*
X151570233Y-110342698D01*
X151690451Y-110250451D01*
X151782698Y-110130233D01*
X151840687Y-109990236D01*
X151852330Y-109901796D01*
X152019000Y-109901796D01*
X152034152Y-110026582D01*
X152034152Y-110026584D01*
X152034153Y-110026585D01*
X152093654Y-110183479D01*
X152093659Y-110183487D01*
X152188976Y-110321578D01*
X152188978Y-110321580D01*
X152188980Y-110321583D01*
X152188983Y-110321585D01*
X152188988Y-110321591D01*
X152314580Y-110432855D01*
X152314582Y-110432856D01*
X152314584Y-110432858D01*
X152463168Y-110510841D01*
X152626097Y-110551000D01*
X152626100Y-110551000D01*
X152793900Y-110551000D01*
X152793903Y-110551000D01*
X152956832Y-110510841D01*
X153105416Y-110432858D01*
X153231020Y-110321583D01*
X153326344Y-110183482D01*
X153385848Y-110026582D01*
X153401000Y-109901796D01*
X153401000Y-108718204D01*
X153385848Y-108593418D01*
X153334824Y-108458878D01*
X153326345Y-108436520D01*
X153326340Y-108436512D01*
X153239015Y-108310000D01*
X156058815Y-108310000D01*
X156079429Y-108440154D01*
X156139255Y-108557568D01*
X156232431Y-108650744D01*
X156232433Y-108650745D01*
X156232434Y-108650746D01*
X156349845Y-108710570D01*
X156349847Y-108710571D01*
X156449827Y-108726406D01*
X156479999Y-108731185D01*
X156480000Y-108731185D01*
X156480001Y-108731185D01*
X156500615Y-108727919D01*
X156610153Y-108710571D01*
X156727566Y-108650746D01*
X156820746Y-108557566D01*
X156880571Y-108440153D01*
X156901185Y-108310000D01*
X156899350Y-108298417D01*
X156894694Y-108269017D01*
X156880571Y-108179847D01*
X156820746Y-108062434D01*
X156820745Y-108062433D01*
X156820744Y-108062431D01*
X156727568Y-107969255D01*
X156610153Y-107909429D01*
X156610155Y-107909429D01*
X156480001Y-107888815D01*
X156479999Y-107888815D01*
X156349845Y-107909429D01*
X156232431Y-107969255D01*
X156139255Y-108062431D01*
X156079429Y-108179845D01*
X156058815Y-108309999D01*
X156058815Y-108310000D01*
X153239015Y-108310000D01*
X153231023Y-108298421D01*
X153231022Y-108298419D01*
X153231020Y-108298417D01*
X153231016Y-108298413D01*
X153231011Y-108298408D01*
X153105419Y-108187144D01*
X153105413Y-108187140D01*
X152956835Y-108109160D01*
X152956832Y-108109159D01*
X152793903Y-108069000D01*
X152626097Y-108069000D01*
X152463168Y-108109159D01*
X152463164Y-108109160D01*
X152314586Y-108187140D01*
X152314580Y-108187144D01*
X152188988Y-108298408D01*
X152188976Y-108298421D01*
X152093659Y-108436512D01*
X152093654Y-108436520D01*
X152034153Y-108593414D01*
X152034152Y-108593416D01*
X152034152Y-108593418D01*
X152028035Y-108643795D01*
X152020018Y-108709824D01*
X152019000Y-108718204D01*
X152019000Y-109901796D01*
X151852330Y-109901796D01*
X151860466Y-109840000D01*
X151840687Y-109689764D01*
X151782698Y-109549767D01*
X151781009Y-109547566D01*
X151690451Y-109429548D01*
X151570236Y-109337304D01*
X151570235Y-109337303D01*
X151570233Y-109337302D01*
X151473274Y-109297140D01*
X151430237Y-109279313D01*
X151402107Y-109275609D01*
X151317720Y-109264500D01*
X151242280Y-109264500D01*
X151174770Y-109273387D01*
X151129762Y-109279313D01*
X151030766Y-109320319D01*
X150989767Y-109337302D01*
X150989766Y-109337302D01*
X150989763Y-109337304D01*
X150869548Y-109429548D01*
X150777304Y-109549763D01*
X150719313Y-109689762D01*
X150699534Y-109840000D01*
X150057200Y-109840000D01*
X150057200Y-108395000D01*
X150418815Y-108395000D01*
X150439429Y-108525154D01*
X150499255Y-108642568D01*
X150592431Y-108735744D01*
X150592433Y-108735745D01*
X150592434Y-108735746D01*
X150709845Y-108795570D01*
X150709847Y-108795571D01*
X150805647Y-108810744D01*
X150839999Y-108816185D01*
X150840000Y-108816185D01*
X150840001Y-108816185D01*
X150860615Y-108812919D01*
X150970153Y-108795571D01*
X151087566Y-108735746D01*
X151180746Y-108642566D01*
X151240571Y-108525153D01*
X151261185Y-108395000D01*
X151240571Y-108264847D01*
X151180746Y-108147434D01*
X151180745Y-108147433D01*
X151180744Y-108147431D01*
X151087568Y-108054255D01*
X150970153Y-107994429D01*
X150970155Y-107994429D01*
X150840001Y-107973815D01*
X150839999Y-107973815D01*
X150709845Y-107994429D01*
X150592431Y-108054255D01*
X150499255Y-108147431D01*
X150439429Y-108264845D01*
X150418815Y-108394999D01*
X150418815Y-108395000D01*
X150057200Y-108395000D01*
X150057200Y-105201826D01*
X150074793Y-105153488D01*
X150079226Y-105148652D01*
X150158652Y-105069226D01*
X150205272Y-105047486D01*
X150211826Y-105047200D01*
X150457740Y-105047200D01*
X150506078Y-105064793D01*
X150510903Y-105069215D01*
X150562434Y-105120746D01*
X150679845Y-105180570D01*
X150679847Y-105180571D01*
X150779827Y-105196406D01*
X150809999Y-105201185D01*
X150810000Y-105201185D01*
X150810001Y-105201185D01*
X150830615Y-105197919D01*
X150940153Y-105180571D01*
X151057566Y-105120746D01*
X151150746Y-105027566D01*
X151210571Y-104910153D01*
X151231185Y-104780000D01*
X151231062Y-104779226D01*
X151222592Y-104725744D01*
X151210571Y-104649847D01*
X151150746Y-104532434D01*
X151150745Y-104532433D01*
X151150744Y-104532431D01*
X151057568Y-104439255D01*
X150940153Y-104379429D01*
X150940155Y-104379429D01*
X150810001Y-104358815D01*
X150809999Y-104358815D01*
X150679845Y-104379429D01*
X150562433Y-104439254D01*
X150544122Y-104457566D01*
X150510913Y-104490774D01*
X150464295Y-104512514D01*
X150457740Y-104512800D01*
X150103729Y-104512800D01*
X150089058Y-104511355D01*
X150070000Y-104507564D01*
X149965745Y-104528302D01*
X149965743Y-104528303D01*
X149877357Y-104587359D01*
X149866560Y-104603518D01*
X149857210Y-104614910D01*
X149624910Y-104847210D01*
X149613518Y-104856560D01*
X149597362Y-104867355D01*
X149597359Y-104867359D01*
X149582450Y-104889671D01*
X149538302Y-104955744D01*
X149524015Y-105027568D01*
X149517564Y-105060000D01*
X149519399Y-105069226D01*
X149521355Y-105079056D01*
X149522800Y-105093728D01*
X149522800Y-110736271D01*
X149521355Y-110750942D01*
X149517564Y-110769999D01*
X149517564Y-110770000D01*
X149538302Y-110874255D01*
X149538302Y-110874256D01*
X149538303Y-110874257D01*
X149572041Y-110924749D01*
X149589032Y-110950179D01*
X149597360Y-110962642D01*
X149613513Y-110973435D01*
X149624910Y-110982788D01*
X149738948Y-111096826D01*
X149760688Y-111143446D01*
X149747374Y-111193133D01*
X149705237Y-111222638D01*
X149685774Y-111225200D01*
X148824226Y-111225200D01*
X148775888Y-111207607D01*
X148771052Y-111203174D01*
X147905010Y-110337132D01*
X147883270Y-110290512D01*
X147882984Y-110283958D01*
X147882984Y-102945524D01*
X147900577Y-102897186D01*
X147945126Y-102871466D01*
X147981419Y-102874004D01*
X147986828Y-102875761D01*
X147986829Y-102875761D01*
X147986831Y-102875762D01*
X148086811Y-102891597D01*
X148116983Y-102896376D01*
X148116984Y-102896376D01*
X148116985Y-102896376D01*
X148137599Y-102893110D01*
X148247137Y-102875762D01*
X148364550Y-102815937D01*
X148416070Y-102764416D01*
X148462689Y-102742677D01*
X148469244Y-102742391D01*
X148701080Y-102742391D01*
X148715751Y-102743836D01*
X148734809Y-102747627D01*
X148839066Y-102726888D01*
X148901756Y-102685000D01*
X152278815Y-102685000D01*
X152299429Y-102815154D01*
X152359255Y-102932568D01*
X152452431Y-103025744D01*
X152452433Y-103025745D01*
X152452434Y-103025746D01*
X152569845Y-103085570D01*
X152569847Y-103085571D01*
X152654926Y-103099046D01*
X152699999Y-103106185D01*
X152700000Y-103106185D01*
X152700001Y-103106185D01*
X152720615Y-103102919D01*
X152830153Y-103085571D01*
X152947566Y-103025746D01*
X153040746Y-102932566D01*
X153100571Y-102815153D01*
X153121185Y-102685000D01*
X153119834Y-102676473D01*
X153113955Y-102639350D01*
X153107723Y-102600000D01*
X155838815Y-102600000D01*
X155859429Y-102730154D01*
X155919255Y-102847568D01*
X156012431Y-102940744D01*
X156012433Y-102940745D01*
X156012434Y-102940746D01*
X156129845Y-103000570D01*
X156129847Y-103000571D01*
X156226448Y-103015871D01*
X156259999Y-103021185D01*
X156260000Y-103021185D01*
X156260001Y-103021185D01*
X156280615Y-103017919D01*
X156390153Y-103000571D01*
X156507566Y-102940746D01*
X156600746Y-102847566D01*
X156660571Y-102730153D01*
X156681185Y-102600000D01*
X157448815Y-102600000D01*
X157469429Y-102730154D01*
X157529255Y-102847568D01*
X157622431Y-102940744D01*
X157622433Y-102940745D01*
X157622434Y-102940746D01*
X157739845Y-103000570D01*
X157739847Y-103000571D01*
X157836448Y-103015871D01*
X157869999Y-103021185D01*
X157870000Y-103021185D01*
X157870001Y-103021185D01*
X157890615Y-103017919D01*
X158000153Y-103000571D01*
X158117566Y-102940746D01*
X158210746Y-102847566D01*
X158270571Y-102730153D01*
X158291185Y-102600000D01*
X158270571Y-102469847D01*
X158210746Y-102352434D01*
X158210745Y-102352433D01*
X158210744Y-102352431D01*
X158117568Y-102259255D01*
X158001274Y-102200000D01*
X162168815Y-102200000D01*
X162189429Y-102330154D01*
X162249255Y-102447568D01*
X162342431Y-102540744D01*
X162342433Y-102540745D01*
X162342434Y-102540746D01*
X162459845Y-102600570D01*
X162459847Y-102600571D01*
X162558355Y-102616173D01*
X162589999Y-102621185D01*
X162590000Y-102621185D01*
X162590001Y-102621185D01*
X162610615Y-102617919D01*
X162720153Y-102600571D01*
X162837566Y-102540746D01*
X162930746Y-102447566D01*
X162990571Y-102330153D01*
X163011185Y-102200000D01*
X163008135Y-102180746D01*
X162995514Y-102101059D01*
X162990571Y-102069847D01*
X162930746Y-101952434D01*
X162930745Y-101952433D01*
X162930744Y-101952431D01*
X162837568Y-101859255D01*
X162720153Y-101799429D01*
X162720155Y-101799429D01*
X162590001Y-101778815D01*
X162589999Y-101778815D01*
X162459845Y-101799429D01*
X162342431Y-101859255D01*
X162249255Y-101952431D01*
X162189429Y-102069845D01*
X162168815Y-102199999D01*
X162168815Y-102200000D01*
X158001274Y-102200000D01*
X158000153Y-102199429D01*
X158000155Y-102199429D01*
X157870001Y-102178815D01*
X157869999Y-102178815D01*
X157739845Y-102199429D01*
X157622431Y-102259255D01*
X157529255Y-102352431D01*
X157469429Y-102469845D01*
X157448815Y-102599999D01*
X157448815Y-102600000D01*
X156681185Y-102600000D01*
X156660571Y-102469847D01*
X156600746Y-102352434D01*
X156600745Y-102352433D01*
X156600744Y-102352431D01*
X156507568Y-102259255D01*
X156390153Y-102199429D01*
X156390155Y-102199429D01*
X156260001Y-102178815D01*
X156259999Y-102178815D01*
X156129845Y-102199429D01*
X156012431Y-102259255D01*
X155919255Y-102352431D01*
X155859429Y-102469845D01*
X155838815Y-102599999D01*
X155838815Y-102600000D01*
X153107723Y-102600000D01*
X153100571Y-102554847D01*
X153040746Y-102437434D01*
X153040745Y-102437433D01*
X153040744Y-102437431D01*
X152947568Y-102344255D01*
X152830153Y-102284429D01*
X152830155Y-102284429D01*
X152700001Y-102263815D01*
X152699999Y-102263815D01*
X152569845Y-102284429D01*
X152452431Y-102344255D01*
X152359255Y-102437431D01*
X152299429Y-102554845D01*
X152278815Y-102684999D01*
X152278815Y-102685000D01*
X148901756Y-102685000D01*
X148905138Y-102682740D01*
X148905137Y-102682740D01*
X148927450Y-102667832D01*
X148927451Y-102667830D01*
X148927836Y-102667573D01*
X148928752Y-102665883D01*
X148929402Y-102664910D01*
X148938246Y-102651672D01*
X148947588Y-102640288D01*
X149705753Y-101882124D01*
X149752372Y-101860386D01*
X149758926Y-101860100D01*
X154868305Y-101860100D01*
X154882976Y-101861545D01*
X154902034Y-101865336D01*
X155006291Y-101844597D01*
X155072363Y-101800449D01*
X155082926Y-101793391D01*
X155084708Y-101792199D01*
X155094675Y-101785541D01*
X155094675Y-101785539D01*
X155095060Y-101785283D01*
X155095977Y-101783592D01*
X155099169Y-101778815D01*
X155105471Y-101769381D01*
X155114818Y-101757992D01*
X155667292Y-101205518D01*
X155678681Y-101196171D01*
X155694841Y-101185375D01*
X155753897Y-101096990D01*
X155761780Y-101057360D01*
X155774636Y-100992734D01*
X155770845Y-100973676D01*
X155769400Y-100959005D01*
X155769400Y-99880000D01*
X156528815Y-99880000D01*
X156549429Y-100010154D01*
X156609255Y-100127568D01*
X156702431Y-100220744D01*
X156702433Y-100220745D01*
X156702434Y-100220746D01*
X156819845Y-100280570D01*
X156819847Y-100280571D01*
X156919827Y-100296406D01*
X156949999Y-100301185D01*
X156950000Y-100301185D01*
X156950001Y-100301185D01*
X156970615Y-100297919D01*
X157080153Y-100280571D01*
X157197566Y-100220746D01*
X157290746Y-100127566D01*
X157350571Y-100010153D01*
X157371185Y-99880000D01*
X157350571Y-99749847D01*
X157290746Y-99632434D01*
X157290745Y-99632433D01*
X157290744Y-99632431D01*
X157197568Y-99539255D01*
X157080153Y-99479429D01*
X157080155Y-99479429D01*
X156950001Y-99458815D01*
X156949999Y-99458815D01*
X156819845Y-99479429D01*
X156702431Y-99539255D01*
X156609255Y-99632431D01*
X156549429Y-99749845D01*
X156528815Y-99879999D01*
X156528815Y-99880000D01*
X155769400Y-99880000D01*
X155769400Y-98070000D01*
X162138815Y-98070000D01*
X162159429Y-98200154D01*
X162219255Y-98317568D01*
X162312431Y-98410744D01*
X162312433Y-98410745D01*
X162312434Y-98410746D01*
X162429845Y-98470570D01*
X162429847Y-98470571D01*
X162529827Y-98486406D01*
X162559999Y-98491185D01*
X162560000Y-98491185D01*
X162560001Y-98491185D01*
X162580615Y-98487919D01*
X162690153Y-98470571D01*
X162807566Y-98410746D01*
X162900746Y-98317566D01*
X162960571Y-98200153D01*
X162981185Y-98070000D01*
X162960571Y-97939847D01*
X162900746Y-97822434D01*
X162900745Y-97822433D01*
X162900744Y-97822431D01*
X162807568Y-97729255D01*
X162690153Y-97669429D01*
X162690155Y-97669429D01*
X162560001Y-97648815D01*
X162559999Y-97648815D01*
X162429845Y-97669429D01*
X162312431Y-97729255D01*
X162219255Y-97822431D01*
X162159429Y-97939845D01*
X162138815Y-98069999D01*
X162138815Y-98070000D01*
X155769400Y-98070000D01*
X155769400Y-89502757D01*
X155786993Y-89454419D01*
X155791415Y-89449594D01*
X156211884Y-89029124D01*
X156258504Y-89007385D01*
X156308191Y-89020699D01*
X156337696Y-89062836D01*
X156340258Y-89082299D01*
X156340258Y-89322500D01*
X156355081Y-89397023D01*
X156355084Y-89397030D01*
X156362563Y-89408223D01*
X156374789Y-89458188D01*
X156362563Y-89491777D01*
X156355084Y-89502969D01*
X156355081Y-89502976D01*
X156340258Y-89577499D01*
X156340258Y-89982500D01*
X156355081Y-90057023D01*
X156355084Y-90057030D01*
X156362563Y-90068223D01*
X156374789Y-90118188D01*
X156362563Y-90151777D01*
X156355084Y-90162969D01*
X156355081Y-90162976D01*
X156340258Y-90237499D01*
X156340258Y-90642500D01*
X156355081Y-90717023D01*
X156355084Y-90717030D01*
X156362563Y-90728223D01*
X156374789Y-90778188D01*
X156362563Y-90811777D01*
X156355084Y-90822969D01*
X156355081Y-90822976D01*
X156340258Y-90897499D01*
X156340258Y-91305000D01*
X156355081Y-91379523D01*
X156355082Y-91379525D01*
X156397297Y-91442703D01*
X156460475Y-91484918D01*
X156489503Y-91490692D01*
X156534999Y-91499742D01*
X156535000Y-91499742D01*
X156963798Y-91499742D01*
X157012136Y-91517335D01*
X157037856Y-91561884D01*
X157038998Y-91574942D01*
X157038998Y-92540497D01*
X157021405Y-92588835D01*
X157008004Y-92601332D01*
X157007429Y-92601749D01*
X156914253Y-92694925D01*
X156854427Y-92812339D01*
X156838998Y-92909754D01*
X156838998Y-93725224D01*
X156838999Y-93725236D01*
X156854425Y-93822645D01*
X156914253Y-93940062D01*
X157007429Y-94033238D01*
X157007433Y-94033241D01*
X157095209Y-94077966D01*
X157130291Y-94115586D01*
X157132983Y-94166956D01*
X157114244Y-94198143D01*
X157019254Y-94293133D01*
X156959429Y-94410545D01*
X156938815Y-94540699D01*
X156938815Y-94540700D01*
X156959429Y-94670854D01*
X157019255Y-94788268D01*
X157112431Y-94881444D01*
X157112433Y-94881445D01*
X157112434Y-94881446D01*
X157229845Y-94941270D01*
X157229847Y-94941271D01*
X157329827Y-94957106D01*
X157359999Y-94961885D01*
X157360000Y-94961885D01*
X157360001Y-94961885D01*
X157380615Y-94958619D01*
X157490153Y-94941271D01*
X157607566Y-94881446D01*
X157659086Y-94829925D01*
X157705705Y-94808186D01*
X157712260Y-94807900D01*
X159105571Y-94807900D01*
X159120242Y-94809345D01*
X159139300Y-94813136D01*
X159243557Y-94792397D01*
X159309629Y-94748249D01*
X159309628Y-94748249D01*
X159331941Y-94733341D01*
X159331942Y-94733339D01*
X159332327Y-94733082D01*
X159333243Y-94731392D01*
X159342737Y-94717181D01*
X159352084Y-94705792D01*
X159795092Y-94262784D01*
X159806481Y-94253437D01*
X159822641Y-94242641D01*
X159881697Y-94154256D01*
X159885486Y-94135208D01*
X159902436Y-94050000D01*
X159898645Y-94030942D01*
X159897200Y-94016271D01*
X159897200Y-92491825D01*
X159914793Y-92443487D01*
X159919226Y-92438651D01*
X159948651Y-92409226D01*
X159995271Y-92387486D01*
X160001825Y-92387200D01*
X160446223Y-92387200D01*
X160494561Y-92404793D01*
X160520281Y-92449342D01*
X160511348Y-92500000D01*
X160471943Y-92533065D01*
X160457985Y-92536674D01*
X160424846Y-92541921D01*
X160307429Y-92601749D01*
X160214253Y-92694925D01*
X160154427Y-92812339D01*
X160138998Y-92909754D01*
X160138998Y-93725224D01*
X160138999Y-93725236D01*
X160154425Y-93822645D01*
X160214253Y-93940062D01*
X160307429Y-94033238D01*
X160307431Y-94033239D01*
X160307432Y-94033240D01*
X160424843Y-94093064D01*
X160424845Y-94093065D01*
X160522261Y-94108494D01*
X161037734Y-94108493D01*
X161044354Y-94107444D01*
X161135149Y-94093066D01*
X161164784Y-94077966D01*
X161252564Y-94033240D01*
X161345744Y-93940060D01*
X161405569Y-93822647D01*
X161420998Y-93725231D01*
X161420997Y-92909758D01*
X161420996Y-92909751D01*
X161405570Y-92812342D01*
X161354014Y-92711159D01*
X161345744Y-92694928D01*
X161345743Y-92694927D01*
X161345742Y-92694925D01*
X161252566Y-92601749D01*
X161135151Y-92541923D01*
X161135153Y-92541923D01*
X161046311Y-92527852D01*
X161001321Y-92502913D01*
X160982886Y-92454890D01*
X160999634Y-92406253D01*
X161043404Y-92379823D01*
X161084257Y-92371697D01*
X161150329Y-92327549D01*
X161150328Y-92327549D01*
X161172641Y-92312641D01*
X161172642Y-92312639D01*
X161173027Y-92312382D01*
X161173943Y-92310692D01*
X161183437Y-92296481D01*
X161192784Y-92285092D01*
X161415092Y-92062784D01*
X161426481Y-92053437D01*
X161442641Y-92042641D01*
X161501697Y-91954256D01*
X161505588Y-91934696D01*
X161522436Y-91850000D01*
X161518645Y-91830942D01*
X161517200Y-91816271D01*
X161517200Y-91233723D01*
X161518645Y-91219051D01*
X161522435Y-91200000D01*
X161518645Y-91180945D01*
X161517200Y-91166275D01*
X161517200Y-91133723D01*
X161518645Y-91119051D01*
X161522435Y-91100000D01*
X161518645Y-91080945D01*
X161517200Y-91066275D01*
X161517200Y-91033724D01*
X161518645Y-91019053D01*
X161522435Y-91000000D01*
X161522435Y-90999999D01*
X161518645Y-90980946D01*
X161517200Y-90966275D01*
X161517200Y-90620000D01*
X161888815Y-90620000D01*
X161909429Y-90750154D01*
X161969255Y-90867568D01*
X162062431Y-90960744D01*
X162062433Y-90960745D01*
X162062434Y-90960746D01*
X162179845Y-91020570D01*
X162179847Y-91020571D01*
X162257059Y-91032800D01*
X162309999Y-91041185D01*
X162310000Y-91041185D01*
X162310001Y-91041185D01*
X162330615Y-91037919D01*
X162440153Y-91020571D01*
X162557566Y-90960746D01*
X162650746Y-90867566D01*
X162710571Y-90750153D01*
X162731185Y-90620000D01*
X162710571Y-90489847D01*
X162650746Y-90372434D01*
X162650745Y-90372433D01*
X162650744Y-90372431D01*
X162557568Y-90279255D01*
X162440153Y-90219429D01*
X162440155Y-90219429D01*
X162310001Y-90198815D01*
X162309999Y-90198815D01*
X162179845Y-90219429D01*
X162062431Y-90279255D01*
X161969255Y-90372431D01*
X161909429Y-90489845D01*
X161888815Y-90619999D01*
X161888815Y-90620000D01*
X161517200Y-90620000D01*
X161517200Y-89930962D01*
X161534793Y-89882624D01*
X161560617Y-89862808D01*
X161574870Y-89856163D01*
X161656163Y-89774870D01*
X161704749Y-89670677D01*
X161711000Y-89623198D01*
X161711000Y-89176802D01*
X161704749Y-89129323D01*
X161703834Y-89127360D01*
X161656165Y-89025133D01*
X161656159Y-89025125D01*
X161591034Y-88960000D01*
X162628815Y-88960000D01*
X162649429Y-89090154D01*
X162709255Y-89207568D01*
X162802431Y-89300744D01*
X162802433Y-89300745D01*
X162802434Y-89300746D01*
X162919845Y-89360570D01*
X162919847Y-89360571D01*
X163019827Y-89376406D01*
X163049999Y-89381185D01*
X163050000Y-89381185D01*
X163050001Y-89381185D01*
X163074494Y-89377305D01*
X163180153Y-89360571D01*
X163180155Y-89360570D01*
X163185787Y-89358741D01*
X163186619Y-89361305D01*
X163227234Y-89356290D01*
X163270394Y-89384277D01*
X163285468Y-89433458D01*
X163275461Y-89463622D01*
X163276137Y-89463902D01*
X163273302Y-89470744D01*
X163257672Y-89549322D01*
X163252564Y-89575000D01*
X163253061Y-89577500D01*
X163256355Y-89594056D01*
X163257800Y-89608728D01*
X163257800Y-90367991D01*
X163240207Y-90416329D01*
X163214381Y-90436145D01*
X163176396Y-90453857D01*
X163176388Y-90453863D01*
X163091363Y-90538888D01*
X163091360Y-90538892D01*
X163040538Y-90647882D01*
X163034000Y-90697549D01*
X163034000Y-91952450D01*
X163040538Y-92002117D01*
X163091360Y-92111107D01*
X163091363Y-92111111D01*
X163176388Y-92196136D01*
X163176392Y-92196139D01*
X163176393Y-92196140D01*
X163285381Y-92246961D01*
X163335048Y-92253500D01*
X163335050Y-92253500D01*
X163714950Y-92253500D01*
X163714952Y-92253500D01*
X163764619Y-92246961D01*
X163873607Y-92196140D01*
X163958640Y-92111107D01*
X164009461Y-92002119D01*
X164016000Y-91952452D01*
X164016000Y-90697548D01*
X164009461Y-90647881D01*
X163958640Y-90538893D01*
X163958639Y-90538892D01*
X163958636Y-90538888D01*
X163873611Y-90453863D01*
X163873603Y-90453857D01*
X163835619Y-90436145D01*
X163799245Y-90399771D01*
X163792200Y-90367991D01*
X163792200Y-89716826D01*
X163809793Y-89668488D01*
X163814226Y-89663652D01*
X163868652Y-89609226D01*
X163915272Y-89587486D01*
X163921826Y-89587200D01*
X163957740Y-89587200D01*
X164006078Y-89604793D01*
X164010903Y-89609215D01*
X164062434Y-89660746D01*
X164179845Y-89720570D01*
X164179847Y-89720571D01*
X164279827Y-89736406D01*
X164309999Y-89741185D01*
X164310000Y-89741185D01*
X164310001Y-89741185D01*
X164330615Y-89737919D01*
X164440153Y-89720571D01*
X164557566Y-89660746D01*
X164650746Y-89567566D01*
X164710571Y-89450153D01*
X164731185Y-89320000D01*
X164728135Y-89300746D01*
X164718159Y-89237757D01*
X164710571Y-89189847D01*
X164650746Y-89072434D01*
X164650745Y-89072433D01*
X164650744Y-89072431D01*
X164557568Y-88979255D01*
X164440153Y-88919429D01*
X164440155Y-88919429D01*
X164310001Y-88898815D01*
X164309999Y-88898815D01*
X164179845Y-88919429D01*
X164062433Y-88979254D01*
X164049189Y-88992499D01*
X164010913Y-89030774D01*
X163964295Y-89052514D01*
X163957740Y-89052800D01*
X163813724Y-89052800D01*
X163799053Y-89051355D01*
X163780000Y-89047565D01*
X163779998Y-89047565D01*
X163757348Y-89052070D01*
X163757344Y-89052071D01*
X163675745Y-89068302D01*
X163675740Y-89068304D01*
X163587356Y-89127360D01*
X163582122Y-89132595D01*
X163579822Y-89130295D01*
X163549216Y-89152695D01*
X163497890Y-89149284D01*
X163460764Y-89113679D01*
X163453965Y-89068719D01*
X163471185Y-88960000D01*
X163450571Y-88829847D01*
X163390746Y-88712434D01*
X163390745Y-88712433D01*
X163390744Y-88712431D01*
X163297568Y-88619255D01*
X163180153Y-88559429D01*
X163180155Y-88559429D01*
X163050001Y-88538815D01*
X163049999Y-88538815D01*
X162919845Y-88559429D01*
X162802431Y-88619255D01*
X162709255Y-88712431D01*
X162649429Y-88829845D01*
X162628815Y-88959999D01*
X162628815Y-88960000D01*
X161591034Y-88960000D01*
X161574874Y-88943840D01*
X161574866Y-88943834D01*
X161470681Y-88895252D01*
X161470676Y-88895250D01*
X161438039Y-88890954D01*
X161423198Y-88889000D01*
X161076802Y-88889000D01*
X161063360Y-88890769D01*
X161029323Y-88895250D01*
X161029318Y-88895252D01*
X160925133Y-88943834D01*
X160925125Y-88943840D01*
X160843840Y-89025125D01*
X160843834Y-89025133D01*
X160795252Y-89129318D01*
X160795250Y-89129323D01*
X160792623Y-89149284D01*
X160789000Y-89176802D01*
X160789000Y-89623198D01*
X160790107Y-89631603D01*
X160795250Y-89670676D01*
X160795252Y-89670681D01*
X160843834Y-89774866D01*
X160843840Y-89774874D01*
X160925125Y-89856159D01*
X160925129Y-89856162D01*
X160925130Y-89856163D01*
X160939381Y-89862808D01*
X160975754Y-89899180D01*
X160982800Y-89930962D01*
X160982800Y-90757600D01*
X160965207Y-90805938D01*
X160920658Y-90831658D01*
X160907600Y-90832800D01*
X160621677Y-90832800D01*
X160573339Y-90815207D01*
X160559151Y-90799379D01*
X160532703Y-90759797D01*
X160469525Y-90717582D01*
X160469523Y-90717581D01*
X160413813Y-90706500D01*
X160413812Y-90706500D01*
X159386188Y-90706500D01*
X159386187Y-90706500D01*
X159330476Y-90717581D01*
X159330474Y-90717582D01*
X159267297Y-90759797D01*
X159225082Y-90822974D01*
X159225081Y-90822976D01*
X159214000Y-90878687D01*
X159214000Y-91321312D01*
X159225081Y-91377023D01*
X159225082Y-91377025D01*
X159267297Y-91440203D01*
X159330475Y-91482418D01*
X159358331Y-91487959D01*
X159386187Y-91493500D01*
X159386188Y-91493500D01*
X160413813Y-91493500D01*
X160432383Y-91489806D01*
X160469525Y-91482418D01*
X160532703Y-91440203D01*
X160559151Y-91400620D01*
X160600634Y-91370204D01*
X160621677Y-91367200D01*
X160907600Y-91367200D01*
X160955938Y-91384793D01*
X160981658Y-91429342D01*
X160982800Y-91442400D01*
X160982800Y-91708174D01*
X160965207Y-91756512D01*
X160960774Y-91761348D01*
X160891348Y-91830774D01*
X160844728Y-91852514D01*
X160838174Y-91852800D01*
X159893725Y-91852800D01*
X159879054Y-91851355D01*
X159860000Y-91847565D01*
X159755744Y-91868302D01*
X159755742Y-91868303D01*
X159743650Y-91876383D01*
X159731557Y-91884463D01*
X159709870Y-91898954D01*
X159667357Y-91927360D01*
X159656560Y-91943518D01*
X159647210Y-91954911D01*
X159464907Y-92137213D01*
X159453515Y-92146562D01*
X159437362Y-92157355D01*
X159437358Y-92157360D01*
X159428272Y-92170958D01*
X159386788Y-92201373D01*
X159335459Y-92198008D01*
X159298301Y-92162435D01*
X159291473Y-92117413D01*
X159292472Y-92111111D01*
X159310767Y-91995597D01*
X159290153Y-91865444D01*
X159230328Y-91748031D01*
X159230327Y-91748030D01*
X159230326Y-91748028D01*
X159137150Y-91654852D01*
X159019735Y-91595026D01*
X159019737Y-91595026D01*
X158889583Y-91574412D01*
X158889581Y-91574412D01*
X158759427Y-91595026D01*
X158642013Y-91654852D01*
X158548837Y-91748028D01*
X158489011Y-91865442D01*
X158468397Y-91995596D01*
X158468397Y-91995597D01*
X158489011Y-92125751D01*
X158546729Y-92239028D01*
X158548836Y-92243163D01*
X158600774Y-92295101D01*
X158622514Y-92341720D01*
X158622800Y-92348275D01*
X158622800Y-93417739D01*
X158605207Y-93466077D01*
X158600774Y-93470913D01*
X158549255Y-93522431D01*
X158489429Y-93639845D01*
X158468815Y-93769999D01*
X158468815Y-93770000D01*
X158489429Y-93900154D01*
X158549255Y-94017568D01*
X158642431Y-94110744D01*
X158642433Y-94110745D01*
X158642434Y-94110746D01*
X158682766Y-94131296D01*
X158717848Y-94168917D01*
X158720540Y-94220286D01*
X158689583Y-94261368D01*
X158648626Y-94273500D01*
X157712260Y-94273500D01*
X157663922Y-94255907D01*
X157659086Y-94251474D01*
X157644479Y-94236867D01*
X157622739Y-94190247D01*
X157636053Y-94140560D01*
X157678190Y-94111055D01*
X157697652Y-94108493D01*
X157737734Y-94108493D01*
X157744354Y-94107444D01*
X157835149Y-94093066D01*
X157864784Y-94077966D01*
X157952564Y-94033240D01*
X158045744Y-93940060D01*
X158105569Y-93822647D01*
X158120998Y-93725231D01*
X158120997Y-92909758D01*
X158120996Y-92909751D01*
X158105570Y-92812342D01*
X158054014Y-92711159D01*
X158045744Y-92694928D01*
X158045743Y-92694927D01*
X158045742Y-92694925D01*
X157952566Y-92601749D01*
X157951992Y-92601332D01*
X157951666Y-92600849D01*
X157948380Y-92597563D01*
X157949019Y-92596923D01*
X157923230Y-92558684D01*
X157920998Y-92540497D01*
X157920998Y-91497442D01*
X157938591Y-91449104D01*
X157983140Y-91423384D01*
X157996198Y-91422242D01*
X158770001Y-91422242D01*
X158794841Y-91417300D01*
X158844525Y-91407418D01*
X158907703Y-91365203D01*
X158949918Y-91302025D01*
X158964742Y-91227500D01*
X158964742Y-88992500D01*
X158962107Y-88979255D01*
X158949918Y-88917976D01*
X158949917Y-88917974D01*
X158937115Y-88898815D01*
X158907703Y-88854797D01*
X158844525Y-88812582D01*
X158844523Y-88812581D01*
X158770001Y-88797758D01*
X158770000Y-88797758D01*
X158366037Y-88797758D01*
X158317699Y-88780165D01*
X158291979Y-88735616D01*
X158300912Y-88684958D01*
X158312863Y-88669384D01*
X158619221Y-88363026D01*
X158665841Y-88341286D01*
X158672395Y-88341000D01*
X162683466Y-88341000D01*
X162686744Y-88341143D01*
X162688379Y-88341286D01*
X162730179Y-88344943D01*
X162772301Y-88333655D01*
X162775484Y-88332949D01*
X162818428Y-88325378D01*
X162823045Y-88322711D01*
X162841184Y-88315197D01*
X162846336Y-88313818D01*
X162882045Y-88288814D01*
X162884814Y-88287050D01*
X162892657Y-88282522D01*
X162922572Y-88265251D01*
X162950620Y-88231822D01*
X162952787Y-88229458D01*
X163129458Y-88052787D01*
X163131822Y-88050620D01*
X163165251Y-88022572D01*
X163187050Y-87984814D01*
X163188814Y-87982045D01*
X163197722Y-87969323D01*
X163213818Y-87946336D01*
X163215198Y-87941184D01*
X163222711Y-87923046D01*
X163225378Y-87918428D01*
X163232950Y-87875480D01*
X163233656Y-87872296D01*
X163244943Y-87830178D01*
X163241239Y-87787836D01*
X163241143Y-87786743D01*
X163241000Y-87783465D01*
X163241000Y-86372394D01*
X163258593Y-86324056D01*
X163263026Y-86319220D01*
X163439220Y-86143026D01*
X163485840Y-86121286D01*
X163492394Y-86121000D01*
X163531281Y-86121000D01*
X163579619Y-86138593D01*
X163593164Y-86153475D01*
X163653980Y-86241583D01*
X163653981Y-86241584D01*
X163653984Y-86241588D01*
X163655881Y-86243730D01*
X163656438Y-86245144D01*
X163656565Y-86245327D01*
X163656522Y-86245356D01*
X163674756Y-86291581D01*
X163658458Y-86340371D01*
X163614611Y-86367269D01*
X163614255Y-86367341D01*
X163600476Y-86370081D01*
X163600474Y-86370082D01*
X163537297Y-86412297D01*
X163495082Y-86475474D01*
X163495081Y-86475476D01*
X163484000Y-86531187D01*
X163484000Y-87568812D01*
X163495081Y-87624523D01*
X163495082Y-87624525D01*
X163537297Y-87687703D01*
X163600475Y-87729918D01*
X163624762Y-87734749D01*
X163656187Y-87741000D01*
X163656188Y-87741000D01*
X164693813Y-87741000D01*
X164722714Y-87735251D01*
X164749525Y-87729918D01*
X164812703Y-87687703D01*
X164854918Y-87624525D01*
X164866000Y-87568812D01*
X164866000Y-86531188D01*
X164854918Y-86475475D01*
X164812703Y-86412297D01*
X164749525Y-86370082D01*
X164749523Y-86370081D01*
X164735745Y-86367341D01*
X164691768Y-86340655D01*
X164675234Y-86291945D01*
X164693878Y-86244003D01*
X164694123Y-86243724D01*
X164696013Y-86241588D01*
X164696020Y-86241583D01*
X164791344Y-86103482D01*
X164850848Y-85946582D01*
X164871075Y-85780000D01*
X164850848Y-85613418D01*
X164794656Y-85465251D01*
X164791345Y-85456520D01*
X164791340Y-85456512D01*
X164696023Y-85318421D01*
X164696022Y-85318419D01*
X164696020Y-85318417D01*
X164696016Y-85318413D01*
X164696011Y-85318408D01*
X164570419Y-85207144D01*
X164570413Y-85207140D01*
X164421835Y-85129160D01*
X164421832Y-85129159D01*
X164258903Y-85089000D01*
X164091097Y-85089000D01*
X163928168Y-85129159D01*
X163928164Y-85129160D01*
X163779586Y-85207140D01*
X163779580Y-85207144D01*
X163653988Y-85318408D01*
X163653980Y-85318416D01*
X163653980Y-85318417D01*
X163593167Y-85406519D01*
X163551232Y-85436305D01*
X163531281Y-85439000D01*
X163336534Y-85439000D01*
X163333256Y-85438857D01*
X163327348Y-85438340D01*
X163289822Y-85435057D01*
X163289821Y-85435057D01*
X163289819Y-85435057D01*
X163247702Y-85446341D01*
X163244500Y-85447051D01*
X163201573Y-85454621D01*
X163196949Y-85457291D01*
X163178821Y-85464799D01*
X163175681Y-85465641D01*
X163173663Y-85466182D01*
X163173659Y-85466184D01*
X163137950Y-85491186D01*
X163135185Y-85492948D01*
X163097426Y-85514750D01*
X163069397Y-85548154D01*
X163067180Y-85550573D01*
X162670566Y-85947185D01*
X162668148Y-85949402D01*
X162634750Y-85977426D01*
X162612945Y-86015190D01*
X162611183Y-86017956D01*
X162586182Y-86053663D01*
X162584801Y-86058819D01*
X162577291Y-86076949D01*
X162574621Y-86081572D01*
X162574621Y-86081573D01*
X162567054Y-86124493D01*
X162566344Y-86127696D01*
X162555057Y-86169818D01*
X162555057Y-86169822D01*
X162558857Y-86213254D01*
X162559000Y-86216532D01*
X162559000Y-87583800D01*
X162541407Y-87632138D01*
X162496858Y-87657858D01*
X162483800Y-87659000D01*
X158516530Y-87659000D01*
X158513252Y-87658857D01*
X158469822Y-87655057D01*
X158469818Y-87655057D01*
X158427696Y-87666344D01*
X158424499Y-87667052D01*
X158413419Y-87669006D01*
X158381573Y-87674621D01*
X158381572Y-87674621D01*
X158376949Y-87677291D01*
X158358821Y-87684799D01*
X158355681Y-87685641D01*
X158353663Y-87686182D01*
X158317956Y-87711183D01*
X158315190Y-87712945D01*
X158277426Y-87734750D01*
X158249402Y-87768148D01*
X158247185Y-87770566D01*
X158152627Y-87865125D01*
X157701393Y-88316360D01*
X157679820Y-88337933D01*
X157616361Y-88401391D01*
X157616358Y-88401395D01*
X157606335Y-88422889D01*
X157599786Y-88434233D01*
X157586182Y-88453663D01*
X157586182Y-88453664D01*
X157580043Y-88476572D01*
X157575562Y-88488883D01*
X157565538Y-88510380D01*
X157565537Y-88510386D01*
X157563469Y-88534009D01*
X157561194Y-88546912D01*
X157555056Y-88569818D01*
X157555056Y-88569820D01*
X157557123Y-88593449D01*
X157557123Y-88606551D01*
X157555057Y-88630174D01*
X157555057Y-88630183D01*
X157561194Y-88653087D01*
X157563470Y-88665989D01*
X157566112Y-88696171D01*
X157565591Y-88696216D01*
X157566500Y-88703109D01*
X157566500Y-88722558D01*
X157548907Y-88770896D01*
X157504358Y-88796616D01*
X157491300Y-88797758D01*
X157484312Y-88797758D01*
X157438965Y-88781253D01*
X157438860Y-88781412D01*
X157438213Y-88780980D01*
X157435974Y-88780165D01*
X157433231Y-88777651D01*
X157432704Y-88777299D01*
X157432703Y-88777297D01*
X157369525Y-88735082D01*
X157369523Y-88735081D01*
X157295001Y-88720258D01*
X157295000Y-88720258D01*
X156690508Y-88720258D01*
X156642170Y-88702665D01*
X156616450Y-88658116D01*
X156625383Y-88607458D01*
X156627982Y-88603278D01*
X156635228Y-88592435D01*
X156650339Y-88569818D01*
X156652497Y-88566589D01*
X156673235Y-88462332D01*
X156673134Y-88461826D01*
X156669445Y-88443278D01*
X156668000Y-88428607D01*
X156668000Y-86880000D01*
X161528815Y-86880000D01*
X161549429Y-87010154D01*
X161609255Y-87127568D01*
X161702431Y-87220744D01*
X161702433Y-87220745D01*
X161702434Y-87220746D01*
X161819845Y-87280570D01*
X161819847Y-87280571D01*
X161919827Y-87296406D01*
X161949999Y-87301185D01*
X161950000Y-87301185D01*
X161950001Y-87301185D01*
X161970615Y-87297919D01*
X162080153Y-87280571D01*
X162197566Y-87220746D01*
X162290746Y-87127566D01*
X162350571Y-87010153D01*
X162371185Y-86880000D01*
X162350571Y-86749847D01*
X162290746Y-86632434D01*
X162290745Y-86632433D01*
X162290744Y-86632431D01*
X162197568Y-86539255D01*
X162080153Y-86479429D01*
X162080155Y-86479429D01*
X161950001Y-86458815D01*
X161949999Y-86458815D01*
X161819845Y-86479429D01*
X161702431Y-86539255D01*
X161609255Y-86632431D01*
X161549429Y-86749845D01*
X161528815Y-86879999D01*
X161528815Y-86880000D01*
X156668000Y-86880000D01*
X156668000Y-86421026D01*
X156685593Y-86372688D01*
X156690026Y-86367852D01*
X156963652Y-86094226D01*
X157010272Y-86072486D01*
X157016826Y-86072200D01*
X160135405Y-86072200D01*
X160183743Y-86089793D01*
X160205717Y-86120733D01*
X160208656Y-86128482D01*
X160208657Y-86128484D01*
X160208659Y-86128487D01*
X160303976Y-86266578D01*
X160303978Y-86266580D01*
X160303980Y-86266583D01*
X160303983Y-86266585D01*
X160303988Y-86266591D01*
X160429580Y-86377855D01*
X160429582Y-86377856D01*
X160429584Y-86377858D01*
X160578168Y-86455841D01*
X160741097Y-86496000D01*
X160741100Y-86496000D01*
X160908900Y-86496000D01*
X160908903Y-86496000D01*
X161071832Y-86455841D01*
X161220416Y-86377858D01*
X161346020Y-86266583D01*
X161441344Y-86128482D01*
X161500848Y-85971582D01*
X161521075Y-85805000D01*
X161500848Y-85638418D01*
X161457977Y-85525377D01*
X161441345Y-85481520D01*
X161441340Y-85481512D01*
X161346023Y-85343421D01*
X161346022Y-85343419D01*
X161346020Y-85343417D01*
X161346016Y-85343413D01*
X161346011Y-85343408D01*
X161220422Y-85232147D01*
X161220420Y-85232145D01*
X161220416Y-85232142D01*
X161220410Y-85232139D01*
X161220051Y-85231891D01*
X161219911Y-85231694D01*
X161217012Y-85229126D01*
X161217608Y-85228452D01*
X161190262Y-85189954D01*
X161194398Y-85138681D01*
X161217381Y-85111290D01*
X161217012Y-85110874D01*
X161219813Y-85108392D01*
X161220051Y-85108109D01*
X161220405Y-85107863D01*
X161220416Y-85107858D01*
X161346020Y-84996583D01*
X161441344Y-84858482D01*
X161500848Y-84701582D01*
X161521075Y-84535000D01*
X161500848Y-84368418D01*
X161446536Y-84225207D01*
X161441345Y-84211520D01*
X161441340Y-84211512D01*
X161346023Y-84073421D01*
X161346022Y-84073419D01*
X161346020Y-84073417D01*
X161346016Y-84073413D01*
X161346011Y-84073408D01*
X161220422Y-83962147D01*
X161220420Y-83962145D01*
X161220416Y-83962142D01*
X161220410Y-83962139D01*
X161220051Y-83961891D01*
X161219911Y-83961694D01*
X161217012Y-83959126D01*
X161217608Y-83958452D01*
X161190262Y-83919954D01*
X161194398Y-83868681D01*
X161217381Y-83841290D01*
X161217012Y-83840874D01*
X161219813Y-83838392D01*
X161220051Y-83838109D01*
X161220405Y-83837863D01*
X161220416Y-83837858D01*
X161346020Y-83726583D01*
X161441344Y-83588482D01*
X161500848Y-83431582D01*
X161521075Y-83265000D01*
X161500848Y-83098418D01*
X161441344Y-82941518D01*
X161433351Y-82929938D01*
X161346023Y-82803421D01*
X161346022Y-82803419D01*
X161346020Y-82803417D01*
X161346016Y-82803413D01*
X161346011Y-82803408D01*
X161220419Y-82692144D01*
X161220413Y-82692140D01*
X161071835Y-82614160D01*
X161071832Y-82614159D01*
X160908903Y-82574000D01*
X160741097Y-82574000D01*
X160579280Y-82613885D01*
X160578164Y-82614160D01*
X160429586Y-82692140D01*
X160429580Y-82692144D01*
X160303988Y-82803408D01*
X160303976Y-82803421D01*
X160208659Y-82941512D01*
X160208654Y-82941520D01*
X160149153Y-83098414D01*
X160149152Y-83098416D01*
X160149152Y-83098418D01*
X160128925Y-83265000D01*
X160149152Y-83431582D01*
X160149152Y-83431584D01*
X160149153Y-83431585D01*
X160208654Y-83588479D01*
X160208659Y-83588487D01*
X160303976Y-83726578D01*
X160303978Y-83726580D01*
X160303980Y-83726583D01*
X160303983Y-83726585D01*
X160303988Y-83726591D01*
X160429581Y-83837856D01*
X160429955Y-83838114D01*
X160430094Y-83838310D01*
X160432988Y-83840874D01*
X160432392Y-83841546D01*
X160459740Y-83880054D01*
X160455597Y-83931327D01*
X160432619Y-83958710D01*
X160432988Y-83959126D01*
X160430193Y-83961601D01*
X160429955Y-83961886D01*
X160429581Y-83962143D01*
X160303988Y-84073408D01*
X160303976Y-84073421D01*
X160208659Y-84211512D01*
X160208656Y-84211518D01*
X160205717Y-84219265D01*
X160172129Y-84258223D01*
X160135405Y-84267800D01*
X156808729Y-84267800D01*
X156794058Y-84266355D01*
X156775000Y-84262564D01*
X156670745Y-84283302D01*
X156670743Y-84283303D01*
X156582357Y-84342359D01*
X156571560Y-84358518D01*
X156562210Y-84369910D01*
X156110574Y-84821547D01*
X156063954Y-84843287D01*
X156014267Y-84829973D01*
X155984762Y-84787836D01*
X155982200Y-84768373D01*
X155982200Y-83475610D01*
X155999793Y-83427272D01*
X156022450Y-83409025D01*
X156110416Y-83362858D01*
X156236020Y-83251583D01*
X156288112Y-83176115D01*
X156330050Y-83146328D01*
X156381323Y-83150467D01*
X156411888Y-83176115D01*
X156463976Y-83251578D01*
X156463978Y-83251580D01*
X156463980Y-83251583D01*
X156463983Y-83251585D01*
X156463988Y-83251591D01*
X156589580Y-83362855D01*
X156589586Y-83362859D01*
X156715854Y-83429130D01*
X156738168Y-83440841D01*
X156901097Y-83481000D01*
X156901100Y-83481000D01*
X157068900Y-83481000D01*
X157068903Y-83481000D01*
X157231832Y-83440841D01*
X157380416Y-83362858D01*
X157506020Y-83251583D01*
X157601344Y-83113482D01*
X157660848Y-82956582D01*
X157681075Y-82790000D01*
X157660848Y-82623418D01*
X157601344Y-82466518D01*
X157581651Y-82437987D01*
X157506023Y-82328421D01*
X157506022Y-82328419D01*
X157506020Y-82328417D01*
X157506016Y-82328413D01*
X157506011Y-82328408D01*
X157380419Y-82217144D01*
X157380413Y-82217140D01*
X157231835Y-82139160D01*
X157231832Y-82139159D01*
X157068903Y-82099000D01*
X156901097Y-82099000D01*
X156750242Y-82136183D01*
X156738164Y-82139160D01*
X156589586Y-82217140D01*
X156589580Y-82217144D01*
X156463988Y-82328408D01*
X156463979Y-82328418D01*
X156411888Y-82403885D01*
X156369950Y-82433671D01*
X156318677Y-82429532D01*
X156288112Y-82403885D01*
X156254369Y-82355000D01*
X156236020Y-82328417D01*
X156236015Y-82328413D01*
X156236011Y-82328408D01*
X156110419Y-82217144D01*
X156110413Y-82217140D01*
X155961835Y-82139160D01*
X155961832Y-82139159D01*
X155798903Y-82099000D01*
X155631097Y-82099000D01*
X155480242Y-82136183D01*
X155468164Y-82139160D01*
X155319586Y-82217140D01*
X155319580Y-82217144D01*
X155193988Y-82328408D01*
X155193979Y-82328418D01*
X155141888Y-82403885D01*
X155099950Y-82433671D01*
X155048677Y-82429532D01*
X155018112Y-82403885D01*
X154984369Y-82355000D01*
X154966020Y-82328417D01*
X154966015Y-82328413D01*
X154966011Y-82328408D01*
X154840419Y-82217144D01*
X154840413Y-82217140D01*
X154691835Y-82139160D01*
X154691832Y-82139159D01*
X154528903Y-82099000D01*
X154361097Y-82099000D01*
X154210242Y-82136183D01*
X154198164Y-82139160D01*
X154049586Y-82217140D01*
X154049580Y-82217144D01*
X153923988Y-82328408D01*
X153923976Y-82328421D01*
X153828659Y-82466512D01*
X153828654Y-82466520D01*
X153769153Y-82623414D01*
X153769152Y-82623416D01*
X153769152Y-82623418D01*
X153748925Y-82790000D01*
X153769152Y-82956582D01*
X153769152Y-82956584D01*
X153769153Y-82956585D01*
X153828654Y-83113479D01*
X153828659Y-83113487D01*
X153923976Y-83251578D01*
X153923978Y-83251580D01*
X153923980Y-83251583D01*
X153923983Y-83251585D01*
X153923988Y-83251591D01*
X154049580Y-83362855D01*
X154049582Y-83362856D01*
X154049584Y-83362858D01*
X154137548Y-83409025D01*
X154172172Y-83447065D01*
X154177800Y-83475610D01*
X154177800Y-85258374D01*
X154160207Y-85306712D01*
X154115658Y-85332432D01*
X154065000Y-85323499D01*
X154049426Y-85311548D01*
X150282788Y-81544910D01*
X150273435Y-81533513D01*
X150262641Y-81517358D01*
X150227746Y-81494043D01*
X150174259Y-81458304D01*
X150174255Y-81458302D01*
X150095887Y-81442713D01*
X150070000Y-81437564D01*
X150069999Y-81437564D01*
X150050942Y-81441355D01*
X150036271Y-81442800D01*
X144683729Y-81442800D01*
X144669058Y-81441355D01*
X144650000Y-81437564D01*
X144545745Y-81458302D01*
X144545743Y-81458303D01*
X144457357Y-81517359D01*
X144446560Y-81533518D01*
X144437210Y-81544910D01*
X143839910Y-82142210D01*
X143828518Y-82151560D01*
X143812362Y-82162355D01*
X143812359Y-82162359D01*
X143797450Y-82184671D01*
X143753302Y-82250744D01*
X143737883Y-82328257D01*
X143711196Y-82372233D01*
X143699077Y-82380171D01*
X143609580Y-82427144D01*
X143483988Y-82538408D01*
X143483979Y-82538418D01*
X143431888Y-82613885D01*
X143389950Y-82643671D01*
X143338677Y-82639532D01*
X143308112Y-82613885D01*
X143280581Y-82574000D01*
X143256020Y-82538417D01*
X143256015Y-82538413D01*
X143256011Y-82538408D01*
X143130419Y-82427144D01*
X143130413Y-82427140D01*
X142981835Y-82349160D01*
X142981832Y-82349159D01*
X142818903Y-82309000D01*
X142651097Y-82309000D01*
X142488168Y-82349159D01*
X142488164Y-82349160D01*
X142339586Y-82427140D01*
X142339580Y-82427144D01*
X142213988Y-82538408D01*
X142213976Y-82538421D01*
X142118659Y-82676512D01*
X142118654Y-82676520D01*
X142059153Y-82833414D01*
X142059152Y-82833416D01*
X142059152Y-82833418D01*
X142038925Y-83000000D01*
X142059152Y-83166582D01*
X142059152Y-83166584D01*
X142059153Y-83166585D01*
X142118654Y-83323479D01*
X142118659Y-83323487D01*
X142213976Y-83461578D01*
X142213978Y-83461580D01*
X142213980Y-83461583D01*
X142213983Y-83461585D01*
X142213988Y-83461591D01*
X142339580Y-83572855D01*
X142339582Y-83572856D01*
X142339584Y-83572858D01*
X142422311Y-83616276D01*
X142456936Y-83654317D01*
X142462564Y-83682862D01*
X142462564Y-83684999D01*
X142483302Y-83789255D01*
X142483304Y-83789259D01*
X142504851Y-83821506D01*
X142542358Y-83877641D01*
X142558513Y-83888435D01*
X142569910Y-83897788D01*
X142786548Y-84114426D01*
X142808288Y-84161046D01*
X142794974Y-84210733D01*
X142752837Y-84240238D01*
X142733374Y-84242800D01*
X142192260Y-84242800D01*
X142143922Y-84225207D01*
X142139096Y-84220784D01*
X142087566Y-84169254D01*
X141970153Y-84109429D01*
X141970155Y-84109429D01*
X141840001Y-84088815D01*
X141839999Y-84088815D01*
X141709845Y-84109429D01*
X141592431Y-84169255D01*
X141499255Y-84262431D01*
X141439429Y-84379845D01*
X141418815Y-84509999D01*
X141418815Y-84510000D01*
X137896000Y-84510000D01*
X137896000Y-84170925D01*
X137895627Y-84162383D01*
X137894113Y-84145068D01*
X137894113Y-84145066D01*
X137868600Y-84064143D01*
X137868598Y-84064139D01*
X137862628Y-84053798D01*
X137853697Y-84003139D01*
X137879418Y-83958592D01*
X137927754Y-83941000D01*
X138283466Y-83941000D01*
X138286744Y-83941143D01*
X138288763Y-83941319D01*
X138330179Y-83944943D01*
X138372301Y-83933655D01*
X138375484Y-83932949D01*
X138418428Y-83925378D01*
X138423045Y-83922711D01*
X138441184Y-83915197D01*
X138446336Y-83913818D01*
X138482045Y-83888814D01*
X138484814Y-83887050D01*
X138493029Y-83882307D01*
X138522572Y-83865251D01*
X138550615Y-83831828D01*
X138552804Y-83829442D01*
X138615061Y-83767185D01*
X138846640Y-83535604D01*
X138849041Y-83533404D01*
X138882451Y-83505372D01*
X138904260Y-83467595D01*
X138906020Y-83464835D01*
X138931019Y-83429135D01*
X138932399Y-83423985D01*
X138939914Y-83405843D01*
X138942577Y-83401230D01*
X138942577Y-83401229D01*
X138942578Y-83401228D01*
X138950151Y-83358270D01*
X138950851Y-83355116D01*
X138962143Y-83312978D01*
X138958343Y-83269543D01*
X138958200Y-83266265D01*
X138958200Y-83253864D01*
X138975793Y-83205526D01*
X138999255Y-83186863D01*
X139089766Y-83140746D01*
X139182946Y-83047566D01*
X139242771Y-82930153D01*
X139258200Y-82832737D01*
X139258199Y-82017264D01*
X139258198Y-82017257D01*
X139242772Y-81919848D01*
X139182944Y-81802431D01*
X139089768Y-81709255D01*
X138972353Y-81649429D01*
X138972355Y-81649429D01*
X138923645Y-81641714D01*
X138874937Y-81634000D01*
X138874935Y-81634000D01*
X138359469Y-81634000D01*
X138359457Y-81634001D01*
X138262048Y-81649427D01*
X138144631Y-81709255D01*
X138051455Y-81802431D01*
X137991629Y-81919845D01*
X137976200Y-82017260D01*
X137976200Y-82832730D01*
X137976201Y-82832742D01*
X137991627Y-82930151D01*
X138027296Y-83000154D01*
X138051454Y-83047566D01*
X138134514Y-83130626D01*
X138156254Y-83177245D01*
X138142940Y-83226933D01*
X138100804Y-83256438D01*
X138081340Y-83259000D01*
X137270861Y-83259000D01*
X137222523Y-83241407D01*
X137196803Y-83196858D01*
X137205736Y-83146200D01*
X137217687Y-83130626D01*
X137230744Y-83117568D01*
X137230746Y-83117566D01*
X137290571Y-83000153D01*
X137311185Y-82870000D01*
X137290571Y-82739847D01*
X137230746Y-82622434D01*
X137230745Y-82622433D01*
X137230744Y-82622431D01*
X137137568Y-82529255D01*
X137020153Y-82469429D01*
X137020155Y-82469429D01*
X136890001Y-82448815D01*
X136889999Y-82448815D01*
X136759845Y-82469429D01*
X136642431Y-82529255D01*
X136549255Y-82622431D01*
X136489429Y-82739845D01*
X136468815Y-82869999D01*
X136468815Y-82870000D01*
X136489429Y-83000154D01*
X136549255Y-83117568D01*
X136642431Y-83210744D01*
X136642433Y-83210745D01*
X136642434Y-83210746D01*
X136702610Y-83241407D01*
X136725480Y-83253060D01*
X136760562Y-83290681D01*
X136763254Y-83342050D01*
X136744514Y-83373238D01*
X136350566Y-83767185D01*
X136348148Y-83769402D01*
X136314750Y-83797426D01*
X136292945Y-83835190D01*
X136291183Y-83837955D01*
X136267396Y-83871930D01*
X136225260Y-83901437D01*
X136205794Y-83904000D01*
X134570925Y-83904000D01*
X134562383Y-83904373D01*
X134545068Y-83905886D01*
X134464139Y-83931401D01*
X134453798Y-83937372D01*
X134403139Y-83946303D01*
X134358592Y-83920582D01*
X134341000Y-83872246D01*
X134341000Y-83172395D01*
X134358593Y-83124057D01*
X134363014Y-83119232D01*
X134571342Y-82910903D01*
X134617961Y-82889165D01*
X134667648Y-82902479D01*
X134691518Y-82929938D01*
X134751453Y-83047566D01*
X134844631Y-83140744D01*
X134844633Y-83140745D01*
X134844634Y-83140746D01*
X134962045Y-83200570D01*
X134962047Y-83200571D01*
X135059463Y-83216000D01*
X135574936Y-83215999D01*
X135581556Y-83214950D01*
X135672351Y-83200572D01*
X135699262Y-83186860D01*
X135789766Y-83140746D01*
X135882946Y-83047566D01*
X135942771Y-82930153D01*
X135958200Y-82832737D01*
X135958199Y-82017264D01*
X135958198Y-82017257D01*
X135942772Y-81919848D01*
X135882944Y-81802431D01*
X135789768Y-81709255D01*
X135672353Y-81649429D01*
X135672355Y-81649429D01*
X135623645Y-81641714D01*
X135574937Y-81634000D01*
X135574935Y-81634000D01*
X135059469Y-81634000D01*
X135059457Y-81634001D01*
X134962048Y-81649427D01*
X134844631Y-81709255D01*
X134751455Y-81802431D01*
X134691629Y-81919845D01*
X134691629Y-81919847D01*
X134676201Y-82017260D01*
X134675738Y-82020181D01*
X134674019Y-82019908D01*
X134655090Y-82061489D01*
X134608669Y-82083651D01*
X134601434Y-82084000D01*
X134591534Y-82084000D01*
X134588256Y-82083857D01*
X134582348Y-82083340D01*
X134544822Y-82080057D01*
X134544821Y-82080057D01*
X134544819Y-82080057D01*
X134502702Y-82091341D01*
X134499500Y-82092051D01*
X134456573Y-82099621D01*
X134451949Y-82102291D01*
X134433821Y-82109799D01*
X134430681Y-82110641D01*
X134428663Y-82111182D01*
X134392956Y-82136183D01*
X134390190Y-82137945D01*
X134352426Y-82159750D01*
X134340151Y-82174379D01*
X134295603Y-82200098D01*
X134244945Y-82191164D01*
X134211881Y-82151758D01*
X134211882Y-82100319D01*
X134212687Y-82098205D01*
X134215139Y-82092051D01*
X134218211Y-82084342D01*
X134316584Y-81730035D01*
X134376073Y-81367170D01*
X134392096Y-81071627D01*
X134412281Y-81024315D01*
X134458156Y-81001044D01*
X134467186Y-81000500D01*
X162532814Y-81000500D01*
X162581152Y-81018093D01*
G37*
%TD.AperFunction*%
%TA.AperFunction,Conductor*%
G36*
X164895138Y-107464835D02*
G01*
X164920858Y-107509384D01*
X164922000Y-107522442D01*
X164922000Y-109624605D01*
X164904407Y-109672943D01*
X164899974Y-109677779D01*
X163660779Y-110916974D01*
X163614159Y-110938714D01*
X163607605Y-110939000D01*
X162618719Y-110939000D01*
X162570381Y-110921407D01*
X162556835Y-110906524D01*
X162496020Y-110818417D01*
X162496014Y-110818412D01*
X162496011Y-110818408D01*
X162370419Y-110707144D01*
X162370413Y-110707140D01*
X162221835Y-110629160D01*
X162221832Y-110629159D01*
X162058903Y-110589000D01*
X161891097Y-110589000D01*
X161732164Y-110628174D01*
X161728164Y-110629160D01*
X161579586Y-110707140D01*
X161579580Y-110707144D01*
X161453988Y-110818408D01*
X161453976Y-110818421D01*
X161358659Y-110956512D01*
X161358654Y-110956520D01*
X161299153Y-111113414D01*
X161299152Y-111113416D01*
X161299152Y-111113418D01*
X161278925Y-111280000D01*
X161299152Y-111446582D01*
X161299152Y-111446584D01*
X161299153Y-111446585D01*
X161358654Y-111603479D01*
X161358659Y-111603487D01*
X161453979Y-111741583D01*
X161455881Y-111743730D01*
X161456440Y-111745147D01*
X161456564Y-111745327D01*
X161456522Y-111745355D01*
X161474756Y-111791581D01*
X161458458Y-111840371D01*
X161414611Y-111867269D01*
X161414255Y-111867341D01*
X161400476Y-111870081D01*
X161400474Y-111870082D01*
X161337297Y-111912297D01*
X161295082Y-111975474D01*
X161295081Y-111975476D01*
X161284000Y-112031187D01*
X161284000Y-112133800D01*
X161266407Y-112182138D01*
X161221858Y-112207858D01*
X161208800Y-112209000D01*
X161122395Y-112209000D01*
X161074057Y-112191407D01*
X161069221Y-112186974D01*
X161052026Y-112169779D01*
X161030286Y-112123159D01*
X161030000Y-112116605D01*
X161030000Y-109790765D01*
X161047593Y-109742427D01*
X161092142Y-109716707D01*
X161093824Y-109716493D01*
X161093819Y-109716461D01*
X161194151Y-109700572D01*
X161215363Y-109689764D01*
X161311566Y-109640746D01*
X161404746Y-109547566D01*
X161464571Y-109430153D01*
X161480000Y-109332737D01*
X161479999Y-109243793D01*
X161497592Y-109195457D01*
X161542140Y-109169737D01*
X161592798Y-109178668D01*
X161608373Y-109190620D01*
X161773028Y-109355275D01*
X161794128Y-109396684D01*
X161799429Y-109430154D01*
X161859255Y-109547568D01*
X161952431Y-109640744D01*
X161952433Y-109640745D01*
X161952434Y-109640746D01*
X162069845Y-109700570D01*
X162069847Y-109700571D01*
X162167257Y-109715999D01*
X162199999Y-109721185D01*
X162200000Y-109721185D01*
X162200001Y-109721185D01*
X162232743Y-109715999D01*
X162330153Y-109700571D01*
X162447566Y-109640746D01*
X162540746Y-109547566D01*
X162600571Y-109430153D01*
X162621185Y-109300000D01*
X162600571Y-109169847D01*
X162600569Y-109169844D01*
X162600569Y-109169841D01*
X162599624Y-109166929D01*
X162599711Y-109164423D01*
X162599645Y-109164002D01*
X162599726Y-109163989D01*
X162601425Y-109115521D01*
X162635850Y-109077298D01*
X162671146Y-109068500D01*
X162961313Y-109068500D01*
X162979883Y-109064806D01*
X163017025Y-109057418D01*
X163080203Y-109015203D01*
X163122418Y-108952025D01*
X163133500Y-108896312D01*
X163133500Y-107868688D01*
X163122418Y-107812975D01*
X163080203Y-107749797D01*
X163017025Y-107707582D01*
X163017023Y-107707581D01*
X162961313Y-107696500D01*
X162961312Y-107696500D01*
X162610700Y-107696500D01*
X162562362Y-107678907D01*
X162536642Y-107634358D01*
X162535500Y-107621300D01*
X162535500Y-107522442D01*
X162553093Y-107474104D01*
X162597642Y-107448384D01*
X162610700Y-107447242D01*
X164846800Y-107447242D01*
X164895138Y-107464835D01*
G37*
%TD.AperFunction*%
%TA.AperFunction,Conductor*%
G36*
X133621791Y-83247361D02*
G01*
X133654618Y-83286964D01*
X133659000Y-83312259D01*
X133659000Y-84627605D01*
X133641407Y-84675943D01*
X133636974Y-84680779D01*
X133480779Y-84836974D01*
X133434159Y-84858714D01*
X133427605Y-84859000D01*
X133426200Y-84859000D01*
X133377862Y-84841407D01*
X133352142Y-84796858D01*
X133351000Y-84783800D01*
X133351000Y-84681187D01*
X133342838Y-84640153D01*
X133339918Y-84625475D01*
X133297703Y-84562297D01*
X133234525Y-84520082D01*
X133234523Y-84520081D01*
X133178813Y-84509000D01*
X133178812Y-84509000D01*
X132141188Y-84509000D01*
X132141187Y-84509000D01*
X132085476Y-84520081D01*
X132085474Y-84520082D01*
X132022297Y-84562297D01*
X131980082Y-84625474D01*
X131980081Y-84625476D01*
X131969000Y-84681187D01*
X131969000Y-85628800D01*
X131951407Y-85677138D01*
X131906858Y-85702858D01*
X131893800Y-85704000D01*
X131770925Y-85704000D01*
X131762383Y-85704373D01*
X131745068Y-85705886D01*
X131664140Y-85731401D01*
X131619591Y-85757121D01*
X131580736Y-85786554D01*
X131533413Y-85859826D01*
X131533411Y-85859830D01*
X131515823Y-85908156D01*
X131515818Y-85908174D01*
X131504000Y-85975195D01*
X131504000Y-87329075D01*
X131504373Y-87337617D01*
X131505886Y-87354931D01*
X131505887Y-87354934D01*
X131517523Y-87391843D01*
X131531401Y-87435859D01*
X131557121Y-87480408D01*
X131586554Y-87519263D01*
X131659826Y-87566586D01*
X131659830Y-87566588D01*
X131680618Y-87574153D01*
X131708166Y-87584180D01*
X131775195Y-87595999D01*
X131775196Y-87596000D01*
X136898742Y-87596000D01*
X136947080Y-87613593D01*
X136972800Y-87658142D01*
X136963867Y-87708800D01*
X136930523Y-87739354D01*
X136835133Y-87783834D01*
X136835125Y-87783840D01*
X136753840Y-87865125D01*
X136753834Y-87865133D01*
X136705252Y-87969318D01*
X136705250Y-87969323D01*
X136699000Y-88016804D01*
X136699000Y-88363195D01*
X136705250Y-88410676D01*
X136705252Y-88410681D01*
X136753834Y-88514866D01*
X136753840Y-88514874D01*
X136835125Y-88596159D01*
X136835133Y-88596165D01*
X136939318Y-88644747D01*
X136939323Y-88644749D01*
X136986802Y-88651000D01*
X136986805Y-88651000D01*
X137433195Y-88651000D01*
X137433198Y-88651000D01*
X137480677Y-88644749D01*
X137553695Y-88610700D01*
X137584866Y-88596165D01*
X137584866Y-88596164D01*
X137584870Y-88596163D01*
X137666163Y-88514870D01*
X137668254Y-88510386D01*
X137672809Y-88500619D01*
X137709182Y-88464246D01*
X137740963Y-88457200D01*
X138257600Y-88457200D01*
X138305938Y-88474793D01*
X138331658Y-88519342D01*
X138332800Y-88532400D01*
X138332800Y-89357939D01*
X138315207Y-89406277D01*
X138270658Y-89431997D01*
X138220000Y-89423064D01*
X138204426Y-89411113D01*
X138177568Y-89384255D01*
X138060153Y-89324429D01*
X138060155Y-89324429D01*
X137930001Y-89303815D01*
X137929999Y-89303815D01*
X137799845Y-89324429D01*
X137682431Y-89384255D01*
X137589255Y-89477431D01*
X137529429Y-89594845D01*
X137508815Y-89724999D01*
X137508815Y-89725000D01*
X137529429Y-89855154D01*
X137589255Y-89972568D01*
X137682431Y-90065744D01*
X137682433Y-90065745D01*
X137682434Y-90065746D01*
X137799845Y-90125570D01*
X137799847Y-90125571D01*
X137899827Y-90141406D01*
X137929999Y-90146185D01*
X137930000Y-90146185D01*
X137930001Y-90146185D01*
X137950615Y-90142919D01*
X138060153Y-90125571D01*
X138177566Y-90065746D01*
X138270746Y-89972566D01*
X138312610Y-89890402D01*
X138350230Y-89855322D01*
X138401599Y-89852630D01*
X138421381Y-89862010D01*
X138423506Y-89863430D01*
X138434910Y-89872788D01*
X138793917Y-90231795D01*
X138815657Y-90278415D01*
X138802343Y-90328102D01*
X138760206Y-90357607D01*
X138728979Y-90359243D01*
X138600001Y-90338815D01*
X138599999Y-90338815D01*
X138469845Y-90359429D01*
X138352433Y-90419254D01*
X138335543Y-90436145D01*
X138300913Y-90470774D01*
X138254295Y-90492514D01*
X138247740Y-90492800D01*
X134333725Y-90492800D01*
X134319054Y-90491355D01*
X134300000Y-90487565D01*
X134195744Y-90508302D01*
X134195741Y-90508304D01*
X134166917Y-90527564D01*
X134107357Y-90567360D01*
X134096560Y-90583518D01*
X134087210Y-90594910D01*
X133671347Y-91010774D01*
X133624728Y-91032514D01*
X133618174Y-91032800D01*
X131943724Y-91032800D01*
X131929053Y-91031355D01*
X131910000Y-91027565D01*
X131909998Y-91027565D01*
X131887348Y-91032070D01*
X131887344Y-91032071D01*
X131805745Y-91048302D01*
X131805740Y-91048304D01*
X131717357Y-91107359D01*
X131706560Y-91123518D01*
X131697210Y-91134910D01*
X131128874Y-91703247D01*
X131082254Y-91724987D01*
X131032567Y-91711673D01*
X131003062Y-91669536D01*
X131000500Y-91650073D01*
X131000500Y-89423812D01*
X131984000Y-89423812D01*
X131995081Y-89479523D01*
X131995082Y-89479525D01*
X132037297Y-89542703D01*
X132100475Y-89584918D01*
X132128331Y-89590459D01*
X132156187Y-89596000D01*
X132156188Y-89596000D01*
X133193813Y-89596000D01*
X133212383Y-89592306D01*
X133249525Y-89584918D01*
X133312703Y-89542703D01*
X133354918Y-89479525D01*
X133366000Y-89423812D01*
X133366000Y-88386188D01*
X133354918Y-88330475D01*
X133312703Y-88267297D01*
X133249525Y-88225082D01*
X133249523Y-88225081D01*
X133193813Y-88214000D01*
X133193812Y-88214000D01*
X132156188Y-88214000D01*
X132156187Y-88214000D01*
X132100476Y-88225081D01*
X132100474Y-88225082D01*
X132037297Y-88267297D01*
X131995082Y-88330474D01*
X131995081Y-88330476D01*
X131984000Y-88386187D01*
X131984000Y-89423812D01*
X131000500Y-89423812D01*
X131000500Y-84466200D01*
X131018093Y-84417862D01*
X131062642Y-84392142D01*
X131075700Y-84391000D01*
X131183852Y-84391000D01*
X131183855Y-84391000D01*
X131549408Y-84351243D01*
X131908521Y-84272197D01*
X132256982Y-84154786D01*
X132590706Y-84000389D01*
X132905780Y-83810815D01*
X133198511Y-83588287D01*
X133465466Y-83335414D01*
X133526486Y-83263575D01*
X133571187Y-83238124D01*
X133621791Y-83247361D01*
G37*
%TD.AperFunction*%
%TA.AperFunction,Conductor*%
G36*
X139568348Y-88307842D02*
G01*
X139578391Y-88316269D01*
X139670774Y-88408652D01*
X139692514Y-88455272D01*
X139692800Y-88461826D01*
X139692800Y-89146271D01*
X139691354Y-89160942D01*
X139687564Y-89180000D01*
X139689523Y-89189847D01*
X139708302Y-89284255D01*
X139708304Y-89284259D01*
X139729146Y-89315452D01*
X139767358Y-89372641D01*
X139783513Y-89383435D01*
X139794910Y-89392788D01*
X140232748Y-89830626D01*
X140254488Y-89877246D01*
X140241174Y-89926933D01*
X140199037Y-89956438D01*
X140179574Y-89959000D01*
X139308026Y-89959000D01*
X139259688Y-89941407D01*
X139254852Y-89936974D01*
X138889226Y-89571348D01*
X138867486Y-89524728D01*
X138867200Y-89518174D01*
X138867200Y-88404937D01*
X138884793Y-88356599D01*
X138929342Y-88330879D01*
X138976538Y-88337932D01*
X139079845Y-88390570D01*
X139079847Y-88390571D01*
X139179827Y-88406406D01*
X139209999Y-88411185D01*
X139210000Y-88411185D01*
X139210001Y-88411185D01*
X139234782Y-88407260D01*
X139340153Y-88390571D01*
X139457566Y-88330746D01*
X139472042Y-88316269D01*
X139518661Y-88294529D01*
X139568348Y-88307842D01*
G37*
%TD.AperFunction*%
%TD*%
%TA.AperFunction,Conductor*%
%TO.N,Net-(D10-A)*%
G36*
X137673138Y-84117593D02*
G01*
X137698858Y-84162142D01*
X137700000Y-84175200D01*
X137700000Y-87324800D01*
X137682407Y-87373138D01*
X137637858Y-87398858D01*
X137624800Y-87400000D01*
X131775200Y-87400000D01*
X131726862Y-87382407D01*
X131701142Y-87337858D01*
X131700000Y-87324800D01*
X131700000Y-85975200D01*
X131717593Y-85926862D01*
X131762142Y-85901142D01*
X131775200Y-85900000D01*
X132121280Y-85900000D01*
X132169618Y-85917593D01*
X132195338Y-85962142D01*
X132186405Y-86012800D01*
X132171146Y-86031489D01*
X132168088Y-86034197D01*
X132168084Y-86034201D01*
X132078086Y-86164586D01*
X132078083Y-86164590D01*
X132021906Y-86312720D01*
X132012060Y-86393800D01*
X132341877Y-86393800D01*
X132335000Y-86412694D01*
X132335000Y-86527306D01*
X132341877Y-86546200D01*
X132012061Y-86546200D01*
X132021906Y-86627279D01*
X132078083Y-86775409D01*
X132078086Y-86775413D01*
X132168084Y-86905798D01*
X132168089Y-86905803D01*
X132286672Y-87010858D01*
X132286674Y-87010859D01*
X132426954Y-87084483D01*
X132426955Y-87084484D01*
X132580787Y-87122400D01*
X132583800Y-87122400D01*
X132583800Y-86786578D01*
X132631564Y-86795000D01*
X132688436Y-86795000D01*
X132736200Y-86786578D01*
X132736200Y-87122400D01*
X132739213Y-87122400D01*
X132893044Y-87084484D01*
X132893045Y-87084483D01*
X133033325Y-87010859D01*
X133033327Y-87010858D01*
X133151910Y-86905803D01*
X133151915Y-86905798D01*
X133241913Y-86775413D01*
X133241916Y-86775409D01*
X133298093Y-86627279D01*
X133307939Y-86546200D01*
X132978123Y-86546200D01*
X132985000Y-86527306D01*
X132985000Y-86412694D01*
X132978123Y-86393800D01*
X133307939Y-86393800D01*
X133298093Y-86312720D01*
X133241916Y-86164590D01*
X133241913Y-86164586D01*
X133151915Y-86034201D01*
X133151911Y-86034197D01*
X133148854Y-86031489D01*
X133124339Y-85986267D01*
X133134627Y-85935867D01*
X133174905Y-85903871D01*
X133198720Y-85900000D01*
X134500000Y-85900000D01*
X134500000Y-84175200D01*
X134517593Y-84126862D01*
X134562142Y-84101142D01*
X134575200Y-84100000D01*
X137624800Y-84100000D01*
X137673138Y-84117593D01*
G37*
%TD.AperFunction*%
%TD*%
M02*
