M48
; DRILL file {KiCad 7.0.9} date Thu Mar 28 09:14:22 2024
; FORMAT={-:-/ absolute / inch / decimal}
; #@! TF.CreationDate,2024-03-28T09:14:22+03:00
; #@! TF.GenerationSoftware,Kicad,Pcbnew,7.0.9
; #@! TF.FileFunction,Plated,1,4,PTH
FMAT,2
INCH
; #@! TA.AperFunction,Plated,PTH,ViaDrill
T1C0.0118
; #@! TA.AperFunction,Plated,PTH,ComponentDrill
T2C0.0197
; #@! TA.AperFunction,Plated,PTH,ComponentDrill
T3C0.0236
; #@! TA.AperFunction,Plated,PTH,ComponentDrill
T4C0.0256
; #@! TA.AperFunction,Plated,PTH,ComponentDrill
T5C0.1260
%
G90
G05
T1
X5.1827Y-4.2154
X5.184Y-4.1303
X5.187Y-4.0094
X5.2681Y-4.0098
X5.285Y-3.787
X5.2909Y-4.0807
X5.2972Y-3.676
X5.3094Y-3.635
X5.3118Y-4.2382
X5.3154Y-3.7665
X5.3201Y-4.3031
X5.3205Y-4.276
X5.3228Y-4.1248
X5.3425Y-4.0433
X5.3435Y-4.1408
X5.3453Y-4.5071
X5.3598Y-4.1594
X5.376Y-3.8118
X5.3894Y-3.2626
X5.3965Y-4.2642
X5.3976Y-3.7087
X5.3988Y-4.0598
X5.3992Y-4.0831
X5.4Y-3.6776
X5.4098Y-4.5055
X5.4287Y-3.6776
X5.4291Y-3.7087
X5.4303Y-3.5325
X5.4551Y-3.313
X5.4567Y-3.5732
X5.4776Y-4.2705
X5.4807Y-3.4642
X5.4823Y-3.5039
X5.4833Y-3.9016
X5.4878Y-3.3878
X5.4885Y-3.3257
X5.489Y-4.0665
X5.4937Y-4.1106
X5.5157Y-3.6839
X5.5157Y-4.3425
X5.5161Y-4.2071
X5.533Y-3.7051
X5.5339Y-3.7484
X5.5413Y-3.9781
X5.5423Y-3.3502
X5.5457Y-4.0456
X5.5461Y-3.4201
X5.5512Y-3.5138
X5.5524Y-4.2705
X5.5555Y-3.7268
X5.5563Y-3.6657
X5.5567Y-3.315
X5.5583Y-3.6244
X5.563Y-4.1689
X5.5843Y-3.3272
X5.5854Y-3.4209
X5.6063Y-4.3079
X5.6063Y-4.3858
X5.6079Y-4.4642
X5.6146Y-3.9059
X5.6154Y-3.9335
X5.6258Y-3.3896
X5.663Y-3.4701
X5.6657Y-3.4955
X5.6886Y-3.6433
X5.689Y-3.4504
X5.6929Y-4.1028
X5.6929Y-4.1683
X5.6945Y-3.8614
X5.6976Y-3.6776
X5.7264Y-3.4154
X5.7451Y-4.1951
X5.7457Y-4.2675
X5.7567Y-3.8646
X5.7579Y-4.0386
X5.7717Y-3.5748
X5.7764Y-3.8831
X5.7862Y-3.2583
X5.7878Y-3.428
X5.7953Y-3.5827
X5.7961Y-3.5539
X5.7987Y-3.4511
X5.8122Y-3.2587
X5.8189Y-3.5748
X5.8314Y-4.0345
X5.8386Y-3.2583
X5.8453Y-4.013
X5.8748Y-3.5748
X5.905Y-3.8813
X5.9059Y-3.4205
X5.9236Y-3.8988
X5.9374Y-4.1252
X5.9386Y-4.2675
X5.9441Y-3.8421
X5.9602Y-3.4528
X5.9799Y-3.8579
X6.002Y-3.3764
X6.0118Y-4.0427
X6.0181Y-3.8337
X6.0248Y-3.4024
X6.0299Y-3.811
X6.0496Y-3.9287
X6.0752Y-3.928
X6.1016Y-4.1618
X6.1055Y-3.3008
X6.1177Y-4.187
X6.152Y-4.0394
X6.1598Y-3.7622
X6.1598Y-3.7862
X6.1606Y-3.8106
X6.1606Y-4.2642
X6.1791Y-3.9323
X6.1953Y-3.7221
X6.2154Y-4.0394
X6.2234Y-3.3494
X6.2457Y-4.3606
X6.2555Y-3.6219
X6.2555Y-3.6917
X6.276Y-3.3543
X6.2835Y-4.2717
X6.3Y-3.4925
X6.3004Y-3.55
X6.3008Y-3.5224
X6.326Y-3.4929
X6.3283Y-4.2149
X6.3299Y-3.6739
X6.3597Y-3.8118
X6.376Y-3.4205
X6.3858Y-4.3031
X6.3902Y-3.5677
X6.4Y-3.861
X6.4012Y-4.0236
X6.4079Y-3.7465
X6.4193Y-3.5024
X6.4335Y-4.2394
X6.4413Y-3.7689
X6.4413Y-4.3313
X6.4457Y-3.9319
X6.4461Y-3.9626
X6.4594Y-4.2402
X6.4689Y-3.5165
X6.4842Y-4.2402
T2
X5.063Y-3.189
X5.063Y-4.5276
X5.0907Y-3.1222
X5.0907Y-3.2558
X5.0907Y-4.4607
X5.0907Y-4.5944
X5.1575Y-3.0945
X5.1575Y-3.2835
X5.1575Y-4.4331
X5.1575Y-4.622
X5.2243Y-3.1222
X5.2243Y-3.2558
X5.2243Y-4.4607
X5.2243Y-4.5944
X5.252Y-3.189
X5.252Y-4.5276
X6.4409Y-3.189
X6.4409Y-4.5276
X6.4686Y-3.1222
X6.4686Y-3.2558
X6.4686Y-4.4607
X6.4686Y-4.5944
X6.5354Y-3.0945
X6.5354Y-3.2835
X6.5354Y-4.4331
X6.5354Y-4.622
X6.6022Y-3.1222
X6.6022Y-3.2558
X6.6022Y-4.4607
X6.6022Y-4.5944
X6.6299Y-3.189
X6.6299Y-4.5276
T4
X5.2146Y-4.3573
X5.2228Y-3.3543
X5.2228Y-3.4043
X5.2234Y-3.5002
X5.2234Y-3.5502
X5.2244Y-3.6461
X5.2244Y-3.6961
X5.2244Y-3.7461
X5.2646Y-4.3573
X5.4886Y-4.4614
X5.5386Y-4.4614
X5.5695Y-3.2677
X5.6195Y-3.2677
X5.6695Y-3.2677
X5.7195Y-3.2677
X6.0305Y-3.2594
X6.0805Y-3.2594
X6.1173Y-4.2756
X6.1173Y-4.3256
X6.1173Y-4.3756
X6.1173Y-4.4256
X6.1173Y-4.4756
X6.1305Y-3.2594
X6.1805Y-3.2594
X6.3317Y-3.2781
X6.3317Y-3.3281
X6.3317Y-3.3781
X6.3317Y-3.4281
X6.377Y-4.3811
X6.377Y-4.4311
X6.4636Y-3.3772
X6.4636Y-3.4272
T5
X5.1575Y-3.189
X5.1575Y-4.5276
X6.5354Y-3.189
X6.5354Y-4.5276
T3
G00X5.672Y-4.2819
M15
G01X5.672Y-4.3252
M16
G05
G00X5.672Y-4.4563
M15
G01X5.672Y-4.4799
M16
G05
G00X6.0122Y-4.2819
M15
G01X6.0122Y-4.3252
M16
G05
G00X6.0122Y-4.4563
M15
G01X6.0122Y-4.4799
M16
G05
T0
M30
